<svg xmlns="http://www.w3.org/2000/svg" fill="none" viewBox="0 0 160 160" height="160" width="160">
<path fill="#262523" d="M100.367 63.4727H88.6044C84.6836 63.4727 81.4902 66.6624 81.4902 70.5868V90.2772C81.4902 94.198 84.68 97.3913 88.6044 97.3913H89.2603C89.737 97.3913 90.1276 97.0007 90.1276 96.524C90.1276 96.0474 89.737 95.6567 89.2603 95.6567H88.6044C85.6405 95.6567 83.2249 93.2447 83.2249 90.2772V70.5833C83.2249 67.6193 85.6369 65.2073 88.6044 65.2073H100.367C103.331 65.2073 105.747 67.6193 105.747 70.5833V90.2736C105.747 93.2375 103.335 95.6531 100.367 95.6531H90.9949C90.5183 95.6531 90.1276 96.0438 90.1276 96.5204C90.1276 96.9971 90.5183 97.3878 90.9949 97.3878H100.367C104.288 97.3878 107.481 94.198 107.481 90.2736V70.5833C107.478 66.6624 104.288 63.4727 100.367 63.4727Z"></path>
<path fill="#262523" d="M94.6092 93.7399H100.017C102.121 93.7399 103.834 92.0268 103.834 89.923V70.9351C103.834 68.8313 102.121 67.1182 100.017 67.1182H88.9537C86.8499 67.1182 85.1367 68.8313 85.1367 70.9351V89.9265C85.1367 92.0303 86.8499 93.7435 88.9537 93.7435H92.8745C93.258 93.7435 93.5698 93.4317 93.5698 93.0482C93.5698 92.6647 93.258 92.3529 92.8745 92.3529H88.9537C87.6132 92.3529 86.5237 91.2634 86.5237 89.923V70.9351C86.5237 69.5947 87.6132 68.5052 88.9537 68.5052H100.017C101.358 68.5052 102.447 69.5947 102.447 70.9351V89.9265C102.447 91.267 101.358 92.3565 100.017 92.3565H94.6092C94.2257 92.3565 93.9139 92.6683 93.9139 93.0518C93.9139 93.4353 94.2257 93.7399 94.6092 93.7399Z"></path>
<path fill="#262523" d="M98.4835 88.8798H90.5558C90.3802 88.8798 90.2189 88.801 90.115 88.6612C90.0039 88.5143 89.839 88.4175 89.6562 88.3924C89.4734 88.3673 89.2907 88.4175 89.1437 88.5286C88.9968 88.6397 88.9 88.8046 88.8749 88.9873C88.8498 89.1701 88.9 89.3529 89.0111 89.4998C89.3803 89.9873 89.9465 90.2668 90.5558 90.2668H98.4835C99.5551 90.2668 100.426 89.3959 100.426 88.3243V72.5333C100.426 71.4617 99.5551 70.5908 98.4835 70.5908H90.5558C89.4842 70.5908 88.6133 71.4617 88.6133 72.5333V87.267C88.6133 87.6505 88.9251 87.9623 89.3086 87.9623C89.6921 87.9623 90.0039 87.6505 90.0039 87.267V72.5333C90.0039 72.2287 90.2512 71.9778 90.5594 71.9778H98.4871C98.7918 71.9778 99.0426 72.2251 99.0426 72.5333V88.3243C99.0391 88.6325 98.7882 88.8798 98.4835 88.8798Z"></path>
<path fill="#262523" d="M43.1219 93.0374C43.9498 92.7973 44.4659 91.973 44.4659 90.8799V67.8135C44.4659 67.43 44.1541 67.1182 43.7706 67.1182C43.3871 67.1182 43.0753 67.43 43.0753 67.8135V90.8835C43.0753 91.3816 42.8961 91.6576 42.7313 91.7078C42.5413 91.7615 42.1794 91.5752 41.8389 91.034L27.9868 69.0858C27.3274 68.0392 26.4099 67.5662 25.5354 67.8206C24.7075 68.0607 24.1914 68.8886 24.1914 69.9782V92.5285C24.1914 92.912 24.5032 93.2238 24.8867 93.2238C25.2702 93.2238 25.582 92.912 25.582 92.5285V69.9782C25.582 69.48 25.7612 69.204 25.926 69.1539C26.1196 69.1001 26.478 69.2865 26.8185 69.8276L40.6741 91.7723C41.33 92.8188 42.2474 93.2919 43.1219 93.0374Z"></path>
<path fill="#262523" d="M46.4626 63.4727H41.1548C39.9864 63.4727 39.0366 64.4224 39.0366 65.5908V77.0201C39.0331 78.6759 39.0331 79.174 39.5599 80.1596C39.6352 80.2958 39.6531 80.3997 39.6567 80.4643C39.5922 80.4212 39.4918 80.3317 39.3843 80.1596C39.2875 80.0091 29.7255 64.8095 29.0123 64.0712L28.9872 64.0461C28.593 63.6769 28.0804 63.4762 27.5393 63.4762H22.2314C21.063 63.4762 20.1133 64.426 20.1133 65.5944V95.2768C20.1133 96.4452 21.063 97.3949 22.2314 97.3949H27.5393C28.7076 97.3949 29.6574 96.4452 29.6574 95.2768V77.934C29.6574 77.4573 29.2667 77.0667 28.7901 77.0667C28.3134 77.0667 27.9228 77.4573 27.9228 77.934V95.2768C27.9228 95.4883 27.7507 95.6603 27.5393 95.6603H22.2314C22.02 95.6603 21.8479 95.4883 21.8479 95.2768V65.5872C21.8479 65.3757 22.02 65.2073 22.2314 65.2073H27.5393C27.6253 65.2073 27.7113 65.236 27.7794 65.2897C28.4568 66.1176 36.1444 78.2458 37.9149 81.0771C38.6567 82.2634 39.8036 82.4462 40.5491 82.0125C41.2945 81.5789 41.721 80.5252 41.0903 79.3425C40.7749 78.7547 40.7677 78.6185 40.7713 77.0201V65.5872C40.7713 65.3757 40.9433 65.2073 41.1548 65.2073H46.4626C46.6741 65.2073 46.8461 65.3793 46.8461 65.5872V95.2696C46.8461 95.4811 46.6741 95.6531 46.4626 95.6531H41.1548C41.0616 95.6531 40.9756 95.6209 40.9075 95.5635C40.5778 95.137 37.707 90.7001 32.3669 82.3709C31.9511 81.7222 31.6967 81.3208 31.6752 81.2957C31.4673 80.9839 31.4565 80.4643 31.4709 80.2994C31.5175 79.8227 31.1662 79.3998 30.6896 79.3532C30.4602 79.3317 30.2344 79.3998 30.0552 79.5468C29.876 79.6937 29.7649 79.9016 29.7434 80.1345C29.7327 80.26 29.6431 81.3782 30.2308 82.2598C30.2523 82.2921 30.496 82.6684 30.8867 83.2777C38.3234 94.8575 39.4846 96.5885 39.6674 96.7821C40.0652 97.1727 40.5921 97.3913 41.1512 97.3913H46.459C47.6274 97.3913 48.5772 96.4416 48.5772 95.2732V65.5872C48.5808 64.4224 47.631 63.4727 46.4626 63.4727Z"></path>
<path fill="#262523" d="M137.308 63.4727H132C130.832 63.4727 129.882 64.4224 129.882 65.5908V75.0668C129.882 77.253 129.825 77.5362 129.581 77.8014C129.405 77.9913 129.248 78.1884 129.111 78.3891C125.71 72.9988 120.388 64.6195 119.861 64.0748L119.829 64.0461C119.435 63.6769 118.922 63.4762 118.381 63.4762H113.073C111.905 63.4762 110.955 64.426 110.955 65.5944V95.2768C110.955 96.4452 111.905 97.3949 113.073 97.3949H118.381C119.549 97.3949 120.499 96.4452 120.499 95.2768V81.2814C120.521 81.3459 120.549 81.4068 120.589 81.4642C124.857 88.1805 130.043 96.2839 130.516 96.7857C130.914 97.1763 131.441 97.3949 132 97.3949H137.308C138.476 97.3949 139.426 96.4452 139.426 95.2768V65.5872C139.423 64.4224 138.473 63.4727 137.308 63.4727ZM120.499 80.708V78.9554C120.499 78.1418 120.137 77.5433 119.922 77.2566C119.635 76.8767 119.091 76.7979 118.707 77.0882C118.327 77.3749 118.248 77.9196 118.539 78.3031C118.621 78.4142 118.765 78.6472 118.765 78.9554V95.2696C118.765 95.4811 118.593 95.6531 118.381 95.6531H113.073C112.862 95.6531 112.69 95.4811 112.69 95.2696V65.5872C112.69 65.3757 112.862 65.2073 113.073 65.2073H118.381C118.467 65.2073 118.553 65.236 118.621 65.2897C119.281 66.0925 126.653 77.7225 128.635 80.8836C128.721 81.862 129.298 82.2777 129.825 82.3387C130.459 82.4104 131.075 81.9731 131.219 81.3423C131.334 80.8477 131.154 80.1668 130.326 79.7797C130.387 79.6077 130.538 79.3138 130.846 78.9841C131.617 78.1598 131.617 77.3175 131.617 75.0668V65.5872C131.617 65.3757 131.789 65.2073 131.997 65.2073H137.304C137.516 65.2073 137.684 65.3793 137.684 65.5872V95.2696C137.684 95.4811 137.512 95.6531 137.304 95.6531H131.997C131.903 95.6531 131.817 95.6209 131.749 95.5635C131.326 95.0259 127.452 89.0228 122.051 80.5288C121.793 80.1274 121.255 80.0055 120.854 80.2636C120.686 80.3639 120.564 80.5216 120.499 80.708Z"></path>
<path fill="#262523" d="M133.964 93.0363C134.792 92.7962 135.308 91.9719 135.308 90.8788V68.332C135.308 67.9485 134.996 67.6367 134.612 67.6367C134.229 67.6367 133.917 67.9485 133.917 68.332V90.8823C133.917 91.3805 133.738 91.6565 133.573 91.7067C133.376 91.7604 133.025 91.5776 132.681 91.0329L118.829 69.0846C118.169 68.0381 117.252 67.565 116.377 67.8195C115.549 68.0596 115.033 68.8875 115.033 69.9771V92.5274C115.033 92.9109 115.345 93.2227 115.728 93.2227C116.112 93.2227 116.424 92.9109 116.424 92.5274V69.9771C116.424 69.4789 116.603 69.2029 116.768 69.1527C116.965 69.0954 117.316 69.2818 117.66 69.8265L131.516 91.7712C132.172 92.8177 133.089 93.2908 133.964 93.0363Z"></path>
<path fill="#262523" d="M55.6973 83.4741V89.7711C55.6973 91.8749 57.4104 93.5881 59.5142 93.5881H73.678C74.0615 93.5881 74.3733 93.2763 74.3733 92.8928C74.3733 92.5093 74.0615 92.1975 73.678 92.1975H59.5142C58.1738 92.1975 57.0843 91.108 57.0843 89.7676V83.4705C57.0843 82.1301 58.1738 81.0406 59.5142 81.0406H68.8397C69.2232 81.0406 69.535 80.7288 69.535 80.3453C69.535 79.9618 69.2232 79.65 68.8397 79.65H59.5142C58.1738 79.65 57.0843 78.5605 57.0843 77.2201V70.9338C57.0843 69.5934 58.1738 68.5039 59.5142 68.5039H73.678C74.0615 68.5039 74.3733 68.1921 74.3733 67.8086C74.3733 67.4251 74.0615 67.1133 73.678 67.1133H59.5142C57.4104 67.1133 55.6973 68.8264 55.6973 70.9302V77.2272C55.6973 78.4781 56.3101 79.6393 57.3208 80.3489C56.3101 81.0657 55.6973 82.2269 55.6973 83.4741Z"></path>
<path fill="#262523" d="M75.9002 63.4727H59.163C55.2421 63.4727 52.0488 66.6624 52.0488 70.5868V90.2772C52.0488 94.198 55.2386 97.3913 59.163 97.3913H75.9002C77.0685 97.3913 78.0183 96.4416 78.0183 95.2732V91.0047C78.0183 89.8363 77.0685 88.8866 75.9002 88.8866H61.7686C61.7506 88.8866 61.7363 88.8866 61.7076 88.8794L61.6503 88.8651L61.5284 89.2808L61.6109 88.8507C61.5965 88.8436 61.5786 88.8364 61.5643 88.8257C61.5284 88.8042 61.4962 88.7755 61.4711 88.7432C61.3241 88.564 61.1163 88.4529 60.8869 88.4278C60.6539 88.4028 60.4317 88.4708 60.2489 88.6178C59.8798 88.9188 59.8225 89.4672 60.1235 89.8363C60.2561 89.9976 60.4102 90.1374 60.593 90.2628L60.6826 90.3202C60.7507 90.3596 60.8152 90.3954 60.8833 90.4241C60.9012 90.4313 60.9156 90.4384 60.9407 90.4492C61.0052 90.4779 61.0733 90.4994 61.1414 90.5245L61.2202 90.546C61.2847 90.5639 61.3492 90.5746 61.4245 90.589C61.446 90.5926 61.4711 90.5961 61.489 90.5997C61.5786 90.6105 61.6682 90.6176 61.7614 90.6176H75.893C76.1044 90.6176 76.2765 90.7897 76.2765 90.9975V95.2661C76.2765 95.4775 76.1044 95.6495 75.893 95.6495H59.1558C56.1919 95.6495 53.7763 93.2375 53.7763 90.27V70.5833C53.7763 67.6193 56.1883 65.2073 59.1558 65.2073H75.893C76.1044 65.2073 76.2765 65.3793 76.2765 65.5872V69.8557C76.2765 70.0672 76.1044 70.2356 75.893 70.2356H61.7614C60.593 70.2356 59.6433 71.1854 59.6433 72.3537V75.7979C59.6433 76.9663 60.593 77.9161 61.7614 77.9161H71.1586C71.37 77.9161 71.5385 78.0881 71.5385 78.296V82.5645C71.5385 82.7759 71.3664 82.9479 71.1586 82.9479H61.7614C60.593 82.9479 59.6433 83.8977 59.6433 85.0661V87.3742C59.6433 87.8508 60.0339 88.2415 60.5106 88.2415C60.9872 88.2415 61.3779 87.8508 61.3779 87.3742V85.0661C61.3779 84.8546 61.5499 84.6826 61.7614 84.6826H71.1586C72.3269 84.6826 73.2767 83.7328 73.2767 82.5645V78.296C73.2767 77.1276 72.3269 76.1778 71.1586 76.1778H61.7614C61.5499 76.1778 61.3779 76.0058 61.3779 75.7979V72.3537C61.3779 72.1423 61.5499 71.9738 61.7614 71.9738H75.893C77.0614 71.9738 78.0111 71.0241 78.0111 69.8557V65.5872C78.0183 64.4224 77.0685 63.4727 75.9002 63.4727Z"></path>
</svg>
