<svg xmlns="http://www.w3.org/2000/svg" fill="none" viewBox="0 0 160 160" height="160" width="160">
<path fill="#262523" d="M20.9491 64.6953C14.8544 64.6953 13.5 66.7269 13.5 70.4514V89.1419C13.5 92.8664 14.8544 94.898 20.9491 94.898C27.0438 94.898 28.3982 92.8664 28.3982 89.1419V81.6928C28.3982 81.151 27.9241 80.677 27.3824 80.677H23.2515C22.7098 80.677 22.2357 81.151 22.2357 81.6928V87.0426C22.2357 87.5843 21.9649 88.2615 20.9491 88.2615C20.001 88.2615 19.6624 87.652 19.6624 87.0426V71.8058C19.6624 71.2641 19.9333 70.4514 20.9491 70.4514C21.8971 70.4514 22.2357 71.2641 22.2357 71.8058V74.9209C22.2357 75.4626 22.7098 75.9367 23.2515 75.9367H27.3824C27.9241 75.9367 28.3982 75.4626 28.3982 74.9209V70.4514C28.3304 66.7269 27.0438 64.6953 20.9491 64.6953Z"></path>
<path fill="#262523" d="M54.1307 64.6953C48.036 64.6953 46.6816 66.7269 46.6816 70.4514V89.4127C46.6816 93.1373 48.036 95.1688 54.1307 95.1688C60.2254 95.1688 61.5798 93.1373 61.5798 89.4127V70.4514C61.5121 66.7946 60.2254 64.6953 54.1307 64.6953ZM55.3497 88.1261C55.3497 88.6678 55.0788 89.345 54.063 89.345C53.1149 89.345 52.7763 88.7355 52.7763 88.1261V71.8058C52.7763 71.264 53.0472 70.4514 54.063 70.4514C55.0111 70.4514 55.3497 71.264 55.3497 71.8058V88.1261Z"></path>
<path fill="#262523" d="M37.4725 64.6953C31.3778 64.6953 30.0234 66.7269 30.0234 70.4514V89.4127C30.0234 93.1373 31.3778 95.1688 37.4725 95.1688C43.5672 95.1688 44.9216 93.1373 44.9216 89.4127V70.4514C44.9216 66.7946 43.5672 64.6953 37.4725 64.6953ZM38.7592 84.8078C38.7592 85.3496 38.4883 86.0268 37.4725 86.0268C36.5245 86.0268 36.1859 85.4173 36.1859 84.8078V71.8735C36.1859 71.3318 36.4567 70.5191 37.4725 70.5191C38.4206 70.5191 38.7592 71.3318 38.7592 71.8735V84.8078Z"></path>
<path fill="#262523" d="M76.2078 88.8716C75.5983 88.6684 74.0408 88.8038 70.4516 88.8038C69.8422 88.8038 69.4359 88.3298 69.4359 87.788V66.1857C69.4359 65.644 68.9618 65.1699 68.4201 65.1699C68.1492 65.1699 64.831 65.1699 64.2892 65.1699C63.7475 65.1699 63.2734 65.644 63.2734 66.1857V93.6796C63.2734 94.2213 63.4766 94.9663 64.2892 94.9663C65.1018 94.9663 75.3951 94.9663 76.2078 94.9663C77.0204 94.9663 77.2235 94.2213 77.2235 93.6796V90.0905C77.2235 89.5487 76.8172 89.007 76.2078 88.8716Z"></path>
<path fill="#262523" d="M92.4598 65.1699C91.9181 65.1699 88.9384 65.1699 88.329 65.1699C87.7195 65.1699 87.3132 65.644 87.3132 66.1857V74.5151C87.3132 75.0569 86.9746 75.8018 86.0942 75.8018C85.2139 75.8018 84.8753 75.0569 84.8753 74.5151L85.0107 66.1857C85.0107 65.644 84.4013 65.1699 83.995 65.1699C81.2185 65.1699 80.2027 65.1699 79.7287 65.1699C79.2546 65.1699 78.7129 65.644 78.7129 66.1857V93.815C78.7129 94.3568 79.1869 94.8308 79.7287 94.8308H83.8595C84.4013 94.8308 84.8753 94.3568 84.8753 93.815V84.0635C84.8753 83.5218 85.2139 82.7768 86.0942 82.7768C86.9746 82.7768 87.3809 83.5218 87.3809 84.0635V93.815C87.3809 94.3568 87.8549 94.8308 88.3967 94.8308H92.5275C93.0693 94.8308 93.5433 94.3568 93.5433 93.815V66.1857C93.4756 65.644 93.0016 65.1699 92.4598 65.1699Z"></path>
<path fill="#262523" d="M106.139 66.0499C106.072 65.5759 105.665 65.2373 105.124 65.2373H99.8415C99.3675 65.2373 98.9612 65.5759 98.8258 66.0499L94.2886 93.6793C94.2209 94.2887 94.6272 94.8305 95.3044 94.8305H99.2998C99.8415 94.8305 100.248 94.4242 100.316 93.9501L100.79 89.6838C100.857 89.1421 101.264 88.8035 101.805 88.8035H103.227C103.769 88.8035 104.176 89.2098 104.243 89.6838L104.65 93.8824C104.717 94.4242 105.124 94.7628 105.665 94.7628H109.796C110.406 94.7628 110.88 94.221 110.812 93.6115L106.139 66.0499ZM102.483 83.4537C101.399 83.4537 100.993 82.5734 101.128 81.8962L102.347 75.5306C102.347 75.3274 102.618 75.3274 102.618 75.5306L103.769 81.8962C103.972 82.6411 103.566 83.4537 102.483 83.4537Z"></path>
<path fill="#262523" d="M134.04 74.5146V71.3318C134.04 70.8577 134.379 70.1128 135.259 70.1128C136.139 70.1128 136.478 70.8577 136.478 71.3318V74.0405C136.478 74.5823 136.952 75.0563 137.494 75.0563H141.625C142.166 75.0563 142.64 74.5823 142.64 74.0405V70.1128C142.64 66.7269 141.286 64.6953 135.327 64.6953C129.367 64.6953 128.013 66.6592 128.013 70.1128V75.1917C128.013 81.625 136.546 82.0314 136.546 85.485V87.0426C136.546 87.5166 136.207 88.1261 135.327 88.1261C134.446 88.1261 134.108 87.5166 134.108 87.0426V85.8913C134.108 85.3496 133.634 84.8756 133.092 84.8756H128.961C128.419 84.8756 127.945 85.3496 127.945 85.8913V89.819C127.945 93.205 129.3 95.2366 135.327 95.2366C141.354 95.2366 142.708 93.2727 142.708 89.819V84.7401C142.573 78.4423 134.04 77.9682 134.04 74.5146Z"></path>
<path fill="#262523" d="M125.304 65.1699C124.762 65.1699 121.782 65.1699 121.173 65.1699C120.563 65.1699 120.157 65.644 120.157 66.1857V76.8176V84.673C120.157 85.2824 119.886 85.9596 118.938 85.9596C118.058 85.9596 117.719 85.2824 117.719 84.673V76.8176V66.1857C117.719 65.644 117.313 65.1699 116.703 65.1699C116.162 65.1699 113.046 65.1699 112.572 65.1699C112.098 65.1699 111.557 65.644 111.557 66.1857V86.6368V89.481C111.557 93.2733 112.911 95.3049 118.87 95.3049C124.897 95.3049 126.184 93.2733 126.184 89.481V86.6368V66.1857C126.319 65.644 125.845 65.1699 125.304 65.1699Z"></path>
<path fill="#262523" d="M144.468 93.4756H143.927V94.83H143.52V93.4756H142.979V93.0693H144.468V93.4756V93.4756ZM146.5 94.83H146.094V94.0174L145.687 94.4914H145.552L145.146 94.0174V94.83H144.671V93.0693H144.807L145.552 94.0174L146.297 93.0693H146.432V94.83H146.5Z"></path>
</svg>
