<svg xmlns="http://www.w3.org/2000/svg" fill="none" viewBox="0 0 160 161" height="161" width="160">
<path fill="#262523" d="M30.7011 79.9115H31.9108C36.0489 79.9115 38.6418 81.2821 38.6418 85.9644C38.6418 89.6234 37.2232 92.2404 32.881 92.2404C32.1518 92.2652 31.422 92.2129 30.7035 92.0843L30.7011 79.9115ZM30.7011 68.2953C31.5161 68.1787 32.3386 68.124 33.1617 68.1319C36.1231 68.1319 37.7926 69.3431 37.7926 72.582C37.7926 76.6293 35.5174 77.7653 31.9116 77.7653H30.7019L30.7011 68.2953ZM24.6862 68.4114C24.9331 69.5232 25.0272 70.6643 24.9661 71.8023V90.4767C24.9661 91.7655 24.8096 92.4725 24.154 92.8313L22.8636 93.5987V94.5386C24.3628 94.5059 26.0283 94.4275 27.7348 94.4275C29.6744 94.4275 31.6301 94.5092 33.448 94.5386C40.0612 94.7274 44.7203 90.7578 44.7203 85.6375C44.7203 80.8048 41.7613 78.9079 36.5747 78.7035V78.6275C40.3015 77.3403 43.7864 75.9305 43.7864 71.6805C43.7864 66.9631 39.8185 65.9922 36.0836 66.0363C32.9568 66.0788 24.2088 66.0788 21.5312 66.0322V67.5851C21.5312 67.5851 24.2935 67.2582 24.6862 68.4106V68.4114ZM51.715 83.4545C49.9182 83.7517 48.1962 84.4025 46.6462 85.3702C46.012 85.9033 45.5117 86.5814 45.1864 87.3486C44.8611 88.1159 44.7202 88.9504 44.7752 89.7836C44.7752 92.7373 46.2744 94.9285 49.2915 94.8778C50.5127 94.9065 51.7182 94.5943 52.776 93.9753C53.8339 93.3563 54.7034 92.4545 55.2894 91.3683V94.2967C56.7056 94.2509 57.846 94.17 58.9694 94.17C60.1445 94.17 61.2211 94.2517 62.518 94.2967V92.7357L62.1147 92.6253C60.7977 92.5076 60.28 91.9502 60.2405 90.9049C60.2042 89.1886 60.1058 87.46 60.1058 85.7421C60.1058 84.0241 60.2042 82.3144 60.2405 80.5989C60.3485 76.1487 57.1064 74.5631 53.5345 74.5247C51.0072 74.6205 48.5895 75.5948 46.6874 77.2839V80.1616L47.8971 80.4517L48.5487 78.831C48.852 77.8135 50.3706 77.7914 51.065 77.7914C54.1135 77.7914 55.2886 79.784 55.2886 82.7058L51.715 83.4545ZM55.2894 89.3864C54.4494 90.431 53.2389 91.1003 51.9175 91.2506C47.9568 91.3201 47.6963 86.4196 53.4579 84.9436L55.2894 84.4663V89.3864ZM76.601 80.5801L76.9236 75.5063C75.3293 74.7962 73.5965 74.463 71.8564 74.5321C67.1263 74.5321 63.5132 76.2835 63.5132 81.0426C63.5132 83.6645 64.9721 85.4503 67.8054 86.1581L71.2967 87.0408C72.7959 87.4045 73.8532 87.9136 73.8532 89.7444C73.8532 91.7647 72.1894 92.8893 70.3684 92.8893C68.4667 92.8893 65.9141 92.4235 65.5802 90.7112L65.102 87.8368H63.5172L63.51 93.7115C65.5329 94.481 67.6754 94.8776 69.8361 94.8827C74.0049 94.8827 78.3486 92.6294 78.3486 87.7927C78.3486 84.36 76.4937 83.0753 73.2024 82.3323L69.8756 81.5853C68.3312 81.2437 67.6457 80.5776 67.6457 79.247C67.6457 77.449 69.0683 76.55 71.4209 76.55C72.7112 76.55 74.5718 77.2953 74.7452 78.1617L75.1485 80.5809L76.601 80.5801ZM112.309 84.5382L112.337 81.8534C112.337 76.9709 108.937 74.5116 104.434 74.5116C103.206 74.5116 95.0414 75.1246 95.3455 85.2337C95.5164 91.2 98.6319 94.8688 104.549 94.8688C106.837 94.8945 109.085 94.2687 111.039 93.0626L111.931 91.0716L111.437 90.4284C110.126 91.2824 108.624 91.7883 107.069 91.8996C102.849 91.8996 100.617 88.8944 100.617 84.8455C100.617 84.8455 112.312 84.6673 112.312 84.5366L112.309 84.5382ZM103.874 76.8483C106.878 76.8483 107.196 80.1935 107.196 82.656C106.062 82.6936 101.514 82.6936 100.384 82.656C100.384 78.7142 101.514 76.8483 103.874 76.8483ZM133.791 70.207C133.79 70.6759 133.926 71.1347 134.183 71.5251C134.439 71.9155 134.804 72.22 135.231 72.4002C135.659 72.5803 136.129 72.628 136.583 72.5371C137.037 72.4462 137.454 72.2208 137.782 71.8896C138.109 71.5583 138.333 71.136 138.423 70.6761C138.514 70.2162 138.468 69.7394 138.291 69.306C138.114 68.8726 137.814 68.5022 137.43 68.2415C137.045 67.9808 136.593 67.8417 136.13 67.8417C135.51 67.8417 134.916 68.0908 134.478 68.5342C134.039 68.9776 133.792 69.5792 133.791 70.207ZM134.222 70.207C134.211 69.9459 134.253 69.6854 134.344 69.441C134.435 69.1966 134.574 68.9735 134.753 68.785C134.931 68.5965 135.146 68.4465 135.383 68.344C135.62 68.2416 135.875 68.1887 136.133 68.1887C136.391 68.1887 136.646 68.2416 136.883 68.344C137.12 68.4465 137.335 68.5965 137.513 68.785C137.692 68.9735 137.831 69.1966 137.922 69.441C138.013 69.6854 138.055 69.9459 138.044 70.207C138.061 70.4719 138.025 70.7376 137.936 70.9875C137.848 71.2375 137.71 71.4664 137.531 71.6601C137.351 71.8539 137.135 72.0083 136.895 72.1139C136.654 72.2195 136.395 72.2739 136.133 72.2739C135.871 72.2739 135.612 72.2195 135.371 72.1139C135.131 72.0083 134.914 71.8539 134.735 71.6601C134.556 71.4664 134.418 71.2375 134.33 70.9875C134.241 70.7376 134.205 70.4719 134.222 70.207ZM135.221 71.6037H135.655V70.3998H136.11L136.842 71.6029H137.3L136.523 70.3639C136.62 70.3663 136.717 70.3481 136.806 70.3106C136.896 70.273 136.977 70.2169 137.044 70.1457C137.111 70.0746 137.162 69.9901 137.195 69.8976C137.228 69.8051 137.241 69.7067 137.234 69.6087C137.234 69.075 136.911 68.8159 136.272 68.8159H135.214L135.221 71.6037ZM135.655 69.1567H136.211C136.51 69.1567 136.81 69.2156 136.81 69.5964C136.81 70.0468 136.483 70.0656 136.101 70.0656H135.65L135.655 69.1567ZM92.7211 80.5751L93.0437 75.5014C91.4477 74.7929 89.7136 74.4615 87.9725 74.5321C83.2295 74.5321 79.614 76.2835 79.614 81.0426C79.614 83.6645 81.0657 85.4503 83.9158 86.1581L87.4055 87.0367C88.9121 87.4004 89.9621 87.9095 89.9621 89.7403C89.9621 91.7606 88.2983 92.8852 86.4756 92.8852C84.5643 92.8852 82.0319 92.4194 81.6835 90.7071L81.2165 87.8327H79.6382L79.6116 93.7074C81.6394 94.4741 83.7855 94.8696 85.9498 94.8753C90.1137 94.8753 94.4632 92.6221 94.4632 87.7853C94.4632 84.3527 92.5897 83.0679 89.3105 82.325L85.9885 81.578C84.4384 81.2363 83.7489 80.5702 83.7489 79.2397C83.7489 77.4416 85.1659 76.5426 87.5192 76.5426C88.8282 76.5426 90.6936 77.288 90.8549 78.1543L91.2581 80.5735L92.7211 80.5751ZM115.634 89.6471C115.634 93.3952 117.141 94.9497 120.831 94.9497C121.273 94.9961 121.72 94.9536 122.146 94.8247C122.572 94.6958 122.969 94.4831 123.314 94.1986L125.291 91.7467L124.968 90.9294C124.407 91.2853 123.757 91.4732 123.095 91.4713C121.28 91.4713 120.579 90.8918 120.579 88.78V78.9111L124.886 78.8997L124.945 76.2615H120.579V73.9731C120.579 72.0557 120.479 68.4604 120.526 68.31L119.961 67.8858C118.74 68.4686 115.668 69.992 115.668 69.9838C115.668 69.9618 115.728 76.295 115.728 76.295L113.046 78.1037V79.0272L115.637 78.9095L115.634 89.6471ZM126.052 89.6471C126.052 93.3952 127.539 94.9497 131.246 94.9497C131.686 94.9965 132.131 94.9542 132.554 94.8253C132.978 94.6964 133.372 94.4833 133.714 94.1986L135.7 91.7467L135.387 90.9294C134.826 91.2808 134.181 91.4683 133.522 91.4713C131.678 91.4713 130.996 90.8918 130.996 88.78V78.9111L135.306 78.8997L135.372 76.2615H130.996V73.9731C130.996 72.0557 130.889 68.4604 130.938 68.31L130.361 67.8858C129.151 68.4686 126.076 69.992 126.076 69.9838C126.076 69.9618 126.133 76.2639 126.133 76.2639H123.448V78.9136H126.053L126.052 89.6471Z"></path>
</svg>
