<svg xmlns="http://www.w3.org/2000/svg" fill="none" viewBox="0 0 160 160" height="160" width="160">
<path fill="#262523" d="M62.3595 83.8714H63.6937V80.5055L66.3367 76H64.7942L63.0351 79.1264L61.3439 76.1242L61.2717 76H59.7165L62.3595 80.5055V83.8714ZM23.0761 83.8714H28.6V82.51H24.4103V80.4479H28.1921V79.0953H24.4103V77.3525H28.6V76H23.0761V83.8714ZM11 83.8714H12.3342V80.4257H15.8823V79.0953H12.3342V77.3525H16.2902V76H11V83.8714ZM48.2608 77.3525H50.4831V83.8714H51.8216V77.3525H54.0439V76H48.265V77.3525H48.2608ZM36.8391 81.4279V76H35.5133V83.8714H36.8306L40.2724 78.4346V83.8714H41.6066V76H40.2766L36.8391 81.4279ZM148.124 76L146.365 79.1264L144.674 76.1242L144.606 76H143.051L145.694 80.5055V83.8714H147.028V80.5055L149.667 76H148.124ZM131.595 77.3525H133.817V83.8714H135.152V77.3525H137.374V76H131.595V77.3525ZM123.734 80.98C123.734 82 123.118 82.6386 122.124 82.6386C121.142 82.6386 120.505 81.9867 120.505 80.98V76H119.179V80.98C119.179 82.7583 120.39 84 122.124 84C123.857 84 125.068 82.7539 125.068 80.98V76H123.734V80.98ZM86.6179 79.6984C87.0258 79.3348 87.2637 78.7982 87.2637 78.235C87.2637 76.878 86.3756 76 85.0032 76H81.7228V83.8714H85.0244C86.4564 83.8714 87.4592 82.8825 87.4592 81.4678C87.4592 80.6785 87.1617 80.0576 86.6179 79.6984ZM83.0613 77.3525H85.0074C85.649 77.3525 85.9337 77.6231 85.9337 78.2217C85.9337 79.0333 85.2496 79.0909 85.0372 79.0909H83.0613V77.3525ZM85.0669 82.51H83.0613V80.4479H85.0372C85.7723 80.4479 86.1292 80.7849 86.1292 81.4812C86.1249 82.1153 85.7213 82.51 85.0669 82.51ZM99.8837 82.51H95.694V80.4479H99.4758V79.0953H95.694V77.3525H99.8837V76H94.3598V83.8714H99.8837V82.51ZM111.373 83.796L111.399 83.8714H112.873L110.137 76.1641L110.077 76H108.773L105.981 83.7206L105.926 83.8714H107.366L108.123 81.7251H110.655L111.373 83.796ZM108.59 80.3947L109.406 78.071L110.205 80.3947H108.59Z"></path>
</svg>
