<svg xmlns="http://www.w3.org/2000/svg" fill="none" viewBox="0 0 160 160" height="160" width="160">
<g clip-path="url(#clip0_904_51771)">
<path fill="#262523" d="M54.424 61.4554L54.3708 86.8473H47.0276C39.1766 86.8473 33.705 81.5969 33.7214 74.1145V74.0203C33.7214 66.5952 39.2298 61.4185 47.0767 61.4349L54.424 61.4554ZM107.972 72.0217L107.993 61.4718H117.666C121.999 61.4718 124.579 63.3434 124.575 66.456V66.5502C124.575 70.0395 121.938 72.034 117.359 72.0258L107.972 72.0217ZM126.402 81.5273V81.6379C126.402 85.074 123.502 87.1217 118.666 87.1094L107.948 87.0889L107.972 76.2523L118.023 76.2728C123.433 76.2728 126.41 78.1567 126.402 81.5437V81.5273ZM124.723 73.6681C126.877 72.4804 129.265 70.2279 129.277 66.071V65.9768C129.294 64.9327 129.102 63.8958 128.713 62.9267C128.324 61.9576 127.746 61.0759 127.012 60.3332C124.964 58.3224 121.844 57.2534 118.002 57.2453L100.834 57.2207L91.5904 83.9108L82.9367 57.3804L82.8343 57.0732H79.1033L70.2407 83.874L61.2307 57.4336L61.1283 57.1306L47.0972 57.0937C36.5883 57.0651 28.9543 64.2239 28.9297 74.1063V74.2046C28.9093 84.0337 36.5145 91.1885 47.0112 91.209L59.0027 91.2335L59.056 65.5427L68.2053 91.4997H71.9731L80.8766 65.4894L89.6246 91.5325H93.4415L103.369 63.7448L103.312 91.3072L118.53 91.34C126.246 91.34 131.05 87.7196 131.062 81.8508V81.7566C131.062 77.956 128.867 75.1547 124.69 73.6353"></path>
<path fill="#262523" d="M33.9989 101.784C34.9654 101.784 35.5183 101.002 35.5183 100.036C35.5183 99.069 34.9654 98.3318 33.9989 98.3318H33.3068V101.784H33.9989ZM32.0781 97.2793H34.0235C34.7388 97.3068 35.4156 97.6103 35.9119 98.1261C36.4083 98.6419 36.6855 99.33 36.6855 100.046C36.6855 100.762 36.4083 101.45 35.9119 101.965C35.4156 102.481 34.7388 102.785 34.0235 102.812H32.0781V97.2793Z"></path>
<path fill="#262523" d="M41.1264 99.8875C41.24 99.9007 41.355 99.889 41.4637 99.8534C41.5723 99.8177 41.6719 99.759 41.7556 99.6811C41.8393 99.6032 41.9051 99.5081 41.9485 99.4024C41.9919 99.2966 42.0118 99.1827 42.0069 99.0684C42.0069 98.6384 41.6875 98.3313 41.1264 98.3313H40.5203V99.8875H41.1264ZM39.3203 102.824V97.291H41.1346C42.4206 97.291 43.2315 97.975 43.2315 99.0521C43.2348 99.3759 43.142 99.6935 42.9649 99.9647C42.7878 100.236 42.5342 100.448 42.2363 100.576L43.51 102.247V102.824H42.4452L41.0404 100.887H40.5449V102.836L39.3203 102.824Z"></path>
<path fill="#262523" d="M46.5432 101.637H45.3555V102.824H46.5432V101.637Z"></path>
<path fill="#262523" d="M55.2753 99.4452L54.3374 102.824H53.0883L51.7695 97.8808V97.291H52.904L53.7845 101.092L54.7961 97.291H55.8363L56.8151 101.092L57.7325 97.291H58.8096V97.807L57.4745 102.824H56.2254L55.2753 99.4452Z"></path>
<path fill="#262523" d="M61.1602 97.291H62.3847V99.4657H64.5553V97.291H65.7798V102.824H64.5553V100.502H62.3847V102.824H61.1602V97.291Z"></path>
<path fill="#262523" d="M69.8398 97.291H68.6152V102.824H69.8398V97.291Z"></path>
<path fill="#262523" d="M73.743 98.3313H72.1621V97.291H76.5565V98.3313H74.9675V102.824H73.743V98.3313Z"></path>
<path fill="#262523" d="M78.8867 97.291H80.0375L82.3924 100.809V97.291H83.5474V102.824H82.3924L80.0375 99.3633V102.824H78.8867V97.291Z"></path>
<path fill="#262523" d="M86.377 97.291H89.854V98.3313H87.6015V99.5026H89.596V100.465H87.6015V101.784H89.854V102.824H86.377V97.291Z"></path>
<path fill="#262523" d="M93.8014 100.612L92.0117 97.8644V97.291H93.0888L94.4936 99.5312L95.8082 97.291H96.7666V97.8439L95.026 100.617V102.824H93.8014V100.612Z"></path>
<path fill="#262523" d="M104.331 101.849C104.884 101.849 105.179 101.526 105.179 101.128C105.179 100.731 104.909 100.449 104.339 100.449H103.393V101.849H104.331ZM104.237 99.519C104.7 99.519 104.982 99.2814 104.982 98.9005C104.983 98.8115 104.966 98.7233 104.93 98.6417C104.895 98.5601 104.842 98.4869 104.777 98.427C104.711 98.367 104.633 98.3216 104.549 98.2938C104.464 98.2661 104.375 98.2565 104.286 98.2657H103.414V99.519H104.237ZM102.238 97.291H104.442C105.523 97.291 106.195 97.8726 106.195 98.7736C106.207 99.0188 106.142 99.2616 106.009 99.468C105.876 99.6744 105.681 99.834 105.453 99.9244C105.725 99.9959 105.964 100.155 106.136 100.378C106.307 100.6 106.399 100.872 106.399 101.153C106.399 102.165 105.683 102.791 104.474 102.791H102.238V97.291Z"></path>
<path fill="#262523" d="M112.887 100.035C112.887 98.9577 112.293 98.2205 111.363 98.2205C110.433 98.2205 109.844 98.9577 109.844 100.035C109.844 101.112 110.433 101.894 111.363 101.894C112.293 101.894 112.887 101.141 112.887 100.035ZM108.619 100.035C108.619 98.3516 109.717 97.168 111.363 97.168C113.009 97.168 114.111 98.3393 114.111 100.035C114.111 101.73 113.009 102.934 111.363 102.934C109.717 102.934 108.619 101.739 108.619 100.035Z"></path>
<path fill="#262523" d="M119.64 99.4452L118.703 102.824H117.454L116.135 97.8808V97.291H117.269L118.15 101.092L119.161 97.291H120.202L121.184 101.092L122.098 97.291H123.179V97.807L121.84 102.824H120.591L119.64 99.4452Z"></path>
<path fill="#262523" d="M125.525 97.291H129.002V98.3313H126.75V99.5026H128.744V100.465H126.75V101.784H129.002V102.824H125.525V97.291Z"></path>
</g>
<defs>
<clipPath id="clip0_904_51771">
<rect transform="translate(28.9336 57.0654)" fill="white" height="45.8692" width="102.133"></rect>
</clipPath>
</defs>
</svg>
