<svg xmlns="http://www.w3.org/2000/svg" fill="none" viewBox="0 0 160 161" height="161" width="160">
<g clip-path="url(#clip0_977_51834)">
<path fill="#262523" d="M37.6097 87.1157H34.4827C34.39 87.1157 34.3379 87.1682 34.3379 87.2789V91.6369C34.3379 91.7476 34.39 91.8001 34.4827 91.8001H34.8185C34.8407 91.8028 34.8632 91.8004 34.8844 91.7933C34.9056 91.7861 34.9249 91.7743 34.941 91.7587C34.9571 91.743 34.9695 91.724 34.9774 91.703C34.9852 91.6819 34.9883 91.6594 34.9865 91.6369V89.9881H37.6039C38.762 89.9881 39.3006 89.3123 39.3006 88.5315C39.3006 87.6401 38.7563 87.1216 37.6097 87.1216V87.1157ZM37.6097 89.3647H34.9865V87.7391H37.6328C38.1772 87.7391 38.6231 87.9664 38.6231 88.5315C38.6231 89.0967 38.2177 89.3647 37.6328 89.3647"></path>
<path fill="#262523" d="M46.0874 91.5611L43.6784 87.2555C43.6589 87.2122 43.6269 87.1758 43.5867 87.1509C43.5465 87.126 43.4998 87.1137 43.4526 87.1156H42.943C42.8956 87.1129 42.8486 87.1248 42.8082 87.1498C42.7678 87.1748 42.736 87.2117 42.7171 87.2555L40.3082 91.5611C40.2912 91.5961 40.2795 91.6334 40.2734 91.6718C40.2734 91.7534 40.3198 91.7942 40.4182 91.7942H40.783C40.8326 91.802 40.8833 91.7916 40.9259 91.7648C40.9684 91.7381 40.9999 91.6968 41.0147 91.6485L41.5937 90.4832H44.7902L45.3693 91.6485C45.384 91.6968 45.4156 91.7381 45.4581 91.7648C45.5007 91.7916 45.5514 91.802 45.6009 91.7942H45.9658C46.0642 91.7942 46.1047 91.7534 46.1047 91.6718C46.1013 91.6335 46.0915 91.5961 46.0758 91.5611H46.0874ZM41.9701 89.8715L43.1862 87.7041L44.4254 89.889L41.9701 89.8715Z"></path>
<path fill="#262523" d="M53.1931 91.5496L51.7454 89.9473C52.0997 89.9206 52.4303 89.7583 52.6694 89.494C52.9085 89.2296 53.0379 88.8831 53.031 88.5257C53.031 87.6343 52.4866 87.1157 51.3401 87.1157H48.2131C48.1146 87.1157 48.0625 87.1682 48.0625 87.2789V91.6369C48.0625 91.7476 48.1146 91.8001 48.2131 91.8001H48.5431C48.6531 91.8001 48.7111 91.7476 48.7111 91.6369V89.9881H50.9L52.4114 91.6894C52.4416 91.7259 52.4798 91.7548 52.523 91.774C52.5662 91.7932 52.6132 91.8021 52.6604 91.8001H53.1236C53.2221 91.8001 53.2568 91.7535 53.2568 91.6777C53.2525 91.6301 53.2296 91.5861 53.1931 91.5554V91.5496ZM48.7111 89.3647V87.7391H51.3748C51.9191 87.7391 52.3708 87.9664 52.3708 88.5315C52.3708 89.0967 51.9655 89.3647 51.3748 89.3647H48.7111Z"></path>
<path fill="#262523" d="M55.7638 91.7943H56.0939C56.2039 91.7943 56.2618 91.7418 56.2618 91.6311V87.2789C56.2618 87.1682 56.2039 87.1157 56.0939 87.1157H55.7638C55.6654 87.1157 55.6133 87.1682 55.6133 87.2789V91.6369C55.6133 91.7476 55.6654 91.8001 55.7638 91.8001"></path>
<path fill="#262523" d="M59.0173 90.5123C58.9847 90.4854 58.9437 90.471 58.9015 90.4715C58.8658 90.4723 58.8314 90.4846 58.8031 90.5064L58.7162 90.5647C58.6574 90.5905 58.6065 90.6316 58.5688 90.6839C58.5311 90.7361 58.508 90.7976 58.502 90.8618C58.5098 90.9515 58.5512 91.0348 58.6178 91.0949C59.3088 91.6528 60.1761 91.9423 61.0615 91.9106C62.3007 91.9106 63.5573 91.4037 63.5573 90.3608C63.5573 89.5393 62.706 89.2654 61.241 89.1314C60.3492 89.0557 59.4169 88.9333 59.4169 88.4381C59.4169 87.9429 60.3087 87.6399 61.0673 87.6399C61.731 87.6306 62.3782 87.8484 62.9029 88.2575C62.9404 88.2988 62.9923 88.3239 63.0477 88.3274C63.0761 88.3354 63.1061 88.3354 63.1346 88.3274L63.2272 88.2691C63.2856 88.2396 63.3357 88.1959 63.3731 88.142C63.4105 88.0881 63.434 88.0257 63.4415 87.9603C63.4387 87.9165 63.4269 87.8737 63.407 87.8346C63.3871 87.7955 63.3594 87.761 63.3257 87.7331C62.664 87.2863 61.8812 87.0564 61.0846 87.0748C59.7412 87.0748 58.7336 87.6982 58.7336 88.508C58.7336 89.5101 60.1581 89.6733 61.1252 89.7607C62.0922 89.8481 62.9377 89.9355 62.9377 90.454C62.9377 90.9726 61.9011 91.3746 61.0962 91.3746C60.3376 91.3838 59.6056 91.0929 59.0579 90.5647"></path>
<path fill="#262523" d="M70.317 92.0564C70.3384 92.0591 70.3602 92.0569 70.3807 92.05C70.4011 92.0432 70.4198 92.0318 70.4354 92.0167C70.4509 92.0016 70.4629 91.9832 70.4705 91.9628C70.4781 91.9425 70.481 91.9207 70.4791 91.8991V87.407C70.481 87.3853 70.4781 87.3635 70.4705 87.3432C70.4629 87.3228 70.4509 87.3044 70.4354 87.2893C70.4198 87.2743 70.4011 87.2629 70.3807 87.256C70.3602 87.2491 70.3384 87.247 70.317 87.2497H70.0853C69.9927 87.2497 69.9406 87.3021 69.9406 87.407V91.8991C69.938 91.9193 69.9399 91.9399 69.9461 91.9594C69.9523 91.9789 69.9627 91.9967 69.9765 92.0117C69.9903 92.0267 70.0072 92.0385 70.026 92.0462C70.0448 92.0539 70.065 92.0574 70.0853 92.0564H70.317"></path>
<path fill="#262523" d="M77.1779 88.0653L80.7044 91.6718C80.7325 91.7115 80.7699 91.7435 80.8134 91.7649C80.8569 91.7862 80.9051 91.7963 80.9534 91.7941H81.3009C81.3993 91.7941 81.4514 91.7417 81.4514 91.631V87.2787C81.4514 87.168 81.3993 87.1156 81.3009 87.1156H80.9708C80.8608 87.1156 80.8029 87.168 80.8029 87.2787V90.8386L77.2763 87.2321C77.2473 87.1939 77.2095 87.1633 77.1661 87.143C77.1227 87.1227 77.0751 87.1133 77.0273 87.1156H76.6799C76.5814 87.1156 76.5293 87.168 76.5293 87.2787V91.6368C76.5293 91.7475 76.5814 91.7999 76.6799 91.7999H77.0099C77.12 91.7999 77.1779 91.7475 77.1779 91.6368V88.0653Z"></path>
<path fill="#262523" d="M83.4709 91.794H87.6403C87.6623 91.7969 87.6846 91.7946 87.7055 91.7874C87.7265 91.7802 87.7456 91.7683 87.7612 91.7525C87.7769 91.7368 87.7887 91.7176 87.7959 91.6965C87.803 91.6754 87.8053 91.653 87.8024 91.6309V91.3337C87.8053 91.3116 87.803 91.2892 87.7959 91.2681C87.7887 91.247 87.7769 91.2278 87.7612 91.212C87.7456 91.1963 87.7265 91.1843 87.7055 91.1772C87.6846 91.17 87.6623 91.1677 87.6403 91.1706H83.9689V89.714H86.598C86.7138 89.714 86.7717 89.6616 86.7717 89.5509V89.2537C86.7717 89.1489 86.7138 89.0964 86.598 89.0964H83.9689V87.733H87.6403C87.6623 87.7359 87.6846 87.7337 87.7055 87.7265C87.7265 87.7193 87.7456 87.7074 87.7612 87.6916C87.7769 87.6758 87.7887 87.6567 87.7959 87.6356C87.803 87.6145 87.8053 87.592 87.8024 87.5699V87.2786C87.8053 87.2565 87.803 87.234 87.7959 87.213C87.7887 87.1919 87.7769 87.1727 87.7612 87.1569C87.7456 87.1412 87.7265 87.1292 87.7055 87.122C87.6846 87.1149 87.6623 87.1126 87.6403 87.1155H83.4709C83.3783 87.1155 83.3262 87.1679 83.3262 87.2786V91.6367C83.3262 91.7474 83.3783 91.7998 83.4709 91.7998"></path>
<path fill="#262523" d="M91.2385 91.7942H91.5743C91.6243 91.7987 91.6743 91.7854 91.7156 91.7567C91.7568 91.7279 91.7868 91.6855 91.8002 91.6368L93.0104 88.0886L94.2265 91.6368C94.2398 91.6855 94.2698 91.7279 94.3111 91.7567C94.3523 91.7854 94.4023 91.7987 94.4523 91.7942H94.8056C94.8551 91.7966 94.9042 91.7824 94.945 91.754C94.9858 91.7256 95.0162 91.6844 95.0314 91.6368L96.7686 87.3137C96.77 87.2904 96.77 87.2671 96.7686 87.2438C96.7697 87.2257 96.7667 87.2075 96.7599 87.1907C96.7531 87.1739 96.7427 87.1588 96.7294 87.1465C96.7161 87.1342 96.7002 87.1251 96.683 87.1197C96.6657 87.1144 96.6475 87.113 96.6297 87.1156H96.2359C96.1906 87.112 96.1454 87.1239 96.1076 87.1492C96.0698 87.1746 96.0415 87.212 96.0274 87.2555L94.6144 90.8969L93.3926 87.2729C93.3803 87.2236 93.3506 87.1805 93.3091 87.1516C93.2675 87.1226 93.217 87.1098 93.1668 87.1156H92.8251C92.7749 87.1098 92.7243 87.1226 92.6828 87.1516C92.6413 87.1805 92.6116 87.2236 92.5993 87.2729L91.3832 90.8969L89.9645 87.2555C89.9504 87.212 89.9221 87.1746 89.8843 87.1492C89.8465 87.1239 89.8013 87.112 89.756 87.1156H89.3622C89.3444 87.113 89.3262 87.1144 89.3089 87.1197C89.2916 87.1251 89.2758 87.1342 89.2625 87.1465C89.2492 87.1588 89.2388 87.1739 89.232 87.1907C89.2252 87.2075 89.2222 87.2257 89.2233 87.2438C89.2199 87.267 89.2199 87.2905 89.2233 87.3137L90.9605 91.6368C90.9757 91.6844 91.0061 91.7256 91.0469 91.754C91.0877 91.7824 91.1367 91.7966 91.1863 91.7942"></path>
<path fill="#262523" d="M102.855 91.7943H103.185C103.295 91.7943 103.353 91.7418 103.353 91.6311V89.9415L105.82 87.3371C105.835 87.3228 105.847 87.3056 105.855 87.2866C105.863 87.2676 105.867 87.2471 105.866 87.2264C105.866 87.1507 105.809 87.1157 105.739 87.1157H105.264C105.219 87.1158 105.174 87.1258 105.133 87.1449C105.092 87.164 105.056 87.1918 105.027 87.2264L103.029 89.353L101.031 87.2264C101.003 87.1933 100.969 87.1663 100.93 87.1473C100.891 87.1282 100.849 87.1175 100.805 87.1157H100.331C100.238 87.1157 100.197 87.1507 100.197 87.2381C100.196 87.2743 100.209 87.3096 100.232 87.3371L102.705 89.9357V91.6369C102.705 91.7476 102.757 91.8001 102.855 91.8001"></path>
<path fill="#262523" d="M109.386 87.0225C107.874 87.0225 106.67 88.0246 106.67 89.452C106.67 90.8795 107.874 91.8816 109.386 91.8816C110.897 91.8816 112.102 90.8795 112.102 89.452C112.102 88.0246 110.886 87.0225 109.386 87.0225ZM109.386 91.264C109.133 91.2846 108.878 91.2537 108.637 91.1729C108.396 91.0922 108.174 90.9634 107.984 90.7942C107.793 90.6251 107.639 90.419 107.53 90.1884C107.42 89.9577 107.358 89.7073 107.347 89.452C107.358 89.1968 107.42 88.9463 107.53 88.7157C107.639 88.4851 107.793 88.279 107.984 88.1098C108.174 87.9407 108.396 87.8119 108.637 87.7312C108.878 87.6504 109.133 87.6195 109.386 87.6401C109.639 87.6203 109.893 87.6518 110.134 87.7329C110.374 87.8139 110.596 87.9427 110.786 88.1118C110.976 88.2808 111.131 88.4865 111.24 88.7168C111.35 88.947 111.412 89.197 111.424 89.452C111.412 89.707 111.35 89.9571 111.24 90.1873C111.131 90.4176 110.976 90.6233 110.786 90.7923C110.596 90.9613 110.374 91.0902 110.134 91.1712C109.893 91.2523 109.639 91.2838 109.386 91.264"></path>
<path fill="#262523" d="M118.686 91.5496L117.238 89.9473C117.592 89.9206 117.923 89.7583 118.162 89.494C118.401 89.2296 118.531 88.8831 118.524 88.5257C118.524 87.6343 117.979 87.1157 116.833 87.1157H113.914C113.822 87.1157 113.77 87.1682 113.77 87.2789V91.6369C113.77 91.7476 113.822 91.8001 113.914 91.8001H114.244C114.354 91.8001 114.412 91.7476 114.412 91.6369V89.9881H116.41L117.921 91.6894C117.952 91.7259 117.99 91.7548 118.033 91.774C118.076 91.7932 118.123 91.8021 118.17 91.8001H118.628C118.726 91.8001 118.767 91.7535 118.767 91.6777C118.76 91.6309 118.738 91.5878 118.703 91.5554L118.686 91.5496ZM114.412 89.3647V87.7391H116.868C117.412 87.7391 117.858 87.9664 117.858 88.5315C117.858 89.0967 117.458 89.3647 116.868 89.3647H114.412Z"></path>
<path fill="#262523" d="M122.769 89.3354L124.837 91.6659C124.868 91.7025 124.907 91.7315 124.951 91.7507C124.996 91.7699 125.043 91.7787 125.091 91.7766H125.497C125.601 91.7766 125.642 91.7242 125.642 91.6485C125.64 91.6261 125.634 91.6044 125.624 91.5844C125.614 91.5643 125.601 91.5465 125.584 91.5319L123.267 88.9217L125.352 87.3253C125.37 87.313 125.385 87.2965 125.395 87.2772C125.405 87.2579 125.41 87.2364 125.41 87.2146C125.412 87.1989 125.41 87.1829 125.405 87.1679C125.4 87.1529 125.391 87.1393 125.38 87.1281C125.369 87.1169 125.355 87.1083 125.341 87.1031C125.326 87.098 125.31 87.0962 125.294 87.0981H124.75C124.646 87.0967 124.545 87.134 124.466 87.203L121.42 89.5335V87.2496C121.42 87.1447 121.362 87.0923 121.252 87.0923H120.922C120.824 87.0923 120.777 87.1447 120.777 87.2496V91.6368C120.777 91.7475 120.824 91.7999 120.922 91.7999H121.252C121.362 91.7999 121.42 91.7475 121.42 91.6368V90.3608L122.769 89.3354Z"></path>
<path fill="#262523" d="M120.51 68.9493C121.635 68.8749 122.761 69.0747 123.793 69.5319V71.8275C122.801 71.2406 121.659 70.9609 120.51 71.0235C117.788 71.0235 115.808 72.6723 115.808 75.6845C115.822 76.9285 116.324 78.1166 117.205 78.9898C118.085 79.8629 119.274 80.3503 120.51 80.3456C121.658 80.3938 122.796 80.1151 123.793 79.5415V81.8313C122.757 82.2748 121.634 82.4741 120.51 82.4139C119.614 82.4384 118.723 82.2802 117.889 81.9486C117.056 81.6171 116.298 81.1192 115.661 80.4849C115.024 79.8506 114.522 79.0931 114.184 78.2581C113.846 77.423 113.679 76.5278 113.694 75.6263C113.722 73.8305 114.454 72.1186 115.73 70.8635C117.007 69.6084 118.725 68.9119 120.51 68.926"></path>
<path fill="#262523" d="M43.9339 68.9961H41.8724V76.1741C41.8724 78.5512 40.859 80.3574 38.508 80.3574C36.1569 80.3574 35.1493 78.5512 35.1493 76.2032V68.9961H33.082V76.1916C33.082 79.7456 34.9698 82.4374 38.508 82.4374C42.0461 82.4374 43.9339 79.7456 43.9339 76.1741V68.9961Z"></path>
<path fill="#262523" d="M9.69922 82.3791H17.8816V80.3049H11.7781V68.9902H9.69922V82.3791Z"></path>
<path fill="#262523" d="M127.887 68.9902H125.809V82.3791H127.887V68.9902Z"></path>
<path fill="#262523" d="M129.879 82.3791H138.177V80.2875H131.958V76.7334H138.177V74.6418H131.958V71.0819H138.177V68.9902H129.879V82.3791Z"></path>
<path fill="#262523" d="M109.984 77.3276C111.767 76.4479 112.642 75.2593 112.642 73.4823C112.654 72.8926 112.548 72.3065 112.331 71.7588C112.113 71.2111 111.789 70.7131 111.376 70.2945C110.963 69.8758 110.47 69.5451 109.928 69.322C109.385 69.0989 108.803 68.988 108.217 68.996H103.156V82.3965H105.229V77.6306H107.604L110.574 82.3965H113.221L109.984 77.3276ZM105.235 75.5506V71.0702H108.217C109.688 71.0702 110.58 72.0781 110.58 73.558C110.58 74.7233 109.422 75.5506 108.217 75.5506H105.235Z"></path>
<path fill="#262523" d="M52.6769 77.3276C54.4605 76.4479 55.3349 75.2593 55.3349 73.4823C55.3474 72.8926 55.2417 72.3065 55.0242 71.7588C54.8068 71.2111 54.4819 70.7131 54.0691 70.2945C53.6562 69.8758 53.1638 69.5451 52.6212 69.322C52.0786 69.0989 51.4969 68.988 50.9107 68.996H45.8496V82.3965H47.9285V77.6248H50.3027L53.2734 82.3965H55.9139L52.6769 77.3276ZM47.9285 75.5506V71.0702H50.9107C51.2343 71.0537 51.5577 71.1075 51.8588 71.2278C52.1599 71.3482 52.4318 71.5324 52.6559 71.7678C52.88 72.0033 53.0512 72.2845 53.1577 72.5924C53.2642 72.9003 53.3037 73.2276 53.2734 73.5522C53.2734 74.7524 52.0805 75.5506 50.9107 75.5506H47.9285Z"></path>
<path fill="#262523" d="M147.054 77.3276C148.837 76.4479 149.712 75.2593 149.712 73.4823C149.724 72.8926 149.619 72.3065 149.401 71.7588C149.184 71.2111 148.859 70.7131 148.446 70.2945C148.033 69.8758 147.541 69.5451 146.998 69.322C146.455 69.0989 145.874 68.988 145.288 68.996H140.227V82.3965H142.288V77.6306H144.662L147.633 82.3965H150.279L147.054 77.3276ZM142.305 75.5506V71.0702H145.288C146.759 71.0702 147.65 72.0781 147.65 73.558C147.65 74.7233 146.492 75.5506 145.288 75.5506H142.305Z"></path>
<path fill="#262523" d="M92.7949 82.3791H101.093V80.2875H94.8738V76.7334H101.093V74.6418H94.8738V71.0819H101.093V68.9902H92.7949V82.3791Z"></path>
<path fill="#262523" d="M27.2402 68.9961H24.9239L19 82.3966H21.3742L22.5034 79.699H29.6608L30.8189 82.3966H33.1931L27.2402 68.9961ZM23.3778 77.619L26.0937 71.1169L28.7922 77.619H23.3778Z"></path>
<path fill="#262523" d="M64.9941 68.9961H62.6778L56.7539 82.3966H59.1281L60.2863 79.699H67.4436L68.6018 82.3966H70.9818L64.9941 68.9961ZM61.1317 77.619L63.8476 71.1169L66.5576 77.619H61.1317Z"></path>
<path fill="#262523" d="M90.6877 69.0194H88.8868L83.6114 77.6365L78.3186 68.9902H76.5293V82.3791H78.6082V73.4765L83.0613 80.3166H84.1789L88.6088 73.4765V82.3791H90.6877V69.0194Z"></path>
</g>
<defs>
<clipPath id="clip0_977_51834">
<rect transform="translate(9.69922 68.9492)" fill="white" height="23.1013" width="140.6"></rect>
</clipPath>
</defs>
</svg>
