<svg xmlns="http://www.w3.org/2000/svg" fill="none" viewBox="0 0 160 160" height="160" width="160">
<path fill="#262523" d="M77.1415 84.9562C77.0769 84.9593 77.0403 84.9626 77.0036 84.9626C73.3522 84.9626 69.7011 84.9627 66.0498 84.9624C65.887 84.9624 65.8861 84.9624 65.8872 85.1228C65.8944 86.2129 66.0513 87.2762 66.4658 88.2915C66.8785 89.3028 67.4921 90.1673 68.3799 90.8189C69.3463 91.5284 70.429 91.8639 71.6338 91.8077C72.4486 91.7696 73.223 91.5797 73.9588 91.235C74.5487 90.9586 75.0783 90.5883 75.5659 90.1577C75.6772 90.0595 75.7875 89.96 75.8997 89.8596C76.0758 90.0343 76.2487 90.2054 76.4342 90.3895C76.3233 90.5039 76.2176 90.6217 76.1029 90.7299C75.3947 91.3985 74.5905 91.9181 73.6798 92.2691C73.0261 92.5209 72.3494 92.6706 71.6499 92.7168C70.6597 92.7824 69.696 92.6568 68.7608 92.3231C67.8145 91.9853 66.9806 91.4659 66.2624 90.7649C65.2458 89.7726 64.5884 88.5764 64.2526 87.2019C64.0635 86.4262 63.9617 85.6366 64.0134 84.8391C64.0585 84.1388 64.1779 83.4474 64.4004 82.7772C64.7587 81.6983 65.3254 80.7441 66.1253 79.9349C66.7052 79.3484 67.3714 78.8819 68.1275 78.5401C69.1556 78.0752 70.2307 77.909 71.3496 77.994C72.1435 78.0545 72.9065 78.2399 73.6243 78.5897C74.6972 79.1124 75.5134 79.9073 76.1042 80.9378C76.6526 81.8942 76.9473 82.93 77.0644 84.0198C77.0973 84.3253 77.1154 84.6325 77.1415 84.9562ZM65.874 84.1207C69.0425 84.1207 72.1772 84.1207 75.3193 84.1207C75.3193 84.0874 75.3202 84.0622 75.3191 84.0368C75.2786 83.0679 75.079 82.136 74.6417 81.2655C74.1385 80.2636 73.4079 79.487 72.3534 79.051C71.6897 78.7766 70.9982 78.6769 70.2862 78.7853C69.1836 78.9535 68.2746 79.4919 67.5091 80.2836C66.7283 81.0915 66.2543 82.0626 66.0234 83.154C65.957 83.4686 65.9241 83.7901 65.874 84.1207Z"></path>
<path fill="#262523" d="M95.8792 69.9192C95.6816 70.0589 95.4944 70.1912 95.3067 70.3239C95.2067 70.1925 95.1171 70.066 95.0187 69.9464C93.8374 68.5097 91.5943 68.511 90.409 69.9422C90.035 70.3938 89.8304 70.9142 89.7168 71.4793C89.5713 72.2031 89.5163 72.935 89.5156 73.6717C89.5143 75.0808 89.5152 76.4901 89.5152 77.8992C89.5152 77.9467 89.5152 77.9942 89.5152 78.0553C90.9464 78.0553 92.3671 78.0553 93.7952 78.0553C93.7952 78.3719 93.7952 78.6751 93.7952 78.9981C92.3725 78.9981 90.9491 78.9981 89.5145 78.9981C89.5145 83.5147 89.5145 88.0115 89.5145 92.5211C89.4635 92.5211 89.4235 92.5211 89.3837 92.5211C88.8769 92.5211 88.3703 92.5185 87.8635 92.5234C87.7663 92.5243 87.7471 92.4908 87.7471 92.402C87.7489 86.2597 87.7444 80.1176 87.7529 73.9753C87.7542 72.9259 87.9223 71.8965 88.3102 70.9129C88.6223 70.122 89.0763 69.4291 89.7522 68.8977C90.3578 68.4214 91.0495 68.1496 91.8138 68.0599C92.0154 68.0363 92.2182 67.9957 92.4196 68.0004C93.372 68.022 94.2392 68.2984 94.9874 68.9024C95.3196 69.1705 95.5991 69.4878 95.8372 69.8414C95.8517 69.8619 95.8615 69.8858 95.8792 69.9192Z"></path>
<path fill="#262523" d="M82.9125 92.5156C82.3265 92.5156 81.7471 92.5156 81.1511 92.5156C81.1511 92.4714 81.1511 92.4322 81.1511 92.3929C81.1511 84.8306 81.1513 77.2683 81.1504 69.706C81.1504 69.1018 81.3907 68.6293 81.9033 68.3018C82.0759 68.1916 82.2662 68.1296 82.4723 68.1251C82.6165 68.122 82.7609 68.1245 82.9122 68.1245C82.9125 76.257 82.9125 84.3788 82.9125 92.5156Z"></path>
<path fill="#262523" d="M85.8313 92.0716C85.8304 92.3371 85.6154 92.5506 85.3478 92.5515C85.0697 92.5526 84.8522 92.3339 84.8555 92.0566C84.8589 91.7867 85.0791 91.5741 85.3516 91.5774C85.623 91.581 85.8324 91.7967 85.8313 92.0716Z"></path>
<path fill="#262523" d="M92.6068 92.0671C92.607 92.3377 92.3926 92.5497 92.1167 92.5514C91.8527 92.5532 91.633 92.3366 91.6318 92.0733C91.6307 91.7918 91.8438 91.5758 92.1217 91.5774C92.3964 91.5792 92.6066 91.7911 92.6068 92.0671Z"></path>
<path fill="#262523" d="M78.4523 91.5774C78.7248 91.5785 78.9408 91.7945 78.9401 92.0651C78.9395 92.331 78.7233 92.5517 78.4622 92.5528C78.184 92.5541 77.9616 92.3373 77.9609 92.064C77.9603 91.7985 78.1847 91.5763 78.4523 91.5774Z"></path>
</svg>
