<svg xmlns="http://www.w3.org/2000/svg" fill="none" viewBox="0 0 160 160" height="160" width="160">
<path fill="#262523" d="M77.7858 52.0289C77.4028 52.0559 77.1546 52.0933 77.0407 52.1412C76.9582 52.1759 76.9536 52.1841 76.9662 52.2759C76.9735 52.3297 76.997 52.7506 77.0184 53.2113C77.0679 54.2775 77.1004 54.8175 77.147 55.3504C77.1914 55.8592 77.2838 56.5581 77.3142 56.6163C77.3482 56.6813 77.526 56.7176 77.8882 56.7334C78.4438 56.7577 78.8669 56.6514 78.9408 56.4689C78.9657 56.4075 78.966 56.3769 78.9419 56.3284C78.8706 56.1843 78.7129 56.1704 78.2338 56.2658C78.0578 56.3009 77.8721 56.3296 77.8212 56.3296L77.7285 56.3297L77.675 55.9883C77.6455 55.8004 77.6037 55.4438 77.5821 55.1958C77.5605 54.9477 77.5382 54.702 77.5326 54.6498C77.5203 54.5359 77.538 54.526 77.7559 54.5249C77.9821 54.5237 78.2729 54.4818 78.3567 54.4381C78.4305 54.3997 78.4898 54.3019 78.4898 54.2187C78.4898 54.1929 78.4659 54.1412 78.4367 54.1039C78.3916 54.0461 78.3639 54.036 78.2511 54.036C78.1783 54.036 78.0207 54.0534 77.901 54.0747C77.7813 54.0959 77.646 54.1133 77.6002 54.1133C77.5181 54.1133 77.517 54.1117 77.5165 53.9909C77.5163 53.9236 77.4938 53.7003 77.4666 53.4948C77.4394 53.2892 77.3981 52.9775 77.3748 52.8021C77.3421 52.5557 77.3395 52.4787 77.3633 52.4639C77.3803 52.4534 77.5744 52.4394 77.7948 52.4329C78.2272 52.4201 78.4018 52.3751 78.4627 52.2607C78.504 52.1828 78.469 52.0811 78.3857 52.0377C78.3073 51.9969 78.2522 51.9961 77.7858 52.0289ZM79.885 52.0734C79.5787 52.2198 79.4171 52.4926 79.3924 52.9051C79.3773 53.1578 79.4083 53.3248 79.5149 53.564C79.6054 53.7672 79.6993 53.906 79.9736 54.2422C80.095 54.391 80.2419 54.5766 80.3001 54.6545C80.5397 54.9758 80.688 55.3994 80.6507 55.6567C80.5972 56.0265 80.2896 56.2394 79.9905 56.1136C79.8329 56.0474 79.7602 55.8675 79.7185 55.4406C79.6804 55.0506 79.6492 54.9106 79.5852 54.842C79.4267 54.6721 79.2317 54.9003 79.2324 55.255C79.2326 55.4016 79.3048 55.8223 79.3609 56.0044C79.5145 56.5032 80.0595 56.6944 80.6136 56.4441C80.9362 56.2983 81.0606 56.0619 81.0604 55.5952C81.0602 55.339 81.0523 55.2908 80.9782 55.0941C80.8341 54.7117 80.5557 54.2779 80.1793 53.8495C79.8387 53.4618 79.7629 53.3175 79.7492 53.0309C79.7315 52.6612 79.8143 52.4869 80.0632 52.3702C80.2427 52.2861 80.4311 52.2873 80.5326 52.3732C80.6266 52.4528 80.6545 52.5258 80.6901 52.7847C80.7255 53.0421 80.7816 53.1468 80.8841 53.1468C80.9965 53.1468 81.0286 53.0632 81.0173 52.7989C81.0021 52.4405 80.8713 52.2233 80.5834 52.0785C80.4505 52.0117 80.3983 52 80.2329 52C80.0724 52 80.012 52.0128 79.885 52.0734ZM81.6713 52.1281C81.589 52.1478 81.4595 52.2205 81.4595 52.2471C81.4595 52.3745 81.752 52.4589 82.2242 52.4677L82.3874 52.4708L82.3719 52.6284C82.3564 52.7859 82.3295 53.4145 82.2779 54.8221C82.2628 55.2331 82.2392 55.6796 82.2254 55.8143C82.1686 56.3703 82.1685 56.439 82.2253 56.5295C82.2673 56.5963 82.295 56.6132 82.3622 56.6132C82.5609 56.6132 82.592 56.5279 82.6492 55.8272C82.7171 54.9955 82.7882 53.3816 82.7903 52.625L82.7907 52.4897L82.8739 52.4896C82.9196 52.4896 83.0507 52.5027 83.1651 52.5189C83.417 52.5543 83.545 52.5347 83.5984 52.4525C83.6637 52.3523 83.6226 52.2605 83.4852 52.1992C83.387 52.1555 83.2849 52.1435 82.8679 52.1263C82.2546 52.1012 81.781 52.1019 81.6713 52.1281ZM86.0547 52.1709C85.6367 52.2357 85.4495 52.4189 85.3518 52.8586C85.3387 52.9179 85.3091 53.123 85.2861 53.3144C85.2631 53.5057 85.1945 53.9116 85.1336 54.2164C84.8793 55.4891 84.8631 55.8589 85.0445 56.2415C85.1773 56.5217 85.5361 56.7936 85.7729 56.7936C85.9085 56.7936 85.9597 56.8457 86.0916 57.1176C86.3534 57.6572 86.7148 57.903 87.6417 58.1718C88.378 58.3854 88.9453 58.4911 89.9204 58.5966C91.4535 58.7625 92.0985 58.8362 92.3268 58.8718C93.052 58.9847 94.003 59.2341 95.0599 59.5886C95.6361 59.7818 95.7982 59.8487 96.2874 60.0949C97.0436 60.4755 97.2088 60.5965 97.4177 60.9231C97.5915 61.195 97.7321 61.2634 97.8786 61.1473C97.9688 61.0759 97.9654 60.9901 97.8642 60.786C97.7549 60.5657 97.4186 60.2269 97.1013 60.0176C96.8294 59.8383 96.2125 59.5259 95.8552 59.3866C95.4292 59.2204 94.5626 58.9381 94.0292 58.7916C92.9577 58.4974 91.9119 58.3217 90.8804 58.2627C89.9618 58.2102 89.2486 58.1371 88.8611 58.0557C88.2901 57.9358 86.9238 57.5078 86.8007 57.4104C86.7311 57.3553 86.3747 56.8059 86.3747 56.7537C86.3747 56.7366 86.3936 56.7069 86.4166 56.6876C86.5401 56.5845 86.6549 56.3019 86.7191 55.9432C86.7432 55.8085 86.8013 55.5359 86.8483 55.3375C86.9568 54.8789 87.0314 54.4852 87.0533 54.2551C87.0628 54.1558 87.0928 53.9316 87.1199 53.7567C87.1885 53.3142 87.1881 53.0594 87.1183 52.8527C86.9939 52.4837 86.8341 52.2705 86.6375 52.2113C86.5201 52.1758 86.1764 52.1521 86.0547 52.1709ZM75.7463 52.3487C75.5957 52.431 75.5717 52.7803 75.6685 53.4819C75.8082 54.4942 75.8948 55.5529 75.8295 55.4504C75.7768 55.3675 75.5236 54.7618 75.3675 54.3453C74.8481 52.9586 74.6954 52.6435 74.4919 52.539C74.3616 52.4721 74.2805 52.4898 74.2139 52.5999C74.1526 52.7011 74.1494 52.849 74.2009 53.2003C74.2215 53.341 74.2681 53.7808 74.3045 54.1777C74.3408 54.5746 74.3933 55.0559 74.4212 55.2473C74.449 55.4387 74.4895 55.7286 74.511 55.8916C74.5836 56.4404 74.6599 56.7228 74.7638 56.8275C74.8165 56.8805 74.9548 56.8842 75.0225 56.8344C75.1014 56.7764 75.0877 56.4822 74.9769 55.853C74.8566 55.1698 74.7406 54.1724 74.7867 54.2173C74.7945 54.2249 74.8866 54.4394 74.9914 54.6941C75.2392 55.2964 75.4557 55.7872 75.6756 56.2452C75.9463 56.809 76.1219 56.9531 76.3701 56.815L76.4802 56.7538L76.4725 56.4967C76.4608 56.1081 76.3994 55.5279 76.2747 54.6288C76.1036 53.3944 76.0836 53.2245 76.0678 52.8762C76.0513 52.512 76.0267 52.4036 75.9477 52.348C75.8801 52.3003 75.8345 52.3004 75.7463 52.3487ZM86.4806 52.5873C86.6488 52.6752 86.7682 52.8415 86.8105 53.0466C86.8357 53.1687 86.8322 53.2385 86.7878 53.5038C86.7589 53.676 86.717 53.9561 86.6945 54.1262C86.6323 54.5968 86.3271 56.0961 86.2681 56.2209C86.1962 56.3726 86.1034 56.417 85.8933 56.4C85.7115 56.3853 85.6301 56.3398 85.5357 56.2001C85.3261 55.8902 85.3508 55.1724 85.6099 54.036C85.6665 53.7879 85.7247 53.4516 85.7393 53.2886C85.7756 52.882 85.8053 52.7366 85.8684 52.6557C85.9911 52.4988 86.255 52.4693 86.4806 52.5873ZM88.1309 52.6496C88.0236 52.8145 87.9674 53.1122 87.8594 54.0875C87.8163 54.4773 87.7518 54.9239 87.716 55.0798C87.5241 55.9169 87.4973 56.1314 87.5539 56.3783C87.6906 56.9755 88.294 57.3374 88.8512 57.1565C89.3202 57.0042 89.5067 56.692 89.6405 55.8356C89.6766 55.6042 89.7631 55.1191 89.8327 54.7576C90.028 53.7428 90.091 53.0188 89.9957 52.882C89.9417 52.8043 89.8467 52.809 89.7814 52.8927C89.705 52.9905 89.6581 53.1689 89.5862 53.6365C89.5513 53.8633 89.4703 54.3156 89.4061 54.6416C89.3419 54.9677 89.2622 55.4374 89.2289 55.6854C89.1561 56.2278 89.0966 56.4353 88.9719 56.5819C88.7224 56.8754 88.2126 56.7859 87.9801 56.4078C87.9089 56.2918 87.9102 56.0585 87.9843 55.6853C88.0138 55.5365 88.1074 54.9335 88.1922 54.3453C88.277 53.757 88.3576 53.2293 88.3712 53.1726C88.4104 53.0091 88.402 52.796 88.3523 52.6958C88.2954 52.5812 88.1898 52.5591 88.1309 52.6496ZM73.0473 52.7244C72.9762 52.8037 72.9824 53.1991 73.0593 53.4905C73.0904 53.6086 73.1672 54.0435 73.2298 54.4569C73.3377 55.1694 73.4677 55.9399 73.5722 56.4864C73.6511 56.899 73.7646 57.0801 73.9196 57.0409C74.0025 57.02 74.0235 56.9404 74.0189 56.6648C74.0153 56.446 73.9905 56.3086 73.8195 55.5566C73.7696 55.3369 73.7107 54.9889 73.6887 54.7834C73.6668 54.5779 73.6098 54.2125 73.5622 53.9716C73.5146 53.7306 73.4569 53.4246 73.4341 53.2917C73.3857 53.0099 73.3182 52.8164 73.2384 52.7309C73.1682 52.6557 73.1107 52.6537 73.0473 52.7244ZM71.7569 52.8989C71.6654 52.924 71.4308 52.9958 71.2357 53.0585L70.8809 53.1726L70.8974 53.4175C70.9183 53.727 70.9783 54.0265 71.1686 54.7705C71.3569 55.5062 71.4145 55.7885 71.4369 56.0849C71.4635 56.4355 71.6146 57.0191 71.7504 57.2962C71.8753 57.5509 71.991 57.6193 72.1217 57.5157C72.2566 57.4089 72.2391 57.2153 72.0349 56.5537C71.8955 56.1022 71.809 55.7288 71.8085 55.5768C71.808 55.4563 71.8178 55.451 72.2327 55.3489C72.5967 55.2592 72.7631 55.1914 72.8201 55.1095C72.8695 55.0385 72.8682 54.9006 72.8175 54.8497C72.7148 54.7463 72.5389 54.7646 72.1204 54.9222C71.666 55.0933 71.7059 55.1054 71.6215 54.7705C71.5822 54.6146 71.4871 54.2615 71.4102 53.9858C71.3284 53.6927 71.2798 53.4752 71.2931 53.4617C71.3056 53.4491 71.5048 53.4066 71.7357 53.3674C72.2101 53.2866 72.3865 53.2233 72.4111 53.1248C72.4703 52.8872 72.1739 52.7849 71.7569 52.8989ZM91.5233 53.2822C91.3845 53.3982 91.0665 54.0429 90.6109 55.1324C90.3678 55.7137 90.163 56.1522 89.9408 56.5677C89.8419 56.7528 89.8187 56.8216 89.8108 56.9543C89.799 57.1523 89.8354 57.2152 89.9596 57.2116C90.0064 57.2103 90.0744 57.1872 90.1106 57.1604C90.149 57.1319 90.2774 56.918 90.4196 56.6452C90.5534 56.3887 90.6765 56.1577 90.6932 56.1319C90.7215 56.088 90.7431 56.0947 91.0231 56.2347L91.3226 56.3845L91.3065 56.5569C91.2977 56.6517 91.2791 56.8478 91.2653 56.9928C91.2277 57.3865 91.2819 57.5913 91.4339 57.6297C91.5287 57.6537 91.6302 57.5758 91.6533 57.4613C91.6995 57.2327 91.7882 55.68 91.788 55.1056C91.7877 54.362 91.7519 53.3754 91.7222 53.295C91.6961 53.224 91.6004 53.2177 91.5233 53.2822ZM93.1756 53.6355C93.1005 53.6928 92.7965 54.693 92.4798 55.9251C92.388 56.2823 92.2735 56.7253 92.2254 56.9096C92.0129 57.7244 92.0299 57.7756 92.5594 57.9171C92.699 57.9544 92.9214 58.0313 93.0535 58.0881C93.36 58.2196 93.467 58.236 93.5399 58.1626C93.5982 58.1038 93.6113 57.9824 93.568 57.901C93.5251 57.8203 93.3446 57.7329 92.9924 57.6222C92.8094 57.5647 92.6369 57.5009 92.6091 57.4804C92.5595 57.4438 92.5647 57.4177 92.8703 56.1841C93.1854 54.9118 93.2814 54.4682 93.3527 53.9537C93.3828 53.7362 93.3849 53.6623 93.3618 53.6343C93.3238 53.5882 93.2369 53.5888 93.1756 53.6355ZM68.4673 53.6669C68.3279 53.6983 68.0468 53.7992 67.7057 53.9404C67.4263 54.0559 67.3281 54.1081 67.3281 54.1408C67.3281 54.1651 67.3504 54.2944 67.3778 54.4283C67.4923 54.9884 67.6702 55.6223 68.0049 56.662C68.0979 56.9511 68.215 57.3511 68.2649 57.551C68.3822 58.0197 68.4353 58.1289 68.5834 58.2065C68.6736 58.2537 68.7251 58.2637 68.8277 58.2539C68.9389 58.2433 69.5454 58.0647 69.91 57.9351C70.0675 57.8792 70.1953 57.76 70.1953 57.6691C70.1953 57.5497 70.1375 57.5153 69.9375 57.5153C69.7581 57.5153 69.6322 57.5495 69.0945 57.7448C68.7966 57.853 68.7723 57.8509 68.7512 57.715C68.7419 57.6548 68.6352 57.3107 68.5142 56.9504C68.2606 56.1954 68.2554 56.2561 68.5797 56.1872C68.6868 56.1644 68.8515 56.1233 68.9457 56.0957C69.2434 56.0088 69.3895 55.8012 69.2453 55.6701C69.1588 55.5915 68.9542 55.6107 68.5825 55.7321C68.4065 55.7896 68.2408 55.8403 68.2142 55.8448C68.1602 55.8539 68.1367 55.7816 67.8781 54.8106C67.78 54.4422 67.7465 54.2784 67.7666 54.2659C67.7824 54.256 67.9466 54.218 68.1313 54.1814C68.6922 54.0703 68.8728 53.9965 68.9055 53.8653C68.9258 53.7841 68.8957 53.7262 68.8104 53.682C68.7508 53.6512 68.572 53.6433 68.4673 53.6669ZM95.1339 54.2568C95.0773 54.3215 94.9967 54.4578 94.9547 54.5596C94.8349 54.8501 94.6144 55.5804 94.4047 56.3813C94.2989 56.7853 94.17 57.2318 94.1184 57.3735C93.8954 57.9855 93.8721 58.0936 93.9285 58.2565C93.9748 58.3901 94.13 58.3961 94.2644 58.2695C94.3495 58.1893 94.4175 58.0194 94.5031 57.6734C94.5395 57.5265 94.6271 57.2134 94.6978 56.9776C94.7685 56.7417 94.9347 56.1073 95.0672 55.5676C95.1996 55.028 95.3256 54.5442 95.347 54.4925C95.4028 54.358 95.3962 54.2608 95.3268 54.1951C95.2942 54.1643 95.2606 54.1391 95.2522 54.1391C95.2437 54.1391 95.1905 54.192 95.1339 54.2568ZM91.3892 55.0282C91.3917 55.5248 91.3688 55.8725 91.3309 55.9106C91.3069 55.9348 90.8804 55.7071 90.8804 55.67C90.8804 55.6493 90.9774 55.3688 91.0959 55.0468C91.2145 54.7247 91.3205 54.4264 91.3316 54.3839L91.3518 54.3066L91.3691 54.3839C91.3786 54.4264 91.3876 54.7164 91.3892 55.0282ZM95.9619 54.4231C95.9359 54.5056 95.9714 54.6159 96.0465 54.6864C96.1331 54.7677 96.1808 54.7923 96.4145 54.8762C96.5177 54.9132 96.6113 54.9521 96.6225 54.9626C96.6338 54.9732 96.6067 55.0734 96.5624 55.1854C96.2956 55.8586 95.5896 57.8255 95.4856 58.1848C95.4202 58.4107 95.4214 58.6075 95.4885 58.675C95.5691 58.7562 95.675 58.7414 95.7667 58.6363C95.8559 58.534 96.0233 58.0364 96.1525 57.4895C96.2643 57.0158 96.3168 56.86 96.5522 56.3024C96.8163 55.6768 96.858 55.5669 96.9238 55.3246C96.9526 55.2183 96.9811 55.1166 96.987 55.0985C96.9954 55.0729 97.0189 55.0749 97.0943 55.1075C97.3067 55.1995 97.5506 55.2731 97.6434 55.2731C97.762 55.2731 97.8437 55.2013 97.8437 55.0971C97.8437 54.9498 97.6387 54.8375 96.9477 54.6066C96.2489 54.3731 95.9927 54.3254 95.9619 54.4231ZM66.1621 54.5632C66.0873 54.6385 66.0819 54.7321 66.1395 54.9519C66.1617 55.0364 66.2189 55.2621 66.2666 55.4535C66.3143 55.6448 66.3934 55.9403 66.4424 56.1101C66.4914 56.2798 66.5289 56.4212 66.5259 56.4243C66.5111 56.4392 66.0667 56.5987 65.9201 56.6417C65.691 56.709 65.6478 56.7058 65.6264 56.6201C65.6168 56.5814 65.5463 56.3913 65.4699 56.1977C65.3934 56.0041 65.297 55.7159 65.2557 55.5572C65.1749 55.2473 65.0557 55.0428 64.9102 54.9645C64.8456 54.9298 64.8367 54.9307 64.8038 54.9759C64.7536 55.045 64.7592 55.1721 64.8195 55.3308C64.8479 55.4054 64.9289 55.7023 64.9996 55.9908C65.1502 56.6049 65.282 57.0036 65.6313 57.9019C65.7719 58.2633 65.9018 58.617 65.92 58.6879C65.9928 58.9717 66.1185 59.0987 66.2617 59.033C66.3061 59.0126 66.3395 58.9692 66.3569 58.9092C66.3933 58.7838 66.305 58.4401 66.1102 57.9498C66.0294 57.7463 65.9251 57.47 65.8785 57.3358C65.7897 57.0802 65.7928 57.0526 65.9104 57.0518C65.9403 57.0515 66.1089 57.005 66.285 56.9483C66.4612 56.8916 66.6158 56.8452 66.6286 56.8452C66.6414 56.8452 66.6663 56.9003 66.6839 56.9676C66.7016 57.035 66.8069 57.2872 66.9179 57.5282C67.0289 57.7691 67.1452 58.0533 67.1763 58.1596C67.2793 58.5112 67.3628 58.6235 67.5213 58.6235C67.5726 58.6235 67.6217 58.601 67.66 58.5599C67.7653 58.4472 67.7282 58.2857 67.4349 57.5797C67.1079 56.7928 66.7562 55.7547 66.6717 55.3269C66.596 54.9442 66.4845 54.6561 66.3767 54.5647C66.2809 54.4837 66.2413 54.4834 66.1621 54.5632ZM98.0151 55.1172C97.9245 55.2255 97.9089 55.3681 97.9358 55.8394C97.9484 56.0595 97.9587 56.4541 97.9588 56.7163C97.9589 57.2984 97.9311 57.4293 97.637 58.2287C97.4346 58.7786 97.3507 59.0645 97.3188 59.3122C97.3015 59.4467 97.3016 59.4469 97.3907 59.4896C97.4978 59.5411 97.5926 59.5232 97.6437 59.4421C97.6639 59.41 97.8055 59.0184 97.9584 58.5719C98.1112 58.1254 98.2585 57.6985 98.2856 57.6232C98.3485 57.4488 98.6171 57.1706 99.0981 56.7815C99.7385 56.2635 100.068 55.8761 99.9979 55.7221C99.9642 55.6475 99.8767 55.64 99.7496 55.7007C99.6491 55.7487 99.6024 55.7924 99.3832 56.0432C99.2673 56.1758 99.1306 56.2898 98.9096 56.4382C98.7387 56.553 98.5566 56.6802 98.5048 56.7209C98.4531 56.7616 98.4054 56.7859 98.3989 56.775C98.3744 56.7334 98.3526 56.425 98.3312 55.8171C98.3115 55.2563 98.3037 55.1812 98.2595 55.1212C98.1867 55.0227 98.0953 55.0212 98.0151 55.1172ZM63.9744 55.1609C63.8648 55.199 63.4671 55.3801 62.9614 55.6222C62.7033 55.7458 62.5783 55.8475 62.5513 55.9561C62.5085 56.1276 62.7585 56.1399 63.1294 55.9848C63.249 55.9347 63.3539 55.902 63.3625 55.912C63.3711 55.9221 63.4734 56.2086 63.5898 56.5488C63.8232 57.2309 64.0515 57.8407 64.2943 58.4302C64.3819 58.6428 64.4795 58.898 64.5113 58.9972C64.623 59.3462 64.7566 59.4976 64.9208 59.4613C65.0356 59.4359 65.0886 59.3576 65.0844 59.2195C65.0804 59.09 65.0516 59.0104 64.621 57.9405C64.4007 57.3929 64.0891 56.606 63.7525 55.7472C63.7408 55.7173 63.8903 55.6461 64.1276 55.5685C64.3834 55.4849 64.4795 55.3153 64.3468 55.1817C64.2723 55.1067 64.15 55.0999 63.9744 55.1609ZM55.5063 60.2629C55.4003 60.3109 55.2546 60.767 55.1173 61.4808C54.9921 62.1323 54.917 62.4035 54.7937 62.6499C54.7247 62.7878 54.6802 62.9385 54.6172 63.2481C54.5217 63.7168 54.3956 64.1684 53.994 65.4789C53.5198 67.0262 53.3246 67.7926 53.3246 68.1072C53.3246 68.2631 53.3122 68.3064 53.2067 68.5173C53.1137 68.7033 53.0813 68.8033 53.0533 68.991C53.0338 69.1218 53.0177 69.2737 53.0176 69.3286C53.017 69.6541 52.8966 70.2048 52.6451 71.0329C52.3719 71.9319 52.3255 72.1524 52.197 73.1591C52.0669 74.1793 52.0189 74.4085 51.7995 75.0572C51.7413 75.2292 51.7031 75.4025 51.688 75.5632C51.6754 75.6976 51.6471 75.8426 51.6251 75.8853C51.5729 75.987 51.5428 76.1272 51.4809 76.5559C51.4142 77.0173 51.3919 77.1273 51.1092 78.3909C50.9776 78.9792 50.8398 79.6402 50.803 79.86C50.6928 80.5185 50.7245 80.4566 50.4225 80.6048C50.2798 80.6748 49.9902 80.7929 49.779 80.8672C49.5678 80.9416 49.2049 81.0712 48.9726 81.1553C48.3811 81.3695 48.3183 81.3856 48.1987 81.3532C48.0279 81.3068 47.9997 81.3319 48 81.5304C48.0001 81.6252 48.0277 81.8245 48.0612 81.9733C48.181 82.5048 48.3468 82.8276 48.6287 83.0779C48.9625 83.3742 49.1904 83.3881 49.9167 83.1562C50.0488 83.1141 50.16 83.0829 50.1638 83.087C50.1676 83.0911 50.1549 83.1783 50.1355 83.2809C50.0709 83.6227 49.999 84.168 49.8948 85.1046C49.7753 86.1788 49.7195 86.5875 49.5972 87.2824C49.4504 88.1164 49.4046 88.5341 49.4023 89.0607C49.3997 89.6742 49.4488 90.0383 49.5484 90.1429C49.627 90.2255 49.8978 90.3236 50.0473 90.3236C50.1687 90.3236 50.2282 90.2681 50.2913 90.0962C50.3589 89.9119 50.3964 89.8655 50.5337 89.7955C50.6034 89.7599 50.6732 89.7066 50.689 89.677C50.7259 89.6076 50.8909 88.8744 51.1642 87.5659C51.4459 86.217 51.4418 86.2396 51.5328 85.5299C51.6662 84.4898 51.9293 83.2156 52.094 82.8127C52.1515 82.6719 52.2172 82.4632 52.24 82.3488C52.3048 82.0236 52.3127 82.0141 52.6006 81.9213C53.2518 81.7113 54.1444 81.484 54.7739 81.3679C55.0994 81.3079 55.7907 81.2009 55.7983 81.2094C55.8001 81.2114 55.7292 81.5029 55.6408 81.8573C55.4147 82.7646 55.3348 83.1862 55.2577 83.8805C55.2206 84.2136 55.1389 84.7512 55.0761 85.0752C54.9644 85.6519 54.9236 85.9427 54.8578 86.6317C54.8305 86.9182 54.8312 87.0281 54.8622 87.3146C54.8825 87.5024 54.8991 87.8881 54.8991 88.1716C54.8991 88.6097 54.9057 88.6991 54.9429 88.7677C55.0084 88.888 55.1084 88.9126 55.2445 88.8417C55.2852 88.8205 55.3953 88.7923 55.4891 88.7789C55.5872 88.7649 55.681 88.7351 55.7098 88.7088C55.7919 88.634 55.9241 88.3228 56.0255 87.9654C56.2339 87.2306 56.6701 85.9588 56.9194 85.3591C56.9555 85.2722 57.003 85.0867 57.0251 84.9467C57.0967 84.4922 57.1663 84.161 57.3061 83.6098C57.5263 82.7414 57.9679 81.2802 58.0266 81.2259C58.0383 81.2151 58.1574 81.2218 58.2911 81.2408C58.4985 81.2703 59.1623 81.3393 59.7784 81.3954L59.9473 81.4107L59.9642 81.8423C60.0101 83.0174 60.2346 83.849 60.6213 84.276C60.6875 84.349 60.7839 84.4755 60.8356 84.557C60.959 84.7517 61.0713 84.8784 61.1835 84.9497C61.2791 85.0105 61.864 85.2677 62.1056 85.3552C62.3241 85.4344 62.6384 85.4224 63.1808 85.3141C63.4272 85.2649 63.8246 85.2 64.064 85.17C64.5586 85.1079 64.6517 85.0867 64.8316 84.9959C65.1245 84.848 65.4089 84.6053 65.8 84.1695C66.2982 83.6143 66.5421 83.2664 66.971 82.4993C67.1281 82.2182 67.2997 81.924 67.3524 81.8455C67.4051 81.7669 67.5131 81.589 67.5926 81.45C67.672 81.311 67.8021 81.1138 67.8816 81.0118C67.9699 80.8987 68.0991 80.6756 68.2128 80.4398C68.3154 80.2272 68.4829 79.9257 68.5852 79.7698C68.6874 79.6138 68.8397 79.3645 68.9235 79.2156C69.0941 78.9129 69.2713 78.6724 69.3585 78.6255C69.3981 78.6041 69.4366 78.602 69.4799 78.6185C69.5148 78.6319 69.6411 78.6628 69.7605 78.6873C70.1256 78.7621 70.2977 78.8844 70.2977 79.069C70.2977 79.1426 70.1991 79.3343 70.0065 79.6347C69.7496 80.0356 69.5599 80.4637 69.3502 81.1158C69.1651 81.6913 69.1365 81.8859 69.1538 82.4501C69.1699 82.9725 69.2182 83.2963 69.3307 83.6356C69.4687 84.0521 69.6211 84.2939 69.7939 84.3706C70.1032 84.5079 70.9292 84.5529 71.2994 84.4525C71.5346 84.3888 71.8422 84.2368 72.0513 84.0809C72.275 83.9142 72.8445 83.3953 73.459 82.7982L73.9963 82.2763L74.0397 82.3374C74.2797 82.6753 74.574 83.0552 74.7291 83.2274C75.2848 83.8441 75.8354 84.1822 76.4888 84.3081C77.1 84.4259 77.983 84.2085 78.4229 83.8321C78.7647 83.5396 79.2588 82.8949 79.9365 81.8573C80.1721 81.4965 80.3475 81.2581 80.4625 81.1421C80.5573 81.0464 80.6463 80.9682 80.6601 80.9682C80.6739 80.9682 80.7039 81.0432 80.7268 81.1349C80.7974 81.4177 80.9398 81.7898 81.047 81.9715C81.257 82.3273 81.6473 82.7535 82.0304 83.0455C82.2827 83.2376 82.4002 83.2805 82.7651 83.3136C82.9411 83.3296 83.1657 83.3538 83.2643 83.3674C83.3628 83.381 83.6797 83.3992 83.9683 83.4077C84.4837 83.4229 84.4966 83.422 84.6851 83.3574C84.7907 83.3213 84.9659 83.2737 85.0745 83.2518C85.3245 83.2013 85.4145 83.163 85.6131 83.0225C85.9245 82.8021 86.5915 82.433 86.6158 82.4675C86.619 82.4721 86.6428 82.5332 86.6686 82.6032C86.7586 82.8476 86.9329 82.9855 87.3219 83.1203C87.4135 83.152 87.601 83.2267 87.7387 83.2861C88.0843 83.4354 88.1191 83.4333 88.2859 83.2529C88.4568 83.068 88.508 82.9098 88.5784 82.3485C88.647 81.802 88.7298 81.4807 89.0607 80.4785C89.3222 79.6867 89.4119 79.454 89.8757 78.3652C89.9814 78.1171 90.0996 77.8201 90.1385 77.7052C90.2364 77.4153 90.2424 77.4062 90.5324 77.1009C90.6745 76.9513 90.8402 76.7689 90.9005 76.6956C90.9686 76.6128 91.0802 76.5217 91.1949 76.4551C91.2965 76.3962 91.4955 76.2754 91.6372 76.1867C92.1928 75.8388 92.4263 75.7523 92.7726 75.7661C92.9667 75.7738 93.0107 75.7846 93.1052 75.8476C93.2411 75.9382 93.3111 76.084 93.3118 76.2776C93.3124 76.4705 93.1966 77.2577 93.1436 77.421C93.12 77.4938 93.026 77.7215 92.9347 77.927C92.8434 78.1326 92.7286 78.4051 92.6795 78.5327C92.6305 78.6603 92.4891 78.9908 92.3654 79.2672C92.1123 79.8325 92.0403 80.0441 91.9437 80.5056C91.9068 80.6821 91.8486 80.9308 91.8144 81.0584C91.7297 81.3738 91.7133 81.5463 91.7507 81.7296C91.8276 82.1073 91.9709 82.2711 92.4674 82.5484C92.9025 82.7914 93.1703 82.8787 93.53 82.8945C94.0238 82.9163 94.4801 82.8017 95.0917 82.5023C95.5011 82.3018 95.7992 82.091 96.1522 81.7521C96.4476 81.4686 96.8196 81.2081 96.8789 81.2434C97.0175 81.3258 97.197 81.5361 97.5099 81.9832C97.8733 82.5023 97.9552 82.5746 98.4186 82.7858C98.5459 82.8438 98.7574 82.9567 98.8885 83.0366C99.2332 83.2466 99.3397 83.2743 99.8021 83.2738C100.4 83.2732 100.559 83.2141 101.119 82.7854C101.559 82.4493 101.95 82.098 102.937 81.1526C103.517 80.5968 103.94 80.2175 104.231 79.9929L104.436 79.8346L104.442 79.9955C104.474 80.8756 104.614 81.7031 104.797 82.0935C104.834 82.1724 104.912 82.2856 104.97 82.3451C105.074 82.4511 105.743 82.8495 105.931 82.9173C106.045 82.9584 106.813 82.9639 107.192 82.9263C107.337 82.9118 107.537 82.8762 107.636 82.8471C107.819 82.7929 108.43 82.4647 108.719 82.2648C108.808 82.2032 108.928 82.1286 108.986 82.0989C109.044 82.0692 109.15 81.9901 109.221 81.923C109.293 81.856 109.461 81.7158 109.594 81.6115C110.367 81.0092 110.493 80.8709 110.97 80.1067C111.366 79.4726 111.419 79.3582 111.431 79.0997C111.44 78.9224 111.433 78.8773 111.382 78.7777C111.303 78.6238 111.183 78.5456 111.027 78.5456C110.842 78.5456 110.7 78.6563 110.438 79.004C110.193 79.3281 109.84 79.6996 109.607 79.8775C109.523 79.942 109.35 80.0471 109.223 80.1111C109.096 80.1751 108.947 80.2588 108.89 80.2971C108.778 80.3734 108.271 80.659 108.076 80.7558C107.896 80.8453 107.637 80.8912 107.294 80.8946C106.948 80.898 106.833 80.8697 106.772 80.7659C106.709 80.6589 106.606 80.1133 106.56 79.6409C106.538 79.4141 106.492 78.9646 106.457 78.6421C106.389 78.0051 106.374 77.3302 106.423 77.0971C106.454 76.9518 106.498 76.8754 106.658 76.69C106.713 76.6262 106.813 76.4638 106.88 76.3291C106.948 76.1945 107.232 75.7016 107.513 75.2338C108.163 74.1509 108.358 73.801 108.658 73.1828C109.012 72.4515 109.524 71.2778 109.66 70.8864C109.782 70.5355 109.805 70.4834 110.022 70.0628C110.152 69.8105 110.234 69.5737 110.4 68.9711C110.451 68.7868 110.566 68.4505 110.655 68.2237C110.832 67.7753 110.859 67.6672 110.898 67.2535C110.916 67.064 110.948 66.913 111.002 66.7648C111.092 66.5148 111.124 66.3536 111.245 65.5176C111.34 64.8658 111.377 64.6839 111.538 64.1001C111.613 63.8299 111.648 63.6354 111.678 63.3252C111.719 62.9062 111.747 62.7462 111.91 62.0254C111.989 61.6779 112 61.5824 112 61.2909C111.999 60.7972 111.948 60.7109 111.537 60.5201C111.122 60.327 110.7 60.2713 110.503 60.3836C110.382 60.4526 110.261 60.6414 110.18 60.889C110.104 61.1222 109.957 61.4117 109.626 61.9804C109.306 62.5301 108.86 63.4224 108.187 64.8604C107.913 65.4444 107.648 65.9713 107.543 66.141C107.331 66.4816 107.292 66.577 107.178 67.0451C107.115 67.3042 107.05 67.4898 106.934 67.738C106.784 68.0593 106.754 68.1582 106.612 68.7778C106.587 68.8841 106.47 69.2553 106.35 69.6025C105.648 71.6472 105.615 71.7611 105.447 72.6952C105.39 73.0142 105.321 73.3938 105.294 73.5388C105.237 73.8402 105.105 74.8326 105.063 75.2725C104.952 76.4292 104.849 76.8016 104.517 77.2392C104.127 77.7537 103.923 77.9803 103.698 78.1496C103.311 78.4404 103.06 78.7233 102.593 79.3961C102.304 79.8114 102.317 79.7981 101.927 80.0929C101.744 80.2313 101.41 80.5151 101.185 80.7236C100.318 81.5258 99.8437 81.7663 99.4163 81.6212C99.3469 81.5976 99.2623 81.5602 99.2283 81.5381C99.0731 81.4372 98.6469 80.6625 98.5745 80.3496C98.5347 80.1778 98.5226 79.8512 98.5507 79.7094C98.566 79.6325 98.5688 79.631 98.6339 79.6658C98.671 79.6856 98.7877 79.7733 98.8933 79.8607C99.1646 80.0852 99.2771 80.146 99.4501 80.1615C99.5592 80.1713 99.6356 80.1611 99.7451 80.1222C100.218 79.954 102.307 78.226 102.563 77.7911C102.684 77.5856 102.807 77.2036 102.928 76.6513C103.006 76.2979 103.025 76.1583 103.026 75.9297C103.028 75.6828 103.02 75.6304 102.968 75.5242C102.886 75.3569 102.716 75.1724 102.454 74.9688C102.149 74.7305 101.626 74.3088 101.434 74.1462C101.118 73.8778 100.757 73.7461 100.34 73.7469C100.022 73.7474 99.8795 73.8047 99.634 74.0294C99.5294 74.1252 99.3228 74.3077 99.1749 74.4348C98.6298 74.9036 98.2115 75.3698 97.8569 75.9039C97.6761 76.1762 97.0575 77.4105 96.9269 77.7595C96.8275 78.0254 96.779 78.2717 96.7445 78.6873C96.692 79.3201 96.6836 79.3499 96.4931 79.5735C96.1829 79.9375 95.9123 80.1999 95.6229 80.4175C95.4645 80.5365 95.2284 80.7331 95.0981 80.8543C94.691 81.2333 94.2852 81.4726 93.9984 81.503C93.8901 81.5144 93.8702 81.5078 93.8 81.4372C93.6605 81.2968 93.6913 81.1452 94.0078 80.4141C94.106 80.1873 94.2373 79.8709 94.2996 79.7111C94.4432 79.3428 94.4907 79.2498 94.6598 79.0068C94.7354 78.8984 94.8443 78.6956 94.9019 78.5562C95.0352 78.2337 95.0987 78.1074 95.2987 77.7674C95.6751 77.1274 95.7399 76.9511 95.7703 76.4838C95.7896 76.1881 95.8072 76.0932 95.8874 75.8523C96.0596 75.3357 96.0363 75.0558 95.7917 74.7042C95.6132 74.4476 95.4603 74.3015 95.0657 74.0102C94.5381 73.6208 94.2765 73.5112 93.8859 73.5157C93.7396 73.5174 93.628 73.5433 93.314 73.6483C92.8756 73.7949 92.8341 73.8139 92.5828 73.9836C92.2196 74.229 91.6938 74.5021 91.6566 74.4646C91.6502 74.4582 91.7022 74.3387 91.7722 74.199C91.8422 74.0594 91.9293 73.8338 91.9657 73.6977C92.0445 73.4032 92.0916 73.2921 92.2884 72.9358C92.3775 72.7745 92.4595 72.5835 92.4927 72.4596C92.5678 72.1792 92.6119 72.0822 92.8138 71.7532C93.0348 71.3932 93.5446 70.5226 93.9854 69.7525C95.8532 66.4892 96.1876 65.7567 96.4249 64.4094C96.5165 63.8893 96.4259 63.6171 95.9294 62.9205C95.5923 62.4475 95.2558 62.2599 95.0125 62.4093C94.8888 62.4852 94.5795 63.1303 94.2699 63.9584C94.1878 64.1781 94.0148 64.5738 93.8855 64.8377C93.7563 65.1016 93.5846 65.5017 93.504 65.7268C93.33 66.2127 93.2657 66.346 93.0366 66.6963C92.9323 66.8559 92.8139 67.0836 92.7385 67.2701C92.6697 67.4402 92.5293 67.7476 92.4265 67.9531C92.3238 68.1586 92.1699 68.5041 92.0846 68.7207C91.9993 68.9374 91.8735 69.2273 91.805 69.365C91.7365 69.5027 91.6138 69.7952 91.5324 70.0149C91.451 70.2346 91.284 70.6289 91.1614 70.8912C91.0387 71.1534 90.9013 71.466 90.8559 71.5857C90.8105 71.7056 90.73 71.8911 90.6769 71.9981C90.5867 72.1799 90.5444 72.2984 90.433 72.6806C90.4085 72.7647 90.3211 72.9676 90.2388 73.1316C90.1564 73.2956 89.9977 73.6791 89.886 73.9838C89.7743 74.2886 89.551 74.8279 89.3897 75.1823C89.2284 75.5366 89.0284 75.9773 88.9453 76.1616C88.8623 76.3459 88.7283 76.598 88.6476 76.7218C88.4575 77.0138 88.4147 77.1006 88.3463 77.3343C88.3152 77.4406 88.2264 77.6841 88.149 77.8755C88.0715 78.0668 87.9065 78.4786 87.7822 78.7904C87.4953 79.5106 87.2984 79.952 87.2003 80.0952C87.0865 80.2615 86.8881 80.4556 86.5959 80.6864C86.4531 80.7992 86.2672 80.9503 86.1827 81.022C86.0815 81.108 85.859 81.2386 85.5299 81.405C84.4659 81.9433 83.9082 82.1179 83.5415 82.0272C83.4735 82.0104 83.3315 81.9467 83.2259 81.8857C83.1203 81.8247 82.9753 81.7554 82.9036 81.7316C82.7602 81.6841 82.6947 81.6239 82.5364 81.3943C82.3246 81.0869 82.2946 80.7273 82.4342 80.1692C82.5244 79.8084 82.5572 79.7342 82.764 79.4218C82.8437 79.3013 82.976 79.081 83.0578 78.9321C83.2266 78.6253 83.4232 78.3634 83.7617 77.9949C83.8901 77.855 84.0828 77.6361 84.1898 77.5083C84.433 77.2181 84.5118 77.1453 84.6709 77.064C84.8885 76.9527 85.0695 76.9946 85.0688 77.1559C85.0687 77.1902 85.0227 77.3169 84.9667 77.4374C84.9107 77.5578 84.8647 77.6822 84.8646 77.7138C84.8644 77.7454 84.8925 77.8465 84.9269 77.9385C84.9613 78.0306 85.0007 78.1877 85.0145 78.2876C85.0475 78.5278 85.0967 78.6046 85.3392 78.7953C85.5887 78.9914 85.7828 79.0982 85.9557 79.1346C86.1987 79.1857 86.3413 79.0973 86.4899 78.8033C86.5365 78.7112 86.6155 78.5677 86.6655 78.4846C86.7155 78.4014 86.7922 78.2448 86.8359 78.1366C86.9847 77.7682 87.1537 77.4712 87.3584 77.2183C87.4414 77.1157 87.6396 76.5772 87.6942 76.306C87.7622 75.9678 87.7064 75.6776 87.5475 75.5429C87.4761 75.4824 87.4561 75.479 87.2111 75.4849C86.9857 75.4903 86.937 75.4837 86.8483 75.4356C86.7089 75.3598 86.5862 75.224 86.4179 74.9587C86.2599 74.7099 86.0937 74.5724 85.7212 74.3822L85.5213 74.2802L85.1608 74.282C84.8447 74.2836 84.7592 74.294 84.4668 74.3667C84.1039 74.457 83.9029 74.5535 83.809 74.6829C83.7769 74.727 83.5549 74.9269 83.3155 75.1271C82.4787 75.827 82.323 75.9957 81.8495 76.7157C81.6863 76.9638 81.4641 77.2885 81.3557 77.4374C81.0417 77.8684 80.9482 78.0282 80.595 78.7389C80.4118 79.1074 80.209 79.4987 80.1444 79.6085C79.8859 80.0475 79.4531 80.7026 79.3666 80.7856C79.2826 80.8662 79.2734 80.8695 79.2573 80.8243C79.2476 80.7971 79.232 80.6589 79.2226 80.5172C79.1754 79.8043 79.0704 79.0697 78.9002 78.2621C78.6386 77.0208 78.6065 76.2635 78.7953 75.7879C78.8888 75.5525 78.8937 75.3995 78.8153 75.1679C78.7362 74.9343 78.6112 74.7355 78.3978 74.5034C78.2592 74.3529 78.2116 74.2815 78.1973 74.2029C78.1744 74.077 78.0937 73.8873 78.0344 73.8201C77.9429 73.7162 77.7477 73.6493 77.5354 73.6491C77.2294 73.6487 77.1364 73.7044 77.0693 73.9283C77.0474 74.0012 77.0237 74.0211 76.9154 74.0572C76.7195 74.1225 76.7175 74.1322 76.7663 74.8079L76.8078 75.3831L76.6128 75.7723C76.3284 76.34 76.0861 76.7604 75.9031 77.0039C75.8118 77.1253 75.6754 77.3579 75.5884 77.5404C75.3932 77.95 75.3198 78.0709 75.1073 78.3325C75.0125 78.4491 74.78 78.7801 74.5905 79.068C74.4011 79.356 74.1866 79.657 74.114 79.7371L73.9818 79.8826L73.8978 79.8327C73.6845 79.706 73.4246 79.7282 73.2838 79.885C73.1392 80.0462 73.0985 80.3089 73.1775 80.571C73.1984 80.6406 73.2157 80.7119 73.2159 80.7294C73.2167 80.8251 72.5877 81.4837 71.8209 82.1901C70.9064 83.0325 70.724 83.1807 70.641 83.1486C70.5167 83.1006 70.7529 82.2635 71.078 81.5996C71.4256 80.8897 71.7914 80.3934 72.5122 79.6538C72.9851 79.1684 73.1698 78.9373 73.2825 78.6893C73.4423 78.338 73.3675 77.7836 73.0773 77.1667C72.9173 76.8267 72.8425 76.7633 72.4866 76.6655C72.3721 76.6341 72.1522 76.5397 71.9878 76.4514C71.7094 76.3018 71.6829 76.293 71.4886 76.284C71.2648 76.2736 71.1951 76.2902 70.6482 76.484C70.4819 76.543 70.3287 76.5846 70.3078 76.5765C70.24 76.5503 70.1953 76.3912 70.1953 76.1758C70.1953 75.8808 70.1575 75.805 69.8985 75.5811C69.7453 75.4488 69.6388 75.3283 69.537 75.1719C69.2469 74.7267 69.1318 74.6282 68.9022 74.6282C68.687 74.6282 68.6409 74.6732 68.5459 74.9761C68.5227 75.0502 68.4352 75.198 68.3399 75.324C68.0754 75.6738 68.0443 75.8285 68.1095 76.4721C68.1933 77.2997 68.1609 77.4523 67.6549 78.61C67.4938 78.9785 67.3352 79.348 67.3026 79.431C67.2699 79.514 67.1948 79.648 67.1358 79.7286C67.0768 79.8093 66.9678 79.9791 66.8935 80.106C66.8192 80.2329 66.7178 80.4063 66.6681 80.4914C66.2646 81.1817 65.6671 81.9461 65.025 82.5932C64.2846 83.3393 63.6958 83.7816 63.1717 83.9854C62.7675 84.1426 62.5421 84.1396 62.4416 83.9758C62.262 83.6833 62.0965 83.2342 62.0121 82.81C61.9768 82.6327 61.9664 82.462 61.9676 82.0764C61.9684 81.8 61.9804 81.5394 61.9942 81.4972C62.0192 81.4209 62.0204 81.4205 62.3504 81.3772C62.777 81.3212 63.0072 81.2606 63.5752 81.0553C63.83 80.9631 64.1882 80.8419 64.3712 80.7859C64.5543 80.7299 64.7674 80.6516 64.8448 80.6118C65.0121 80.5259 65.8847 79.946 66.0451 79.8142C66.2516 79.6445 66.3626 79.3163 66.4567 78.5971C66.4874 78.3632 66.5462 78.0196 66.5874 77.8335C66.7017 77.3179 66.6824 77.0856 66.4929 76.6986C66.3226 76.3508 66.034 76.102 65.3586 75.7207C65.0976 75.5734 65.0478 75.5322 64.7591 75.2253C64.4229 74.868 64.2895 74.8563 63.7312 75.1356C63.2182 75.3923 62.6493 75.8332 62.286 76.2558C62.1877 76.3701 62.0487 76.5077 61.9771 76.5615C61.5185 76.9059 61.0475 77.6823 60.4841 79.0224L60.2457 79.5893L59.7612 79.5817C59.2924 79.5744 58.9988 79.5493 58.7455 79.4951L58.6239 79.4691V79.3415C58.6239 79.2714 58.6398 79.1757 58.6593 79.1288C58.6787 79.082 58.7375 78.8592 58.7898 78.6336C58.9218 78.0651 58.9981 77.806 59.252 77.0637C59.3732 76.7093 59.5636 76.1275 59.6751 75.7708C59.7867 75.414 59.9518 74.9269 60.0421 74.6883C60.1324 74.4497 60.27 74.0863 60.3479 73.8808C60.4257 73.6752 60.5426 73.2925 60.6076 73.0303C60.7095 72.6194 61.0955 71.4072 61.7728 69.3706C61.8694 69.08 62.0651 68.5523 62.2077 68.1979C62.4795 67.5222 62.6767 67.0096 63.0358 66.0459C63.1547 65.727 63.3007 65.3385 63.3603 65.1826C63.5866 64.5907 63.7081 64.0665 63.6855 63.7797C63.6589 63.4437 63.2057 62.6909 62.7573 62.2381C62.5741 62.0532 62.4062 61.9498 62.2872 61.9487C62.1226 61.9472 61.9253 62.3135 61.7946 62.863C61.6235 63.5824 61.5805 63.7001 61.0039 65.0279C60.3224 66.5974 60.2016 66.914 59.9807 67.7107C59.8978 68.0098 59.7719 68.4124 59.7009 68.6055C59.6299 68.7985 59.5142 69.1533 59.4439 69.3939C59.3023 69.8779 59.2381 70.0571 59.0971 70.3628C58.9619 70.6561 58.912 70.8103 58.8389 71.1618C58.7237 71.7154 58.62 72.0823 58.4637 72.489C58.37 72.7327 58.2621 73.0845 58.1868 73.3911C58.1189 73.6675 58.0336 73.9668 57.9972 74.0562C57.9609 74.1457 57.9136 74.3113 57.8924 74.4242C57.8706 74.5399 57.7923 74.7754 57.713 74.9635C57.6296 75.1618 57.5269 75.4736 57.4606 75.7307C57.3424 76.1881 57.2696 76.394 57.0113 76.9992C56.7922 77.5127 56.6725 77.8886 56.5639 78.4038C56.4591 78.9013 56.3818 79.1962 56.3291 79.2994C56.2931 79.3701 56.2921 79.3703 56.0184 79.3703C55.6613 79.3704 55.1868 79.427 54.4895 79.5529C53.8571 79.667 53.3512 79.7443 53.075 79.7691C52.9068 79.7842 52.8895 79.7814 52.8899 79.7391C52.8906 79.6536 52.9914 79.2087 53.1076 78.778C53.2642 78.1975 53.2947 78.0427 53.3255 77.6732C53.3452 77.4371 53.3879 77.2142 53.4908 76.8098C53.5672 76.51 53.7853 75.557 53.9756 74.6921C54.3303 73.0803 54.4846 72.4757 54.7714 71.5741C54.9704 70.9482 54.9898 70.8658 55.103 70.1638C55.213 69.4819 55.2662 69.2484 55.3867 68.9185C55.642 68.2201 57.0368 63.9963 57.1906 63.4558C57.2905 63.105 57.4116 62.7407 57.4706 62.6141C57.5931 62.3513 57.6199 62.1688 57.5754 61.9028C57.5314 61.6405 57.4079 61.398 57.224 61.213C56.8181 60.8045 56.5509 60.5786 56.4041 60.5196C56.3226 60.4869 56.1617 60.4179 56.0465 60.3663C55.8459 60.2765 55.5862 60.2268 55.5063 60.2629ZM109.901 65.6963C109.901 65.7627 109.721 66.6174 109.632 66.9737C109.511 67.4573 109.36 67.9223 109.221 68.2388C109.037 68.6574 108.832 69.1847 108.361 70.453C107.75 72.0989 107.474 72.7749 107.471 72.6308C107.468 72.4912 107.633 71.9654 108.129 70.5432C108.463 69.5853 108.542 69.3335 108.648 68.8809C108.679 68.7462 108.716 68.6144 108.73 68.5879C108.743 68.5614 108.787 68.4107 108.827 68.2529C108.983 67.6321 109.157 67.1614 109.575 66.2328C109.724 65.9025 109.848 65.6594 109.867 65.6594C109.886 65.6594 109.901 65.676 109.901 65.6963ZM77.9874 67.5808C77.9368 67.6586 77.9221 67.9186 77.9601 68.0626L77.9788 68.1335H78.3239H78.669V70V71.8665L78.765 71.8989C78.8869 71.9401 79.106 71.9364 79.199 71.8915L79.2706 71.8569L79.2772 70.0244L79.2838 68.1919L79.5334 68.1798C79.8503 68.1645 79.887 68.1454 79.9048 67.9864C79.9168 67.8794 79.8857 67.5715 79.8604 67.546C79.8555 67.5411 79.4429 67.5303 78.9434 67.522L78.0354 67.507L77.9874 67.5808ZM81.3932 67.5637C81.3498 67.5749 81.302 67.5916 81.2871 67.6009C81.2279 67.6378 81.1961 68.0634 81.2102 68.6297C81.2179 68.938 81.2182 69.2134 81.2109 69.2417C81.199 69.2874 81.1759 69.2933 81.0085 69.2933H80.8195V68.4713C80.8195 67.7125 80.816 67.648 80.7747 67.6314C80.7059 67.6039 80.2472 67.5864 80.2146 67.61C80.1482 67.6581 80.0656 69.9929 80.0923 71.0669L80.1098 71.771L80.1758 71.8143C80.2263 71.8474 80.2978 71.8572 80.48 71.8558C80.611 71.8548 80.7286 71.8432 80.7414 71.83C80.7929 71.7772 80.8244 71.2468 80.8156 70.5819L80.8067 69.8989L80.9833 69.8912C81.0857 69.8867 81.1716 69.8952 81.1875 69.9112C81.2059 69.9297 81.2165 70.2242 81.2194 70.7952C81.2218 71.2661 81.2337 71.6975 81.2459 71.7537C81.2667 71.8496 81.2768 71.8587 81.4086 71.9003C81.5833 71.9555 81.7137 71.9591 81.7824 71.9106C81.8339 71.8743 81.8357 71.8449 81.853 70.762C81.876 69.3276 81.8487 67.5998 81.8027 67.5821C81.7355 67.5561 81.4693 67.5442 81.3932 67.5637ZM82.8675 67.6305C82.8464 67.6362 82.7519 67.6481 82.6576 67.6571L82.4861 67.6734L82.4424 67.8712C82.4028 68.05 82.4002 68.2032 82.4153 69.4608C82.4245 70.2262 82.4396 71.0458 82.4489 71.2821L82.4657 71.7117L82.6858 71.7449C82.9707 71.788 83.4486 71.7879 83.6651 71.7448C83.8671 71.7047 83.8781 71.6844 83.8361 71.4283C83.8022 71.2217 83.8137 71.227 83.3987 71.2266L83.0979 71.2262L83.0981 70.7816C83.0982 70.5371 83.1056 70.2588 83.1146 70.1631L83.1309 69.9891L83.3384 69.9888C83.7773 69.9882 83.8266 69.9521 83.8201 69.6357C83.818 69.5292 83.803 69.4261 83.7867 69.4064C83.7645 69.3794 83.6795 69.3706 83.4404 69.3706H83.1235L83.1238 68.8487C83.124 68.5616 83.1311 68.3007 83.1396 68.2688C83.1546 68.2126 83.1647 68.2108 83.48 68.2108C83.7033 68.2108 83.8189 68.2005 83.8496 68.1779C83.9102 68.1333 83.9455 67.9597 83.9222 67.8215C83.9036 67.7117 83.8992 67.7073 83.7757 67.6751C83.6545 67.6436 82.9487 67.6089 82.8675 67.6305ZM100.865 75.8422C100.865 76.3606 100.399 77.1215 99.6195 77.8755C99.3247 78.1608 99.0364 78.3889 99.0074 78.3598C98.9848 78.3369 99.2378 77.7662 99.4849 77.2827C99.7426 76.7787 100.068 76.2699 100.289 76.0248C100.456 75.8405 100.659 75.7112 100.781 75.7108C100.864 75.7106 100.865 75.7109 100.865 75.8422ZM64.6301 77.1603C64.5525 78.0115 64.0295 78.7525 63.2192 79.1591C63.0523 79.2429 62.7236 79.3703 62.6745 79.3703C62.6516 79.3703 62.6993 79.1753 62.7364 79.1173C62.7574 79.0845 62.864 78.9453 62.9734 78.808C63.0827 78.6708 63.2863 78.4135 63.4259 78.2363C63.9114 77.6198 64.5115 76.9734 64.5982 76.9734C64.6434 76.9734 64.6458 76.9876 64.6301 77.1603ZM77.041 78.0881C77.048 78.1342 77.0606 78.2936 77.0691 78.4425C77.0776 78.5913 77.1249 79.0088 77.1742 79.3703C77.334 80.5419 77.372 81.1095 77.3124 81.435C77.2777 81.6238 77.1097 81.9557 76.9611 82.1287C76.7867 82.3316 76.4779 82.6112 76.3627 82.6703C76.2368 82.735 76.1584 82.7339 76.0248 82.6656C75.6952 82.4972 75.4399 82.253 75.1934 81.8702C75.0883 81.7072 74.974 81.5432 74.9393 81.5059L74.8761 81.4379L75.041 81.1966C75.26 80.8759 75.4196 80.5966 75.8412 79.7962C76.2071 79.1015 76.392 78.7795 76.5887 78.494C76.7657 78.2371 76.9591 78.0043 76.9955 78.0043C77.0135 78.0043 77.034 78.042 77.041 78.0881ZM79.821 86.5435C79.5576 86.6051 79.3564 86.7459 79.2496 86.9435C79.1854 87.0622 79.1755 87.1218 79.1244 87.6993C79.0811 88.1882 79.0687 88.5191 79.0681 89.2025C79.0672 90.0332 79.0702 90.0894 79.1245 90.2843C79.1561 90.3974 79.2102 90.533 79.2449 90.5857C79.4311 90.8691 80.0557 91.0138 80.4482 90.8646C80.7762 90.74 80.9152 90.4815 80.94 89.9499C80.9542 89.6446 80.8963 89.1961 80.8377 89.1587C80.8004 89.1348 80.5751 89.1318 80.4663 89.1537C80.367 89.1737 80.3603 89.2013 80.3345 89.6951C80.3119 90.1269 80.2746 90.2526 80.1485 90.3228C80.087 90.3569 80.0667 90.357 79.9716 90.3231C79.7659 90.25 79.7214 90.1204 79.7199 89.589C79.7194 89.4048 79.7058 88.9631 79.6898 88.6076C79.6688 88.141 79.6684 87.8959 79.6882 87.7267C79.73 87.3712 79.8349 87.2051 80.0175 87.2051C80.2344 87.2051 80.3074 87.321 80.3074 87.6652C80.3074 87.978 80.3461 88.1552 80.4206 88.1837C80.4521 88.1957 80.5806 88.2091 80.7062 88.2135L80.9347 88.2216L80.9516 88.0935C80.9794 87.8837 80.9749 87.2002 80.945 87.0891C80.9024 86.9304 80.5889 86.6296 80.4105 86.5763C80.2169 86.5184 79.9841 86.5055 79.821 86.5435ZM82.1799 86.5608C81.7966 86.6996 81.6342 86.9877 81.5868 87.6129C81.5087 88.6431 81.5341 89.9719 81.64 90.3971C81.6816 90.564 81.7046 90.6084 81.7909 90.687C81.9509 90.8329 82.3493 90.9357 82.5823 90.8912C82.8291 90.8441 82.999 90.7601 83.1515 90.6099C83.3358 90.4283 83.3683 90.3254 83.3396 90.0143C83.3284 89.8938 83.3171 89.3349 83.3145 88.7722C83.3094 87.7118 83.2981 87.4794 83.239 87.218C83.1645 86.8891 83.0075 86.6509 82.8035 86.5573C82.6631 86.493 82.3625 86.4947 82.1799 86.5608ZM66.0096 86.5955C65.8239 86.6443 65.6255 86.754 65.5628 86.8426C65.4391 87.0175 65.3363 87.5125 65.3705 87.7688C65.4136 88.0918 65.4773 88.2262 65.7472 88.5634C66.0524 88.9449 66.1509 89.0833 66.2508 89.2714C66.3769 89.5087 66.4107 89.6377 66.4118 89.8854C66.4127 90.0917 66.3797 90.1927 66.2822 90.2815C66.2307 90.3284 66.2274 90.3284 66.1451 90.2802C66.0295 90.2125 66.0001 90.1077 65.9979 89.7566C65.9969 89.5936 65.9851 89.4428 65.9717 89.4215C65.9254 89.3478 65.5052 89.3862 65.4711 89.4673C65.4608 89.4918 65.447 89.6393 65.4405 89.7952C65.4275 90.1057 65.4666 90.3405 65.5641 90.5367C65.7284 90.8674 66.0938 91.0199 66.4384 90.9016C66.5795 90.8532 66.7699 90.6602 66.8449 90.4896C66.9823 90.1771 67.0078 89.7255 66.9063 89.4035C66.8232 89.1402 66.7084 88.9476 66.3564 88.4812C65.997 88.005 65.919 87.8468 65.9011 87.5574C65.8897 87.3748 65.8956 87.3296 65.9424 87.2372C66.005 87.1137 66.0608 87.0761 66.1807 87.0766C66.4218 87.0776 66.4608 87.1454 66.4549 87.5528C66.4494 87.927 66.4523 87.9312 66.7107 87.9213L66.9046 87.9138L66.9394 87.7721C66.9847 87.5872 66.9907 87.0699 66.9491 86.9292C66.9082 86.7908 66.8096 86.673 66.6914 86.6215C66.5669 86.5673 66.1741 86.5524 66.0096 86.5955ZM67.5807 86.6549C67.5363 86.706 67.4946 86.8279 67.4719 86.9731C67.4641 87.0228 67.456 87.6548 67.4539 88.3777C67.4499 89.7822 67.4577 89.8985 67.5867 90.3364C67.7231 90.7995 67.9336 90.9679 68.3759 90.9679C68.7886 90.9679 69.1156 90.7653 69.2199 90.445C69.3378 90.0827 69.3444 89.8586 69.2949 87.9071L69.264 86.689L69.1618 86.6613C69.054 86.6321 68.8745 86.6484 68.7682 86.6972L68.7045 86.7264L68.7139 88.3381C68.7227 89.8504 68.7203 89.9616 68.675 90.1395C68.6304 90.3149 68.62 90.3319 68.536 90.3673C68.2814 90.4744 68.0583 90.2455 67.9909 89.8081C67.9609 89.6128 67.9678 89.3552 68.0489 87.6432C68.08 86.9855 68.0729 86.7076 68.0236 86.658C68.0062 86.6404 67.9088 86.6219 67.8071 86.6167C67.6518 86.6089 67.6154 86.615 67.5807 86.6549ZM86.1699 86.6625L85.8499 86.6768L85.8342 86.986C85.8136 87.391 85.8134 90.2288 85.834 90.5942L85.8499 90.8777L86.0931 90.9111C86.2269 90.9295 86.5034 90.9469 86.7075 90.9498C87.0735 90.9549 87.0809 90.9539 87.2323 90.8777C87.5102 90.7378 87.594 90.5229 87.5688 90.0151C87.515 88.9315 87.4915 88.7447 87.4016 88.6888C87.3822 88.6767 87.3846 88.6543 87.4098 88.6148C87.5907 88.3311 87.582 87.3736 87.395 86.9796C87.33 86.8428 87.1953 86.7288 87.0568 86.6936C86.9145 86.6575 86.5596 86.645 86.1699 86.6625ZM75.6958 86.6901C75.5899 86.7523 75.6223 87.019 75.7779 87.3662C75.8366 87.4973 75.9187 87.7205 75.9603 87.8623C76.0018 88.004 76.0955 88.2476 76.1684 88.4035C76.2894 88.6621 76.3006 88.7017 76.2964 88.8545C76.2818 89.3887 76.2837 90.5236 76.2995 90.7143L76.318 90.9376L76.4503 90.9463C76.5231 90.9511 76.6254 90.9514 76.6778 90.947C76.7633 90.9399 76.7757 90.9294 76.7994 90.8439C76.8549 90.6441 76.8587 90.3189 76.8123 89.7294C76.7405 88.8169 76.741 88.815 77.2563 87.7077C77.4577 87.2749 77.5312 87.0721 77.5567 86.8787L77.574 86.7471L77.4879 86.7197C77.4255 86.6999 77.3566 86.7008 77.2379 86.7232L77.0739 86.7541L77.0161 86.9731C76.9097 87.3765 76.6281 88.0559 76.591 87.9988C76.579 87.9804 76.5 87.7493 76.4154 87.4852C76.1941 86.7945 76.1555 86.7061 76.0666 86.6862C75.9525 86.6608 75.7421 86.6629 75.6958 86.6901ZM88.73 86.6923C88.2996 86.7232 88.3285 86.7064 88.3034 86.9409C88.2916 87.0507 88.282 87.9699 88.282 88.9834V90.8261L88.4398 90.8488C88.5303 90.8617 88.6721 90.8617 88.7726 90.8488L88.9476 90.8261L88.9493 90.0014C88.9503 89.5478 88.9594 89.1332 88.9697 89.08C88.9878 88.9859 88.9912 88.9834 89.1005 88.9834C89.1661 88.9834 89.2287 88.9995 89.2511 89.0221C89.3216 89.093 89.3453 89.3257 89.3549 90.0401C89.3601 90.4299 89.3748 90.7894 89.3874 90.839L89.4104 90.9292L89.6526 90.9373C89.9047 90.9457 90.0753 90.9301 90.1339 90.8933C90.1617 90.8758 90.1587 90.853 90.1178 90.7716C90.0283 90.5936 90.0049 90.4015 89.9877 89.7046C89.9718 89.0567 89.9679 89.0161 89.9129 88.9222L89.8548 88.8231L89.9039 88.6906C90.0283 88.3553 90.0895 87.5153 90.0143 87.1762C89.9736 86.993 89.8521 86.8452 89.6814 86.7712C89.5722 86.724 89.1754 86.6576 89.0628 86.6678C89.0417 86.6697 88.8919 86.6807 88.73 86.6923ZM70.7073 86.7316C70.5313 86.7506 70.3164 86.7593 70.2297 86.7509C70.0887 86.7373 70.0691 86.7413 70.044 86.7883C70.0245 86.825 70.0161 87.4324 70.0161 88.7981C70.0161 90.5859 70.0198 90.7584 70.0584 90.7908C70.087 90.8147 70.1717 90.8261 70.3207 90.8261H70.5407L70.5581 90.7101C70.5677 90.6464 70.5765 90.2578 70.5778 89.8468C70.579 89.4357 70.587 89.0733 70.5954 89.0414C70.6102 88.9858 70.6224 88.9834 70.8848 88.9834C71.5379 88.9834 71.6776 88.8012 71.6456 87.9912C71.6222 87.3979 71.5116 86.897 71.3811 86.7937C71.3238 86.7483 71.2762 86.7343 71.0785 86.7048C71.0503 86.7006 70.8833 86.7127 70.7073 86.7316ZM72.6657 86.7158C72.1943 86.7572 72.1983 86.756 72.1815 86.8649C72.0773 87.5411 72.0846 90.7668 72.1906 90.8736C72.2306 90.9138 72.4844 90.9253 72.5863 90.8914C72.7364 90.8416 72.7413 90.8169 72.7352 90.1303C72.7321 89.7901 72.7365 89.3828 72.7448 89.2253L72.7599 88.9389L73.0513 88.9518C73.6323 88.9776 73.7516 88.8703 73.8326 88.2489C73.8763 87.9137 73.85 87.2868 73.7843 87.0998C73.7018 86.8648 73.6544 86.7914 73.5593 86.7514C73.4467 86.704 73.0016 86.6863 72.6657 86.7158ZM95.3517 86.7151C95.2553 86.7274 95.1712 86.7428 95.1646 86.7493C95.1257 86.7885 95.1037 87.6005 95.1028 89.0349C95.1019 90.4511 95.1071 90.6895 95.142 90.805L95.1822 90.9385L95.3289 90.9596C95.5633 90.9934 96.2542 90.9854 96.3784 90.9475C96.531 90.9009 96.6592 90.78 96.6941 90.6498C96.7139 90.576 96.7232 90.0248 96.724 88.8802C96.7252 87.2754 96.7235 87.2138 96.6744 87.1019C96.5604 86.8426 96.295 86.7203 95.8085 86.7029C95.6536 86.6974 95.448 86.7028 95.3517 86.7151ZM74.5427 86.7322C74.4932 86.7409 74.4699 86.7637 74.4595 86.8136C74.4147 87.0282 74.3923 88.1915 74.4087 89.4535L74.4266 90.8386L74.519 90.8648C74.7487 90.93 74.986 90.9483 75.4144 90.9339C75.6589 90.9257 75.8662 90.9116 75.8752 90.9027C75.8841 90.8937 75.8952 90.7548 75.8999 90.5939L75.9085 90.3014L75.8103 90.274C75.7563 90.2589 75.5605 90.2465 75.3751 90.2464L75.0381 90.2462L75.0255 88.6677C75.0136 87.1804 74.9968 86.8226 74.9361 86.7614C74.9083 86.7335 74.6462 86.7141 74.5427 86.7322ZM90.9223 86.757C90.8683 86.9321 90.6399 88.275 90.5239 89.0994C90.4184 89.8481 90.3051 90.887 90.3265 90.9085C90.3529 90.9351 90.6421 90.9462 90.7266 90.9239C90.8023 90.9039 90.8229 90.8816 90.8612 90.7776C90.8861 90.7101 90.9211 90.5078 90.9389 90.3281L90.9713 90.0014L91.0859 89.984C91.274 89.9554 91.4565 89.9606 91.5045 89.9959C91.5465 90.0268 91.5955 90.2537 91.6597 90.7142C91.6745 90.8207 91.6871 90.8394 91.771 90.8795C91.8686 90.9261 92.1229 90.9437 92.1796 90.9078C92.2304 90.8756 92.2173 90.6666 92.1486 90.4138C92.114 90.2862 92.0623 89.9847 92.0338 89.7437C91.996 89.4243 91.9407 89.1415 91.8297 88.6999C91.6708 88.0677 91.6164 87.7613 91.5716 87.2441C91.5568 87.0743 91.5331 86.8916 91.5188 86.8382C91.4954 86.7508 91.4844 86.7412 91.4081 86.7412C91.3615 86.7412 91.2365 86.7338 91.1303 86.7248C90.9556 86.7099 90.9359 86.7129 90.9223 86.757ZM93.9223 86.7586C93.8562 86.7762 93.8363 87.03 93.8441 87.7592C93.8479 88.1136 93.8434 88.5137 93.834 88.6484L93.817 88.8932L93.7464 88.5581C93.6559 88.1284 93.5274 87.7077 93.3682 87.3198C93.1701 86.8372 93.1494 86.7965 93.0948 86.7816C93.018 86.7607 92.6129 86.7649 92.5783 86.787C92.5418 86.8104 92.5189 90.3064 92.5529 90.6628C92.5738 90.8813 92.576 90.8868 92.6553 90.9205C92.7442 90.9583 93.1162 90.968 93.1503 90.9334C93.162 90.9216 93.1691 90.4055 93.166 89.7865C93.1627 89.1161 93.1696 88.6821 93.1832 88.7128C93.1956 88.7411 93.2355 88.8919 93.2717 89.0478C93.3078 89.2037 93.4109 89.5981 93.5007 89.9241C93.5904 90.2501 93.6832 90.6053 93.7068 90.7133L93.7497 90.9099L93.9744 90.9389C94.2946 90.9802 94.308 90.9787 94.3385 90.8979C94.4247 90.6698 94.4385 90.3489 94.4387 88.5792C94.4389 86.9278 94.4362 86.8212 94.3941 86.8088C94.2261 86.7594 94.007 86.7361 93.9223 86.7586ZM82.6617 87.1229C82.7322 87.1938 82.7341 87.2033 82.7558 87.6061C82.7679 87.832 82.7779 88.4054 82.7779 88.8803C82.7779 89.6188 82.7709 89.7803 82.7297 89.9971C82.6674 90.3245 82.6111 90.4009 82.4319 90.4009C82.2827 90.4009 82.2234 90.3411 82.1763 90.1432C82.1301 89.9492 82.1259 87.4068 82.1716 87.2768C82.2498 87.0543 82.5119 86.972 82.6617 87.1229ZM86.7843 87.2123C86.8946 87.2679 86.9359 87.4471 86.9343 87.8623C86.9335 88.0607 86.9251 88.251 86.9156 88.2852C86.8893 88.3799 86.7882 88.4366 86.6115 88.4557L86.4515 88.473V87.8262V87.1793L86.5859 87.1797C86.6599 87.1799 86.7491 87.1946 86.7843 87.2123ZM89.3503 87.2502C89.3992 87.3062 89.4435 87.7704 89.4379 88.1688C89.4341 88.4398 89.4316 88.4512 89.3666 88.5001C89.3228 88.5331 89.2417 88.5554 89.1339 88.5641L88.9686 88.5774L88.9518 88.2843C88.9426 88.1231 88.9349 87.8208 88.9349 87.6126L88.9348 87.234L89.0308 87.2239C89.252 87.2006 89.3111 87.2054 89.3503 87.2502ZM96.1657 87.355C96.183 87.4532 96.2254 90.2491 96.2098 90.272C96.205 90.2791 96.0943 90.2889 95.9639 90.2937L95.7267 90.3025L95.71 90.1417C95.7008 90.0533 95.6932 89.3651 95.6932 88.6123L95.6931 87.2438L95.921 87.2519L96.1489 87.2602L96.1657 87.355ZM71.0295 87.3897C71.0663 87.4269 71.1169 87.874 71.1169 88.1621C71.1169 88.3644 71.1176 88.364 70.7905 88.3645L70.5793 88.3649V87.8457V87.3266L70.7874 87.3409C70.9092 87.3493 71.0096 87.3696 71.0295 87.3897ZM73.2854 87.4286C73.3398 87.5123 73.354 87.7409 73.3259 88.0814L73.3057 88.3262L73.2161 88.3712C73.1556 88.4017 73.0663 88.4163 72.9409 88.4164L72.7553 88.4164L72.7551 87.9847C72.7549 87.7473 72.7476 87.5095 72.7389 87.4564L72.723 87.3597H72.9818C73.234 87.3597 73.2417 87.3615 73.2854 87.4286ZM91.2861 88.3842C91.3018 88.4657 91.3322 88.6773 91.3538 88.8545C91.3754 89.0317 91.3997 89.2318 91.4079 89.2991L91.4228 89.4215H91.2427C91.1437 89.4215 91.0573 89.4128 91.0509 89.4022C91.0445 89.3916 91.0539 89.3017 91.0719 89.2025C91.0898 89.1032 91.1309 88.8452 91.1632 88.629C91.1955 88.4128 91.23 88.236 91.2399 88.236C91.2497 88.236 91.2705 88.3027 91.2861 88.3842ZM86.8301 88.9574C87.006 89.0377 87.0151 89.0817 86.9967 89.7668C86.9881 90.0883 86.9723 90.3568 86.9616 90.3634C86.9175 90.3909 86.7036 90.4061 86.5943 90.3896L86.4771 90.3719V89.6562C86.4771 89.2625 86.4848 88.9327 86.4942 88.9233C86.5285 88.8888 86.7232 88.9085 86.8301 88.9574ZM83.6755 89.9959C83.6315 90.0293 83.6247 90.0755 83.6147 90.4104C83.6064 90.6892 83.6118 90.7974 83.6356 90.8263C83.685 90.8862 83.9255 90.9477 84.0318 90.9276C84.1772 90.9001 84.2084 90.8139 84.2197 90.4071L84.2293 90.0653L84.1308 90.0236C83.9894 89.9638 83.738 89.9485 83.6755 89.9959ZM81.5159 93.2887C81.1964 93.3462 80.8421 93.5325 80.6054 93.7673C80.431 93.9405 80.339 94.0858 80.2516 94.3265C80.0251 94.9495 80.1913 95.6613 80.8175 96.7508C80.8899 96.8767 80.9424 96.9865 80.9342 96.9947C80.921 97.008 78.7195 97.0475 78.6994 97.0348C78.695 97.032 78.7411 96.9733 78.8018 96.9043C79.18 96.4748 79.4439 96.0978 79.5895 95.7791C79.7461 95.4365 79.7819 95.2759 79.7802 94.9239C79.7789 94.6602 79.7686 94.5837 79.7099 94.4044C79.6242 94.1427 79.4881 93.9349 79.2609 93.7191C78.9548 93.4285 78.6605 93.3251 78.1959 93.345C77.8479 93.3599 77.5687 93.4468 77.3019 93.623C76.9254 93.8719 76.7475 94.1477 76.7284 94.5126C76.7079 94.9038 76.8339 95.2431 77.0994 95.5118C77.3148 95.7298 77.515 95.8201 77.8141 95.8339C78.2131 95.8524 78.4786 95.7332 78.6652 95.4519C78.7818 95.2762 78.8343 95.0905 78.8292 94.8724C78.8192 94.4466 78.564 94.1782 78.1698 94.1789C77.9416 94.1794 77.8464 94.225 77.607 94.4484C77.4233 94.6199 77.2896 94.6904 77.1782 94.6745C77.1234 94.6667 77.1204 94.6553 77.1231 94.47C77.1255 94.3063 77.1381 94.2514 77.1991 94.1386C77.3317 93.8934 77.565 93.7387 77.9238 93.6581C78.6551 93.4939 79.299 93.9208 79.4387 94.6624C79.5953 95.4937 79.0694 96.3997 78.2855 96.649C77.5801 96.8733 76.416 96.6991 75.6354 96.2525C75.0927 95.9419 74.8503 95.8387 74.6643 95.839C74.541 95.8391 74.4268 95.924 74.3918 96.0415C74.3485 96.1868 74.3747 96.2548 74.5478 96.4471C74.6609 96.5727 74.701 96.6368 74.701 96.6919C74.701 96.7616 74.6942 96.7667 74.6012 96.7667C74.4509 96.7667 74.1959 96.6785 73.7281 96.465C73.4958 96.359 73.2204 96.2501 73.116 96.2231C72.7798 96.1359 72.2749 96.1695 72.2146 96.2829C72.171 96.3648 72.2013 96.5546 72.2905 96.7581C72.3349 96.8597 72.3713 96.9557 72.3713 96.9713C72.3713 96.9921 69.5534 96.9993 61.9885 96.998C52.046 96.9962 51.6017 96.9981 51.5116 97.0425C51.4598 97.068 51.4135 97.11 51.4088 97.1358C51.3975 97.1973 51.4723 97.2799 51.5813 97.3263C51.6565 97.3583 53.6416 97.3652 66.2247 97.3769C74.2307 97.3843 86.9731 97.398 94.5413 97.4071C102.109 97.4163 108.375 97.4155 108.464 97.4052C108.68 97.3804 108.785 97.3184 108.796 97.2094C108.803 97.135 108.794 97.1216 108.706 97.0818C108.614 97.0399 107.991 97.0369 98.1189 97.0306C92.3495 97.027 87.6296 97.0154 87.63 97.0048C87.6306 96.9943 87.6474 96.9567 87.6675 96.9213C87.7096 96.8473 87.7171 96.6706 87.6821 96.5779C87.6445 96.4785 87.5031 96.3307 87.3884 96.2708C87.2564 96.202 87.0066 96.1988 86.8086 96.2635C86.7319 96.2885 86.4848 96.4052 86.2595 96.5227C85.8253 96.7492 85.6394 96.8182 85.4634 96.8182C85.242 96.8182 85.2253 96.7647 85.3635 96.4978C85.4794 96.274 85.4835 96.1489 85.3783 96.043C85.3091 95.9734 85.2892 95.9677 85.1152 95.9677C84.9168 95.9677 84.8189 95.9979 83.5715 96.4436C82.5408 96.8118 81.9493 96.8559 81.422 96.6037C80.8346 96.3227 80.4354 95.6593 80.4354 94.9639C80.4354 94.546 80.5583 94.217 80.8083 93.9653C81.0684 93.7035 81.4519 93.5721 81.9587 93.5713C82.2196 93.571 82.2523 93.5767 82.4045 93.6491C82.6661 93.7737 82.8046 93.8897 82.8819 94.0488C82.937 94.162 82.947 94.2103 82.9337 94.2988C82.9053 94.4875 82.9038 94.4876 82.6002 94.3302C82.1287 94.0857 81.9051 94.0654 81.6287 94.2418C81.145 94.5506 81.2357 95.4304 81.7789 95.698C82.263 95.9364 82.9085 95.6565 83.1839 95.0887C83.5639 94.3054 83.286 93.55 82.5378 93.3324C82.3407 93.2751 81.7354 93.2492 81.5159 93.2887ZM87.3233 99.4492C87.1762 99.4621 87.0481 99.4813 87.0386 99.492C86.9846 99.5527 86.6332 100.982 86.3906 102.127C86.1262 103.376 86.0958 103.528 86.1079 103.548C86.1346 103.591 86.4037 103.622 86.758 103.622H87.1387L87.1527 103.551C87.1604 103.512 87.1855 103.364 87.2086 103.223C87.2316 103.081 87.2659 102.927 87.2849 102.881L87.3193 102.797L87.5958 102.798C87.7479 102.798 87.8876 102.808 87.9062 102.82C87.9248 102.832 87.9519 102.927 87.9663 103.032C87.9808 103.137 88.0059 103.298 88.0221 103.39C88.0506 103.552 88.0544 103.558 88.1426 103.58C88.1927 103.593 88.4357 103.595 88.6826 103.584L89.1314 103.565L88.9964 103.018C88.832 102.35 88.5786 101.203 88.3803 100.228L88.2324 99.5018L88.1292 99.4765C87.964 99.4359 87.6123 99.424 87.3233 99.4492ZM84.5059 99.4965C84.4144 99.5047 84.3267 99.5199 84.311 99.5301C84.2635 99.5612 84.1072 100.017 83.9196 100.671C83.822 101.011 83.7146 101.364 83.6808 101.455L83.6194 101.62L83.5366 101.416C83.4911 101.304 83.3751 100.934 83.2787 100.594C83.1824 100.254 83.0648 99.871 83.0175 99.7434L82.9315 99.5114L82.3636 99.5118C82.0513 99.512 81.7901 99.5179 81.7832 99.5249C81.7453 99.563 81.7111 100.226 81.6995 101.148C81.6861 102.214 81.7135 103.5 81.7504 103.537C81.7857 103.573 82.5277 103.562 82.564 103.526C82.5872 103.502 82.5998 103.298 82.6101 102.774C82.6179 102.378 82.6311 102.047 82.6394 102.039C82.6477 102.031 82.698 102.183 82.751 102.378C82.8804 102.854 82.9848 103.184 83.0773 103.41L83.1539 103.596L83.4907 103.596C83.6759 103.596 83.8528 103.589 83.8836 103.581C83.9601 103.56 84.0731 103.282 84.299 102.558C84.3979 102.24 84.5023 101.93 84.5311 101.867L84.5833 101.754L84.5638 102.269C84.5402 102.894 84.5406 103.405 84.5648 103.498C84.5921 103.603 84.7178 103.634 85.0922 103.628C85.2668 103.625 85.4166 103.616 85.425 103.607C85.4334 103.599 85.4403 102.68 85.4403 101.565V99.5378L85.3251 99.5219C85.1289 99.4947 84.6805 99.4808 84.5059 99.4965ZM77.5134 99.5176L77.3434 99.5265L77.3286 99.6607C77.2403 100.458 77.2513 103.518 77.3428 103.61C77.349 103.616 77.7047 103.624 78.1332 103.627C79.0537 103.635 79.2714 103.61 79.3024 103.497C79.3329 103.386 79.3221 102.922 79.2866 102.817C79.2541 102.721 79.2529 102.72 79.1471 102.738C79.0883 102.748 78.8617 102.757 78.6434 102.758L78.2466 102.759L78.2392 102.449C78.2283 101.995 78.1931 102.035 78.6238 102.013C79.0565 101.991 79.225 101.96 79.2424 101.9C79.3009 101.696 79.2836 101.203 79.2154 101.135C79.1699 101.089 78.8743 101.083 78.541 101.122C78.2189 101.159 78.2338 101.175 78.2338 100.803V100.487L78.4105 100.508C78.6486 100.537 79.1783 100.498 79.2079 100.45C79.2763 100.339 79.2706 99.7475 79.1999 99.612C79.1591 99.5339 79.1532 99.5319 78.9225 99.5154C78.6903 99.4988 77.8453 99.5001 77.5134 99.5176ZM74.2599 99.5427C73.9015 99.551 73.8812 99.5543 73.8503 99.6088C73.8088 99.6818 73.8021 103.501 73.8433 103.542C73.8936 103.592 74.7428 103.654 75.1874 103.64C75.73 103.623 75.9652 103.56 76.1833 103.375C76.3397 103.243 76.3413 103.233 76.3584 102.312C76.3855 100.851 76.3802 100.487 76.3294 100.299C76.2363 99.9565 76.0728 99.7408 75.806 99.6089C75.6625 99.5379 75.6556 99.5372 75.149 99.5355C74.8674 99.5346 74.4673 99.5378 74.2599 99.5427ZM67.9425 99.5773C67.8228 99.5879 67.6286 99.5977 67.5109 99.5991L67.2969 99.6016L67.3061 101.532C67.3111 102.594 67.3229 103.471 67.3323 103.48C67.3939 103.542 68.1042 103.552 68.2004 103.492C68.229 103.474 68.2394 103.304 68.2535 102.625C68.2631 102.16 68.2719 101.775 68.2731 101.77C68.2777 101.749 68.4422 101.795 68.5001 101.833C68.5337 101.855 68.583 101.922 68.6097 101.981C68.6521 102.075 68.6584 102.156 68.6598 102.63C68.6612 103.069 68.6697 103.195 68.7052 103.3C68.769 103.488 68.8178 103.505 69.2865 103.505C69.6106 103.505 69.9649 103.465 69.9649 103.429C69.9649 103.424 69.9376 103.364 69.9043 103.296C69.8161 103.114 69.7904 102.982 69.7471 102.484C69.6909 101.838 69.6137 101.591 69.4268 101.457L69.3497 101.402L69.4492 101.288C69.7388 100.957 69.746 100.149 69.4623 99.8332C69.2376 99.5828 68.7705 99.5041 67.9425 99.5773ZM90.3044 99.5772C90.1777 99.5876 89.984 99.5974 89.874 99.5989L89.674 99.6016L89.682 101.536C89.6887 103.164 89.6957 103.473 89.726 103.492C89.8202 103.55 90.5324 103.543 90.5921 103.483C90.6002 103.475 90.6111 103.146 90.6164 102.753C90.6216 102.359 90.6323 101.976 90.64 101.9L90.6541 101.763L90.7344 101.781C90.855 101.808 90.9047 101.846 90.965 101.96C91.0152 102.054 91.021 102.114 91.0333 102.669C91.049 103.373 91.0681 103.45 91.235 103.486C91.3886 103.519 92.006 103.509 92.1784 103.47L92.3372 103.435L92.2724 103.306C92.1869 103.137 92.1446 102.917 92.1102 102.463C92.0651 101.867 91.9946 101.639 91.8066 101.481L91.708 101.397L91.8033 101.301C91.8557 101.249 91.9254 101.137 91.9583 101.054C92.0104 100.922 92.018 100.859 92.018 100.555C92.018 100.253 92.0103 100.188 91.9592 100.059C91.9269 99.977 91.8718 99.8758 91.8369 99.834C91.7501 99.7303 91.4915 99.6086 91.29 99.5768C91.1062 99.5477 90.6602 99.5479 90.3044 99.5772ZM94.7797 99.5724C94.7151 99.5841 94.6514 99.6167 94.6192 99.6547C94.5361 99.7525 94.2549 100.184 94.1162 100.426L93.9908 100.645L93.9757 100.148C93.9674 99.8748 93.9492 99.6396 93.9353 99.6256C93.9079 99.598 92.9613 99.5857 92.9346 99.6126C92.88 99.6676 92.8661 103.113 92.9189 103.501L92.9354 103.622H93.4302C93.9167 103.622 93.9256 103.621 93.9573 103.564C93.9782 103.527 93.9943 103.345 94.003 103.051C94.0104 102.8 94.0237 102.588 94.0325 102.579C94.0566 102.555 94.3154 102.853 94.4963 103.114C94.8237 103.585 94.7751 103.538 94.9558 103.557C95.0446 103.567 95.3274 103.562 95.5843 103.546C95.8412 103.531 96.0802 103.525 96.1155 103.534C96.1508 103.543 96.1797 103.543 96.1797 103.533C96.1797 103.46 95.9566 103.128 95.6163 102.694C95.1909 102.152 94.9926 101.836 94.8842 101.527C94.8428 101.409 94.8153 101.473 95.2219 100.736C95.4643 100.296 95.7189 99.7307 95.7189 99.6323C95.7189 99.619 95.6843 99.6011 95.6421 99.5926C95.5118 99.5664 94.8929 99.5518 94.7797 99.5724ZM64.2756 99.826C64.268 99.9717 64.2746 100.125 64.2913 100.193L64.32 100.31L64.6528 100.325C65.1301 100.346 65.1045 100.329 65.0878 100.615C65.0277 101.645 65.0044 102.987 65.0405 103.335L65.0569 103.493H65.5758H66.0946L66.1133 103.268C66.1237 103.144 66.1241 102.752 66.1144 102.398C66.0895 101.484 66.0937 100.919 66.1279 100.614L66.1575 100.349H66.4579H66.7583L66.7767 99.9895C66.7868 99.7918 66.7876 99.6178 66.7784 99.6029C66.7672 99.5846 66.362 99.5759 65.5252 99.5759H64.2886L64.2756 99.826ZM71.1353 99.6596C71.128 99.6915 71.0353 100.06 70.9292 100.478C70.7299 101.263 70.5436 102.105 70.3762 102.978C70.2893 103.431 70.2838 103.483 70.3207 103.506C70.3438 103.52 70.5922 103.533 70.8896 103.534L71.4175 103.537L71.4307 103.303C71.438 103.174 71.4697 102.967 71.5012 102.843L71.5584 102.617L71.7793 102.617C71.9007 102.618 72.0141 102.627 72.0311 102.638C72.0482 102.649 72.1021 102.808 72.1509 102.993C72.1996 103.177 72.2578 103.374 72.28 103.43L72.3206 103.532H72.8004C73.0642 103.532 73.2934 103.523 73.3096 103.513C73.351 103.486 73.2992 103.269 73.0836 102.565C72.8575 101.828 72.7722 101.473 72.6918 100.937C72.5913 100.266 72.5403 100.053 72.4106 99.7627L72.3387 99.6016H71.7436H71.1485L71.1353 99.6596ZM68.6376 100.422C68.6752 100.519 68.7063 100.892 68.6824 100.959C68.6677 100.999 68.6275 101.022 68.5316 101.042C68.4596 101.058 68.3725 101.071 68.338 101.071H68.2753L68.2752 100.703L68.2752 100.336L68.4431 100.345C68.5977 100.353 68.6132 100.359 68.6376 100.422ZM90.9734 100.362C91.0099 100.373 91.0596 100.654 91.0596 100.848C91.0596 100.983 91.0542 100.997 90.9919 101.021C90.9546 101.035 90.8567 101.054 90.7743 101.062L90.6244 101.078V100.705V100.333L90.7844 100.343C90.8724 100.348 90.9575 100.357 90.9734 100.362ZM75.2746 100.385C75.3469 100.415 75.3648 100.441 75.3894 100.546C75.4994 101.016 75.4961 102.108 75.3832 102.62C75.3593 102.728 75.3379 102.766 75.2855 102.791C75.2007 102.832 74.9319 102.861 74.8442 102.839L74.7778 102.822V101.586V100.349H74.9834C75.1015 100.349 75.2254 100.364 75.2746 100.385ZM71.7826 101.245C71.7827 101.278 71.861 101.726 71.875 101.773C71.8864 101.811 71.8707 101.818 71.7685 101.818H71.6486L71.6657 101.67C71.6937 101.426 71.7365 101.225 71.7602 101.225C71.7725 101.225 71.7825 101.234 71.7826 101.245ZM87.654 101.706C87.6682 101.831 87.68 101.943 87.6801 101.953C87.6802 101.964 87.6386 101.973 87.5877 101.973H87.495L87.5113 101.812C87.5629 101.303 87.5556 101.339 87.5936 101.411C87.6125 101.448 87.6397 101.58 87.654 101.706ZM53.9519 105.35C53.5435 105.362 52.8229 105.382 52.3505 105.394C51.5593 105.414 51.4846 105.42 51.4033 105.467C51.3361 105.507 51.3131 105.539 51.307 105.602C51.2997 105.676 51.3092 105.69 51.3966 105.73C51.4861 105.77 51.7063 105.775 54.0543 105.79C55.4623 105.799 60.8444 105.808 66.0146 105.809L75.4149 105.813L75.3605 105.935C75.2876 106.099 75.2853 106.3 75.3551 106.397C75.384 106.437 75.4646 106.499 75.5343 106.534C75.6455 106.591 75.6939 106.599 75.9298 106.599C76.2311 106.599 76.3951 106.556 76.5648 106.432L76.666 106.358L76.68 106.463C76.7086 106.678 76.8811 106.804 77.1458 106.804C77.3394 106.804 77.4957 106.728 77.8938 106.438C78.2483 106.181 78.4265 106.093 78.6298 106.077C78.8671 106.058 78.9866 106.103 79.155 106.272C79.3924 106.512 79.5379 106.883 79.4984 107.149C79.4653 107.371 79.2077 107.61 78.9351 107.671C78.7337 107.717 78.5858 107.675 78.4553 107.537C78.4011 107.48 78.3646 107.425 78.3743 107.415C78.3839 107.406 78.5262 107.398 78.6904 107.398C79.035 107.398 79.1218 107.366 79.1919 107.218C79.251 107.092 79.2494 106.891 79.1885 106.786C79.0582 106.561 78.6248 106.502 78.3075 106.665C77.9446 106.851 77.8699 107.424 78.1644 107.761C78.3128 107.931 78.4342 107.985 78.6971 107.998C79.3305 108.03 79.7881 107.643 79.8157 107.05C79.829 106.765 79.7789 106.629 79.5362 106.288C79.3658 106.049 79.2834 105.903 79.2834 105.839C79.2834 105.822 79.5006 105.813 79.9236 105.813H80.5638L80.4129 105.994C80.1276 106.336 79.9638 106.747 79.9666 107.114C79.9706 107.642 80.2915 107.959 80.8579 107.996C81.3025 108.025 81.7041 107.828 81.8381 107.516C81.8941 107.385 81.8888 107.108 81.828 106.983C81.7282 106.778 81.4469 106.637 81.1377 106.637C81.0008 106.637 80.9618 106.649 80.8558 106.721C80.5505 106.929 80.5478 107.267 80.8502 107.426C80.9513 107.479 81.0182 107.471 81.1994 107.385C81.2886 107.342 81.3896 107.308 81.4237 107.308C81.4854 107.308 81.4855 107.308 81.4458 107.404C81.3043 107.745 80.8759 107.823 80.5036 107.575C80.1663 107.351 80.2128 106.634 80.5893 106.255C80.7079 106.135 80.801 106.095 80.9957 106.078C81.3402 106.049 81.8379 106.199 82.2496 106.455C82.8491 106.828 83.044 106.841 83.1984 106.519L83.2604 106.389L83.4928 106.491C83.7664 106.61 84.1564 106.715 84.3246 106.715C84.4663 106.715 84.6468 106.63 84.7198 106.529C84.8024 106.415 84.8049 106.216 84.7262 106.021C84.6896 105.93 84.6639 105.851 84.6691 105.846C84.6743 105.841 85.1495 105.824 85.725 105.809C86.4355 105.79 88.0045 105.789 90.6116 105.804C95.3146 105.831 96.0464 105.83 98.7141 105.802C100.168 105.787 101.169 105.789 101.927 105.809C102.532 105.825 104.243 105.84 105.729 105.842C108.663 105.845 108.532 105.851 108.666 105.705C108.697 105.671 108.73 105.608 108.738 105.566C108.752 105.497 108.743 105.484 108.643 105.426L108.532 105.362H83.7507C70.1211 105.362 58.0076 105.354 56.8319 105.345C55.6562 105.335 54.3602 105.338 53.9519 105.35Z" clip-rule="evenodd" fill-rule="evenodd"></path>
</svg>
