<svg xmlns="http://www.w3.org/2000/svg" fill="none" viewBox="0 0 160 160" height="160" width="160">
<path fill="#262523" d="M50.323 73.683C51.6006 75.7086 53.2405 78.3074 53.9671 79.458L55.2884 81.5501L55.2911 85.6881L55.294 89.8261H58.1698H61.0455V85.6835V81.541L62.0584 79.9388C64.8527 75.5187 68.2777 70.0641 68.2777 70.034C68.2777 70.0153 66.849 70 65.1027 70H61.9278L60.0514 73.3304C58.4723 76.1331 58.1646 76.6447 58.1096 76.559C58.0736 76.503 57.2302 75.0042 56.2352 73.2286L54.4262 70H51.2131H48L50.323 73.683ZM69.5876 78.5943C69.5877 83.3213 69.6045 87.7821 69.6252 88.5074L69.6626 89.8261H77.512H85.3615V87.4009V84.9757H80.3787H75.396V83.5812V82.1867H79.6391H83.8823L83.8674 79.9585L83.8524 77.7304L79.6242 77.7148L75.396 77.6993V76.3052V74.9111H80.2364H85.0768V72.4555V70H77.3321H69.5875L69.5876 78.5943ZM87.2977 72.4555V74.9111H90.2304H93.1631V82.3686V89.8261H96.0389H98.9147V82.3691V74.9121L101.862 74.8964L104.809 74.8807L104.823 72.4404L104.838 70H96.068H87.2977V72.4555ZM106.887 79.913V89.8261H109.791H112.696V79.913V70H109.791H106.887V79.913Z" clip-rule="evenodd" fill-rule="evenodd"></path>
</svg>
