<svg xmlns="http://www.w3.org/2000/svg" fill="none" viewBox="0 0 160 51" height="51" width="160">
<path fill="#262523" d="M136.701 0.210204L136.71 0.197494C136.692 0.143632 136.692 0.0897701 136.692 0C136.502 0.0256564 136.309 0.0425137 136.116 0.0593736L136.116 0.0593773C135.634 0.101508 135.152 0.143659 134.716 0.323172C132.668 1.16701 130.638 2.06471 128.643 3.03423C127.24 3.71861 125.869 4.51711 124.515 5.30545L124.314 5.42212C123.706 5.77624 123.135 6.18383 122.567 6.58839C122.329 6.75813 122.092 6.92734 121.853 7.09185C118.835 9.17453 116.032 11.5085 113.319 13.9683C112.953 14.3025 112.592 14.6496 112.227 15.002L112.226 15.0026L112.225 15.0033L112.225 15.004L112.224 15.0044L112.224 15.0049L112.223 15.0053L112.223 15.0058L112.222 15.0062L112.222 15.0066L112.221 15.007C111.98 15.2398 111.736 15.4748 111.487 15.7097C111.469 15.7097 111.415 15.6918 111.379 15.6559C111.044 15.2336 110.658 14.8538 110.272 14.4736L110.272 14.4736C109.624 13.8355 108.975 13.1961 108.559 12.3523C108.479 12.1931 108.386 12.0374 108.292 11.8825L108.292 11.8824L108.292 11.8823C107.923 11.2689 107.561 10.6666 108.091 9.89269C107.291 9.46838 107.1 9.48909 106.411 9.56375L106.41 9.56378C106.341 9.57125 106.267 9.57927 106.187 9.58744C105.288 9.67724 104.803 10.1799 104.39 10.8622C104.279 11.0505 104.143 11.2184 104.008 11.3854L104.008 11.3855L104.008 11.3856C103.86 11.5687 103.713 11.7508 103.6 11.9574C102.199 14.4889 100.815 17.0563 99.4497 19.6058C99.252 19.9825 99.0739 20.369 98.8948 20.7577L98.8946 20.7581L98.8946 20.7582L98.8945 20.7582L98.8945 20.7583L98.8945 20.7584L98.8945 20.7584L98.8944 20.7585L98.8944 20.7585L98.8944 20.7586C98.7322 21.1107 98.5691 21.4644 98.39 21.8141C98.0626 22.4547 97.7249 23.0745 97.3772 23.713L97.377 23.7132L97.3755 23.716L97.3685 23.7289C97.261 23.9263 97.1525 24.1255 97.043 24.3277C97.0263 24.1513 97.0232 23.9733 97.0203 23.7997V23.7997V23.7996V23.7995V23.7995C97.0136 23.4079 97.0072 23.0394 96.8453 22.7657C96.4675 22.1014 96.4139 21.3833 96.5396 20.7728C96.6652 20.0726 96.2698 19.8751 95.8753 19.7314C94.7251 19.3006 93.9704 19.3724 93.647 20.5035C93.5641 20.7889 93.4482 21.0554 93.3331 21.3199C93.2237 21.5713 93.1151 21.821 93.0363 22.0834C92.9906 22.2075 92.9259 22.3315 92.8612 22.4555C92.7478 22.6727 92.6345 22.8898 92.6233 23.1068C92.5908 23.6416 92.2807 23.8545 91.824 24.1681L91.7529 24.217L91.7133 24.2443L91.6709 24.2738C91.6594 23.8914 91.6516 23.5217 91.644 23.1613C91.6277 22.3878 91.6122 21.6569 91.5636 20.9344C91.5092 20.0726 91.7253 19.3185 92.2279 18.6363C92.4792 18.2951 92.713 17.9899 93.2164 18.0258C93.4133 18.0438 93.647 17.9001 93.8087 17.7745C94.6355 17.0923 94.7435 15.243 93.9167 14.5427C93.5934 14.2555 93.0003 13.9862 92.6233 14.076C91.7069 14.2914 90.7544 14.5966 90.0005 15.1173C89.0665 15.7457 88.3117 16.6254 88.006 17.7924C87.8536 18.3597 87.659 18.9164 87.4623 19.4788L87.4623 19.4788L87.4623 19.4789L87.4622 19.4789L87.4622 19.479L87.4622 19.479L87.4622 19.4791L87.4622 19.4792L87.4621 19.4792L87.4621 19.4793L87.4621 19.4793L87.4621 19.4794C87.4036 19.6465 87.345 19.8142 87.2872 19.9828C86.8566 21.2576 86.6765 22.5682 86.6765 23.8968C86.6765 25.2254 86.9999 26.4462 88.0244 27.3979C89.0665 28.3673 90.2694 28.906 91.7069 28.6905C92.1097 28.6173 92.496 28.4365 92.8598 28.2661L92.86 28.266L92.8602 28.2659C93.0319 28.1856 93.1986 28.1075 93.3597 28.0442C93.3597 28.2413 93.3625 28.4441 93.3654 28.6505V28.6507C93.3728 29.1777 93.3806 29.7287 93.3421 30.2705C93.3061 30.6655 93.198 31.1143 92.9827 31.4554C92.7403 31.8563 92.4629 32.234 92.1867 32.61C91.8692 33.0422 91.5533 33.4723 91.2939 33.9332C89.6051 36.9853 87.9339 40.0734 86.3716 43.1974C85.9042 44.131 85.7249 45.2621 85.6529 46.3214C85.6131 47.0297 85.7271 47.7476 85.8404 48.4611C85.8822 48.7242 85.9239 48.9867 85.9578 49.2479C85.9906 49.5261 86.1132 49.8043 86.2298 50.0689L86.2635 50.1456C86.4428 50.5226 86.731 50.792 87.18 50.7381C87.9884 50.6304 88.7967 50.5047 89.6051 50.3611C89.8204 50.3251 90.0181 50.1995 90.1798 50.0559C90.3778 49.888 90.5697 49.7102 90.7616 49.5324C91.1445 49.1776 91.5274 48.8228 91.9582 48.5477C93.5574 47.5244 94.5995 46.0521 95.4254 44.4183C96.3419 42.587 96.6652 40.5582 96.8093 38.5293C96.8662 37.7346 96.8732 36.9399 96.8801 36.1452C96.8863 35.4318 96.8926 34.7183 96.935 34.0049C96.9424 33.8114 96.9414 33.6155 96.9404 33.4187V33.4184C96.9364 32.6663 96.9323 31.9014 97.4024 31.2041C98.282 29.9114 99.1448 28.6008 99.9708 27.2721C100.187 26.9156 100.406 26.5606 100.625 26.2059L100.625 26.2056C101.441 24.8816 102.256 23.5609 102.935 22.1732C103.624 20.7847 104.215 19.3557 104.807 17.9242C105.095 17.2271 105.384 16.5293 105.684 15.8355C105.844 15.4459 106.02 15.0637 106.2 14.6701L106.2 14.6698C106.303 14.4467 106.407 14.22 106.511 13.9862C106.636 14.1118 106.69 14.1657 106.726 14.2196C106.919 14.585 107.113 14.9505 107.308 15.3164C107.802 16.2446 108.297 17.1755 108.774 18.1156C108.989 18.5286 108.972 18.9415 108.684 19.4083C107.337 21.5807 106.941 24.0405 106.888 26.554C106.852 28.1519 107.57 29.4985 108.702 30.6116C108.792 30.7014 108.864 30.8091 108.918 30.9348C109.313 31.8505 110.391 32.5327 111.361 32.4429C111.81 32.407 112.26 32.3711 112.69 32.2634C112.978 32.1916 113.266 32.0479 113.481 31.8505C113.712 31.6345 113.925 31.4013 114.137 31.1692C114.454 30.8225 114.768 30.4783 115.134 30.1987C115.996 29.5344 116.661 28.7624 116.625 27.6312C116.62 27.4567 116.615 27.2813 116.611 27.1055C116.588 26.1242 116.564 25.1309 116.319 24.2021C116.005 22.9614 115.435 21.7717 114.874 20.6L114.828 20.5035C114.598 20.0161 114.266 19.5797 113.931 19.1404L113.931 19.1403C113.822 18.9972 113.713 18.8537 113.607 18.7081C113.391 18.4209 113.428 18.2233 113.679 17.99L113.701 17.9703L113.702 17.97C114.394 17.3662 115.088 16.762 115.745 16.1227C118.907 13.0346 122.374 10.4672 126.578 8.95908C127.189 8.74419 127.786 8.49366 128.382 8.24342C128.732 8.09642 129.082 7.94952 129.434 7.81C130.539 7.3791 131.639 6.94372 132.74 6.50834L132.74 6.50824C133.84 6.07289 134.94 5.63753 136.045 5.20667C136.214 5.142 136.383 5.07318 136.553 5.00396C137.093 4.78491 137.642 4.56174 138.202 4.4526C139.046 4.29102 139.729 3.93193 140.357 3.32149C140.2 3.13345 140.062 2.95757 139.927 2.78677C139.831 2.66403 139.736 2.54391 139.638 2.42379C139.644 2.38692 139.658 2.3377 139.674 2.28336L139.674 2.28307C139.713 2.15224 139.761 1.99187 139.71 1.90313C139.621 1.74154 139.351 1.59791 139.153 1.59791C138.812 1.61587 138.74 1.47223 138.74 1.18496C138.74 0.843837 138.597 0.664299 138.238 0.646345C137.786 0.617248 137.335 0.564573 136.845 0.507426C136.73 0.494049 136.614 0.480427 136.494 0.466805C136.596 0.348534 136.649 0.277963 136.701 0.210204ZM93.4884 37.8938C93.5548 37.7534 93.624 37.6069 93.7015 37.4521C94.3482 41.3481 93.234 44.5439 90.3054 47.1473C89.9645 46.5189 89.7844 45.8367 90.0365 45.0826C90.1037 44.9027 90.136 44.7088 90.1685 44.5139C90.1879 44.3976 90.2073 44.281 90.2342 44.1669C90.4135 43.4847 90.7368 42.8742 91.1138 42.2638C91.6451 41.417 92.114 40.5257 92.5833 39.6338L92.5834 39.6336L92.5835 39.6335L92.5836 39.6333L92.5837 39.6332L92.5838 39.633L92.5839 39.6329L92.5839 39.6327L92.584 39.6326L92.5841 39.6324L92.5842 39.6323L92.5843 39.6321L92.5844 39.632L92.5845 39.6318L92.5846 39.6317L92.5847 39.6315L92.5848 39.6314C92.7817 39.2571 92.9787 38.8827 93.1804 38.5114C93.2894 38.3149 93.3854 38.1119 93.4883 37.894L93.4883 37.894L93.4883 37.8939L93.4884 37.8938ZM110.912 26.6258C111.703 24.9022 111.756 22.9093 111.074 22.1014C110.337 23.5557 110.481 25.0099 110.912 26.6258ZM45.4614 32.1935L45.4615 32.1931L45.4616 32.1928L45.4618 32.1925L45.4618 32.1924C45.6289 31.7901 45.7957 31.3884 45.967 30.989C45.989 30.989 46.0079 30.9919 46.0227 30.9943C46.0442 30.9976 46.0568 30.9996 46.0568 30.989C46.0724 31.243 46.085 31.4986 46.0976 31.7548L46.0976 31.7555L46.0976 31.7557C46.1286 32.3863 46.1599 33.0208 46.2365 33.6461C46.3802 34.7413 46.5419 35.8545 46.8293 36.9137C47.1168 37.9551 47.9432 38.5835 48.9672 38.8708C49.64 39.0427 50.0948 38.6019 50.5333 38.1769C50.5983 38.1139 50.6629 38.0513 50.7279 37.991C50.8129 37.9113 50.898 37.832 50.9828 37.7529C51.4716 37.2972 51.9547 36.8468 52.3987 36.3572C52.5534 36.1827 52.7133 36.0092 52.8741 35.8347L52.8741 35.8347L52.8742 35.8346L52.8742 35.8346L52.8743 35.8346L52.8743 35.8345L52.8744 35.8345L52.8744 35.8344L52.8745 35.8344L52.8745 35.8343L52.8746 35.8343L52.8746 35.8342L52.8746 35.8342L52.8747 35.8341C53.4418 35.2189 54.0189 34.5928 54.4107 33.8795C55.2909 32.2819 55.9915 30.5945 56.692 28.9071L56.6924 28.9063C56.9299 28.3365 57.089 27.7431 57.2474 27.1521L57.2474 27.152L57.2474 27.1518L57.2475 27.1517L57.2475 27.1516L57.2475 27.1515L57.2476 27.1514L57.2476 27.1513L57.2477 27.1512L57.2477 27.151L57.2477 27.1509L57.2478 27.1508L57.2478 27.1507L57.2478 27.1506L57.2479 27.1505L57.2479 27.1504L57.2479 27.1502C57.3289 26.848 57.4097 26.5465 57.5008 26.249C57.5368 26.0874 57.6625 25.89 57.8063 25.8002C58.507 25.3917 59.2153 25.006 59.9361 24.6134L59.9362 24.6133L59.9363 24.6133L59.9365 24.6132L59.9366 24.6131C60.3244 24.4019 60.7159 24.1887 61.1118 23.9689C61.0971 24.0717 61.0885 24.1775 61.0797 24.285V24.2851C61.0669 24.4405 61.0539 24.5997 61.022 24.7589C60.9252 25.3274 60.8161 25.8939 60.7072 26.4598L60.7071 26.4599L60.7071 26.46C60.4927 27.5737 60.2788 28.6849 60.1597 29.804C59.998 31.2043 60.3573 32.5509 61.4172 33.5923L61.4756 33.6479C61.8405 33.9962 62.2676 34.4038 62.7108 34.472C64.0762 34.6516 65.4775 34.7772 66.5913 33.682C66.9147 33.3768 67.1842 33.0177 67.4177 32.6587C67.5744 32.4218 67.7328 32.1866 67.8908 31.9519C68.4757 31.0831 69.0567 30.22 69.5376 29.3013C70.2467 27.9709 70.8955 26.606 71.5437 25.2425L71.5438 25.2425L71.5438 25.2423L71.5439 25.2422L71.544 25.2421L71.544 25.242L71.5441 25.2418L71.5442 25.2417L71.5442 25.2416L71.5443 25.2415L71.5444 25.2413L71.5444 25.2412L71.5445 25.2411L71.5446 25.2409L71.5447 25.2407L71.5449 25.2404C71.8323 24.6357 72.1197 24.0313 72.4121 23.4303C72.5289 23.2058 72.6501 22.9859 72.7714 22.766C72.8926 22.546 73.0139 22.3261 73.1307 22.1017V25.9259C73.1307 26.1055 73.0948 26.267 73.0589 26.4286C72.8073 27.829 73.5619 29.3192 74.6038 29.6783C75.1428 29.2833 75.6458 28.9242 76.2027 28.5292C76.2314 28.4662 76.2638 28.3885 76.2998 28.3021L76.2999 28.3017L76.2999 28.3016L76.3 28.3015C76.3767 28.1172 76.4701 27.893 76.58 27.6854C76.8308 27.239 77.0885 26.7925 77.347 26.3446L77.3477 26.3434L77.3484 26.3422L77.3486 26.3418L77.3488 26.3415L77.3488 26.3414C77.6823 25.7635 78.0172 25.1832 78.3406 24.5973C78.5038 24.3037 78.6621 24.0084 78.82 23.714C79.1833 23.0363 79.5442 22.363 79.9575 21.7246C80.2237 21.332 80.5525 20.984 80.8807 20.6366L80.8808 20.6366C81.0178 20.4916 81.1547 20.3466 81.287 20.1986C81.3588 20.2165 81.4307 20.2524 81.5026 20.2883C81.5026 20.4626 81.5086 20.6368 81.5146 20.8104C81.5266 21.1555 81.5384 21.4979 81.5026 21.8324C81.3948 22.9276 81.287 24.0228 81.1073 25.1C80.8558 26.5543 81.5385 27.5418 82.6344 28.3497C82.7782 28.4492 82.9356 28.5282 83.1024 28.612L83.1025 28.6121L83.1027 28.6122L83.1031 28.6124C83.2071 28.6646 83.3147 28.7186 83.4249 28.7806C83.4069 28.5652 83.3889 28.4036 83.3889 28.4036C83.4734 28.3304 83.5527 28.2678 83.6255 28.2102L83.6256 28.2101L83.6257 28.21C83.7851 28.0842 83.9138 27.9825 84 27.8469C84.1161 27.6591 84.21 27.4579 84.304 27.2566C84.3987 27.0539 84.4934 26.8512 84.6107 26.662C85.0957 25.9259 85.1678 25.118 85.0597 24.2562C84.9789 23.6367 84.916 23.0128 84.8532 22.3889V22.3888C84.7904 21.7649 84.7275 21.1411 84.6467 20.5217C84.5387 19.7497 84.3946 18.9597 84.1793 18.2056C84.1072 17.9363 83.8559 17.6132 83.6045 17.5234C83.0476 17.3259 82.4547 17.1284 81.8439 17.5234C81.7022 17.6145 81.5377 17.6542 81.3728 17.694C81.2451 17.7249 81.1172 17.7558 80.9996 17.8107C80.8927 17.8596 80.7815 17.9052 80.6696 17.9511C80.3301 18.0904 79.9852 18.2319 79.7419 18.475C79.1044 19.112 78.5213 19.7853 77.9346 20.4626L77.9345 20.4626L77.9345 20.4627L77.9344 20.4628L77.9344 20.4628C77.6944 20.7398 77.4539 21.0175 77.2088 21.2937C77.1741 21.34 77.132 21.3862 77.068 21.4564L77.0679 21.4566C77.0325 21.4954 76.9905 21.5415 76.9393 21.599C77.1729 20.4858 77.119 19.5522 76.4184 18.7622C76.3968 18.7335 76.381 18.6991 76.3652 18.6646C76.3415 18.6129 76.3178 18.5612 76.2746 18.5288C76.2467 18.504 76.2182 18.4776 76.1892 18.4507C76.0503 18.3218 75.8991 18.1815 75.7356 18.1518C74.4961 17.9005 73.4001 18.2954 72.484 19.0675C71.7474 19.6958 71.0287 20.432 70.5257 21.2579C69.9142 22.2355 69.3716 23.2545 68.8296 24.2721C68.4958 24.899 68.1622 25.5254 67.813 26.1413C67.0424 27.4701 66.2464 28.7734 65.4464 30.0834L65.4462 30.0838L65.4459 30.0843C65.2948 30.3317 65.1436 30.5793 64.9923 30.8274C64.7947 31.1505 64.5792 31.1685 64.3816 30.7914C64.2917 30.6119 64.166 30.4323 64.0043 30.3067C63.4653 29.8758 63.2497 29.3192 63.3755 28.6728C63.5945 27.4418 63.8448 26.2212 64.0945 25.0031C64.1726 24.6223 64.2506 24.2417 64.3276 23.8612C64.5792 22.5865 64.8666 21.2937 65.154 20.019C65.2439 19.5881 65.3876 19.1752 65.5313 18.7622C65.693 18.2954 65.8547 17.8466 65.9805 17.5055C65.2947 16.9644 64.6573 17.1399 64.0413 17.3096C63.7374 17.3932 63.4387 17.4755 63.142 17.4696C62.9982 18.475 62.6928 19.4624 61.9023 20.1986C61.04 20.9886 60.1418 21.7606 59.1895 22.4428L59.0976 22.5128C58.6045 22.8888 58.0843 23.2856 57.3571 23.2687C57.1063 23.2687 56.8459 23.3947 56.59 23.5185C56.4975 23.5632 56.4057 23.6076 56.3151 23.6457C55.8839 23.8252 55.4528 24.0227 55.0217 24.2202L55.0216 24.2203C55.0313 24.2462 55.0475 24.2762 55.0645 24.3078C55.1417 24.4512 55.2362 24.6267 54.824 24.5973C54.7521 24.5973 54.6443 24.6332 54.6083 24.6871C54.5259 24.7901 54.439 24.8916 54.3519 24.9933L54.3519 24.9934L54.3518 24.9934L54.3518 24.9935L54.3517 24.9935L54.3517 24.9936L54.3517 24.9936L54.3516 24.9936L54.3516 24.9937L54.3516 24.9937L54.3515 24.9938L54.3515 24.9938L54.3515 24.9939L54.3514 24.9939L54.3514 24.994L54.3514 24.994C54.1351 25.2468 53.9176 25.5008 53.764 25.7823C53.1796 26.8882 52.6296 28.0028 52.0783 29.12L52.0782 29.1202L52.0781 29.1203L52.0781 29.1204L52.078 29.1206L52.0779 29.1208L52.0778 29.1209L52.0777 29.1211L52.0777 29.1213L52.0776 29.1214C51.8326 29.6179 51.5873 30.1149 51.3386 30.6119C51.195 30.8812 51.0692 31.1326 50.9434 31.3839H50.7279C50.6845 31.0113 50.6328 30.6387 50.5808 30.2641C50.525 29.8625 50.4689 29.4586 50.4225 29.0499C50.3749 28.5907 50.3414 28.1315 50.3079 27.6738L50.3079 27.6737L50.3079 27.6736L50.3079 27.6736L50.3079 27.6735L50.3078 27.6734L50.3078 27.6733L50.3078 27.6732L50.3078 27.6731L50.3078 27.673L50.3078 27.6729L50.3078 27.6728L50.3078 27.6727L50.3078 27.6726L50.3077 27.6724C50.2654 27.0927 50.2232 26.5155 50.153 25.9439C50.0631 25.2078 50.0631 24.5255 50.2966 23.8073C50.4459 23.3352 50.5348 22.8458 50.6291 22.3273C50.671 22.0966 50.714 21.8602 50.7638 21.6169C50.5887 21.668 50.4343 21.7072 50.2934 21.743L50.2933 21.743C50.0874 21.7953 49.9104 21.8402 49.7397 21.9042L49.6234 21.951C48.6388 22.3467 47.6712 22.7357 47.1528 23.7894C46.8262 24.4516 46.4843 25.1036 46.1434 25.7536L46.1432 25.7539L46.1431 25.7542L46.1429 25.7545L46.1428 25.7548L46.1427 25.755C45.8461 26.3204 45.5504 26.8842 45.2664 27.452C44.784 28.4056 44.32 29.3653 43.8565 30.324L43.8564 30.3243L43.8563 30.3245L43.8562 30.3248L43.856 30.325L43.8559 30.3253L43.8558 30.3255L43.8557 30.3258L43.8555 30.326L43.8553 30.3265L43.8551 30.327L43.8548 30.3275L43.8546 30.328L43.8543 30.3285L43.8541 30.329L43.8539 30.3295L43.8536 30.33C43.524 31.0119 43.1946 31.6932 42.859 32.3714C42.8051 32.4611 42.7333 32.5509 42.6614 32.6407L42.6614 32.6407C42.4639 31.582 42.41 30.5413 42.356 29.5005L42.3559 29.4987C42.3374 29.054 42.3168 28.6114 42.2962 28.1702C42.2569 27.329 42.2178 26.4928 42.1943 25.6566C42.1583 24.4177 41.4038 23.5739 40.272 23.538C39.8768 23.5201 39.4816 23.5021 39.1043 23.5739C38.1161 23.7535 37.1281 23.9689 36.1579 24.2562C35.7986 24.3639 35.3854 24.6153 35.2058 24.9204C34.6129 25.89 33.8403 26.6799 32.996 27.4161C32.439 27.9008 31.8821 28.4394 31.451 29.0319C30.912 29.795 30.3955 30.5715 29.879 31.348L29.879 31.3481L29.8789 31.3482L29.8788 31.3483L29.8788 31.3484L29.8787 31.3484L29.8786 31.3485L29.8786 31.3486L29.8785 31.3487L29.8784 31.3488L29.8784 31.3489L29.8783 31.349L29.8783 31.3491L29.8782 31.3492L29.8781 31.3493L29.8781 31.3494L29.878 31.3495C29.3618 32.1255 28.8457 32.9015 28.307 33.6641C27.9298 34.2206 27.4447 34.7413 26.9417 35.1902C26.4926 35.5852 26.0434 35.4774 25.9177 35.0107C25.8755 34.8422 25.8272 34.6758 25.779 34.5098C25.5806 33.8268 25.3845 33.1514 25.6302 32.3714C25.7559 31.9585 25.7919 31.5186 25.8278 31.0787V31.0787C25.8638 30.6388 25.8997 30.199 26.0255 29.786C26.3129 28.8344 26.4386 28.0624 25.5044 27.434L25.5039 27.4336C25.4682 27.3978 25.4324 27.362 25.3966 27.3084C24.8397 26.4466 24.5164 26.285 23.5282 26.5543C23.1072 26.6726 22.6958 26.8199 22.2234 26.989L22.2232 26.989L22.223 26.9891L22.223 26.9891L22.2229 26.9891L22.2226 26.9892L22.2208 26.9899L22.2201 26.9901C22.0485 27.0515 21.8689 27.1158 21.6778 27.1826C21.7247 27.0303 21.7736 26.8894 21.8199 26.7556C21.9156 26.4795 22.0008 26.2337 22.0371 25.9798C22.0522 25.8593 22.0712 25.7365 22.0904 25.6128L22.0904 25.6127L22.0904 25.6127L22.0904 25.6127L22.0904 25.6126L22.0904 25.6126L22.0904 25.6125L22.0904 25.6125L22.0904 25.6124L22.0904 25.6124C22.1626 25.1462 22.2367 24.6676 22.109 24.2562C21.7856 23.2328 20.7975 22.4787 19.4321 23.0712C18.1925 23.6098 17.7973 24.2023 18.1206 25.3693C18.4441 26.5184 18.9112 27.6136 20.007 28.3317C19.9433 28.4449 19.8824 28.5582 19.822 28.6703C19.7293 28.8427 19.6379 29.0125 19.5399 29.1756C19.3734 29.4777 19.1962 29.7734 19.0194 30.0686L19.0194 30.0687C18.6812 30.6331 18.3443 31.1957 18.0847 31.7968C17.6985 32.6766 17.3481 33.5743 16.9978 34.472C16.6475 35.3697 16.2972 36.2674 15.911 37.1471C14.9587 39.3555 13.306 40.8996 11.1141 41.8332C9.92846 42.3359 8.2936 42.5154 7.28753 41.2766C6.70411 40.5655 6.21085 39.7757 5.71849 38.9872C5.58924 38.7803 5.46005 38.5734 5.32931 38.3681C5.16762 38.1167 5.02389 37.7935 5.00593 37.4883C4.99449 37.1871 4.98061 36.8851 4.96671 36.5826L4.9667 36.5824C4.91516 35.4606 4.86332 34.3324 4.93407 33.2152C5.05983 31.3839 5.23948 29.5346 5.59879 27.7392C5.81437 26.6081 6.12696 25.4964 6.43956 24.3848C6.64796 23.6436 6.85636 22.9024 7.03602 22.1555C7.37736 20.791 7.95225 19.5522 8.77864 18.4391C8.80592 18.4028 8.83234 18.3658 8.85862 18.3291C9.04006 18.0755 9.21504 17.8309 9.62304 17.8466C9.78471 17.8645 10.0363 17.5952 10.1081 17.3978C10.4494 16.5539 10.9705 16.1768 11.8507 16.1768C12.0304 16.1768 12.264 16.105 12.3718 15.9973C12.8087 15.5607 13.3597 15.4559 13.9067 15.3519L13.9067 15.3519C14.0794 15.3191 14.2516 15.2863 14.4198 15.2432C14.815 15.1535 15.4798 15.6921 15.4618 16.0512C15.4079 17.9363 14.9228 19.6061 13.2161 20.7013C12.4795 21.1681 11.9226 21.9222 12.0663 22.7121C12.4256 24.6332 13.791 25.6207 15.8211 24.6691C16.8811 24.1664 17.4919 23.179 17.7794 22.0657C18.0075 21.1918 18.173 20.3088 18.339 19.4233L18.339 19.4232L18.3391 19.4232L18.3391 19.4232L18.3391 19.4231L18.3391 19.4231L18.3391 19.4231L18.3391 19.4231L18.3391 19.423L18.3391 19.423L18.3391 19.423L18.3391 19.4229L18.3391 19.4229L18.3391 19.4229L18.3391 19.4229L18.3391 19.4228L18.3391 19.4228C18.4084 19.0533 18.4778 18.6833 18.5518 18.3134C18.7136 17.5594 18.6057 16.8412 18.1746 16.1768C17.8153 15.6562 17.4739 15.1356 17.1326 14.5969C16.36 13.3401 15.1204 13.0887 13.8269 13.2324C13.4875 13.272 13.1517 13.3311 12.8161 13.3902L12.816 13.3902C12.0857 13.5189 11.3563 13.6473 10.5932 13.5735C10.144 13.5196 9.5871 13.789 9.17387 14.0583C7.66481 15.0817 6.58688 16.518 5.50896 17.9543C4.23342 19.66 3.06567 21.4195 2.40095 23.4841C2.33764 23.7161 2.25573 23.9419 2.17343 24.1688C2.11562 24.3282 2.05761 24.4881 2.00571 24.6511C1.84832 25.1718 1.67617 25.6893 1.50412 26.2064L1.5041 26.2065C1.10665 27.401 0.70976 28.594 0.496618 29.8219C0.224556 31.4533 0.155952 33.1228 0.0875381 34.7876C0.0746344 35.1016 0.0617373 35.4154 0.0474832 35.7288L0.0370683 35.9453C-0.0156902 37.0282 -0.0703665 38.1504 0.316964 39.194C0.394895 39.4099 0.470032 39.6272 0.54513 39.8444C0.8509 40.7289 1.15602 41.6114 1.6464 42.3898C2.32909 43.467 3.15549 44.5442 4.14359 45.3521C5.68861 46.6448 7.64685 46.9142 9.60511 46.6448C12.5154 46.2499 14.8689 44.7238 16.8092 42.5872C18.2418 41.0032 18.8469 39.0188 19.4472 37.0503L19.4472 37.0502C19.5546 36.6982 19.6618 36.3467 19.7735 35.9981C19.9621 35.4057 20.1238 34.8042 20.2855 34.2028L20.2855 34.2027C20.4472 33.6012 20.6088 32.9998 20.7975 32.4073C20.9173 32.0482 21.085 31.705 21.2527 31.3619C21.3365 31.1903 21.4203 31.0188 21.4981 30.8453L21.6598 30.8992C21.6619 30.9135 21.6642 30.9279 21.6666 30.9422C21.6694 30.9592 21.6725 30.9762 21.6755 30.9932C21.6924 31.0875 21.7093 31.1818 21.6958 31.2762C21.4981 32.9459 21.588 34.5798 22.0371 36.2135C22.4144 37.578 23.8696 38.9785 25.2709 39.1401C25.4685 39.158 25.6841 39.158 25.8817 39.1221C27.3009 38.8169 28.5765 38.2603 29.4568 37.0394C29.9419 36.3931 30.409 35.7288 30.8941 35.0286C30.9396 35.1449 30.9823 35.2613 31.0246 35.3765L31.0246 35.3765C31.1323 35.67 31.2372 35.9557 31.3791 36.2135C31.6377 36.6896 32.0923 36.8566 32.5552 37.0266C32.7033 37.081 32.8523 37.1357 32.996 37.201C34.0919 37.6858 35.5471 37.3626 36.2836 36.429C36.4891 36.178 36.7091 35.9416 36.9113 35.7242C37.0274 35.5995 37.1376 35.481 37.2359 35.3697C37.3935 35.4999 37.5433 35.6196 37.6863 35.7338C37.918 35.919 38.1318 36.0897 38.3317 36.2674C38.3794 36.3102 38.4309 36.3519 38.4824 36.3935L38.4825 36.3936L38.4826 36.3937C38.6253 36.5091 38.7688 36.6251 38.8348 36.7702C39.3557 37.9551 40.6852 37.9551 41.5655 37.5422C42.9668 36.9137 43.8831 35.7647 44.5118 34.4002C44.8487 33.6689 45.1555 32.9301 45.4614 32.1935ZM37.7025 28.5111L37.703 28.5113C37.5772 28.9602 37.4514 29.4269 37.3616 29.8758C37.2536 30.3343 37.1502 30.7883 37.0468 31.2423L37.0468 31.2424L37.0467 31.2426L37.0467 31.2427L37.0467 31.2428L37.0466 31.2429L37.0466 31.2431L37.0466 31.2432L37.0465 31.2433L37.0465 31.2435L37.0464 31.2436L37.0464 31.2437L37.0464 31.2439L37.0463 31.244L37.0463 31.2441L37.0463 31.2443L37.0462 31.2444C36.9433 31.6964 36.8403 32.1483 36.7328 32.6048C36.6609 32.8741 36.5891 33.1434 36.4453 33.3589C36.3555 33.5205 36.0322 33.7539 35.9782 33.7179C35.7627 33.5744 35.4573 33.3409 35.4393 33.1075C35.3854 32.6407 35.4034 32.1021 35.583 31.6891C36.0322 30.7197 36.5711 29.786 37.1101 28.8524C37.1677 28.7487 37.2846 28.6672 37.4036 28.5842C37.4701 28.5378 37.5372 28.4909 37.5951 28.4394C37.6309 28.4752 37.6667 28.4931 37.7025 28.5111ZM49.8149 30.0102C49.8043 30.1076 49.7937 30.2044 49.7937 30.2887C49.6589 30.2349 49.5377 30.1855 49.4164 30.1361C49.2951 30.0867 49.1738 30.0374 49.0391 29.9835C48.9852 29.8578 48.9313 29.6962 48.8774 29.5346C48.8416 29.5436 48.8102 29.5481 48.7789 29.5525C48.7473 29.5571 48.7158 29.5616 48.6798 29.5706L48.6908 29.6685C48.7051 29.7941 48.7194 29.9199 48.7337 30.0912C48.4642 30.3605 48.2306 29.9835 48.1947 29.786C48.1588 29.6245 48.4103 29.3551 48.59 29.2115C49.075 28.8344 49.4702 29.1935 49.7757 29.4808C49.862 29.5794 49.8383 29.7966 49.8149 30.0102ZM7.46919 19.4972C7.31132 19.5874 7.15344 19.6775 7.00009 19.7677C6.98213 19.5163 7.34143 18.6545 7.80853 18.6725C7.8382 18.7911 7.86243 18.9043 7.88421 19.006L7.88421 19.006C7.90199 19.0891 7.91814 19.1645 7.93429 19.2291C7.78231 19.3184 7.62589 19.4077 7.46944 19.4971L7.46919 19.4972ZM48.8725 24.5714C48.8927 24.5872 48.912 24.6024 48.9313 24.6153C48.6439 25.0641 48.3384 25.513 47.9432 26.0874C47.9971 24.8846 48.1768 24.5614 48.7517 24.4895C48.7978 24.5126 48.8365 24.543 48.8725 24.5714ZM4.5029 28.996C5.09576 29.2474 5.09576 29.2833 4.66459 29.9656C4.636 29.8627 4.54192 29.7708 4.44835 29.6793C4.24787 29.4834 4.04972 29.2898 4.5029 28.996ZM47.9792 30.1272H46.9911C47.0629 29.9296 47.1168 29.768 47.1528 29.6064C47.4222 29.768 47.6737 29.9296 47.9792 30.1272ZM48.3381 30.3431L48.3384 30.3426C48.4054 30.3852 48.4765 30.4257 48.5489 30.4669L48.5493 30.4672L48.5497 30.4674L48.5497 30.4674L48.5498 30.4674L48.5498 30.4675L48.5499 30.4675L48.5499 30.4675L48.5499 30.4675L48.55 30.4676L48.55 30.4676C48.691 30.5479 48.8369 30.631 48.9672 30.7376C49.0065 30.7637 48.9696 30.8658 48.9328 30.9679C48.919 31.0061 48.9051 31.0444 48.8953 31.0787C48.6618 30.9351 48.4282 30.7735 48.1947 30.6119C48.2306 30.5223 48.2844 30.4327 48.3381 30.3431ZM67.5076 13.7354C66.9507 13.8431 66.6093 13.9508 66.8967 14.5793C66.964 14.7136 66.7696 14.9687 66.5922 15.2014L66.592 15.2017L66.5915 15.2022L66.5912 15.2026L66.5907 15.2033C66.5316 15.2809 66.4745 15.3559 66.4296 15.4231C66.3774 15.5067 66.3069 15.5903 66.2393 15.6703L66.2393 15.6703C66.1908 15.7278 66.1438 15.7835 66.1063 15.836C65.9483 15.8142 65.7904 15.7991 65.6335 15.784C65.2727 15.7494 64.9172 15.7152 64.5792 15.6026C63.7169 15.3154 63.4474 14.669 63.681 13.7893C63.7169 13.6457 63.6989 13.4661 63.663 13.3225L63.6452 13.2706C63.4109 12.5859 63.4052 12.5691 63.8786 11.8682C64.166 12.4247 64.6152 12.3529 65.1182 12.2452C65.1553 12.2376 65.1924 12.2295 65.2295 12.2215C65.7147 12.1167 66.2011 12.0116 66.5015 12.7121C66.6044 12.9948 66.8639 13.204 67.1546 13.4384C67.2699 13.5313 67.3902 13.6283 67.5076 13.7354ZM103.869 42.245C103.923 41.9937 103.941 41.7423 103.941 41.491C103.941 41.2396 103.923 40.9703 103.887 40.7549C103.761 40.1085 103.42 39.7674 102.827 39.7674C102.485 39.7674 102.253 39.893 102.109 40.1085C102.091 40.1444 102.072 40.1265 102.072 40.1085V38.6363C102.072 38.5825 102.036 38.5645 102 38.5645H101.498C101.444 38.5645 101.426 38.6004 101.426 38.6363V43.1069C101.426 43.1607 101.462 43.1787 101.498 43.1787H102C102.055 43.1787 102.072 43.1427 102.072 43.1069V42.8914C102.072 42.8734 102.091 42.8555 102.109 42.8735C102.27 43.0889 102.521 43.2146 102.845 43.2146C103.402 43.2146 103.725 42.8914 103.869 42.245ZM103.204 40.7369C103.276 40.9524 103.295 41.2037 103.295 41.491C103.295 41.7603 103.276 42.0117 103.204 42.2091C103.115 42.4964 102.953 42.676 102.647 42.676C102.36 42.676 102.198 42.4964 102.127 42.2271C102.072 42.0296 102.055 41.7783 102.055 41.491C102.055 41.2037 102.072 40.9524 102.145 40.7549C102.234 40.4855 102.378 40.306 102.666 40.306C102.935 40.306 103.115 40.4855 103.204 40.7369ZM104.462 44.4185V44.0235C104.462 43.9875 104.48 43.9517 104.498 43.9517H104.534C104.983 43.9517 105.145 43.826 105.288 43.1796V43.1437L104.318 39.8941C104.301 39.8402 104.337 39.8223 104.372 39.8223H104.893C104.929 39.8223 104.965 39.8402 104.965 39.876L105.576 42.264C105.576 42.2819 105.594 42.2819 105.612 42.264L106.222 39.876C106.222 39.8402 106.258 39.8223 106.294 39.8223H106.834C106.888 39.8223 106.905 39.8402 106.888 39.8941L105.845 43.395C105.576 44.2569 105.378 44.4723 104.534 44.4723H104.498C104.48 44.4723 104.462 44.4544 104.462 44.4185ZM109.349 38.5651V41.366C109.349 42.497 110.121 43.2332 111.289 43.2332C112.439 43.2332 113.211 42.515 113.211 41.4018V41.3121C113.211 41.2762 113.175 41.2403 113.122 41.2403L112.42 41.2044C112.367 41.2044 112.331 41.2403 112.331 41.2942V41.4198C112.331 42.0482 111.9 42.4791 111.271 42.4791C110.642 42.4791 110.211 42.0482 110.211 41.4198V38.5292C110.211 37.9008 110.642 37.4699 111.271 37.4699C111.9 37.4699 112.331 37.9008 112.331 38.5292V38.6728C112.331 38.7267 112.367 38.7626 112.42 38.7626L113.122 38.7267C113.175 38.7267 113.211 38.6728 113.211 38.619V38.5472C113.211 37.434 112.439 36.7158 111.289 36.7158C110.121 36.7158 109.349 37.434 109.349 38.5651ZM117.595 40.0023V43.0724C117.595 43.1263 117.559 43.1621 117.505 43.1621H116.804C116.75 43.1621 116.714 43.1263 116.714 43.0724V40.1279C116.714 39.5714 116.41 39.2123 115.925 39.2123C115.421 39.2123 115.098 39.5714 115.098 40.1279V43.0544C115.098 43.1083 115.062 43.1442 115.008 43.1442H114.307C114.253 43.1442 114.217 43.1083 114.217 43.0544V36.8603C114.217 36.8064 114.253 36.7705 114.307 36.7705H115.008C115.062 36.7705 115.098 36.8064 115.098 36.8603V38.8891C115.098 38.925 115.115 38.943 115.151 38.9071C115.403 38.5839 115.78 38.4582 116.193 38.4582C117.056 38.4761 117.595 39.0507 117.595 40.0023ZM121.062 38.7096C121.062 38.6557 121.062 38.6198 121.009 38.5839C120.918 38.5301 120.775 38.4941 120.577 38.4941C120.11 38.4941 119.786 38.7455 119.589 39.1405C119.589 39.1764 119.553 39.1584 119.553 39.1225V38.6198C119.553 38.5659 119.517 38.5301 119.463 38.5301H118.763C118.708 38.5301 118.673 38.5659 118.673 38.6198V43.0724C118.673 43.1263 118.708 43.1622 118.763 43.1622H119.445C119.499 43.1622 119.535 43.1263 119.535 43.0724V40.4152C119.535 39.8587 119.894 39.4457 120.361 39.4098C120.541 39.3918 120.703 39.4098 120.811 39.4637C120.865 39.4816 120.901 39.4816 120.918 39.4098L121.062 38.7096ZM121.655 37.2728C121.655 36.9317 121.906 36.6982 122.229 36.6982C122.553 36.6982 122.805 36.9317 122.805 37.2728C122.805 37.6139 122.571 37.8473 122.229 37.8473C121.888 37.8473 121.655 37.6139 121.655 37.2728ZM121.799 43.0719V38.6193C121.799 38.5655 121.835 38.5296 121.888 38.5296H122.589C122.643 38.5296 122.679 38.5655 122.679 38.6193V43.0719C122.679 43.1258 122.643 43.1617 122.589 43.1617H121.888C121.835 43.1617 121.799 43.1258 121.799 43.0719ZM123.667 41.8875V41.9772C123.667 42.6954 124.314 43.2161 125.319 43.1801C126.325 43.1801 126.973 42.6774 126.973 41.8695C126.973 40.9539 126.129 40.6666 125.482 40.4512C124.961 40.2716 124.547 40.128 124.547 39.733C124.547 39.4098 124.853 39.1584 125.302 39.1584C125.787 39.1584 126.092 39.4278 126.092 39.7689V39.8407C126.092 39.8766 126.129 39.9125 126.182 39.9125H126.811C126.865 39.9125 126.901 39.8766 126.901 39.8227V39.8048C126.901 39.0328 126.272 38.4941 125.284 38.4941C124.332 38.4941 123.703 38.9789 123.703 39.8048C123.703 40.7204 124.511 41.0077 125.14 41.2232L125.196 41.2431C125.676 41.4138 126.092 41.5617 126.092 41.9593C126.092 42.2825 125.787 42.5518 125.319 42.5518C124.834 42.5518 124.493 42.2644 124.493 41.9413V41.8695C124.493 41.8336 124.457 41.7977 124.404 41.7977H123.757C123.703 41.7977 123.667 41.8336 123.667 41.8875ZM127.512 41.9772V41.8875C127.512 41.8336 127.548 41.7977 127.601 41.7977H128.248C128.302 41.7977 128.338 41.8336 128.338 41.8695V41.9413C128.338 42.2645 128.679 42.5518 129.165 42.5518C129.631 42.5518 129.937 42.2825 129.937 41.9593C129.937 41.5617 129.521 41.4137 129.04 41.243L128.984 41.2232C128.356 41.0077 127.548 40.7205 127.548 39.8048C127.548 38.9789 128.176 38.4941 129.128 38.4941C130.117 38.4941 130.745 39.0328 130.745 39.8048V39.8227C130.745 39.8766 130.709 39.9125 130.656 39.9125H130.026C129.973 39.9125 129.937 39.8766 129.937 39.8407V39.7689C129.937 39.4278 129.631 39.1584 129.146 39.1584C128.697 39.1584 128.392 39.4098 128.392 39.733C128.392 40.128 128.805 40.2716 129.326 40.4512C129.973 40.6666 130.817 40.9539 130.817 41.8695C130.817 42.6774 130.171 43.1801 129.165 43.1801C128.158 43.1801 127.512 42.6954 127.512 41.9772ZM131.266 44.3289V44.8854C131.266 44.9393 131.285 44.9752 131.393 44.9932H131.446C132.614 44.9932 132.901 44.67 133.261 43.485L134.716 38.6374C134.734 38.5656 134.698 38.5296 134.626 38.5296L133.89 38.5117C133.835 38.5117 133.799 38.5477 133.782 38.6015L132.937 41.9051C132.919 41.9409 132.901 41.9409 132.884 41.9051L132.021 38.6015C132.003 38.5477 131.967 38.5117 131.913 38.5117H131.177C131.105 38.5117 131.069 38.5477 131.087 38.6194L132.416 43.1259C132.416 43.1259 132.434 43.1618 132.416 43.1798C132.219 44.0595 132.003 44.2391 131.374 44.2391H131.321C131.302 44.2391 131.266 44.275 131.266 44.3289ZM140.95 36.8779V37.4524C140.95 37.5062 140.914 37.5422 140.86 37.5422H139.387C139.369 37.5422 139.351 37.5601 139.351 37.5781V43.0541C139.351 43.1079 139.315 43.1439 139.261 43.1439H138.561C138.506 43.1439 138.47 43.1079 138.47 43.0541V37.5781C138.47 37.5601 138.453 37.5422 138.435 37.5422H137.034C136.979 37.5422 136.944 37.5062 136.944 37.4524V36.8779C136.944 36.824 136.979 36.7881 137.034 36.7881H140.86C140.914 36.7881 140.95 36.824 140.95 36.8779ZM143.896 41.8509C143.842 41.833 143.806 41.8509 143.788 41.9048C143.645 42.246 143.339 42.4794 142.944 42.5153C142.459 42.5153 142.118 42.1921 142.046 41.7433C142.035 41.6638 142.031 41.5788 142.026 41.4854C142.022 41.4098 142.017 41.3287 142.01 41.2405C142.01 41.2226 142.027 41.2046 142.046 41.2046H144.543C144.596 41.2046 144.632 41.1866 144.632 41.1148C144.632 40.8276 144.632 40.3967 144.596 40.0735C144.524 39.104 143.95 38.4756 142.872 38.4756C141.938 38.4756 141.291 39.0322 141.183 39.876C141.148 40.1453 141.129 40.4865 141.129 40.8455C141.129 41.2405 141.165 41.6355 141.255 41.9767C141.38 42.7666 141.974 43.2514 142.89 43.2514C143.752 43.2514 144.327 42.8205 144.524 42.1382C144.543 42.0664 144.507 42.0305 144.453 42.0125L143.896 41.8509ZM141.992 40.4505C141.992 40.271 142.01 40.0915 142.027 39.9478C142.082 39.5169 142.387 39.2118 142.836 39.2118C143.321 39.2118 143.645 39.5349 143.698 39.9838C143.708 40.0504 143.712 40.1271 143.717 40.2112C143.721 40.2857 143.726 40.3662 143.734 40.4505C143.734 40.4685 143.716 40.4865 143.698 40.4865H142.027C142.01 40.4865 141.992 40.4865 141.992 40.4505ZM145.477 37.2728C145.477 36.9317 145.728 36.6982 146.051 36.6982C146.393 36.6982 146.627 36.9317 146.627 37.2728C146.627 37.6139 146.393 37.8473 146.051 37.8473C145.728 37.8473 145.477 37.6139 145.477 37.2728ZM145.621 43.0719V38.6193C145.621 38.5655 145.657 38.5296 145.711 38.5296H146.411C146.465 38.5296 146.501 38.5655 146.501 38.6193V43.0719C146.501 43.1258 146.465 43.1617 146.411 43.1617H145.711C145.657 43.1617 145.621 43.1258 145.621 43.0719ZM150.92 38.5292H150.22C150.166 38.5292 150.13 38.5651 150.148 38.601V38.8524C150.148 38.8883 150.13 38.9062 150.094 38.8703C149.861 38.583 149.501 38.4395 149.07 38.4395C148.261 38.4395 147.723 38.9601 147.615 39.768C147.561 40.0193 147.543 40.4503 147.543 40.8273C147.543 41.1863 147.543 41.5634 147.597 41.8148C147.723 42.6765 148.316 43.1434 149.088 43.1434C149.519 43.1434 149.842 42.9997 150.076 42.7125C150.112 42.6765 150.13 42.6945 150.13 42.7304V42.91C150.13 43.8436 149.735 44.2386 148.567 44.1847C148.513 44.1847 148.478 44.2206 148.478 44.2744L148.459 44.8849C148.459 44.9567 148.478 44.9747 148.549 44.9926C150.13 45.0824 151.01 44.472 151.01 42.9818V38.619C151.01 38.5651 150.975 38.5292 150.92 38.5292ZM150.098 40.0086C150.114 40.2262 150.13 40.4398 150.13 40.8273C150.13 41.2582 150.13 41.4377 150.112 41.6711C150.076 42.102 149.771 42.4252 149.304 42.4252C148.837 42.4252 148.531 42.102 148.459 41.6711C148.423 41.4377 148.406 41.2044 148.406 40.8273C148.406 40.4682 148.423 40.1989 148.459 39.9655C148.531 39.5346 148.837 39.2115 149.286 39.2115C149.753 39.2115 150.04 39.5346 150.094 39.9655L150.098 40.0086ZM154.639 41.9048C154.657 41.8509 154.693 41.833 154.747 41.8509L155.304 42.0125C155.358 42.0305 155.394 42.0664 155.376 42.1382C155.178 42.8205 154.603 43.2514 153.741 43.2514C152.824 43.2514 152.232 42.7666 152.106 41.9767C152.016 41.6355 151.98 41.2405 151.98 40.8455C151.98 40.4865 151.998 40.1453 152.034 39.876C152.142 39.0322 152.788 38.4756 153.723 38.4756C154.801 38.4756 155.376 39.104 155.447 40.0735C155.483 40.3967 155.483 40.8276 155.483 41.1148C155.483 41.1866 155.447 41.2046 155.394 41.2046H152.896C152.879 41.2046 152.86 41.2226 152.86 41.2405C152.869 41.3334 152.874 41.4184 152.878 41.4973C152.883 41.5861 152.887 41.6672 152.896 41.7433C152.968 42.1921 153.309 42.5153 153.794 42.5153C154.19 42.4794 154.496 42.246 154.639 41.9048ZM152.879 39.9478C152.86 40.0915 152.843 40.271 152.843 40.4505C152.843 40.4865 152.86 40.4865 152.879 40.4865H154.549C154.568 40.4865 154.585 40.4685 154.585 40.4505C154.577 40.3704 154.573 40.2938 154.569 40.2224V40.222C154.564 40.1337 154.559 40.0532 154.549 39.9838C154.496 39.5349 154.172 39.2118 153.687 39.2118C153.238 39.2118 152.932 39.5169 152.879 39.9478ZM159.778 43.0722V40.0021C159.778 39.0505 159.238 38.476 158.376 38.458C157.963 38.458 157.586 38.5837 157.334 38.9069C157.298 38.9428 157.281 38.9249 157.281 38.8889V38.6017C157.281 38.5478 157.245 38.5119 157.19 38.5119H156.49C156.436 38.5119 156.4 38.5478 156.4 38.6017V43.0543C156.4 43.1082 156.436 43.1441 156.49 43.1441H157.19C157.245 43.1441 157.281 43.1082 157.281 43.0543V40.1278C157.281 39.5712 157.604 39.2121 158.107 39.2121C158.592 39.2121 158.898 39.5712 158.898 40.1278V43.0722C158.898 43.1261 158.934 43.162 158.987 43.162H159.688C159.742 43.162 159.778 43.1261 159.778 43.0722Z" clip-rule="evenodd" fill-rule="evenodd"></path>
</svg>
