<svg xmlns="http://www.w3.org/2000/svg" fill="none" viewBox="0 0 160 160" height="160" width="160">
<path fill="#262523" d="M74.9068 74.8931V47.4707H67.1954L60.816 63.2992L60.1501 64.9437L59.5892 66.4238L59.3789 66.9994C59.1336 66.2182 58.6078 64.8204 58.047 63.3403L51.4923 47.4707H43.6758V74.8931H49.5294V60.2568C49.5294 58.9412 49.4944 58.6123 49.3541 56.68L49.7047 57.5845C49.8799 57.9545 50.0552 58.3656 50.1954 58.7357C50.4057 59.229 50.581 59.6813 50.7913 60.1335L56.8201 74.8931H61.9026L67.6161 60.7091L68.5624 58.3656C68.7728 57.8312 68.913 57.42 69.2284 56.68C69.1233 57.8312 69.0882 59.2701 69.0532 61.3669V74.8931H74.9068Z"></path>
<path fill="#262523" d="M116.326 75.0208L104.807 60.936L115.912 47.4707H107.293L100.58 56.1447L94.0333 47.4707H84.793L96.3124 60.936L84.793 75.0208H93.4118L100.58 66.0578L107.293 75.0208H116.326Z"></path>
<path fill="#262523" d="M75.1662 112.529L63.7681 98.4438L74.7562 84.9785H66.2281L59.586 93.6525L53.108 84.9785H43.9648L55.363 98.4438L43.9648 112.529H52.4929L59.586 103.566L66.2281 112.529H75.1662Z"></path>
<path fill="#262523" d="M103.804 112.366V100.828L116.204 84.9785H107.704L100.478 94.874L93.2924 84.9785H84.793L96.9467 100.828V112.366H103.804Z"></path>
</svg>
