<svg xmlns="http://www.w3.org/2000/svg" fill="none" viewBox="0 0 160 160" height="160" width="160">
<g clip-path="url(#clip0_904_51920)">
<path fill="#262523" d="M67.031 54.8555L62.9769 64.1963H65.1488L65.8913 62.3808H70.1979L70.9404 64.1963H73.1939L69.2066 54.8555H67.031ZM66.5781 60.6879L68.0631 57.057L69.5482 60.6879H66.5781ZM84.8105 61.6086C84.8334 61.0437 84.6473 60.4901 84.2877 60.0538C83.9281 59.6175 83.4203 59.3291 82.8614 59.2437C83.328 59.1441 83.7451 58.8842 84.0401 58.5092C84.3351 58.1342 84.4895 57.6677 84.4764 57.1907C84.4764 55.7502 83.1955 54.8555 81.135 54.8555H76.8433V64.1963H81.2984C83.4628 64.1963 84.8105 63.2199 84.8105 61.6086ZM78.9521 56.5744H81.0311C81.8182 56.5744 82.3119 56.9456 82.3119 57.5768C82.3119 58.2079 81.8182 58.62 81.0311 58.62H78.9521V56.5744ZM81.0311 62.4773H78.9521V60.2498H81.0311C82.0335 60.2498 82.6349 60.6656 82.6349 61.345C82.6349 62.0244 82.0335 62.4773 81.0311 62.4773ZM95.3541 64.2H97.4629V54.8555H95.3541V58.7648H91.1218V54.8555H89.0131V64.1963H91.1218V60.5134H95.3541V64.2ZM36.1463 104.611C35.654 104.611 35.1818 104.416 34.8337 104.067C34.4856 103.719 34.29 103.247 34.29 102.755C34.29 102.263 34.4856 101.79 34.8337 101.442C35.1818 101.094 35.654 100.899 36.1463 100.899C36.6666 100.908 37.1624 101.122 37.5274 101.493L37.8503 101.084C37.3825 100.648 36.7677 100.402 36.1277 100.397C35.8162 100.396 35.5075 100.456 35.2192 100.574C34.9309 100.693 34.6687 100.866 34.4475 101.086C34.2264 101.305 34.0506 101.566 33.9302 101.853C33.8099 102.141 33.7473 102.449 33.7461 102.76C33.7449 103.072 33.805 103.381 33.9231 103.669C34.0412 103.957 34.215 104.22 34.4344 104.441C34.6538 104.662 34.9147 104.838 35.202 104.958C35.4894 105.078 35.7976 105.141 36.1092 105.142C36.761 105.128 37.3838 104.87 37.8541 104.418L37.5274 104.058C37.152 104.408 36.6595 104.605 36.1463 104.611V104.611ZM46.4598 100.397C45.9944 100.415 45.5446 100.569 45.1662 100.84C44.7878 101.112 44.4977 101.489 44.3319 101.924C44.1662 102.359 44.1322 102.833 44.2341 103.287C44.3361 103.742 44.5695 104.156 44.9053 104.479C45.241 104.801 45.6644 105.018 46.1224 105.102C46.5805 105.185 47.0531 105.132 47.4812 104.949C47.9094 104.766 48.2743 104.462 48.5303 104.073C48.7864 103.684 48.9223 103.228 48.9212 102.762C48.9174 102.445 48.8504 102.131 48.7241 101.839C48.5979 101.548 48.4149 101.284 48.1858 101.064C47.9567 100.844 47.6861 100.672 47.3898 100.557C47.0935 100.443 46.7773 100.389 46.4598 100.397V100.397ZM46.4598 104.626C45.9674 104.626 45.4953 104.43 45.1472 104.082C44.7991 103.734 44.6035 103.262 44.6035 102.77C44.6035 102.277 44.7991 101.805 45.1472 101.457C45.4953 101.109 45.9674 100.913 46.4598 100.913C46.9521 100.913 47.4242 101.109 47.7724 101.457C48.1205 101.805 48.316 102.277 48.316 102.77C48.316 103.262 48.1205 103.734 47.7724 104.082C47.4242 104.43 46.9521 104.626 46.4598 104.626V104.626ZM56.157 100.412H55.6186V105.116H58.2174V104.607H56.157V100.412ZM65.3455 100.412H64.8072V105.116H67.406V104.607H65.3418L65.3455 100.412ZM74.5378 102.992H76.9102V102.476H74.5378V100.928H77.1923V100.412H73.9995V105.116H77.2814V104.604H74.5378V102.992ZM86.1099 104.611C85.6176 104.611 85.1454 104.416 84.7973 104.067C84.4492 103.719 84.2536 103.247 84.2536 102.755C84.2536 102.263 84.4492 101.79 84.7973 101.442C85.1454 101.094 85.6176 100.899 86.1099 100.899C86.6326 100.904 87.1319 101.116 87.4984 101.489L87.8214 101.081C87.3552 100.643 86.7414 100.398 86.1024 100.394C85.7909 100.392 85.4821 100.452 85.1937 100.57C84.9054 100.688 84.643 100.861 84.4217 101.081C84.2004 101.3 84.0244 101.561 83.9038 101.848C83.7833 102.135 83.7204 102.443 83.719 102.755C83.7175 103.066 83.7774 103.375 83.8953 103.664C84.0132 103.952 84.1867 104.214 84.4059 104.436C84.6252 104.657 84.8859 104.833 85.1732 104.953C85.4604 105.074 85.7686 105.137 86.0802 105.138C86.7333 105.125 87.3576 104.867 87.8288 104.414L87.4984 104.043C87.1242 104.401 86.6279 104.604 86.1099 104.611V104.611ZM93.8728 100.928H95.4061V105.116H95.9444V100.928H97.4851V100.412H93.8728V100.928ZM103.982 105.116H104.52V100.412H103.982V105.116ZM113.687 100.397C113.221 100.414 112.771 100.568 112.392 100.839C112.013 101.11 111.722 101.486 111.556 101.921C111.39 102.356 111.355 102.831 111.457 103.285C111.558 103.74 111.792 104.155 112.127 104.478C112.463 104.801 112.886 105.018 113.344 105.102C113.803 105.186 114.275 105.133 114.704 104.95C115.132 104.767 115.497 104.462 115.753 104.073C116.01 103.684 116.146 103.228 116.144 102.762C116.141 102.445 116.074 102.131 115.947 101.839C115.821 101.548 115.638 101.284 115.409 101.064C115.18 100.844 114.909 100.672 114.613 100.557C114.317 100.443 114.001 100.389 113.683 100.397H113.687ZM113.687 104.626C113.322 104.616 112.968 104.498 112.67 104.288C112.372 104.078 112.142 103.785 112.009 103.445C111.877 103.105 111.847 102.733 111.925 102.377C112.002 102.02 112.183 101.694 112.444 101.44C112.706 101.185 113.037 101.014 113.395 100.946C113.754 100.879 114.124 100.918 114.461 101.06C114.797 101.202 115.084 101.44 115.285 101.744C115.487 102.048 115.595 102.405 115.595 102.77C115.584 103.268 115.378 103.743 115.02 104.09C114.662 104.438 114.182 104.63 113.683 104.626H113.687ZM126.224 100.412V104.195L123.403 100.412H122.842V105.116H123.38V101.34L126.205 105.116H126.755V100.412H126.224Z"></path>
<path fill="#262523" d="M113.682 105.327C113.18 105.311 112.695 105.147 112.285 104.856C111.876 104.565 111.562 104.161 111.381 103.692C111.2 103.224 111.161 102.713 111.269 102.223C111.376 101.733 111.626 101.285 111.986 100.935C112.346 100.586 112.801 100.35 113.294 100.257C113.787 100.164 114.297 100.219 114.76 100.413C115.222 100.608 115.617 100.935 115.896 101.352C116.174 101.77 116.323 102.26 116.325 102.762C116.321 103.104 116.249 103.442 116.113 103.757C115.978 104.071 115.782 104.356 115.536 104.594C115.291 104.832 115.001 105.02 114.682 105.146C114.364 105.272 114.024 105.333 113.682 105.327ZM113.682 100.583C113.253 100.599 112.839 100.742 112.49 100.993C112.142 101.243 111.875 101.591 111.723 101.992C111.57 102.393 111.54 102.83 111.634 103.249C111.728 103.667 111.944 104.049 112.253 104.346C112.563 104.643 112.953 104.842 113.376 104.919C113.798 104.996 114.233 104.947 114.628 104.778C115.022 104.609 115.358 104.328 115.594 103.97C115.83 103.611 115.955 103.191 115.954 102.762C115.941 102.172 115.695 101.611 115.269 101.202C114.843 100.794 114.272 100.571 113.682 100.583V100.583ZM86.0789 105.327C85.743 105.326 85.4106 105.258 85.1008 105.128C84.7911 104.998 84.5099 104.809 84.2734 104.57C84.0369 104.332 83.8497 104.049 83.7225 103.738C83.5953 103.427 83.5306 103.094 83.5321 102.758C83.5335 102.422 83.6011 102.09 83.731 101.78C83.8609 101.47 84.0506 101.189 84.2891 100.953C84.5277 100.716 84.8105 100.529 85.1214 100.402C85.4323 100.275 85.7652 100.21 86.1012 100.211C86.7914 100.216 87.4545 100.481 87.9574 100.954L88.08 101.073L87.5194 101.782L87.3746 101.63C87.041 101.294 86.5893 101.102 86.116 101.095C85.8919 101.088 85.6687 101.126 85.4596 101.207C85.2504 101.288 85.0596 101.409 84.8983 101.565C84.7371 101.721 84.6086 101.907 84.5206 102.114C84.4326 102.32 84.3868 102.542 84.386 102.766C84.3947 103.216 84.5818 103.644 84.9062 103.957C85.2306 104.27 85.6657 104.441 86.116 104.433C86.5865 104.428 87.0377 104.245 87.3783 103.92L87.5156 103.787L88.0948 104.436L87.9612 104.559C87.4534 105.044 86.7809 105.318 86.0789 105.327ZM86.1012 100.583C85.5212 100.58 84.9638 100.807 84.5517 101.215C84.1395 101.623 83.9063 102.178 83.9033 102.758C83.9004 103.338 84.1279 103.896 84.5359 104.308C84.9439 104.72 85.4989 104.953 86.0789 104.956C86.6224 104.946 87.1462 104.751 87.5639 104.403L87.4822 104.306C87.0923 104.619 86.6085 104.792 86.1086 104.796C85.567 104.796 85.0477 104.581 84.6647 104.198C84.2818 103.815 84.0667 103.296 84.0667 102.755C84.0667 102.213 84.2818 101.694 84.6647 101.311C85.0477 100.928 85.567 100.713 86.1086 100.713C86.6091 100.716 87.0927 100.894 87.4748 101.218L87.5676 101.102C87.1516 100.769 86.6347 100.585 86.1012 100.583ZM46.4585 105.327C45.957 105.31 45.4718 105.145 45.0632 104.854C44.6546 104.563 44.3406 104.158 44.1604 103.69C43.9801 103.222 43.9416 102.711 44.0495 102.221C44.1575 101.731 44.4071 101.283 44.7674 100.934C45.1277 100.585 45.5827 100.349 46.0759 100.257C46.569 100.164 47.0785 100.219 47.5408 100.414C48.0032 100.609 48.3981 100.935 48.6763 101.353C48.9545 101.77 49.1038 102.26 49.1055 102.762C49.1012 103.105 49.0291 103.443 48.8936 103.757C48.758 104.072 48.5616 104.357 48.3155 104.595C48.0695 104.834 47.7788 105.021 47.4601 105.147C47.1414 105.272 46.801 105.334 46.4585 105.327V105.327ZM46.4585 100.583C46.0299 100.6 45.6159 100.743 45.2681 100.994C44.9202 101.245 44.6539 101.593 44.5022 101.994C44.3505 102.395 44.3202 102.832 44.4149 103.251C44.5097 103.669 44.7254 104.05 45.0352 104.347C45.345 104.644 45.7352 104.843 46.1573 104.919C46.5793 104.996 47.0145 104.946 47.4088 104.778C47.8031 104.609 48.1389 104.327 48.3746 103.969C48.6103 103.611 48.7354 103.191 48.7343 102.762C48.728 102.469 48.6642 102.181 48.5464 101.913C48.4286 101.645 48.2592 101.403 48.0479 101.201C47.8365 100.998 47.5874 100.84 47.3147 100.734C47.0419 100.628 46.751 100.576 46.4585 100.583V100.583ZM36.119 105.327C35.4406 105.325 34.7909 105.053 34.313 104.572C33.835 104.09 33.5679 103.439 33.5703 102.76C33.5728 102.082 33.8446 101.432 34.3261 100.954C34.8075 100.476 35.4592 100.209 36.1376 100.211C36.828 100.215 37.4913 100.481 37.9938 100.954L38.1164 101.073L37.5595 101.782L37.411 101.63C37.0768 101.289 36.6219 101.095 36.145 101.088C35.921 101.081 35.6981 101.12 35.4891 101.201C35.2802 101.281 35.0896 101.403 34.9284 101.559C34.7673 101.715 34.6388 101.901 34.5506 102.107C34.4625 102.313 34.4163 102.534 34.4149 102.758C34.4188 102.982 34.4666 103.202 34.5557 103.407C34.6447 103.612 34.7732 103.797 34.9339 103.952C35.0945 104.107 35.2842 104.229 35.492 104.311C35.6998 104.393 35.9217 104.433 36.145 104.429C36.6155 104.424 37.0666 104.241 37.4073 103.917L37.5483 103.783L38.1238 104.429L37.9938 104.551C37.4891 105.037 36.8194 105.314 36.119 105.327V105.327ZM36.1376 100.583C35.5576 100.58 35.0004 100.808 34.5886 101.217C34.1768 101.625 33.944 102.18 33.9416 102.76C33.9391 103.34 34.1671 103.897 34.5755 104.309C34.9838 104.721 35.5391 104.954 36.119 104.956C36.6624 104.945 37.186 104.75 37.604 104.403L37.5186 104.306C37.1287 104.619 36.6449 104.792 36.145 104.796C35.6034 104.796 35.0841 104.581 34.7011 104.198C34.3182 103.815 34.1031 103.296 34.1031 102.755C34.1031 102.213 34.3182 101.694 34.7011 101.311C35.0841 100.928 35.6034 100.713 36.145 100.713C36.6508 100.715 37.1397 100.895 37.5261 101.221L37.6152 101.106C37.1969 100.768 36.6754 100.583 36.1376 100.583ZM126.936 105.301H126.108L123.561 101.897V105.301H122.651V100.226H123.49L126.033 103.634V100.226H126.936V105.301ZM126.293 104.93H126.564V100.598H126.405V104.756L123.305 100.598H123.023V104.93H123.19V100.779L126.293 104.93ZM104.701 105.301H103.791V100.226H104.701V105.301ZM104.163 104.93H104.33V100.598H104.163V104.93ZM96.1288 105.301H95.2192V101.114H93.6859V100.226H97.6695V101.114H96.1288V105.301ZM95.5905 104.93H95.7575V100.742H97.2982V100.598H94.0572V100.742H95.5905V104.93ZM77.4658 105.301H73.8126V100.226H77.3766V101.114H74.7222V102.291H77.0945V103.178H74.7222V104.429H77.4658V105.301ZM74.1839 104.93H77.0945V104.8H74.3509V102.818H76.7232V102.673H74.3509V100.754H77.0054V100.609H74.1839V104.93ZM67.5941 105.301H64.624V100.226H65.5336V104.429H67.5978L67.5941 105.301ZM64.9953 104.93H67.2228V104.8H65.1586V100.605H64.999L64.9953 104.93ZM58.4055 105.301H55.4354V100.226H56.345V104.429H58.4055V105.301ZM55.8067 104.93H58.0342V104.8H55.9738V100.605H55.8067V104.93ZM113.685 104.811C113.283 104.802 112.893 104.674 112.563 104.444C112.233 104.213 111.978 103.891 111.831 103.517C111.683 103.142 111.649 102.733 111.733 102.339C111.817 101.946 112.015 101.586 112.303 101.304C112.59 101.023 112.955 100.833 113.35 100.757C113.745 100.681 114.154 100.724 114.525 100.88C114.896 101.035 115.213 101.297 115.436 101.632C115.659 101.966 115.778 102.36 115.779 102.762C115.768 103.309 115.541 103.83 115.148 104.211C114.756 104.593 114.229 104.804 113.682 104.8L113.685 104.811ZM113.685 101.099C113.356 101.108 113.037 101.215 112.768 101.405C112.499 101.595 112.292 101.86 112.173 102.167C112.054 102.474 112.028 102.809 112.098 103.131C112.169 103.453 112.333 103.747 112.569 103.976C112.806 104.205 113.105 104.359 113.429 104.419C113.753 104.479 114.087 104.442 114.39 104.313C114.693 104.184 114.951 103.968 115.133 103.693C115.314 103.418 115.409 103.095 115.408 102.766C115.401 102.314 115.216 101.884 114.892 101.57C114.568 101.255 114.133 101.082 113.682 101.088L113.685 101.099ZM46.4585 104.8C46.0562 104.791 45.6657 104.663 45.3358 104.432C45.0059 104.202 44.7512 103.88 44.6037 103.505C44.4561 103.131 44.4222 102.722 44.5062 102.328C44.5902 101.935 44.7884 101.575 45.0759 101.293C45.3634 101.012 45.7276 100.821 46.1228 100.746C46.518 100.67 46.9267 100.713 47.2977 100.869C47.6688 101.024 47.9857 101.286 48.2089 101.621C48.432 101.955 48.5515 102.349 48.5524 102.751C48.5436 103.299 48.3187 103.822 47.9267 104.206C47.5346 104.59 47.007 104.803 46.4585 104.8V104.8ZM46.4585 101.088C46.1292 101.097 45.8101 101.204 45.541 101.394C45.2719 101.583 45.0649 101.849 44.9457 102.156C44.8266 102.463 44.8007 102.798 44.8712 103.12C44.9418 103.442 45.1057 103.735 45.3424 103.965C45.5791 104.194 45.8781 104.348 46.202 104.408C46.5259 104.468 46.8603 104.431 47.1633 104.302C47.4663 104.172 47.7245 103.957 47.9055 103.682C48.0866 103.406 48.1824 103.084 48.1811 102.755C48.1713 102.306 47.985 101.879 47.6624 101.567C47.3399 101.255 46.9073 101.083 46.4585 101.088V101.088ZM97.6472 64.3816H95.1672V60.6987H91.3062V64.3816H88.8262V54.6807H91.3062V58.5788H95.1672V54.6807H97.6472V64.3816ZM95.5385 64.0103H97.276V55.0519H95.5385V58.9501H90.9349V55.0519H89.1974V64.0103H90.9349V60.3275H95.5385V64.0103ZM81.286 64.3816H76.6564V54.6807H81.1375C83.3093 54.6807 84.6607 55.6459 84.6607 57.2015C84.6726 57.6204 84.5647 58.0341 84.3497 58.3938C84.1346 58.7536 83.8213 59.0444 83.4467 59.2323C83.9211 59.4195 84.3252 59.7502 84.6027 60.1781C84.8802 60.606 85.0173 61.1099 84.9948 61.6194C84.9948 63.3198 83.5618 64.3816 81.286 64.3816ZM77.0277 64.0103H81.286C83.3427 64.0103 84.6273 63.0896 84.6273 61.6083C84.6492 61.0857 84.4765 60.5735 84.1425 60.1709C83.8085 59.7683 83.337 59.5039 82.8193 59.429L81.9914 59.2731L82.8044 59.0652C83.2332 58.9779 83.6174 58.7419 83.8891 58.3988C84.1608 58.0558 84.3026 57.6278 84.2894 57.1904C84.2894 55.865 83.0828 55.0408 81.1375 55.0408H77.0277V64.0103ZM73.4785 64.3816H70.8166L70.074 62.5661H65.9902L65.2477 64.3816H62.6489L66.9109 54.6807H69.3278L73.4785 64.3816ZM71.0653 64.0103H72.9216L69.0828 55.0519H67.1523L63.2578 64.0103H65.025L65.7675 62.1949H70.3414L71.0653 64.0103ZM81.0298 62.659H78.7651V60.0602H81.0298C82.1436 60.0602 82.8193 60.5502 82.8193 61.341C82.8193 62.1318 82.151 62.659 81.0298 62.659V62.659ZM79.1364 62.2877H81.0298C81.4567 62.2877 82.448 62.1986 82.448 61.341C82.448 60.773 81.9171 60.4314 81.0298 60.4314H79.1364V62.2877ZM69.803 60.8732H66.3021L68.0581 56.5629L69.803 60.8732ZM66.8553 60.502H69.2499L68.0581 57.5319L66.8553 60.502ZM81.0298 58.8053H78.7651V56.3884H81.0298C81.9357 56.3884 82.5148 56.8451 82.5148 57.5765C82.5148 58.3078 81.9357 58.8053 81.0298 58.8053V58.8053ZM79.1364 58.4341H81.0298C81.7278 58.4341 82.1436 58.1222 82.1436 57.5765C82.1436 56.8339 81.3751 56.7597 81.0298 56.7597H79.1364V58.4341Z"></path>
<path fill="#262523" d="M57.946 77.2913C57.8666 76.4378 57.576 75.6176 57.1002 74.9046C56.6245 74.1916 55.9786 73.6083 55.2209 73.2075C53.2718 72.1457 50.4317 71.9118 48.3082 74.4326C47.7793 75.0618 47.3384 75.76 46.9976 76.508C46.7535 75.9644 46.455 75.4469 46.1066 74.9635C44.6921 73.0107 42.8953 72.1977 40.7642 72.5355C38.4625 72.9068 36.9032 74.2136 36.2535 76.3335C35.7152 78.0858 35.86 79.9012 36.6916 81.88C37.3283 83.2873 38.1758 84.5893 39.205 85.7411C41.3887 88.2595 43.8426 90.5304 46.5224 92.5128C46.6556 92.6231 46.8211 92.687 46.9939 92.6947C47.1657 92.6876 47.3302 92.6236 47.4617 92.5128C49.2807 91.1434 51.0071 89.6551 52.6296 88.0577C54.0766 86.6743 55.3619 85.1312 56.4609 83.4579C57.6783 81.6464 58.2052 79.4583 57.946 77.2913V77.2913ZM55.8187 83.0532C54.7538 84.674 53.5083 86.1686 52.1061 87.5083C50.504 89.0858 48.796 90.5519 46.9939 91.8965C44.3444 89.9507 41.9166 87.7197 39.7544 85.2436C38.7774 84.1496 37.9713 82.9142 37.3635 81.5793C36.621 79.7713 36.4688 78.1266 36.9514 76.5451C37.5158 74.6888 38.83 73.5973 40.8571 73.2743C41.1222 73.2318 41.3904 73.2106 41.659 73.2112C43.144 73.2112 44.4025 73.9314 45.4681 75.4016C45.9063 76.0125 46.2609 76.6792 46.5224 77.3841L46.9753 78.4719L47.4246 77.3804C47.4877 77.2245 47.5434 77.0834 47.6028 76.946C47.9221 76.2108 48.346 75.5255 48.8613 74.9116C50.6916 72.7434 53.1456 72.9476 54.8311 73.8646C55.4836 74.2102 56.0391 74.7137 56.447 75.3291C56.8549 75.9445 57.1022 76.6523 57.1663 77.3878C57.4161 79.3791 56.9317 81.3932 55.8038 83.0532H55.8187Z"></path>
<path fill="#262523" d="M46.9789 92.9684C46.7442 92.9637 46.5179 92.88 46.3367 92.7308C43.6392 90.7367 41.1691 88.4521 38.971 85.9182C37.9261 84.7419 37.0639 83.4153 36.413 81.9829C35.5554 79.9262 35.4106 78.0699 35.9675 76.2396C36.6469 74.0121 38.2879 72.631 40.701 72.2449C42.9508 71.8736 44.8405 72.7461 46.3218 74.788C46.5677 75.1235 46.7897 75.4758 46.9864 75.8424C47.2911 75.2661 47.6557 74.7235 48.0742 74.2237C50.3017 71.5729 53.294 71.8179 55.3396 72.9354C56.1397 73.3557 56.8219 73.9697 57.3238 74.7213C57.8257 75.4729 58.1315 76.3382 58.2131 77.2383V77.2383C58.4803 79.4734 57.9362 81.7301 56.6799 83.5979C55.572 85.2877 54.2754 86.8459 52.8151 88.2423C51.1824 89.8458 49.4462 91.3402 47.6175 92.7159C47.4392 92.8697 47.2142 92.9587 46.9789 92.9684V92.9684ZM41.6551 72.7387C41.3666 72.7386 41.0785 72.7622 40.7938 72.8092C38.6071 73.1582 37.1258 74.4019 36.5095 76.4067C35.9935 78.0959 36.1383 79.8482 36.9365 81.7639C37.565 83.1427 38.3973 84.4193 39.4053 85.5507C41.5785 88.0515 44.0186 90.3073 46.6819 92.2778C46.7209 92.3169 46.7672 92.3479 46.8182 92.369C46.8691 92.3902 46.9238 92.4011 46.9789 92.4011C47.0341 92.4011 47.0888 92.3902 47.1397 92.369C47.1907 92.3479 47.237 92.3169 47.276 92.2778C49.0832 90.9161 50.7996 89.4379 52.4141 87.8525C53.8443 86.4846 55.1147 84.9589 56.2009 83.3046C57.3853 81.5505 57.8992 79.429 57.6488 77.3274C57.5755 76.5171 57.3011 75.7379 56.8506 75.0605C56.4 74.383 55.7875 73.8287 55.0686 73.4478C53.2123 72.4417 50.5244 72.2189 48.5122 74.6061C48.0007 75.2168 47.5736 75.8936 47.2425 76.6183L46.9827 77.1863L46.7265 76.6183C46.4876 76.0961 46.1978 75.5987 45.8615 75.1333C44.7143 73.5369 43.2998 72.7387 41.6551 72.7387ZM46.9678 92.2593L46.797 92.1293C44.1436 90.1674 41.7134 87.9202 39.5501 85.4282C38.5533 84.312 37.731 83.0516 37.111 81.6896C36.3239 79.8334 36.1865 78.107 36.6915 76.4624C37.2892 74.5021 38.6814 73.3327 40.8235 72.9948C41.1032 72.9478 41.3864 72.9242 41.67 72.9243C43.2627 72.9243 44.5843 73.6668 45.7093 75.2335C46.1647 75.8649 46.5343 76.5541 46.8082 77.2828L46.9938 77.7246L47.1831 77.2717C47.2463 77.1083 47.3057 76.971 47.3651 76.8299C47.6958 76.0711 48.1333 75.3635 48.6644 74.7286C50.6098 72.4268 53.2049 72.6421 54.9758 73.6148C55.6677 73.9813 56.2571 74.5149 56.6902 75.1672C57.1233 75.8195 57.3865 76.5697 57.4558 77.3497C57.7121 79.4088 57.2078 81.4907 56.0376 83.2044V83.2044C54.9613 84.8486 53.7008 86.3644 52.2805 87.7225C50.669 89.3082 48.9511 90.7818 47.1386 92.1331L46.9678 92.2593ZM41.67 73.4923C41.4212 73.4943 41.173 73.5154 40.9275 73.5554C39.0192 73.8598 37.7792 74.8919 37.2483 76.6294C36.788 78.1404 36.9179 79.7257 37.6493 81.4557C38.2487 82.7632 39.0409 83.9733 39.9993 85.0458C42.087 87.4515 44.4284 89.6248 46.9827 91.5279C48.7132 90.2306 50.3542 88.8178 51.8944 87.2993C53.2798 85.9752 54.5103 84.498 55.5624 82.8962V82.8962C56.6587 81.2941 57.1326 79.3469 56.8952 77.4202C56.8352 76.7298 56.6034 76.0654 56.2208 75.4876C55.8382 74.9098 55.317 74.437 54.7048 74.1123C53.1195 73.2436 50.8103 73.0542 49.0914 75.0998C48.5932 75.6925 48.1831 76.354 47.8737 77.0638C47.8143 77.1974 47.7623 77.3311 47.7029 77.4796L46.9864 79.2171L46.2699 77.4982C46.0158 76.8138 45.6725 76.1659 45.2489 75.5713C44.2354 74.1717 43.0659 73.4923 41.67 73.4923Z"></path>
<path fill="#262523" d="M36.1597 72.1745C35.8367 72.156 34.7118 72.1448 32.7924 72.1448H30.9361C30.5909 72.1448 30.4201 72.2228 30.4201 72.375C30.4201 72.5272 30.5352 72.5569 30.7654 72.5755L31.9905 72.6312C32.3285 72.6111 32.6653 72.6856 32.9632 72.8465C33.1154 72.9727 33.1897 73.2623 33.1897 73.719V85.0497L23.1695 72.13C22.2933 72.1894 21.1498 72.2154 19.7428 72.2154C19.056 72.2154 18.5436 72.2154 18.2021 72.1894C17.4967 72.1486 17.0883 72.13 16.9732 72.13C16.7059 72.13 16.5723 72.2228 16.5723 72.401C16.5723 72.5792 16.7245 72.6535 17.0289 72.672C18.1724 72.7129 18.952 72.8725 19.3715 73.1584C19.6596 73.3722 19.898 73.6458 20.0704 73.9605C20.2428 74.2751 20.3451 74.6233 20.3702 74.9812C20.4073 75.23 20.4296 75.9502 20.4296 77.1494V88.8662C20.4296 90.0802 20.3813 90.767 20.2848 90.9192C20.1326 91.1457 19.572 91.2905 18.5993 91.3759C17.764 91.4316 17.3445 91.5281 17.3445 91.658C17.3445 91.788 17.4856 91.8845 17.764 91.8882L18.4582 91.8585C19.5374 91.8239 20.4123 91.8065 21.083 91.8065C21.3689 91.8065 22.0854 91.8251 23.2252 91.8622C23.3677 91.8835 23.5117 91.8934 23.6558 91.8919C23.9417 91.8919 24.0828 91.8177 24.0828 91.6618C24.0871 91.6222 24.0765 91.5825 24.0531 91.5504C23.9751 91.4538 23.6224 91.4056 22.9876 91.4056C22.5063 91.4156 22.0272 91.3389 21.5731 91.1791C21.3243 91.0826 21.2018 90.8339 21.2018 90.4366V76.5851C24.2684 80.6392 27.0813 84.2416 29.6405 87.3923C32.1997 90.543 33.5844 92.1172 33.7948 92.1147C33.9248 92.1147 33.9953 91.955 33.9953 91.6321V74.829C33.973 73.7152 33.9953 73.1175 34.077 73.0024C34.1512 72.8131 34.4482 72.7091 34.942 72.6869C35.7996 72.6497 36.3008 72.62 36.427 72.6015C36.5532 72.5829 36.6386 72.5272 36.6386 72.4307C36.6461 72.2785 36.4827 72.1931 36.1597 72.1745ZM75.5128 89.7906C74.9411 89.7906 74.6552 90.0468 74.6552 90.5628C74.6524 90.6788 74.6818 90.7933 74.7401 90.8936C74.7985 90.9938 74.8834 91.076 74.9856 91.1309C75.2047 91.2645 75.3123 91.3685 75.3123 91.4464C75.3123 91.5986 75.1713 91.6729 74.8854 91.6729C74.6801 91.6523 74.4825 91.5834 74.3089 91.4717C74.1353 91.3601 73.9906 91.2089 73.8867 91.0306C73.56 90.6049 73.3212 89.5345 73.1702 87.8193C72.9821 85.6684 72.4215 84.1129 71.4884 83.1526C70.5553 82.1923 69.0505 81.6453 66.9739 81.5116L67.0036 81.3408C68.2761 81.2359 69.5266 80.947 70.7162 80.4832C72.6195 79.6071 73.5712 78.2557 73.5712 76.4291C73.5754 75.6431 73.3354 74.8751 72.8843 74.2313C72.4344 73.5677 71.7992 73.0513 71.0578 72.7463C70.0826 72.3354 68.261 72.13 65.5929 72.13H59.857C59.3987 72.1199 58.9402 72.1335 58.4833 72.1708C58.3125 72.2005 58.2272 72.2822 58.2272 72.4159C58.2272 72.5866 58.4388 72.672 58.8546 72.672C59.2896 72.6499 59.725 72.7078 60.1391 72.8428C60.2306 72.8759 60.3125 72.9312 60.3773 73.0038C60.4421 73.0764 60.4878 73.1639 60.5104 73.2586C60.5688 73.8445 60.5887 74.4336 60.5698 75.0221V89.7683C60.5937 90.1713 60.565 90.5757 60.4844 90.9712C60.3693 91.2385 59.9869 91.3907 59.3409 91.4279C58.5613 91.465 58.1715 91.5578 58.1715 91.71C58.1715 91.8622 58.3051 91.9142 58.5724 91.9142H67.193C67.4232 91.9142 67.5345 91.84 67.5345 91.684C67.5345 91.5281 67.3081 91.4279 66.8514 91.4279C66.3393 91.4617 65.8255 91.3987 65.3367 91.2422C65.2084 91.1857 65.1009 91.0906 65.0291 90.9702C64.9572 90.8498 64.9246 90.71 64.9358 90.5703C64.916 90.4564 64.9073 89.6446 64.9098 88.1348V81.623C66.031 81.6057 66.844 81.8928 67.3489 82.4843C67.8538 83.0758 68.2016 84.1154 68.3921 85.6029L68.678 87.9529C68.8276 88.9984 69.3199 89.9646 70.0776 90.7002C71.1246 91.8065 72.523 92.3597 74.2728 92.3597C75.6613 92.3597 76.3593 91.8288 76.3593 90.7596C76.3593 90.1136 76.0734 89.7906 75.5017 89.7906H75.5128ZM64.9098 76.3994C64.9098 74.5902 64.9568 73.5531 65.0508 73.2883C65.2031 72.8688 65.5929 72.6609 66.224 72.6609C68.162 72.6609 69.1322 73.8885 69.1347 76.3437C69.1347 78.0367 68.8018 79.2643 68.136 80.0266C67.4677 80.7691 66.3948 81.1404 64.9098 81.1404V76.3994ZM125.142 72.4307C125.142 72.2785 124.979 72.1931 124.656 72.1745C124.333 72.156 123.208 72.1448 121.285 72.1448H119.429C119.083 72.1448 118.913 72.2228 118.913 72.375C118.913 72.5272 119.028 72.5569 119.254 72.5755L120.483 72.6312C120.821 72.6111 121.158 72.6856 121.456 72.8465C121.608 72.9727 121.682 73.2623 121.682 73.719V85.0497L111.666 72.13C110.79 72.1894 109.646 72.2154 108.239 72.2154C107.552 72.2154 107.04 72.2154 106.698 72.1894C105.993 72.1486 105.585 72.13 105.469 72.13C105.202 72.13 105.068 72.2228 105.068 72.401C105.068 72.5792 105.221 72.6535 105.525 72.672C106.669 72.7129 107.448 72.8725 107.868 73.1584C108.156 73.3722 108.394 73.6458 108.567 73.9605C108.739 74.2751 108.841 74.6233 108.866 74.9812C108.904 75.23 108.926 75.9502 108.926 77.1494V88.8662C108.926 90.0802 108.878 90.767 108.781 90.9192C108.629 91.1457 108.068 91.2905 107.096 91.3759C106.26 91.4316 105.841 91.5281 105.841 91.658C105.841 91.788 105.982 91.8845 106.257 91.8882L106.954 91.8585C108.039 91.8214 108.913 91.8028 109.579 91.8028C109.865 91.8028 110.582 91.8214 111.721 91.8585C111.864 91.8798 112.008 91.8897 112.152 91.8882C112.434 91.8882 112.579 91.814 112.579 91.658C112.583 91.6185 112.573 91.5788 112.549 91.5467C112.471 91.4501 112.119 91.4019 111.484 91.4019C111.003 91.4119 110.523 91.3352 110.069 91.1754C109.821 91.0789 109.698 90.8301 109.698 90.4329V76.5851C112.765 80.6392 115.578 84.2416 118.137 87.3923C120.696 90.543 122.081 92.1172 122.291 92.1147C122.421 92.1147 122.488 91.955 122.488 91.6321V74.829C122.488 73.7152 122.488 73.1175 122.573 73.0024C122.647 72.8131 122.944 72.7091 123.438 72.6869C124.296 72.6497 124.793 72.62 124.923 72.6015C125.053 72.5829 125.142 72.5272 125.142 72.4307ZM143.089 91.3313C142.157 91.3499 141.567 91.2831 141.322 91.1309C140.995 90.9403 140.671 90.4081 140.349 89.5345C139.978 88.5061 139.606 87.4963 139.205 86.5087C136.235 78.7594 134.561 74.3241 134.182 73.2029C133.878 72.3268 133.666 71.8887 133.555 71.8887C133.444 71.8887 133.277 72.2117 133.069 72.8614C132.764 73.7561 132.527 74.4095 132.356 74.829L128.899 84.3369C128.216 86.2055 127.693 87.6138 127.329 88.5618C126.854 89.9131 126.512 90.7151 126.301 90.9601C126.089 91.2051 125.606 91.3499 124.845 91.3907C124.255 91.4279 123.962 91.5021 123.962 91.6172C123.962 91.8065 124.095 91.9031 124.359 91.9031H129.441C129.787 91.9031 129.957 91.8214 129.957 91.6618C129.957 91.5021 129.824 91.4353 129.557 91.4167C128.717 91.361 128.253 91.3239 128.157 91.3053C127.737 91.2088 127.529 91.0009 127.529 90.6742C127.542 90.4408 127.59 90.2106 127.671 89.9911L128.302 88.1348C128.777 86.8008 129.1 85.9444 129.271 85.5657C130.164 85.5286 131.012 85.5187 131.814 85.536H134.554C134.925 86.6498 135.181 87.4294 135.296 87.849L135.894 89.7052C136.039 90.0958 136.154 90.4966 136.239 90.9044C136.239 91.0937 136.087 91.2088 135.782 91.2459C135.585 91.2912 135.383 91.3112 135.181 91.3053C134.097 91.3227 133.555 91.4266 133.555 91.6172C133.555 91.8065 133.811 91.9031 134.323 91.9031C134.669 91.9031 135.315 91.9031 136.265 91.8474C136.74 91.8288 137.293 91.8177 137.921 91.8177C138.456 91.8177 139.424 91.8362 140.835 91.8734L142.12 91.9031C142.492 91.9152 142.864 91.9003 143.234 91.8585C143.298 91.8511 143.357 91.8183 143.397 91.7675C143.438 91.7167 143.456 91.652 143.449 91.5875C143.439 91.4167 143.319 91.3313 143.089 91.3313V91.3313ZM129.471 84.9086C129.719 84.2626 130.117 83.1303 130.667 81.5116C131.162 80.0687 131.579 78.9363 131.918 78.1146L132.107 78.6233C132.27 79.1022 132.4 79.466 132.478 79.7147C132.825 80.6082 133.38 82.1588 134.145 84.3666C134.257 84.671 134.323 84.8492 134.342 84.9086H129.471ZM92.6574 72.13H87.4895C87.2222 72.13 87.0886 72.2154 87.0886 72.3824C87.0886 72.5495 87.2779 72.6646 87.6603 72.6646C88.4214 72.6869 88.8595 72.7054 88.9746 72.724C89.2604 72.7797 89.4015 72.9765 89.4015 73.318C89.4015 73.8873 88.9622 75.4639 88.0835 78.0478C87.4574 79.8571 87.0576 81.0179 86.8844 81.5302C86.2161 83.4533 85.7595 84.7193 85.5145 85.3281C84.4056 82.566 83.1236 79.0131 81.6682 74.6694C81.3415 73.7004 81.1782 73.1844 81.1782 73.1584C81.1782 72.8317 81.7202 72.6609 82.8043 72.6423C83.4726 72.625 83.8067 72.5396 83.8067 72.3862C83.8067 72.2154 83.6248 72.13 83.2646 72.13H74.9819C74.2988 72.13 73.9535 72.208 73.9535 72.3713C73.9535 72.5347 74.0686 72.6126 74.2988 72.6126H75.2418C75.5965 72.5915 75.947 72.6983 76.2297 72.9135C76.5124 73.1288 76.7085 73.4383 76.7825 73.7858C77.2577 75.2485 77.7329 76.5801 78.2081 77.7805C79.0843 79.9907 79.7315 81.6564 80.1498 82.7776C81.1225 85.3269 81.8935 87.3738 82.4627 88.9182C82.834 89.9057 83.157 90.793 83.4057 91.5727C83.5208 91.9142 83.6619 92.085 83.8327 92.085C84.0034 92.085 84.2039 91.6098 84.4898 90.6594C84.918 89.3921 85.3226 88.1979 85.7038 87.0767C87.3324 82.2925 88.555 78.7656 89.3718 76.496C89.6762 75.6495 89.9052 75.0208 90.0586 74.61C90.3631 73.7264 90.644 73.1905 90.9014 73.0024C91.1588 72.8143 91.7912 72.7017 92.7985 72.6646C92.9878 72.6646 93.0844 72.5718 93.0844 72.4381C93.0844 72.2191 92.9433 72.13 92.6574 72.13ZM102.989 91.4353C101.943 91.3796 101.326 91.2756 101.133 91.1234C100.94 90.9712 100.862 90.4849 100.862 89.6681V73.5445L100.948 73.0024C101.081 72.7945 101.441 72.6683 102.032 72.6312C102.324 72.6308 102.615 72.6085 102.904 72.5644C102.946 72.5508 102.982 72.5228 103.005 72.4854C103.028 72.448 103.037 72.4036 103.03 72.3602C103.03 72.2191 102.908 72.1448 102.659 72.1448H95.1671C94.9192 72.1364 94.671 72.1463 94.4246 72.1745C94.3466 72.1745 94.3095 72.2711 94.3095 72.401C94.3095 72.5309 94.5768 72.6015 95.1077 72.6015C96.0618 72.6015 96.537 72.8391 96.537 73.318C96.537 73.2957 96.537 73.4591 96.5667 73.8006V88.5915C96.5667 89.8884 96.5185 90.6544 96.4219 90.8895C96.3254 91.1271 95.9839 91.3053 95.3936 91.4167C94.7661 91.4353 94.3986 91.4576 94.2798 91.4761C94.2583 91.4771 94.2373 91.4823 94.2178 91.4914C94.1984 91.5005 94.1809 91.5133 94.1664 91.5292C94.1519 91.545 94.1407 91.5636 94.1334 91.5838C94.1261 91.604 94.1229 91.6254 94.1239 91.6469C94.1239 91.8177 94.265 91.9031 94.5508 91.9031C94.8367 91.9031 95.2265 91.9031 95.7797 91.8734C97.4355 91.8164 98.6916 91.788 99.5479 91.788C100.365 91.788 101.345 91.8164 102.488 91.8734C102.611 91.8932 102.735 91.9032 102.86 91.9031C103.108 91.9031 103.231 91.8214 103.231 91.6618C103.231 91.5021 103.16 91.4353 102.989 91.4353Z"></path>
<path fill="#262523" d="M74.2792 92.5491C72.4823 92.5491 71.027 91.97 69.9466 90.8302C69.1631 90.0638 68.6542 89.0603 68.4987 87.9753L68.2128 85.6289C68.0309 84.1848 67.6931 83.1675 67.2142 82.6069C66.7352 82.0463 66.067 81.8273 65.1017 81.8124V88.1238C65.1017 90.0729 65.1017 90.4664 65.1277 90.5295C65.1129 90.6383 65.1334 90.7489 65.1862 90.8452C65.239 90.9414 65.3213 91.0182 65.421 91.0641C65.8848 91.2113 66.3726 91.268 66.8578 91.2312C67.0731 91.2312 67.7265 91.2312 67.7265 91.673C67.7265 91.7732 67.6894 92.0888 67.1993 92.0888H58.5713C58.059 92.0888 57.9847 91.8438 57.9847 91.7175C57.9847 91.4205 58.356 91.2943 59.3324 91.2497C59.8819 91.22 60.2308 91.0975 60.3125 90.9045C60.3864 90.5381 60.4101 90.1635 60.3831 89.7907V75.011C60.4016 74.4363 60.3843 73.861 60.3311 73.2884C60.3131 73.2226 60.2794 73.1622 60.2328 73.1124C60.1862 73.0626 60.1282 73.0249 60.0638 73.0025C59.6733 72.8767 59.2631 72.8238 58.8535 72.8466C58.3152 72.8466 58.0404 72.6981 58.0404 72.4048C58.0404 72.2941 58.0833 72.1877 58.1602 72.108C58.2371 72.0284 58.3419 71.9817 58.4525 71.9779C58.9191 71.9366 59.3876 71.9217 59.8559 71.9333H65.5918C68.3094 71.9333 70.1174 72.1412 71.1198 72.5756C71.8923 72.8961 72.5552 73.4339 73.028 74.1237C73.4978 74.8005 73.748 75.6054 73.7445 76.4292C73.7445 78.3263 72.7459 79.7482 70.7745 80.6504C69.8379 81.0267 68.8553 81.2764 67.8527 81.3929C69.5197 81.6157 70.7782 82.1577 71.5987 83.0042C72.5602 83.9917 73.1431 85.6029 73.3362 87.7859C73.5218 89.865 73.8077 90.6297 74.0119 90.9008C74.1008 91.0548 74.2242 91.1863 74.3723 91.2848C74.5204 91.3833 74.6893 91.4463 74.8657 91.4688C74.9452 91.4756 75.0252 91.4642 75.0996 91.4354C75.0279 91.3743 74.9508 91.3196 74.8695 91.272C74.7379 91.1989 74.6291 91.0909 74.5551 90.9599C74.4811 90.8288 74.4447 90.6799 74.4499 90.5295C74.4499 89.9095 74.8212 89.5717 75.4932 89.5717C76.1651 89.5717 76.5364 89.9838 76.5364 90.7263C76.5438 91.5765 76.1354 92.5491 74.2792 92.5491ZM64.9978 81.4375C66.1115 81.4375 66.9543 81.7493 67.4777 82.3619C68.0012 82.9745 68.3688 84.04 68.5655 85.5807L68.8514 87.9307C68.9968 88.9353 69.4707 89.8634 70.1991 90.5703C71.2052 91.6359 72.5714 92.1742 74.2606 92.1742C75.9498 92.1742 76.1614 91.3685 76.1614 90.7597C76.1614 90.0654 75.7902 89.9763 75.4895 89.9763C75.018 89.9763 74.8175 90.1508 74.8175 90.5629C74.8153 90.6473 74.8368 90.7305 74.8794 90.8034C74.922 90.8762 74.9842 90.9356 75.0588 90.975C75.3558 91.1532 75.4746 91.2906 75.4746 91.4465C75.4746 91.6024 75.3966 91.8586 74.862 91.8586C74.6277 91.8385 74.4016 91.7631 74.2021 91.6385C74.0027 91.514 73.8357 91.3438 73.7149 91.1421C73.3659 90.6854 73.1208 89.6014 72.9723 87.8379C72.783 85.7403 72.2298 84.207 71.3388 83.2826C70.4478 82.3582 68.9665 81.8273 66.9469 81.6973H66.7427L66.8281 81.185H66.9654C68.219 81.0845 69.4511 80.8005 70.6223 80.3423C72.4786 79.4921 73.3696 78.2224 73.3696 76.4589C73.3729 75.7103 73.1446 74.9789 72.7162 74.365C72.2844 73.7331 71.6781 73.2404 70.9713 72.9468C70.0246 72.5385 68.2165 72.3343 65.5881 72.3343H59.8559C59.4087 72.3213 58.9612 72.3349 58.5156 72.3751C58.4117 72.3751 58.4117 72.4159 58.4117 72.4345C58.4117 72.4531 58.4822 72.505 58.8535 72.505C59.314 72.482 59.7748 72.545 60.2123 72.6907C60.3315 72.7352 60.4378 72.8087 60.5214 72.9047C60.605 73.0006 60.6634 73.1159 60.6912 73.2401C60.7587 73.8378 60.7798 74.4398 60.7543 75.0407V89.787C60.7906 90.2141 60.7567 90.6443 60.6541 91.0604C60.5093 91.402 60.0823 91.5913 59.351 91.6321C59.0459 91.6331 58.7419 91.6693 58.4451 91.7398H58.5713H67.1919C67.3181 91.7398 67.3478 91.7138 67.3478 91.7101C67.3478 91.7064 67.281 91.6247 66.8503 91.6247C66.3112 91.6604 65.7703 91.5911 65.2576 91.4205C65.0975 91.3491 64.9631 91.2304 64.8722 91.0805C64.7813 90.9306 64.7383 90.7565 64.749 90.5815C64.749 90.5258 64.723 90.1694 64.723 88.146V81.4634H64.9978V81.4375ZM122.275 92.3152C122.104 92.3152 121.87 92.3153 117.976 87.5223C115.518 84.5003 112.778 81.0142 109.868 77.1532V90.4478C109.868 90.9193 110.061 90.9899 110.124 91.0159C110.556 91.1687 111.013 91.2416 111.472 91.2312C112.429 91.2312 112.585 91.3426 112.682 91.4428C112.735 91.5072 112.76 91.5899 112.752 91.673C112.752 91.8289 112.671 92.0888 112.14 92.0888C111.986 92.0902 111.832 92.0802 111.679 92.0591C110.566 92.022 109.853 92.0034 109.567 92.0034C108.91 92.0034 108.03 92.022 106.95 92.0591L106.267 92.0851C105.721 92.0851 105.643 91.8289 105.643 91.673C105.643 91.3945 106.014 91.2757 107.072 91.2052C108.338 91.105 108.557 90.8933 108.617 90.8339C108.676 90.7745 108.728 90.5072 108.728 88.8849V77.1643C108.728 75.9837 108.709 75.2635 108.672 75.0259C108.649 74.6931 108.555 74.3692 108.396 74.0759C108.237 73.7826 108.018 73.5267 107.752 73.3255C107.362 73.0619 106.608 72.9097 105.524 72.8726C104.967 72.8392 104.885 72.5719 104.885 72.4159C104.885 72.26 104.945 71.9593 105.472 71.9593C105.591 71.9593 105.981 71.9593 106.708 72.0187C107.046 72.0187 107.547 72.0447 108.242 72.0447C109.638 72.0447 110.788 72.0187 111.657 71.9593H111.754L111.813 72.0373L121.503 84.5115V73.7191C121.503 73.1807 121.392 73.0322 121.343 72.9765C121.079 72.8368 120.78 72.7762 120.482 72.802L119.253 72.7464C118.8 72.7092 118.733 72.4865 118.733 72.3751C118.733 72.1858 118.856 71.9593 119.435 71.9593H121.291C123.203 71.9593 124.339 71.9593 124.673 71.989C125.219 72.0224 125.334 72.2489 125.334 72.4308C125.334 72.5013 125.305 72.7389 124.963 72.802C124.814 72.802 124.321 72.8503 123.452 72.8874C122.847 72.9134 122.761 73.0545 122.75 73.0842L122.732 73.1176C122.732 73.1547 122.654 73.4109 122.68 74.8402V91.6618C122.672 92.0925 122.542 92.3152 122.286 92.3152H122.275ZM109.508 76.0468L109.842 76.4886C112.89 80.5205 115.73 84.1551 118.273 87.2884C121.184 90.8711 122.037 91.7435 122.275 91.9217C122.294 91.8314 122.303 91.7393 122.301 91.647V74.8291C122.271 73.3441 122.334 73.0359 122.401 72.9171C122.55 72.5756 123.058 72.5162 123.426 72.5013C124.48 72.4568 124.811 72.4308 124.911 72.4197H124.937C124.846 72.3836 124.749 72.3648 124.651 72.364C124.428 72.364 123.664 72.3343 121.291 72.3343H119.435C119.335 72.3282 119.234 72.3408 119.138 72.3714C119.183 72.3834 119.229 72.3908 119.275 72.3937L120.497 72.4494C120.874 72.426 121.25 72.5151 121.577 72.7055C121.778 72.8689 121.874 73.203 121.874 73.7228V85.6029L111.583 72.3491C110.718 72.4011 109.593 72.4271 108.242 72.4271C107.54 72.4271 107.035 72.4271 106.69 72.4011C105.981 72.3603 105.576 72.3417 105.472 72.3417C105.257 72.3417 105.257 72.4011 105.257 72.4271C105.257 72.4531 105.335 72.5013 105.543 72.5125C106.723 72.5533 107.521 72.7241 107.974 73.0285C108.284 73.2587 108.54 73.5524 108.726 73.8899C108.913 74.2273 109.025 74.6007 109.055 74.985C109.092 75.2412 109.114 75.9577 109.114 77.1754V88.8923C109.114 90.5444 109.025 90.9082 108.94 91.0418C108.747 91.3351 108.197 91.5022 107.113 91.5839C106.777 91.5951 106.442 91.6399 106.114 91.7175C106.164 91.7204 106.213 91.7204 106.263 91.7175L106.95 91.6878C108.034 91.6507 108.921 91.6321 109.582 91.6321C109.871 91.6321 110.573 91.6507 111.731 91.6878C111.871 91.7101 112.013 91.7201 112.155 91.7175C112.236 91.7264 112.318 91.7123 112.392 91.6767C112.096 91.6069 111.79 91.5818 111.486 91.6024C110.981 91.6139 110.477 91.5321 110.001 91.3611C109.779 91.2757 109.508 91.0493 109.508 90.4478V76.0468ZM33.79 92.3152C33.6192 92.3152 33.3853 92.3153 29.4909 87.5223C27.0369 84.504 24.2933 81.0142 21.3826 77.1532V90.4478C21.3826 90.9193 21.5757 90.9899 21.6388 91.0159C22.0713 91.1687 22.5279 91.2416 22.9865 91.2312C23.9443 91.2312 24.1002 91.3426 24.1968 91.4428C24.2498 91.5072 24.2751 91.5899 24.2673 91.673C24.2673 91.8289 24.1893 92.0888 23.6547 92.0888C23.5008 92.0902 23.3469 92.0802 23.1944 92.0591C22.0806 92.022 21.3678 92.0034 21.0856 92.0034C20.4248 92.0034 19.5449 92.022 18.4646 92.0591L17.7815 92.0851C17.2357 92.0851 17.1578 91.8289 17.1578 91.673C17.1578 91.3945 17.529 91.2757 18.5871 91.2052C19.8531 91.105 20.0721 90.8933 20.1315 90.8339C20.1909 90.7745 20.2429 90.5072 20.2429 88.8849V77.1643C20.2623 76.451 20.2437 75.7372 20.1872 75.0259C20.1641 74.6931 20.0699 74.3692 19.9111 74.0759C19.7523 73.7826 19.5325 73.5267 19.2665 73.3255C18.8952 73.0619 18.123 72.9097 17.039 72.8726C16.4858 72.8392 16.4004 72.5719 16.4004 72.4159C16.4004 72.26 16.4598 71.9593 16.987 71.9593C17.1058 71.9593 17.4993 71.9593 18.2233 72.0187C18.5611 72.0187 19.0623 72.0447 19.7565 72.0447C21.1525 72.0447 22.3034 72.0187 23.1721 71.9593H23.2686L33.0178 84.5115V73.7191C33.0178 73.1807 32.9064 73.0322 32.8582 72.9765C32.593 72.8389 32.2946 72.7785 31.9968 72.802L30.768 72.7464C30.3151 72.7092 30.2482 72.4865 30.2482 72.3751C30.2482 72.1858 30.3707 71.9593 30.9499 71.9593H32.8062C34.7144 71.9593 35.8505 71.9593 36.1846 71.989C36.7304 72.0224 36.8454 72.2489 36.8454 72.4308C36.8454 72.5013 36.8195 72.7389 36.4742 72.802C36.3257 72.802 35.8319 72.8503 34.9632 72.8874C34.358 72.9134 34.2726 73.0545 34.2615 73.0842V73.1176C34.2615 73.1547 34.1835 73.4109 34.2095 74.8402V91.6618C34.1835 92.0925 34.0462 92.3152 33.79 92.3152ZM21.0114 76.0468L21.3455 76.4886C24.3972 80.5242 27.2336 84.1588 29.7804 87.2884C32.6874 90.8711 33.5413 91.7435 33.7789 91.9217C33.7978 91.8314 33.8065 91.7393 33.8049 91.647V74.8291C33.7789 73.3441 33.842 73.0359 33.9051 72.9171C34.0536 72.5756 34.5548 72.5013 34.9261 72.5013C35.9767 72.4568 36.3071 72.4308 36.4111 72.4197H36.4519C36.3532 72.389 36.2508 72.3715 36.1475 72.3677C35.9247 72.3677 35.1562 72.338 32.8062 72.338H30.9499C30.8495 72.332 30.7488 72.3445 30.6529 72.3751C30.699 72.3874 30.7463 72.3948 30.794 72.3974L32.0154 72.4531C32.3917 72.4302 32.7664 72.5194 33.092 72.7092C33.2962 72.8763 33.3891 73.1993 33.3891 73.7265V85.6067L23.083 72.338C22.218 72.39 21.0931 72.4159 19.7417 72.4159C19.04 72.4159 18.5351 72.4159 18.1898 72.39C17.4882 72.3491 17.0761 72.3306 16.9721 72.3306C16.7568 72.3306 16.7568 72.39 16.7568 72.4159C16.7568 72.4419 16.8348 72.4902 17.0427 72.5013C18.2233 72.5422 19.0215 72.7129 19.4744 73.0174C19.7836 73.2476 20.0399 73.5413 20.2263 73.8787C20.4126 74.2162 20.5246 74.5896 20.5547 74.9739C20.5919 75.2301 20.6141 75.9466 20.6141 77.1643V88.8811C20.6141 90.5332 20.525 90.8971 20.4434 91.0307C20.2466 91.324 19.6823 91.4911 18.6131 91.5727C18.2766 91.584 17.942 91.6288 17.6144 91.7064C17.6639 91.7092 17.7134 91.7092 17.7629 91.7064L18.4497 91.6767C19.5375 91.6396 20.4211 91.621 21.0856 91.621C21.3715 91.621 22.0732 91.6396 23.2315 91.6767C23.3714 91.699 23.5131 91.7089 23.6547 91.7064C23.7374 91.7143 23.8206 91.7002 23.896 91.6656C23.5981 91.5963 23.2917 91.5713 22.9865 91.5913C22.4808 91.6028 21.9774 91.521 21.5014 91.35C21.2787 91.2646 21.0077 91.0381 21.0077 90.4367L21.0114 76.0468ZM83.8316 92.2596C83.5717 92.2596 83.3712 92.0442 83.2264 91.6173C82.9851 90.8488 82.6695 89.9578 82.2909 88.9739C81.7266 87.4518 80.9469 85.3839 79.9779 82.8334C79.5584 81.7196 78.9236 80.0787 78.0363 77.84C77.5573 76.6371 77.0784 75.2895 76.6032 73.8304C76.5432 73.5206 76.3719 73.2434 76.1216 73.0512C75.8713 72.859 75.5592 72.7651 75.2444 72.7872H74.2977C73.8077 72.7872 73.7668 72.4605 73.7668 72.3603C73.7668 71.989 74.3534 71.9333 74.9808 71.9333H83.2635C83.865 71.9333 84.0061 72.1709 84.0061 72.3751C84.0061 72.7464 83.438 72.7983 82.8255 72.8169C81.682 72.8392 81.3776 73.0322 81.3776 73.1473C81.3776 73.1473 81.4444 73.3701 81.8565 74.5989C83.2264 78.6827 84.4553 82.1243 85.5245 84.8122C85.7881 84.1142 86.189 82.9893 86.7199 81.4709C86.8907 80.9585 87.2917 79.7977 87.9228 77.9885C88.7878 75.4343 89.2296 73.8638 89.2296 73.3218C89.2296 73.0062 89.0886 72.9506 88.9512 72.9097C88.8844 72.9097 88.6022 72.88 87.6704 72.854C87.0466 72.854 86.9278 72.6016 86.9278 72.3862C86.9278 72.2563 86.9835 71.9482 87.5144 71.9482H92.6563C93.2095 71.9482 93.2689 72.2934 93.2689 72.4419C93.2689 72.5904 93.2243 72.8132 92.816 72.854C91.6019 72.8986 91.1639 73.0434 91.0079 73.1547C90.852 73.2661 90.5921 73.6151 90.2432 74.6583C90.0922 75.0741 89.8632 75.704 89.5563 76.548C88.7433 78.8015 87.5107 82.3619 85.892 87.1251C85.5084 88.2488 85.1037 89.443 84.678 90.7077C84.2065 92.1445 84.0246 92.2596 83.8316 92.2596V92.2596ZM75.2927 72.4159C76.128 72.4159 76.6849 72.854 76.9559 73.7191C77.4237 75.1669 77.9026 76.5072 78.3778 77.7026C79.2651 79.9302 79.9 81.5785 80.3195 82.7034C81.2922 85.254 82.0681 87.3219 82.6324 88.8403C83.0037 89.8315 83.3304 90.7263 83.5791 91.5059C83.6534 91.7361 83.735 91.8475 83.7944 91.8772C84.0256 91.4739 84.1993 91.0403 84.3105 90.5889C84.7362 89.3242 85.1409 88.13 85.5245 87.0063C87.1469 82.2394 88.3795 78.679 89.1925 76.4218C89.4969 75.5753 89.7271 74.9368 89.8793 74.5321C90.1986 73.6077 90.4956 73.0471 90.7852 72.8429C91.0748 72.6387 91.717 72.5088 92.7863 72.4716C92.8246 72.471 92.862 72.4594 92.8939 72.4382C92.8939 72.3825 92.8939 72.3083 92.6526 72.3083H87.4884C87.3882 72.3083 87.2731 72.3083 87.2731 72.3751C87.2731 72.4419 87.4327 72.4716 87.6444 72.4716C88.6839 72.5013 88.9066 72.5199 88.9883 72.531C89.167 72.5612 89.3273 72.659 89.4358 72.8042C89.5443 72.9494 89.5928 73.1307 89.5712 73.3107C89.5712 73.901 89.1368 75.4677 88.2421 78.0999C87.6159 79.9091 87.2162 81.0699 87.0429 81.5822C86.3784 83.4979 85.9292 84.7788 85.6693 85.3876L85.4948 85.8146L85.324 85.3876C84.2102 82.6329 82.922 79.0466 81.4741 74.7214C81.2724 74.21 81.1062 73.6853 80.9766 73.151C80.9766 72.557 81.9456 72.4642 82.7883 72.4494C83.0529 72.4579 83.3171 72.4253 83.5717 72.3528C83.4681 72.3166 83.3583 72.3015 83.2487 72.3083H74.9808C74.702 72.2863 74.4214 72.3152 74.1529 72.3937C74.1529 72.3937 74.2049 72.4197 74.2977 72.4197H75.2964L75.2927 72.4159ZM142.119 92.0925L140.827 92.0628C139.423 92.0257 138.447 92.0071 137.92 92.0071C137.304 92.0071 136.75 92.0071 136.271 92.0368C135.302 92.0739 134.664 92.0925 134.322 92.0925C134.088 92.0925 133.368 92.0925 133.368 91.621C133.368 91.3314 133.669 91.1495 135.176 91.1235C135.362 91.13 135.548 91.1125 135.729 91.0715C136.052 91.0307 136.052 90.9379 136.052 90.9082C135.964 90.5206 135.853 90.1387 135.718 89.7647L135.117 87.9084C135.009 87.5075 134.772 86.7947 134.419 85.7255H131.82C131.059 85.7255 130.25 85.7255 129.399 85.7477C129.221 86.171 128.913 86.9952 128.482 88.2017L127.855 90.058C127.779 90.258 127.734 90.4683 127.721 90.6817C127.721 90.8414 127.777 91.053 128.204 91.1309C128.249 91.1309 128.494 91.1644 129.578 91.2386C130.075 91.272 130.149 91.5208 130.149 91.6693C130.149 91.8178 130.027 92.0962 129.448 92.0962H124.358C123.831 92.0962 123.775 91.7658 123.775 91.6247C123.775 91.3351 124.146 91.2535 124.833 91.2126C125.713 91.1681 126.04 90.9899 126.158 90.8414C126.277 90.6929 126.574 90.1508 127.153 88.5025C127.517 87.5446 128.041 86.1351 128.724 84.2739L132.195 74.766C132.366 74.3477 132.603 73.6918 132.908 72.7983C133.205 71.8776 133.368 71.6846 133.569 71.6846C133.769 71.6846 133.907 71.7885 134.371 73.1213C134.742 74.2351 136.439 78.6902 139.394 86.4234C139.765 87.411 140.136 88.4208 140.537 89.4492C140.938 90.4775 141.231 90.8377 141.428 90.9527C141.625 91.0678 141.989 91.1495 143.099 91.1272C143.589 91.1272 143.63 91.4651 143.63 91.569C143.637 91.6776 143.603 91.785 143.534 91.8692C143.465 91.9534 143.366 92.008 143.258 92.022C142.881 92.0779 142.5 92.1002 142.119 92.0888V92.0925ZM137.92 91.6359C138.454 91.6359 139.405 91.6544 140.838 91.6915L142.119 91.7212C142.473 91.7341 142.828 91.7205 143.181 91.6804C143.229 91.6804 143.247 91.6804 143.247 91.5913C143.247 91.5022 143.247 91.5208 143.091 91.5208C142.093 91.5393 141.506 91.4688 141.235 91.2943C140.864 91.0827 140.53 90.5258 140.188 89.6014C139.81 88.5718 139.428 87.5644 139.045 86.5793C136.075 78.8609 134.397 74.3799 134.022 73.2661C133.9 72.8831 133.747 72.5106 133.565 72.1524C133.437 72.3985 133.335 72.6573 133.261 72.9246C132.952 73.823 132.711 74.4876 132.54 74.9071L129.088 84.4075C128.402 86.2762 127.879 87.6857 127.517 88.6361C127.031 90.0172 126.682 90.8228 126.459 91.0901C126.236 91.3574 125.691 91.5393 124.87 91.5802C124.636 91.5866 124.403 91.6202 124.176 91.6804C124.198 91.7064 124.254 91.725 124.373 91.725H129.455C129.73 91.725 129.786 91.6693 129.786 91.6656C129.786 91.6618 129.745 91.6247 129.559 91.6099C128.419 91.5319 128.2 91.5059 128.134 91.4948C127.491 91.3463 127.358 90.9713 127.358 90.6817C127.369 90.4277 127.42 90.1771 127.51 89.9392L128.137 88.0829C128.612 86.7576 128.939 85.8888 129.117 85.4841L129.162 85.3802H129.277C130.175 85.3431 131.033 85.3319 131.831 85.3505H134.701L134.742 85.4767C135.113 86.6165 135.373 87.3775 135.484 87.8008L136.082 89.6571C136.242 90.0624 136.36 90.4828 136.435 90.9119C136.435 91.079 136.353 91.3723 135.815 91.4391C135.61 91.4859 135.401 91.5059 135.191 91.4985C134.716 91.4703 134.239 91.5205 133.78 91.647C133.957 91.714 134.146 91.7406 134.333 91.725C134.671 91.725 135.306 91.725 136.268 91.6693C136.739 91.6433 137.3 91.6321 137.92 91.6321V91.6359ZM102.866 92.0888C102.732 92.0888 102.598 92.0789 102.465 92.0591C101.351 92.0034 100.371 91.9737 99.5542 91.9737C98.7375 91.9737 97.4307 92.0034 95.7934 92.0591C95.2365 92.0591 94.8244 92.0888 94.5571 92.0888C94.004 92.0888 93.9446 91.7806 93.9446 91.647C93.9382 91.5573 93.9668 91.4687 94.0242 91.3995C94.0816 91.3304 94.1634 91.286 94.2527 91.2757C94.6227 91.2366 94.9945 91.2168 95.3665 91.2163C96.0199 91.0901 96.187 90.9045 96.2278 90.8042C96.2686 90.704 96.354 90.2362 96.354 88.5767V73.8007C96.354 73.5186 96.3318 73.3589 96.328 73.3329H96.5137H96.328C96.328 72.9617 95.9085 72.802 95.0843 72.802C94.572 72.802 94.1005 72.7575 94.1005 72.4308C94.1005 72.1041 94.2601 72.0595 94.3567 72.0224C94.6175 71.9874 94.8809 71.9762 95.1437 71.989H102.651C103.155 71.989 103.207 72.2712 103.207 72.39C103.211 72.4714 103.188 72.5518 103.142 72.6189C103.096 72.686 103.029 72.736 102.951 72.7612C102.647 72.815 102.339 72.8399 102.031 72.8355C101.411 72.8763 101.191 73.0062 101.114 73.0953L101.036 73.5928V89.6682C101.036 90.7263 101.191 90.9416 101.24 90.9824C101.288 91.0233 101.611 91.1755 102.974 91.2497C103.029 91.2497 103.084 91.2608 103.136 91.2824C103.187 91.3039 103.234 91.3355 103.273 91.3752C103.312 91.415 103.343 91.4621 103.363 91.5139C103.384 91.5656 103.394 91.621 103.393 91.6767C103.43 91.8066 103.374 92.0888 102.866 92.0888ZM99.5542 91.6024C100.378 91.6024 101.37 91.6321 102.506 91.6878C102.628 91.7095 102.753 91.7194 102.877 91.7175C102.962 91.7175 103.063 91.7175 103.063 91.6618C103.063 91.6062 103.063 91.6136 102.974 91.6024C101.533 91.5245 101.177 91.3723 101.032 91.2312C100.798 91.0344 100.694 90.5444 100.694 89.6348V73.5446L100.809 72.9023C100.976 72.6387 101.377 72.4902 102.038 72.4456C102.314 72.4499 102.59 72.43 102.862 72.3862C102.862 72.364 102.829 72.3306 102.677 72.3306H95.166C94.7242 72.3306 94.5572 72.3306 94.4978 72.3306C94.696 72.3839 94.9018 72.404 95.1066 72.39C96.1795 72.39 96.7216 72.6944 96.7216 73.2921C96.7216 73.3886 96.7438 73.5371 96.755 73.7673V88.5656C96.755 90.3402 96.6659 90.7671 96.599 90.9342C96.4802 91.2349 96.0979 91.4465 95.437 91.5727C94.572 91.6024 94.3789 91.6247 94.3233 91.6321C94.2676 91.6396 94.5052 91.6915 94.5609 91.6915C94.8244 91.6915 95.2328 91.6915 95.7823 91.6618C97.4307 91.6321 98.7004 91.6024 99.5617 91.6024H99.5542ZM134.601 85.0943H129.199L129.296 84.8419C129.544 84.1922 129.945 83.0524 130.487 81.4523C130.981 80.0081 131.404 78.8535 131.746 78.0442L131.924 77.6135L132.295 78.5565C132.462 79.0391 132.589 79.403 132.667 79.6703C133.008 80.5539 133.569 82.1206 134.333 84.3221C134.449 84.6265 134.512 84.8122 134.534 84.8679L134.601 85.0943ZM129.73 84.7231H134.088C134.059 84.6414 134.022 84.5449 133.981 84.4298C133.216 82.2282 132.655 80.6652 132.318 79.7817C132.225 79.5292 132.095 79.1654 131.946 78.6679L131.924 78.6085C131.62 79.3733 131.263 80.3645 130.855 81.5563C130.361 82.9856 129.99 84.0437 129.737 84.7231H129.73ZM65.0089 81.3261H64.7156V76.3995C64.7156 73.9381 64.801 73.4295 64.8678 73.2253C65.0497 72.7278 65.5027 72.4828 66.2155 72.4828C68.2685 72.4828 69.3118 73.7822 69.3118 76.3513C69.3118 78.0813 68.9591 79.3621 68.2648 80.1566C67.5706 80.9511 66.4828 81.3261 65.0163 81.3261H65.0089ZM66.2155 72.8466C65.666 72.8466 65.343 73.01 65.2168 73.3515C65.1574 73.5186 65.0869 74.1831 65.0869 76.3995V80.9548C66.4123 80.9548 67.3887 80.5836 67.9864 79.9042C68.5841 79.2248 68.9405 77.9811 68.9405 76.3438C68.9479 73.9864 68.0569 72.8466 66.2229 72.8466H66.2155Z"></path>
</g>
<defs>
<clipPath id="clip0_904_51920">
<rect transform="translate(16.3867 54.6699)" fill="white" height="50.6616" width="127.229"></rect>
</clipPath>
</defs>
</svg>
