<svg xmlns="http://www.w3.org/2000/svg" fill="none" viewBox="0 0 160 161" height="161" width="160">
<path fill="#262523" d="M33.9698 65.4381C35.9253 65.3984 37.8631 65.8153 39.6292 66.6558C41.2123 67.4165 42.5355 68.6278 43.4327 70.1377C44.3517 71.7344 44.8169 73.5518 44.778 75.3937C44.8189 77.2285 44.3535 79.0391 43.4327 80.6267C42.5323 82.1303 41.2096 83.3358 39.6292 84.0933C37.8627 84.932 35.9249 85.3472 33.9698 85.3058H29.3545V95.3456H22.9473V65.4381H33.9698ZM29.3545 79.963H33.3725C34.882 79.963 36.0775 79.5503 36.9591 78.725C37.8406 77.8996 38.2822 76.7892 38.2839 75.3937C38.2839 73.9693 37.8423 72.8444 36.9591 72.019C36.0758 71.1936 34.8803 70.7801 33.3725 70.7784H29.3545V79.963Z"></path>
<path fill="#262523" d="M67.9849 78.477H65.1387V73.3844H67.9849V67.2451H74.0093V73.3971H79.0075V78.477H74.0093V87.511C74.0093 88.2768 74.1395 89.0886 74.6628 89.4996C75.8166 90.4058 79.0152 89.5838 79.0152 89.5838V94.6229C79.0152 94.6229 77.3993 95.3529 74.2646 95.3529C70.4126 95.3529 67.9849 93.2572 67.9849 89.0707V78.477Z"></path>
<path fill="#262523" d="M45.0312 78.447C45.9202 76.7892 47.2706 75.4246 48.919 74.5184C50.697 73.5645 52.6913 73.0861 54.7085 73.1297C56.7416 73.0878 58.755 73.5343 60.5798 74.4316C62.2246 75.2556 63.6019 76.5293 64.5518 78.1049C65.5065 79.6876 65.9983 81.5468 66.0272 83.6826C66.0329 84.3671 65.9757 85.0507 65.8562 85.7247H49.9222V85.8958C50.0652 87.492 50.5757 88.7454 51.4538 89.6559C52.332 90.5663 53.542 91.0216 55.0838 91.0216C56.16 91.0635 57.2249 90.7892 58.147 90.2328C58.962 89.7005 59.5378 88.872 59.7527 87.9226H65.6903C65.4717 89.3516 64.8986 90.7032 64.0233 91.8538C63.1026 93.0469 61.8977 93.9903 60.5185 94.5979C58.9451 95.2915 57.2395 95.6339 55.5203 95.6011C53.0697 95.6011 50.9544 95.145 49.1743 94.2329C47.4462 93.3715 46.0176 92.0097 45.0746 90.3247C44.1199 88.6229 43.6426 86.6505 43.6426 84.4075C43.6426 82.1305 44.1055 80.1437 45.0312 78.447ZM60.008 81.7961C59.8088 80.4585 59.2609 79.4264 58.364 78.6997C57.4672 77.973 56.3346 77.6097 54.9664 77.6097C53.7597 77.572 52.5804 77.9738 51.6479 78.7405C50.7435 79.5165 50.1722 80.6105 50.0524 81.7961H60.008Z"></path>
<path fill="#262523" d="M84.7677 75.9611C84.7677 77.9165 86.2075 78.6823 87.9867 78.6823C89.9446 78.6823 90.6747 77.7225 90.6747 76.7601C90.6747 75.7978 90.1412 75.3893 89.6255 75.1953C88.7346 74.8558 87.5834 74.6261 85.8348 74.1462C83.6624 73.5565 83.0268 72.2419 83.0268 70.9247C83.0268 68.372 85.3778 67.1875 87.6727 67.1875C90.325 67.1875 92.5484 68.594 92.5484 71.2437H90.325C90.2178 69.6075 89.115 69.0025 87.5834 69.0025C86.5623 69.0025 85.2527 69.3752 85.2527 70.6566C85.2527 71.5475 85.8577 72.0453 86.7639 72.2955C86.9605 72.3465 89.771 73.0766 90.4296 73.2731C91.1398 73.4677 91.7664 73.89 92.2133 74.4753C92.6601 75.0605 92.9025 75.7762 92.9032 76.5125C92.9032 79.3588 90.3786 80.4973 87.8514 80.4973C84.949 80.4973 82.6005 79.1086 82.5469 75.9611H84.7677Z"></path>
<path fill="#262523" d="M102.085 80.196H100.084V78.9197H100.048C99.7803 79.3784 99.3989 79.7603 98.9406 80.0286C98.4822 80.2969 97.9624 80.4425 97.4314 80.4513C95.0293 80.4513 93.998 79.2413 93.998 76.8392V70.9961H96.0402V76.635C96.0402 78.256 96.6988 78.8431 97.8016 78.8431C99.4915 78.8431 100.061 77.7582 100.061 76.3338V70.9961H102.09L102.085 80.196Z"></path>
<path fill="#262523" d="M103.635 70.9963H105.554V72.242H105.59C106.159 71.1903 107.265 70.7461 108.439 70.7461C111.339 70.7461 112.745 72.9516 112.745 75.6396C112.745 78.1132 111.5 80.4438 108.776 80.4438C107.602 80.4438 106.338 80.0175 105.697 79.0041H105.662V83.3871H103.635V70.9963ZM108.171 72.3466C106.463 72.3466 105.59 73.646 105.59 75.6039C105.59 77.4546 106.535 78.8433 108.171 78.8433C110.022 78.8433 110.724 77.207 110.724 75.6039C110.716 73.9319 109.843 72.3517 108.171 72.3517V72.3466Z"></path>
<path fill="#262523" d="M115.442 76.1192C115.442 77.5614 116.225 78.8429 117.915 78.8429C119.089 78.8429 119.802 78.3323 120.156 77.3113H122.079C121.634 79.3228 119.927 80.4434 117.915 80.4434C115.033 80.4434 113.412 78.4345 113.412 75.5933C113.412 72.9768 115.12 70.7432 117.861 70.7432C120.761 70.7432 122.541 73.3597 122.201 76.1166L115.442 76.1192ZM120.174 74.7841C120.103 73.5077 119.232 72.3463 117.861 72.3463C116.491 72.3463 115.495 73.4158 115.442 74.7841H120.174Z"></path>
<path fill="#262523" d="M123.172 70.9958H125.077V72.7827H125.112C125.345 71.8024 126.555 70.7405 127.8 70.7405C128.057 70.7377 128.313 70.7557 128.566 70.7941V72.752C128.278 72.7046 127.987 72.6748 127.696 72.6627C126.307 72.6627 125.204 73.7833 125.204 75.8127V80.1906H123.162L123.172 70.9958Z"></path>
<path fill="#262523" d="M83.0312 86.1361H84.9534V87.4125H85.007C85.612 86.5063 86.3778 85.8809 87.838 85.8809C88.9586 85.8809 90.0078 86.3608 90.4162 87.4125C91.0927 86.4705 91.9657 85.8809 93.3008 85.8809C95.2408 85.8809 96.3793 86.736 96.3793 88.9773V95.331H94.3372V89.9652C94.3372 88.5076 94.2478 87.4916 92.6651 87.4916C91.2943 87.4916 90.7072 88.4004 90.7072 89.9473V95.3412H88.6651V89.4368C88.6651 88.1732 88.2745 87.4967 87.0466 87.4967C85.9975 87.4967 85.0351 88.3519 85.0351 89.8809V95.3463H83.0312V86.1361Z"></path>
<path fill="#262523" d="M105.618 93.2989C105.618 93.8095 105.725 93.9933 106.1 93.9933C106.271 93.9969 106.442 93.985 106.611 93.9575V95.3641C106.196 95.4935 105.768 95.5707 105.334 95.5938C104.515 95.5938 103.928 95.3105 103.767 94.4732C102.968 95.2569 101.669 95.5938 100.584 95.5938C98.9269 95.5938 97.4336 94.7055 97.4336 92.9084C97.4336 90.611 99.2664 90.2383 100.974 90.0417C102.434 89.7864 103.731 89.9345 103.731 88.7424C103.731 87.6932 102.646 87.4967 101.829 87.4967C100.688 87.4967 99.8893 87.9612 99.7872 88.9568H97.745C97.888 86.5904 99.8995 85.8936 101.926 85.8936C103.713 85.8936 105.61 86.6236 105.61 88.5637L105.618 93.2989ZM103.591 90.7462C102.968 91.1547 101.988 91.1368 101.099 91.2976C100.211 91.4584 99.4426 91.7597 99.4426 92.8292C99.4426 93.7355 100.602 94.0035 101.311 94.0035C102.202 94.0035 103.591 93.5389 103.591 92.26V90.7462Z"></path>
<path fill="#262523" d="M107.312 86.1364H109.216V87.9233H109.252C109.481 86.943 110.691 85.8811 111.937 85.8811C112.193 85.8785 112.449 85.8965 112.703 85.9347V87.8926C112.414 87.8452 112.122 87.8154 111.83 87.8033C110.444 87.8033 109.341 88.9239 109.341 90.9533V95.3312H107.299L107.312 86.1364Z"></path>
<path fill="#262523" d="M113.194 83.3867H115.236V89.8629L118.889 86.136H121.38L117.858 89.5158L121.717 95.3359H119.244L116.436 90.8687L115.226 92.0429V95.3359H113.184L113.194 83.3867Z"></path>
<path fill="#262523" d="M123.217 91.2695C123.217 92.7118 123.998 93.9933 125.69 93.9933C126.865 93.9933 127.577 93.4828 127.932 92.4617H129.854C129.41 94.4732 127.699 95.5938 125.69 95.5938C122.806 95.5938 121.188 93.5823 121.188 90.7437C121.188 88.1272 122.895 85.8936 125.637 85.8936C128.537 85.8936 130.316 88.5101 129.976 91.267L123.217 91.2695ZM127.95 89.9345C127.878 88.6581 127.008 87.4967 125.637 87.4967C124.266 87.4967 123.27 88.5662 123.217 89.9345H127.95Z"></path>
<path fill="#262523" d="M129.965 86.136H131.497V83.3867H133.524V86.136H135.357V87.6676H133.524V92.5688C133.524 93.4061 133.595 93.8324 134.504 93.8324C134.79 93.8442 135.076 93.8201 135.357 93.7609V95.3257C134.912 95.3615 134.486 95.4304 134.039 95.4304C131.923 95.4304 131.53 94.6135 131.487 93.0819V87.6676H129.955L129.965 86.136Z"></path>
<path fill="#262523" d="M135 82.8617H134.686V82.6396H135.579V82.8617H135.262V83.8011H135V82.8617Z"></path>
<path fill="#262523" d="M136.694 83.3562C136.694 83.2158 136.694 83.0499 136.694 82.8788C136.659 83.0269 136.61 83.1928 136.564 83.3281L136.424 83.7825H136.217L136.077 83.3281C136.038 83.1903 136 83.0269 135.972 82.8737C135.972 83.032 135.972 83.2107 135.954 83.3536L135.931 83.7953H135.676L135.75 82.6338H136.1L136.212 83.0218C136.25 83.1571 136.286 83.3 136.311 83.4379C136.342 83.3026 136.38 83.1494 136.421 83.0192L136.544 82.6338H136.888L136.95 83.7953H136.694V83.3562Z"></path>
</svg>
