<svg xmlns="http://www.w3.org/2000/svg" fill="none" viewBox="0 0 160 160" height="160" width="160">
<path fill="#262523" d="M54.5329 93.5885H41.4819V93.3287C42.1113 93.2908 44.0393 93.1429 44.5588 92.8832C45.412 92.4376 45.7456 91.8442 45.7456 90.9911V70.3416L36.4029 93.1809H35.7356C35.364 92.032 34.4369 89.3627 33.8455 88.028L26.3549 70.897V87.6923C26.3549 90.5475 26.7625 91.8822 27.5777 92.5875C28.2071 93.107 30.6546 93.2928 31.322 93.3287V93.5885H21.1641V93.3287C21.7954 93.2548 23.6856 93.2548 24.5747 92.6234C25.4278 91.9921 25.7615 90.5475 25.7615 87.7283V72.5294C25.7615 71.0089 25.3899 69.9719 24.6486 69.3785C23.7595 68.6732 22.3489 68.5633 21.3479 68.5254V68.2656H30.3569L38.4769 86.5075L44.6687 71.4165C45.2242 70.0818 45.4479 68.6732 45.4839 68.2656H54.493V68.5254C53.8256 68.5633 52.453 68.7471 51.7856 68.9709C50.8586 69.2686 50.6368 69.9719 50.6368 70.7871V90.9931C50.6368 91.8082 50.9325 92.4017 51.7856 92.8092C52.1932 93.031 53.8256 93.2908 54.5289 93.3287V93.5885H54.5329Z"></path>
<path fill="#262523" d="M72.4007 88.9539C72.2528 92.2546 70.9541 93.9969 68.2109 93.9969C66.1709 93.9969 65.1339 93.1078 64.4666 91.5493H64.3547C63.0939 92.9959 61.4995 94.0708 58.978 94.0708C56.4206 94.0708 54.5664 92.4384 54.5664 90.0288C54.5664 86.9139 56.3466 85.9868 58.2008 85.2835C60.3886 84.4683 63.1319 83.8749 64.3926 83.1337V80.5742C64.3926 79.6471 64.3567 76.5322 61.7233 76.5322C60.5005 76.5322 59.8332 77.0517 59.5355 77.4213C59.5734 78.2365 60.1289 79.5352 60.1289 80.4983C60.1289 81.3135 59.1658 82.3524 57.5714 82.3524C56.0509 82.3524 55.4575 81.2036 55.4575 80.1287C55.4575 77.8669 58.98 76.1626 61.9451 76.1626C65.7633 76.1626 68.7303 76.756 68.7303 81.6871C68.7303 85.0238 68.5086 89.2136 68.5086 90.4364C68.5086 90.9919 68.9901 92.2526 70.065 92.2526C71.2518 92.2526 71.9192 90.6942 71.9931 88.9519H72.4007V88.9539ZM64.4286 83.6871C61.0919 84.836 59.0899 86.0228 59.0899 89.2496C59.0899 91.4374 59.979 92.4744 61.3137 92.4744C62.6484 92.4744 63.5755 91.9549 64.2808 90.9539L64.4286 83.6871Z"></path>
<path fill="#262523" d="M84.9693 81.7229C83.5967 81.7229 82.6337 80.9816 82.6337 79.573C82.6337 78.9057 82.9673 78.2004 83.1531 77.6449C81.4848 77.6829 80.0023 79.2393 79.5927 79.9426V91.3253C79.5927 92.1425 79.9643 92.7339 80.5937 92.9937C81.2231 93.2534 82.4099 93.2894 83.0413 93.3274V93.5871H72.7715V93.3274C73.4008 93.2894 73.8464 93.2534 74.3659 93.0676C75.0712 92.8458 75.3289 92.2524 75.3289 91.4372V79.4971C75.291 78.7558 74.9213 77.9406 74.3659 77.533C73.9203 77.2353 73.1791 77.0875 72.5117 77.0515V76.8297L79.4448 76.4221L79.5927 76.57V79.2034H79.6666C81.2231 77.2014 82.9294 76.2363 84.5977 76.2363C86.1921 76.2363 87.341 77.4231 87.341 79.0176C87.341 80.5361 86.4139 81.7229 84.9693 81.7229Z"></path>
<path fill="#262523" d="M100.91 88.7313C100.688 91.5485 99.0936 93.9961 95.8309 93.9961C92.642 93.9961 91.0856 92.1059 91.0856 88.8052V77.2367H87.7109V76.6433H91.1595V71.1567H95.3114V76.6453H100.207V77.2387H95.3114V88.6214C95.3114 90.4376 95.8668 92.032 97.8689 92.032C99.5372 92.032 100.352 90.2158 100.502 88.7333H100.91V88.7313Z"></path>
<path fill="#262523" d="M107.434 66.0771V79.202H107.508C108.88 77.8294 110.215 76.161 113.366 76.161C116.889 76.161 118.445 78.4967 118.445 82.0192V91.3619C118.445 92.1771 118.631 92.7346 119.298 93.0303C119.818 93.2541 120.299 93.29 120.966 93.328V93.5877H111.734V93.328C112.327 93.29 112.847 93.2161 113.29 93.0682C113.919 92.8465 114.105 92.2151 114.105 91.3999V81.6855C114.105 79.1281 112.809 77.9772 111.362 77.9772C109.138 77.9772 107.839 79.238 107.432 80.0532V91.324C107.432 92.1412 107.654 92.7326 108.211 92.9923C108.731 93.2521 109.286 93.288 109.843 93.326V93.5857H100.611V93.326C101.24 93.288 101.724 93.2141 102.205 93.0662C102.91 92.8445 103.168 92.325 103.168 91.5098V69.0801C103.132 68.2269 102.796 67.4857 102.241 67.0781C101.795 66.7824 100.313 66.5965 99.6836 66.5586V66.3368L107.284 65.9292L107.434 66.0771Z"></path>
<path fill="#262523" d="M138.834 88.9539C138.686 92.2546 137.388 93.9969 134.644 93.9969C132.604 93.9969 131.567 93.1078 130.9 91.5493H130.788C129.528 92.9959 127.933 94.0708 125.412 94.0708C122.854 94.0708 121 92.4384 121 90.0288C121 86.9139 122.78 85.9868 124.634 85.2835C126.822 84.4683 129.565 83.8749 130.826 83.1337V80.5742C130.826 79.6471 130.788 76.5322 128.157 76.5322C126.934 76.5322 126.267 77.0517 125.969 77.4213C126.005 78.2365 126.562 79.5352 126.562 80.4983C126.562 81.3135 125.599 82.3524 124.003 82.3524C122.483 82.3524 121.889 81.2036 121.889 80.1287C121.889 77.8669 125.412 76.1626 128.377 76.1626C132.195 76.1626 135.162 76.756 135.162 81.6871C135.162 85.0238 134.94 89.2136 134.94 90.4364C134.94 90.9919 135.422 92.2526 136.497 92.2526C137.683 92.2526 138.351 90.6942 138.425 88.9519H138.834V88.9539ZM130.864 83.6871C127.528 84.836 125.526 86.0228 125.526 89.2496C125.526 91.4374 126.415 92.4744 127.749 92.4744C129.084 92.4744 130.011 91.9549 130.716 90.9539L130.864 83.6871Z"></path>
</svg>
