<svg xmlns="http://www.w3.org/2000/svg" fill="none" viewBox="0 0 160 160" height="160" width="160">
<path fill="#262523" d="M76.2448 56.1778C72.44 56.7223 68.0941 58.3148 64.9531 60.3157C63.487 61.2496 63.4872 61.2495 63.4872 63.1827C63.4872 71.795 66.9174 79.3696 73.1973 84.6247C74.9708 86.1089 76.9927 87.472 78.6522 88.3022L79.7332 88.8431L80.4666 88.4755C84.3025 86.5538 88.2447 83.2192 90.6789 79.8372C92.0669 77.9088 93.7081 74.6861 94.4162 72.4986C95.352 69.6085 95.6475 67.8212 95.7517 64.4237L95.8478 61.2899L94.3558 60.3204C91.5298 58.4836 87.6325 56.9174 84.4834 56.3529C82.3262 55.9662 78.3188 55.8811 76.2448 56.1778ZM83.4517 57.9036C86.6305 58.4176 89.8577 59.6362 92.931 61.4826L94.1206 62.1973L94.0203 64.9635C93.9146 67.8768 93.6104 69.6152 92.7519 72.2096C90.8275 78.0259 86.709 82.9892 81.1757 86.1601L79.7687 86.9665L78.8428 86.5008C77.1938 85.6715 74.9119 83.9987 73.1472 82.3256C67.9216 77.3715 65.2153 71.0665 65.2153 63.8471V62.1954L66.605 61.3713C71.6901 58.3552 78.0938 57.0371 83.4517 57.9036ZM83.6698 59.5707L83.2019 59.7414L83.5508 60.624C83.9926 61.7419 84.567 64.1151 84.5686 64.8296C84.5698 65.3755 84.5695 65.3756 83.9361 65.2013C83.5779 65.1027 82.6195 65.0722 81.7328 65.1311C79.7773 65.2611 79.6325 65.2611 77.8173 65.1317C76.9467 65.0696 76.0599 65.102 75.6671 65.2101C75.2993 65.3114 74.9629 65.3589 74.9197 65.3157C74.7794 65.1758 75.238 62.7716 75.6869 61.2936C75.9275 60.502 76.0998 59.8303 76.0701 59.8012C76.0402 59.7721 75.7355 59.696 75.393 59.6322L74.7702 59.5162L74.2257 60.8661C73.556 62.5261 73.0727 64.1895 72.9032 65.4182C72.7805 66.308 72.7105 66.4088 71.2848 67.7481C70.4652 68.518 69.3411 69.7768 68.7867 70.5455L67.7789 71.9432L68.2683 72.3724C68.5375 72.6087 68.7967 72.7991 68.8443 72.7956C68.8918 72.7923 69.3463 72.2875 69.8541 71.6739C70.9022 70.4076 72.7627 68.7947 73.0037 68.9434C73.0922 68.9978 73.1645 69.1588 73.1645 69.3013C73.1645 69.7835 74.0295 71.3868 74.6988 72.145C75.065 72.5597 75.4236 73.1705 75.4955 73.5021C75.6952 74.4225 76.3941 75.6915 77.1536 76.5129L77.8377 77.253L76.7539 77.6818C75.8321 78.0466 74.5768 78.3964 72.8667 78.7648C72.5372 78.8358 72.4976 78.9266 72.5873 79.4054C72.6447 79.7123 72.7397 80.0138 72.7985 80.0757C73.0862 80.3782 78.0615 79.3508 79.233 78.7469C79.7025 78.5046 79.8255 78.5167 80.9237 78.9116C82.2652 79.394 84.1148 79.791 85.8035 79.9589L86.9506 80.0727L87.0176 79.3725C87.083 78.6886 87.0703 78.6698 86.4752 78.5711C85.3502 78.3845 83.7999 77.9817 82.8082 77.6184L81.8244 77.2578L82.5182 76.3825C83.3672 75.3118 83.8112 74.4663 83.9712 73.6154C84.0481 73.2072 84.3471 72.7031 84.7839 72.2451C85.3775 71.6226 86.1783 70.204 86.5346 69.1438C86.6917 68.6763 87.1668 68.999 89.0594 70.8586L90.6978 72.4682L91.177 71.9904L91.6561 71.5126L90.5597 70.138C89.5052 68.8162 88.0192 67.3189 87.2062 66.7594C86.9062 66.553 86.7636 66.1834 86.5771 65.1296C86.1774 62.8705 84.8247 59.3589 84.3647 59.3865C84.2399 59.3939 83.9271 59.477 83.6698 59.5707ZM77.139 67.2248C77.139 67.2788 76.9218 67.6471 76.6564 68.0433C76.3908 68.4394 76.0692 68.9961 75.9417 69.2804L75.7098 69.7973L75.3921 69.1081C75.0394 68.3429 74.9764 67.7186 75.2356 67.5589C75.3291 67.5014 75.7374 67.389 76.1428 67.3092C77.1406 67.1132 77.139 67.1132 77.139 67.2248ZM84.181 67.4884C84.3949 67.5691 84.5698 67.7393 84.5698 67.867C84.5698 68.2557 84.0279 69.7112 83.8832 69.7112C83.8088 69.7112 83.6498 69.4755 83.53 69.1872C83.4103 68.8991 83.0899 68.357 82.8179 67.9826C82.5459 67.6082 82.3233 67.2557 82.3233 67.1991C82.3233 67.0768 83.6275 67.28 84.181 67.4884ZM80.566 68.752C81.3196 69.567 81.8049 70.5264 81.8049 71.2011C81.8049 71.4933 81.6651 71.6691 81.3297 71.7987C80.668 72.0542 79.0816 72.0485 78.2893 71.7876C77.6466 71.5762 77.6297 71.5502 77.743 70.9478C77.8073 70.606 77.9742 70.1056 78.114 69.8361C78.4028 69.2796 79.5314 67.9881 79.7293 67.9881C79.8012 67.9881 80.1777 68.3319 80.566 68.752ZM81.2864 74.3514C81.2864 74.4261 80.9685 74.8472 80.58 75.2875L79.8736 76.0877L79.43 75.7396C78.9981 75.401 78.1762 74.3929 78.1756 74.2008C78.1752 74.148 78.8751 74.1298 79.7308 74.1603C80.5864 74.1908 81.2864 74.2767 81.2864 74.3514ZM48.5372 97.6582C47.2078 100.046 45.868 102.45 45.5601 103L45 104H46.6251H48.2504L48.8785 102.88L49.5067 101.76H52.6803H55.8539L56.4821 102.88L57.1102 104H58.7317H60.353L59.2802 102.061C58.69 100.995 57.3542 98.5917 56.3117 96.72L54.4163 93.317H52.6855H50.9545L48.5372 97.6582ZM62.796 98.6584V104H64.3512H65.9065V102.272V100.544L68.186 100.592L70.4657 100.64L71.6833 102.32L72.9011 104H74.6897H76.4782L75.7099 102.923C73.8858 100.366 73.7631 100.162 74.0021 100.078C74.473 99.9138 75.4692 98.9062 75.6959 98.3652C76.2847 96.9602 75.768 95.0802 74.5514 94.2016C73.4817 93.429 72.5837 93.317 67.4533 93.317H62.796V98.6584ZM80.0768 98.6584V104H81.6321H83.1873V98.6584V93.317H81.6321H80.0768V98.6584ZM89.3153 97.9261C87.9107 100.461 86.572 102.865 86.3404 103.268L85.9194 104H87.5468H89.1739L89.7703 102.923L90.3665 101.846L93.5859 101.799L96.8053 101.753L97.4355 102.876L98.0658 104H99.6126C100.463 104 101.159 103.95 101.159 103.89C101.159 103.83 99.8568 101.427 98.2649 98.5504L95.3703 93.3206L93.6198 93.3187L91.8692 93.317L89.3153 97.9261ZM100.987 94.6093V95.9016H103.492H105.998V99.9507V104H107.553H109.109V99.9507V95.9016H111.614H114.12V94.6093V93.317H107.553H100.987V94.6093ZM72.4347 96.1698C72.9293 96.5151 72.9396 97.2896 72.4556 97.7271C72.1321 98.0193 71.7531 98.0612 68.9994 98.1093L65.9065 98.1632V97.0324V95.9016H68.9785C71.4794 95.9016 72.1221 95.9513 72.4347 96.1698ZM53.7838 98.0123L54.5102 99.3476H52.6763H50.8425L51.4407 98.2707C51.7699 97.6785 52.1717 96.9335 52.3336 96.6154C52.6791 95.9374 52.6295 95.8897 53.7838 98.0123ZM94.5759 99.3134C94.1168 99.342 93.3132 99.342 92.7898 99.3134L91.8385 99.2615L92.7156 97.6465L93.593 96.0316L94.5016 97.6465L95.4104 99.2615L94.5759 99.3134Z" clip-rule="evenodd" fill-rule="evenodd"></path>
</svg>
