<svg xmlns="http://www.w3.org/2000/svg" fill="none" viewBox="0 0 901 91" height="91" width="901">
<path fill="#333333" d="M74.9596 1.83081H82.6367V88.9773H75.0631H74.9596V13.67H74.819L45.0379 88.9773H37.2264L8.54377 13.67H8.29967V88.9773H0V1.83081H12.2054L41.1322 78.2365L71.1574 1.83081H74.9596ZM154.507 8.90993H99.1525V1.83081H154.507H173.159H225.302V8.90993H194.911V88.9773H186.611V8.90993H173.159H154.507ZM413.044 88.9773V44.6717H376.062V51.7508H405.721C405.802 56.3889 405.192 60.6608 403.89 64.5665C402.588 68.4722 400.635 71.849 398.032 74.697C395.428 77.5449 392.214 79.7826 388.389 81.4099C384.646 82.956 380.374 83.729 375.574 83.729C369.796 83.729 364.833 82.6305 360.683 80.4335C356.533 78.2365 353.116 75.3479 350.431 71.7677C347.827 68.1061 345.874 63.9969 344.572 59.4402C343.352 54.8022 342.741 50.1235 342.741 45.404C342.741 40.6033 343.352 35.9245 344.572 31.3678C345.874 26.8112 347.827 22.7427 350.431 19.1625C353.116 15.5008 356.533 12.5715 360.683 10.3746C364.833 8.17761 369.796 7.07913 375.574 7.07913C379.724 7.07913 383.467 7.77076 386.803 9.15404C390.139 10.4559 392.987 12.1647 395.346 14.2803C397.788 16.3959 399.7 18.7556 401.083 21.3594C402.548 23.8819 403.402 26.4043 403.646 28.9268H411.946C411.132 24.126 409.627 19.9355 407.43 16.3552C405.233 12.775 402.548 9.76431 399.374 7.32323C396.201 4.88215 392.58 3.05134 388.511 1.83081C384.443 0.610269 380.13 0 375.574 0C368.739 0 362.717 1.26122 357.51 3.78367C352.384 6.22475 348.112 9.56088 344.694 13.7921C341.277 17.9419 338.713 22.7427 337.005 28.1944C335.296 33.6462 334.442 39.3827 334.442 45.404C334.442 51.4254 335.296 57.1619 337.005 62.6136C338.713 68.0654 341.277 72.8662 344.694 77.016C348.112 81.1658 352.384 84.502 357.51 87.0244C362.717 89.4655 368.739 90.686 375.574 90.686C378.747 90.686 381.798 90.3605 384.728 89.7096C387.738 89.0586 390.546 88.0415 393.149 86.6582C395.753 85.1936 398.113 83.3628 400.229 81.1658C402.426 78.8875 404.256 76.2023 405.721 73.1103H405.965L407.064 88.9773H413.044ZM135.742 82.3137H135.854V89.6541H99.1523V82.3137H135.729V81.8982H135.742V82.3137ZM273.185 10.1305L255.731 54.8022H290.028L273.185 10.1305ZM233.883 88.9773L268.913 1.83081H278.189L312.364 88.9773H303.454L292.836 61.8813H253.168L242.671 88.9773H233.883ZM452.86 31.3678C451.639 35.9245 451.029 40.6033 451.029 45.404C451.029 50.1235 451.639 54.8022 452.86 59.4402C454.161 63.9969 456.114 68.1061 458.718 71.7677C461.403 75.3479 464.821 78.2365 468.971 80.4335C473.121 82.6305 478.084 83.729 483.861 83.729C489.638 83.729 494.561 82.6305 498.63 80.4335C502.78 78.2365 506.156 75.3479 508.76 71.7677C511.445 68.1061 513.398 63.9969 514.618 59.4402C515.92 54.8022 516.571 50.1235 516.571 45.404C516.571 40.6033 515.92 35.9245 514.618 31.3678C513.398 26.8112 511.445 22.7427 508.76 19.1625C506.156 15.5008 502.78 12.5715 498.63 10.3746C494.561 8.17761 489.638 7.07913 483.861 7.07913C478.084 7.07913 473.121 8.17761 468.971 10.3746C464.821 12.5715 461.403 15.5008 458.718 19.1625C456.114 22.7427 454.161 26.8112 452.86 31.3678ZM445.292 62.6136C443.583 57.1619 442.729 51.4254 442.729 45.404C442.729 39.3827 443.583 33.6462 445.292 28.1944C447.001 22.7427 449.564 17.9419 452.982 13.7921C456.399 9.56088 460.671 6.22475 465.797 3.78367C471.005 1.26122 477.026 0 483.861 0C490.696 0 496.677 1.26122 501.803 3.78367C506.929 6.22475 511.201 9.56088 514.618 13.7921C518.036 17.9419 520.599 22.7427 522.308 28.1944C524.017 33.6462 524.871 39.3827 524.871 45.404C524.871 51.4254 524.017 57.1619 522.308 62.6136C520.599 68.0654 518.036 72.8662 514.618 77.016C511.201 81.1658 506.929 84.502 501.803 87.0244C496.677 89.4655 490.696 90.686 483.861 90.686C477.026 90.686 471.005 89.4655 465.797 87.0244C460.671 84.502 456.399 81.1658 452.982 77.016C449.564 72.8662 447.001 68.0654 445.292 62.6136ZM556.143 88.9773H613.264V81.8982H564.442V1.83081H556.143V88.9773ZM670.154 88.9773H640.007V1.83081H670.154C683.417 2.15628 693.385 5.89927 700.057 13.0598C706.811 20.1389 710.188 30.9203 710.188 45.404C710.188 59.8878 706.811 70.7099 700.057 77.8704C693.385 84.9495 683.417 88.6518 670.154 88.9773ZM648.307 8.90993V81.8982H666.004C672.27 81.8982 677.64 81.2472 682.116 79.9453C686.672 78.562 690.415 76.4057 693.344 73.4764C696.274 70.5471 698.43 66.7635 699.813 62.1254C701.197 57.4874 701.888 51.9136 701.888 45.404C701.888 38.8945 701.197 33.3207 699.813 28.6827C698.43 24.0446 696.274 20.2609 693.344 17.3317C690.415 14.4024 686.672 12.2868 682.116 10.9848C677.64 9.60157 672.27 8.90993 666.004 8.90993H648.307ZM741.869 88.9773H802.652V81.8982H750.169V47.479H798.747V40.3998H750.169V8.90993H802.042V1.83081H741.869V88.9773ZM840.705 88.9773H832.406V1.83081H841.682L892.456 75.5514H892.7V1.83081H901V88.9773H891.724L840.95 15.2567H840.705V88.9773ZM98.8145 40.5054H147.268V47.3778H98.8145V40.5054Z" clip-rule="evenodd" fill-rule="evenodd"></path>
</svg>
