<svg xmlns="http://www.w3.org/2000/svg" fill="none" viewBox="0 0 160 159" height="159" width="160">
<path fill="#262523" d="M45.3457 72.0823C45.3457 72.1569 45.3192 72.1646 45.0593 72.165C44.6355 72.1656 44.4765 72.2006 44.4765 72.2933C44.4765 72.3605 44.4442 72.3702 44.2198 72.3702C43.9893 72.3702 43.963 72.3786 43.963 72.4524C43.963 72.5225 43.9366 72.5347 43.7852 72.5347C43.6356 72.5347 43.6074 72.5474 43.6074 72.6145C43.6074 72.6774 43.57 72.7 43.4296 72.7219C43.2964 72.7427 43.2519 72.7678 43.2519 72.822C43.2519 72.8742 43.2092 72.9015 43.0985 72.9199C42.9904 72.9379 42.939 72.9698 42.9244 73.028C42.912 73.0775 42.8706 73.1105 42.821 73.1105C42.7646 73.1105 42.7383 73.1367 42.7383 73.1928C42.7383 73.2531 42.7119 73.2751 42.6395 73.2751C42.5671 73.2751 42.5407 73.297 42.5407 73.3573C42.5407 73.4122 42.5144 73.4396 42.4617 73.4396C42.4038 73.4396 42.3827 73.467 42.3827 73.5424C42.3827 73.6178 42.3617 73.6452 42.3037 73.6452C42.251 73.6452 42.2247 73.6727 42.2247 73.7275C42.2247 73.7878 42.1983 73.8098 42.1259 73.8098C42.0469 73.8098 42.0272 73.8303 42.0272 73.9126C42.0272 73.988 42.0061 74.0154 41.9481 74.0154C41.8955 74.0154 41.8691 74.0429 41.8691 74.0977C41.8691 74.1509 41.8428 74.1799 41.7946 74.1799C41.7366 74.1799 41.7142 74.2209 41.6934 74.365C41.6724 74.5112 41.6507 74.5501 41.5902 74.5501C41.5257 74.5501 41.5136 74.5795 41.5136 74.7352C41.5136 74.8909 41.5014 74.9203 41.437 74.9203C41.3765 74.9203 41.3548 74.9592 41.3337 75.1054C41.3183 75.2123 41.286 75.2905 41.2572 75.2905C41.1914 75.2905 41.158 75.4791 41.158 75.8509C41.158 76.1268 41.1509 76.1542 41.079 76.1542C41.0046 76.1542 41 76.1817 41 76.6272C41 77.0728 41.0046 77.1003 41.079 77.1003C41.1509 77.1003 41.158 77.1277 41.158 77.4036C41.158 77.8071 41.1891 77.9521 41.2808 77.9771C41.3405 77.9933 41.3556 78.0356 41.3556 78.1864C41.3556 78.3479 41.367 78.3753 41.4346 78.3753C41.5002 78.3753 41.5136 78.4028 41.5136 78.537C41.5136 78.6733 41.5275 78.7007 41.6025 78.7118C41.6596 78.7202 41.6959 78.758 41.704 78.8175C41.7121 78.877 41.7439 78.91 41.7929 78.91C41.8479 78.91 41.8691 78.9387 41.8691 79.0129C41.8691 79.0882 41.8902 79.1157 41.9481 79.1157C42.0008 79.1157 42.0272 79.1431 42.0272 79.1979C42.0272 79.2518 42.0535 79.2802 42.1034 79.2802C42.1524 79.2802 42.1842 79.3133 42.1923 79.3728C42.2004 79.4322 42.2367 79.47 42.2938 79.4785C42.351 79.4869 42.3827 79.52 42.3827 79.571C42.3827 79.6229 42.41 79.6504 42.4617 79.6504C42.5144 79.6504 42.5407 79.6778 42.5407 79.7326C42.5407 79.793 42.5671 79.8149 42.6395 79.8149C42.7119 79.8149 42.7383 79.8368 42.7383 79.8972C42.7383 79.9532 42.7646 79.9794 42.821 79.9794C42.8706 79.9794 42.912 80.0125 42.9244 80.062C42.939 80.1202 42.9904 80.1521 43.0985 80.1701C43.2092 80.1885 43.2519 80.2157 43.2519 80.2679C43.2519 80.3221 43.2964 80.3472 43.4296 80.368C43.57 80.39 43.6074 80.4125 43.6074 80.4755C43.6074 80.5426 43.6356 80.5553 43.7852 80.5553C43.9366 80.5553 43.963 80.5674 43.963 80.6375C43.963 80.7076 43.9893 80.7198 44.1407 80.7198C44.2903 80.7198 44.3185 80.7325 44.3185 80.7995C44.3185 80.8625 44.3559 80.8851 44.4963 80.907C44.6348 80.9287 44.6741 80.9519 44.6741 81.0124C44.6741 81.0805 44.7056 81.09 44.9309 81.09C45.1613 81.09 45.1877 81.0984 45.1877 81.1722C45.1877 81.2383 45.214 81.2545 45.321 81.2545C45.5294 81.2545 45.7012 81.301 45.7012 81.3573C45.7012 81.4156 45.8745 81.4602 46.1012 81.4602C46.228 81.4602 46.2543 81.4743 46.2543 81.5424C46.2543 81.6084 46.2807 81.6247 46.3877 81.6247C46.6329 81.6247 46.7679 81.6703 46.7679 81.7532C46.7679 81.8172 46.7982 81.8303 46.9457 81.8303C47.0971 81.8303 47.1235 81.8425 47.1235 81.9126C47.1235 81.9827 47.1498 81.9949 47.3012 81.9949C47.4499 81.9949 47.479 82.0077 47.479 82.0735C47.479 82.1332 47.5171 82.1588 47.637 82.1799C47.757 82.201 47.7951 82.2267 47.7951 82.2864C47.7951 82.3429 47.8229 82.365 47.8938 82.365C47.9647 82.365 47.9926 82.3872 47.9926 82.4437C47.9926 82.5031 48.0304 82.529 48.1477 82.5496C48.291 82.5748 48.3047 82.5891 48.3289 82.7383C48.3487 82.8603 48.3735 82.8997 48.4306 82.8997C48.5005 82.8997 48.5062 82.9342 48.5062 83.3561C48.5062 83.7721 48.4995 83.8142 48.43 83.8331C48.3778 83.8473 48.3456 83.9044 48.3277 84.0143C48.3081 84.1355 48.2832 84.1748 48.2261 84.1748C48.1719 84.1748 48.1506 84.2038 48.1506 84.2776C48.1506 84.3599 48.1309 84.3805 48.0518 84.3805C47.9794 84.3805 47.9531 84.4024 47.9531 84.4627C47.9531 84.5313 47.9267 84.545 47.7951 84.545C47.6665 84.545 47.637 84.5595 47.637 84.6226C47.637 84.683 47.5977 84.7063 47.4593 84.7279C47.3189 84.7499 47.2815 84.7724 47.2815 84.8354C47.2815 84.9104 47.2495 84.9152 46.7481 84.9152C46.2412 84.9152 46.2148 84.9192 46.2148 84.9974C46.2148 85.0523 46.1885 85.0797 46.1358 85.0797C46.0831 85.0797 46.0568 85.0523 46.0568 84.9974C46.0568 84.9203 46.0303 84.9151 45.6321 84.9146C45.1637 84.914 45.0296 84.891 45.0296 84.8114C45.0296 84.7789 44.953 84.7474 44.8321 84.7301C44.6736 84.7074 44.6346 84.6863 44.6346 84.6234C44.6346 84.555 44.6043 84.545 44.3975 84.545C44.1868 84.545 44.1605 84.5359 44.1605 84.4627C44.1605 84.4024 44.1341 84.3805 44.0617 84.3805C43.9827 84.3805 43.963 84.3599 43.963 84.2776C43.963 84.1832 43.9485 84.1748 43.7852 84.1748C43.6338 84.1748 43.6074 84.1626 43.6074 84.0925C43.6074 84.0225 43.5811 84.0103 43.4296 84.0103C43.2782 84.0103 43.2519 84.0225 43.2519 84.0925C43.2519 84.1609 43.2255 84.1748 43.0966 84.1748C42.9656 84.1748 42.9393 84.1893 42.9287 84.2674C42.9206 84.3268 42.8843 84.3646 42.8272 84.3731C42.77 84.3815 42.7383 84.4146 42.7383 84.4656C42.7383 84.5308 42.71 84.545 42.5802 84.545C42.4486 84.545 42.4222 84.5587 42.4222 84.6272C42.4222 84.6876 42.3959 84.7095 42.3235 84.7095C42.2444 84.7095 42.2247 84.7301 42.2247 84.8123C42.2247 84.9068 42.2102 84.9152 42.0469 84.9152C41.8955 84.9152 41.8691 84.9273 41.8691 84.9974C41.8691 85.0535 41.8428 85.0797 41.7864 85.0797C41.738 85.0797 41.6955 85.1126 41.6838 85.159C41.6703 85.2128 41.6157 85.2468 41.5144 85.2646C41.38 85.2883 41.3627 85.3057 41.342 85.4385C41.3151 85.6115 41.3336 85.6555 41.4334 85.6555C41.4881 85.6555 41.5134 85.6973 41.5333 85.8201C41.5536 85.9449 41.5782 85.9846 41.6356 85.9846C41.6836 85.9846 41.7111 86.0132 41.7111 86.0632C41.7111 86.1229 41.7492 86.1486 41.8691 86.1697C41.9867 86.1904 42.0272 86.2169 42.0272 86.2732C42.0272 86.3205 42.0606 86.354 42.116 86.3622C42.1732 86.3706 42.2094 86.4084 42.2176 86.4679C42.2257 86.5273 42.2574 86.5604 42.3065 86.5604C42.3564 86.5604 42.3827 86.5888 42.3827 86.6427C42.3827 86.7128 42.4091 86.7249 42.5605 86.7249C42.7238 86.7249 42.7383 86.7333 42.7383 86.8278C42.7383 86.91 42.758 86.9306 42.837 86.9306C42.9095 86.9306 42.9358 86.9525 42.9358 87.0129C42.9358 87.0814 42.9622 87.0951 43.0938 87.0951C43.2255 87.0951 43.2519 87.1088 43.2519 87.1774C43.2519 87.2475 43.2782 87.2596 43.4296 87.2596C43.5771 87.2596 43.6074 87.2728 43.6074 87.3368C43.6074 87.4197 43.7424 87.4653 43.9877 87.4653C44.0946 87.4653 44.121 87.4815 44.121 87.5476C44.121 87.6215 44.1473 87.6298 44.3815 87.6298C44.6024 87.6298 44.6449 87.6415 44.6612 87.7064C44.6834 87.7946 44.9611 87.8347 45.5531 87.8352C45.8723 87.8354 45.8988 87.8418 45.8988 87.9177C45.8988 87.9935 45.9251 88 46.2346 88C46.544 88 46.5704 87.9935 46.5704 87.9177C46.5704 87.845 46.5968 87.8354 46.7975 87.8353C46.9225 87.8351 47.198 87.8231 47.4099 87.8085C47.749 87.7851 47.7951 87.7728 47.7951 87.7059C47.7951 87.6397 47.8284 87.6298 48.0518 87.6298C48.2823 87.6298 48.3086 87.6214 48.3086 87.5476C48.3086 87.4772 48.335 87.4653 48.4901 87.4653C48.6386 87.4653 48.6754 87.4503 48.6923 87.3827C48.7069 87.3245 48.7583 87.2927 48.8664 87.2747C48.9812 87.2555 49.0197 87.2298 49.0197 87.1721C49.0197 87.1083 49.0501 87.0951 49.1975 87.0951C49.3468 87.0951 49.3753 87.0824 49.3753 87.0157C49.3753 86.9647 49.4071 86.9316 49.4642 86.9232C49.5213 86.9147 49.5576 86.877 49.5657 86.8175C49.5764 86.7395 49.6027 86.7249 49.7336 86.7249C49.8649 86.7249 49.8889 86.7116 49.8889 86.6388C49.8889 86.5887 49.9204 86.5441 49.9643 86.5322C50.0057 86.5209 50.0485 86.4764 50.0593 86.4332C50.0708 86.3875 50.1136 86.3548 50.1617 86.3548C50.2194 86.3548 50.2444 86.3286 50.2444 86.2686C50.2444 86.2182 50.276 86.1739 50.3206 86.1618C50.3728 86.1476 50.405 86.0905 50.4229 85.9805C50.4425 85.8594 50.4674 85.8201 50.5245 85.8201C50.5787 85.8201 50.6 85.7911 50.6 85.7172C50.6 85.6434 50.6213 85.6144 50.6755 85.6144C50.7329 85.6144 50.7575 85.5747 50.7778 85.4499C50.798 85.325 50.8227 85.2853 50.88 85.2853C50.9432 85.2853 50.9556 85.2551 50.9556 85.1003C50.9556 84.9426 50.9672 84.9152 51.0346 84.9152C51.098 84.9152 51.1136 84.8877 51.1136 84.7764C51.1136 84.5597 51.1582 84.3805 51.2121 84.3805C51.2864 84.3805 51.3102 84.1409 51.3107 83.3891C51.3113 82.483 51.2836 82.2133 51.1873 82.1871C51.1288 82.1712 51.1136 82.128 51.1136 81.9782C51.1136 81.8166 51.1021 81.7892 51.0346 81.7892C50.9687 81.7892 50.9556 81.7618 50.9556 81.6247C50.9556 81.4909 50.9416 81.4602 50.881 81.4602C50.823 81.4602 50.8006 81.4192 50.7798 81.2751C50.7588 81.1289 50.7371 81.09 50.6766 81.09C50.6212 81.09 50.6 81.0615 50.6 80.9871C50.6 80.9118 50.5789 80.8843 50.521 80.8843C50.4683 80.8843 50.442 80.8569 50.442 80.8021C50.442 80.7417 50.4156 80.7198 50.3432 80.7198C50.2642 80.7198 50.2444 80.6992 50.2444 80.617C50.2444 80.5416 50.2234 80.5141 50.1654 80.5141C50.1128 80.5141 50.0864 80.4867 50.0864 80.4319C50.0864 80.3715 50.0601 80.3496 49.9877 80.3496C49.9152 80.3496 49.8889 80.3277 49.8889 80.2674C49.8889 80.2125 49.8625 80.1851 49.8099 80.1851C49.7582 80.1851 49.7309 80.1577 49.7309 80.1057C49.7309 80.0547 49.6991 80.0216 49.642 80.0132C49.5848 80.0047 49.5486 79.9669 49.5404 79.9075C49.5298 79.8294 49.5035 79.8149 49.3725 79.8149C49.2468 79.8149 49.2173 79.8002 49.2173 79.7373C49.2173 79.6769 49.178 79.6536 49.0395 79.632C48.8991 79.61 48.8617 79.5875 48.8617 79.5245C48.8617 79.4574 48.8335 79.4447 48.6839 79.4447C48.5361 79.4447 48.5062 79.4317 48.5062 79.3672C48.5062 79.3067 48.4669 79.2834 48.3284 79.2618C48.2166 79.2443 48.1506 79.213 48.1506 79.1774C48.1506 79.1418 48.0846 79.1104 47.9728 79.093C47.8344 79.0713 47.7951 79.0481 47.7951 78.9876C47.7951 78.9195 47.7636 78.91 47.5383 78.91C47.3138 78.91 47.2815 78.9004 47.2815 78.8332C47.2815 78.7547 47.1275 78.7059 46.8765 78.7048C46.7944 78.7045 46.7679 78.6843 46.7679 78.6221C46.7679 78.5483 46.7415 78.5398 46.5111 78.5398C46.2807 78.5398 46.2543 78.5314 46.2543 78.4576C46.2543 78.3895 46.228 78.3753 46.1012 78.3753C45.8367 78.3753 45.7012 78.3318 45.7012 78.2468C45.7012 78.1828 45.6709 78.1697 45.5235 78.1697C45.372 78.1697 45.3457 78.1575 45.3457 78.0874C45.3457 78.0173 45.3193 78.0051 45.1679 78.0051C45.0192 78.0051 44.9901 77.9923 44.9901 77.9265C44.9901 77.8668 44.952 77.8412 44.8321 77.8201C44.7122 77.799 44.6741 77.7733 44.6741 77.7136C44.6741 77.6571 44.6462 77.635 44.5753 77.635C44.5044 77.635 44.4765 77.6128 44.4765 77.5563C44.4765 77.4969 44.4388 77.471 44.3224 77.4506C44.2168 77.432 44.162 77.3985 44.1483 77.3441C44.1366 77.2976 44.0941 77.2648 44.0457 77.2648C43.9702 77.2648 43.963 77.2413 43.963 76.9974C43.963 76.7575 43.9549 76.7301 43.8839 76.7301C43.826 76.7301 43.8049 76.7026 43.8049 76.6272C43.8049 76.5519 43.826 76.5244 43.8839 76.5244C43.9549 76.5244 43.963 76.497 43.963 76.2571C43.963 76.0172 43.9711 75.9897 44.042 75.9897C44.0958 75.9897 44.121 75.9623 44.121 75.9036C44.121 75.8535 44.1525 75.8089 44.1964 75.797C44.2378 75.7857 44.2806 75.7412 44.2914 75.698C44.3029 75.6523 44.3457 75.6195 44.3938 75.6195C44.4502 75.6195 44.4765 75.5933 44.4765 75.5373C44.4765 75.4769 44.5029 75.455 44.5753 75.455C44.6462 75.455 44.6741 75.4328 44.6741 75.3764C44.6741 75.317 44.7118 75.2911 44.8282 75.2706C44.9338 75.252 44.9887 75.2185 45.0023 75.1642C45.02 75.0936 45.0597 75.0848 45.3617 75.0848C45.6749 75.0848 45.7012 75.0785 45.7012 75.0026C45.7012 74.9244 45.7276 74.9203 46.2346 74.9203C46.7415 74.9203 46.7679 74.9244 46.7679 75.0026C46.7679 75.0784 46.7942 75.0848 47.1037 75.0848C47.4053 75.0848 47.4395 75.0926 47.4395 75.1617C47.4395 75.2402 47.5935 75.289 47.8444 75.29C47.9266 75.2904 47.9531 75.3106 47.9531 75.3728C47.9531 75.4428 47.9794 75.455 48.1309 75.455C48.2823 75.455 48.3086 75.4672 48.3086 75.5373C48.3086 75.5976 48.335 75.6195 48.4074 75.6195C48.4864 75.6195 48.5062 75.6401 48.5062 75.7224C48.5062 75.8149 48.522 75.8252 48.6642 75.8252C48.7959 75.8252 48.8222 75.8389 48.8222 75.9075C48.8222 75.9715 48.8486 75.9897 48.9407 75.9897C49.0329 75.9897 49.0593 75.9715 49.0593 75.9075C49.0593 75.8389 49.0856 75.8252 49.2173 75.8252C49.3595 75.8252 49.3753 75.8149 49.3753 75.7224C49.3753 75.6401 49.3951 75.6195 49.4741 75.6195C49.5465 75.6195 49.5728 75.5976 49.5728 75.5373C49.5728 75.4687 49.5992 75.455 49.7309 75.455C49.8625 75.455 49.8889 75.4413 49.8889 75.3728C49.8889 75.3124 49.9152 75.2905 49.9877 75.2905C50.0586 75.2905 50.0864 75.2683 50.0864 75.2118C50.0864 75.1521 50.1245 75.1265 50.2444 75.1054C50.3644 75.0843 50.4025 75.0587 50.4025 74.999C50.4025 74.9425 50.4303 74.9203 50.5012 74.9203C50.5726 74.9203 50.6 74.8982 50.6 74.8406C50.6 74.7776 50.6374 74.755 50.7778 74.7331C50.9162 74.7114 50.9556 74.6882 50.9556 74.6277C50.9556 74.5776 50.9835 74.5501 51.0346 74.5501C51.0925 74.5501 51.1136 74.5227 51.1136 74.4473C51.1136 74.3719 51.0925 74.3445 51.0346 74.3445C50.9819 74.3445 50.9556 74.317 50.9556 74.2622C50.9556 74.2084 50.9292 74.1799 50.8793 74.1799C50.8303 74.1799 50.7985 74.1469 50.7904 74.0874C50.7823 74.0279 50.746 73.9902 50.6889 73.9817C50.6318 73.9733 50.6 73.9402 50.6 73.8892C50.6 73.8372 50.5727 73.8098 50.521 73.8098C50.4693 73.8098 50.442 73.7823 50.442 73.7304C50.442 73.6793 50.4102 73.6463 50.3531 73.6378C50.296 73.6294 50.2597 73.5916 50.2516 73.5321C50.2435 73.4727 50.2117 73.4396 50.1627 73.4396C50.1128 73.4396 50.0864 73.4112 50.0864 73.3573C50.0864 73.2872 50.0601 73.2751 49.9086 73.2751C49.7454 73.2751 49.7309 73.2667 49.7309 73.1722C49.7309 73.09 49.7111 73.0694 49.6321 73.0694C49.5597 73.0694 49.5333 73.0475 49.5333 72.9871C49.5333 72.9186 49.507 72.9049 49.3753 72.9049C49.2436 72.9049 49.2173 72.8912 49.2173 72.8226C49.2173 72.7527 49.1909 72.7404 49.0423 72.7404C48.8908 72.7404 48.8655 72.7279 48.8546 72.6478C48.8441 72.5709 48.8136 72.5531 48.6741 72.5426C48.5383 72.5324 48.5062 72.5147 48.5062 72.4501C48.5062 72.3791 48.4773 72.3702 48.2457 72.3702C48.0247 72.3702 47.9823 72.3585 47.9659 72.2934C47.9455 72.2122 47.69 72.1645 47.2757 72.1645C47.1103 72.1645 47.0839 72.1532 47.0839 72.0823C47.0839 72.0025 47.0576 72 46.2148 72C45.372 72 45.3457 72.0025 45.3457 72.0823ZM61.0691 72.0823C61.0691 72.1569 61.0427 72.1646 60.7827 72.165C60.4136 72.1656 60.2 72.2032 60.2 72.2676C60.2 72.3305 60.0223 72.3702 59.7407 72.3702C59.5547 72.3702 59.5284 72.3804 59.5284 72.4524C59.5284 72.5228 59.502 72.5347 59.3469 72.5347C59.2021 72.5347 59.1615 72.5504 59.1459 72.6126C59.1259 72.6922 58.9855 72.7404 58.7728 72.7404C58.6856 72.7404 58.6593 72.7594 58.6593 72.8226C58.6593 72.8803 58.6327 72.9051 58.5704 72.9055C58.4195 72.9064 58.3037 72.9529 58.3037 73.0125C58.3037 73.0458 58.2627 73.0694 58.2049 73.0694C58.1259 73.0694 58.1062 73.09 58.1062 73.1722C58.1062 73.2667 58.0917 73.2751 57.9284 73.2751C57.777 73.2751 57.7506 73.2872 57.7506 73.3573C57.7506 73.4134 57.7243 73.4396 57.6679 73.4396C57.6183 73.4396 57.5769 73.4727 57.5645 73.5221C57.5498 73.5803 57.4985 73.6122 57.3904 73.6302C57.2756 73.6494 57.237 73.6751 57.237 73.7328C57.237 73.7814 57.2089 73.8098 57.1608 73.8098C57.1118 73.8098 57.08 73.8428 57.0719 73.9023C57.0638 73.9618 57.0275 73.9995 56.9704 74.008C56.9132 74.0165 56.8815 74.0495 56.8815 74.1006C56.8815 74.1578 56.8539 74.1799 56.7827 74.1799C56.7123 74.1799 56.6839 74.2022 56.6839 74.2574C56.6839 74.3003 56.6487 74.3445 56.6049 74.3564C56.5576 74.3693 56.5259 74.4125 56.5259 74.464C56.5259 74.5227 56.5008 74.5501 56.4469 74.5501C56.3952 74.5501 56.3679 74.5776 56.3679 74.6295C56.3679 74.6806 56.3361 74.7136 56.279 74.7221C56.2219 74.7305 56.1856 74.7683 56.1775 74.8278C56.1694 74.8872 56.1376 74.9203 56.0886 74.9203C56.0387 74.9203 56.0123 74.9487 56.0123 75.0026C56.0123 75.0558 55.986 75.0848 55.9378 75.0848C55.8798 75.0848 55.8574 75.1258 55.8366 75.2699C55.8156 75.4161 55.7939 75.455 55.7334 75.455C55.678 75.455 55.6568 75.4835 55.6568 75.5578C55.6568 75.6317 55.6355 75.6607 55.5812 75.6607C55.5239 75.6607 55.4993 75.7003 55.479 75.8252C55.4587 75.9501 55.4341 75.9897 55.3768 75.9897C55.3136 75.9897 55.3012 76.02 55.3012 76.1748C55.3012 76.3288 55.2887 76.3599 55.2267 76.3599C55.1686 76.3599 55.1463 76.4008 55.1255 76.545C55.1044 76.6912 55.0828 76.7301 55.0223 76.7301C54.9578 76.7301 54.9457 76.7594 54.9457 76.9152C54.9457 77.0728 54.934 77.1003 54.8667 77.1003C54.7957 77.1003 54.7876 77.1277 54.7876 77.3676C54.7876 77.6019 54.7785 77.635 54.7133 77.635C54.6486 77.635 54.6354 77.6798 54.6113 77.9807C54.5879 78.2732 54.572 78.3295 54.5079 78.347C54.4348 78.3669 54.4321 78.4254 54.4321 79.9961C54.4321 81.5592 54.4351 81.6247 54.5059 81.6247C54.5899 81.6247 54.6285 81.7887 54.6292 82.1491C54.6296 82.3375 54.6397 82.365 54.7086 82.365C54.7795 82.365 54.7876 82.3925 54.7876 82.6324C54.7876 82.867 54.7968 82.8997 54.8622 82.8997C54.9202 82.8997 54.9426 82.9407 54.9634 83.0848C54.9844 83.231 55.0061 83.2699 55.0666 83.2699C55.131 83.2699 55.1432 83.2993 55.1432 83.455C55.1432 83.609 55.1557 83.6401 55.2177 83.6401C55.2758 83.6401 55.2981 83.681 55.3189 83.8252C55.34 83.9714 55.3617 84.0103 55.4222 84.0103C55.4775 84.0103 55.4988 84.0388 55.4988 84.1131C55.4988 84.1885 55.5198 84.2159 55.5778 84.2159C55.6436 84.2159 55.6568 84.2434 55.6568 84.3805C55.6568 84.5156 55.6704 84.545 55.733 84.545C55.7821 84.545 55.8138 84.5781 55.8219 84.6375C55.8301 84.697 55.8663 84.7348 55.9235 84.7432C55.9984 84.7543 56.0123 84.7817 56.0123 84.918C56.0123 85.0547 56.0251 85.0797 56.0951 85.0797C56.1432 85.0797 56.186 85.1125 56.1975 85.1582C56.2083 85.2013 56.2511 85.2459 56.2925 85.2571C56.3364 85.2691 56.3679 85.3136 56.3679 85.3637C56.3679 85.4224 56.3931 85.4499 56.4469 85.4499C56.4986 85.4499 56.5259 85.4773 56.5259 85.5293C56.5259 85.5803 56.5577 85.6134 56.6148 85.6218C56.6719 85.6303 56.7082 85.668 56.7163 85.7275C56.7244 85.787 56.7562 85.8201 56.8052 85.8201C56.8551 85.8201 56.8815 85.8485 56.8815 85.9023C56.8815 85.9627 56.9078 85.9846 56.9802 85.9846C57.0512 85.9846 57.079 86.0067 57.079 86.0632C57.079 86.1229 57.1171 86.1486 57.237 86.1697C57.357 86.1908 57.3951 86.2164 57.3951 86.2761C57.3951 86.3326 57.4229 86.3548 57.4938 86.3548C57.5647 86.3548 57.5926 86.3769 57.5926 86.4334C57.5926 86.4931 57.6307 86.5187 57.7506 86.5398C57.8706 86.5609 57.9086 86.5866 57.9086 86.6463C57.9086 86.7028 57.9365 86.7249 58.0074 86.7249C58.0778 86.7249 58.1062 86.7472 58.1062 86.8025C58.1062 86.863 58.1455 86.8863 58.2839 86.9079C58.4243 86.9298 58.4617 86.9524 58.4617 87.0154C58.4617 87.0824 58.4899 87.0951 58.6395 87.0951C58.7909 87.0951 58.8173 87.1073 58.8173 87.1774C58.8173 87.2462 58.8436 87.2596 58.979 87.2596C59.1044 87.2596 59.1451 87.2771 59.1603 87.3375C59.1809 87.4196 59.3213 87.4653 59.5531 87.4653C59.6601 87.4653 59.6864 87.4815 59.6864 87.5476C59.6864 87.6234 59.7128 87.6298 60.0259 87.6298C60.3233 87.6298 60.3678 87.6393 60.3846 87.7061C60.401 87.7713 60.4592 87.7862 60.7858 87.8087C61.2785 87.8427 62.9062 87.8427 63.2518 87.8087C63.4229 87.7918 63.5185 87.7643 63.5185 87.7318C63.5185 87.6681 63.6983 87.6298 63.9975 87.6298C64.2033 87.6298 64.2296 87.6205 64.2296 87.5476C64.2296 87.4737 64.256 87.4653 64.4864 87.4653C64.7112 87.4653 64.7432 87.4557 64.7432 87.3882C64.7432 87.3053 64.8782 87.2596 65.1234 87.2596C65.2278 87.2596 65.2568 87.2428 65.2568 87.1821C65.2568 87.1216 65.2961 87.0983 65.4346 87.0767C65.575 87.0548 65.6123 87.0322 65.6123 86.9692C65.6123 86.9115 65.6397 86.8895 65.7111 86.8895C65.7835 86.8895 65.8099 86.8675 65.8099 86.8072C65.8099 86.7386 65.8362 86.7249 65.9679 86.7249C66.0996 86.7249 66.1259 86.7112 66.1259 86.6427C66.1259 86.5823 66.1523 86.5604 66.2247 86.5604C66.2956 86.5604 66.3234 86.5382 66.3234 86.4818C66.3234 86.422 66.3615 86.3964 66.4815 86.3753C66.6014 86.3542 66.6395 86.3286 66.6395 86.2689C66.6395 86.2124 66.6673 86.1902 66.7383 86.1902C66.8095 86.1902 66.837 86.1681 66.837 86.1108C66.837 86.0598 66.8688 86.0267 66.9259 86.0183C66.983 86.0098 67.0193 85.9721 67.0274 85.9126C67.0355 85.8531 67.0673 85.8201 67.1163 85.8201C67.1653 85.8201 67.1926 85.7917 67.1926 85.7407C67.1926 85.6896 67.2243 85.6566 67.2815 85.6481C67.3386 85.6396 67.3749 85.6019 67.383 85.5424C67.3911 85.4829 67.4229 85.4499 67.4719 85.4499C67.5218 85.4499 67.5481 85.4214 67.5481 85.3676C67.5481 85.3138 67.5745 85.2853 67.6244 85.2853C67.6734 85.2853 67.7052 85.2523 67.7133 85.1928C67.7214 85.1333 67.7577 85.0956 67.8148 85.0871C67.8719 85.0787 67.9037 85.0456 67.9037 84.9946C67.9037 84.9426 67.931 84.9152 67.9827 84.9152C68.0407 84.9152 68.0617 84.8877 68.0617 84.8123C68.0617 84.7385 68.083 84.7095 68.1373 84.7095C68.1946 84.7095 68.2192 84.6699 68.2395 84.545C68.2598 84.4201 68.2844 84.3805 68.3417 84.3805C68.396 84.3805 68.4173 84.3515 68.4173 84.2776C68.4173 84.2032 68.4385 84.1748 68.494 84.1748C68.5561 84.1748 68.5731 84.1413 68.5829 84C68.593 83.8547 68.6101 83.823 68.6839 83.812C68.7589 83.801 68.7728 83.7736 68.7728 83.6372C68.7728 83.503 68.7862 83.4756 68.8518 83.4756C68.9192 83.4756 68.9309 83.4481 68.9309 83.2905C68.9309 83.1359 68.9433 83.1054 69.0062 83.1054C69.0666 83.1054 69.0868 83.0647 69.1086 82.8997C69.1253 82.7739 69.1556 82.6941 69.1867 82.6941C69.2541 82.6941 69.2852 82.5615 69.2859 82.2725C69.2863 82.0636 69.2956 82.036 69.3654 82.036C69.4352 82.036 69.4445 82.0084 69.4449 81.7995C69.4455 81.4729 69.485 81.2545 69.5434 81.2545C69.6253 81.2545 69.642 81.0413 69.6415 80.0051C69.6411 78.9531 69.6222 78.7044 69.543 78.7044C69.4778 78.7044 69.4444 78.5146 69.4444 78.144C69.4444 77.8681 69.4373 77.8406 69.3654 77.8406C69.2939 77.8406 69.2864 77.8132 69.2864 77.5527C69.2864 77.298 69.2778 77.2648 69.2119 77.2648C69.1538 77.2648 69.1315 77.2239 69.1107 77.0797C69.0896 76.9335 69.0679 76.8946 69.0075 76.8946C68.9402 76.8946 68.9309 76.8646 68.9309 76.6478C68.9309 76.4334 68.9211 76.401 68.8563 76.401C68.7985 76.401 68.7759 76.3604 68.7558 76.2203C68.7369 76.089 68.7085 76.0337 68.6525 76.0184C68.6069 76.006 68.5753 75.9622 68.5753 75.9113C68.5753 75.8544 68.5501 75.8252 68.5008 75.8252C68.4427 75.8252 68.4204 75.7843 68.3996 75.6401C68.3785 75.4939 68.3568 75.455 68.2963 75.455C68.2461 75.455 68.2197 75.4267 68.2197 75.3728C68.2197 75.3179 68.1934 75.2905 68.1407 75.2905C68.0828 75.2905 68.0617 75.2631 68.0617 75.1877C68.0617 75.1138 68.0404 75.0848 67.9862 75.0848C67.9288 75.0848 67.9042 75.0452 67.8839 74.9203C67.8637 74.7954 67.8391 74.7558 67.7817 74.7558C67.7275 74.7558 67.7062 74.7268 67.7062 74.653C67.7062 74.576 67.6853 74.5501 67.6234 74.5501C67.5753 74.5501 67.5325 74.5173 67.521 74.4717C67.5102 74.4285 67.4674 74.384 67.426 74.3727C67.3821 74.3608 67.3506 74.3162 67.3506 74.2661C67.3506 74.2074 67.3254 74.1799 67.2716 74.1799C67.2189 74.1799 67.1926 74.1525 67.1926 74.0977C67.1926 74.0373 67.1662 74.0154 67.0938 74.0154C67.0229 74.0154 66.9951 73.9933 66.9951 73.9368C66.9951 73.8771 66.957 73.8514 66.837 73.8303C66.7171 73.8092 66.679 73.7836 66.679 73.7239C66.679 73.6674 66.6511 73.6452 66.5802 73.6452C66.5012 73.6452 66.4815 73.6247 66.4815 73.5424C66.4815 73.4602 66.4617 73.4396 66.3827 73.4396C66.3103 73.4396 66.2839 73.4177 66.2839 73.3573C66.2839 73.2888 66.2576 73.2751 66.1259 73.2751C65.9959 73.2751 65.9679 73.2609 65.9679 73.1953C65.9679 73.1323 65.9305 73.1098 65.7901 73.0878C65.6516 73.0662 65.6123 73.0429 65.6123 72.9825C65.6123 72.9194 65.5828 72.9049 65.4543 72.9049C65.3262 72.9049 65.2963 72.8903 65.2963 72.8279C65.2963 72.7666 65.2561 72.7454 65.0988 72.7237C64.9376 72.7014 64.9012 72.6815 64.9012 72.6156C64.9012 72.5442 64.8735 72.5347 64.6642 72.5347C64.4535 72.5347 64.4272 72.5256 64.4272 72.4524C64.4272 72.378 64.4008 72.3702 64.1506 72.3702C63.9069 72.3702 63.8741 72.361 63.8741 72.2933C63.8741 72.1995 63.7149 72.1656 63.2716 72.165C62.9919 72.1646 62.9654 72.1574 62.9654 72.0823C62.9654 72.0023 62.9391 72 62.0173 72C61.0955 72 61.0691 72.0023 61.0691 72.0823ZM97.7308 72.0823C97.7308 72.1604 97.7045 72.1645 97.2033 72.1645C96.4596 72.1645 96.2015 72.1969 96.1773 72.2934C96.1604 72.3608 96.1167 72.3702 95.8185 72.3702C95.5053 72.3702 95.479 72.3766 95.479 72.4524C95.479 72.5225 95.4526 72.5347 95.3012 72.5347C95.1537 72.5347 95.1234 72.5478 95.1234 72.6118C95.1234 72.6947 94.9885 72.7404 94.7432 72.7404C94.6362 72.7404 94.6099 72.7566 94.6099 72.8226C94.6099 72.8927 94.5835 72.9049 94.4321 72.9049C94.2834 72.9049 94.2543 72.9178 94.2543 72.9835C94.2543 73.0432 94.2162 73.0689 94.0963 73.09C93.9763 73.1111 93.9382 73.1367 93.9382 73.1964C93.9382 73.2564 93.9101 73.2751 93.8197 73.2751C93.7294 73.2751 93.7012 73.2937 93.7012 73.3537C93.7012 73.4134 93.6631 73.4391 93.5432 73.4602C93.4232 73.4813 93.3852 73.5069 93.3852 73.5666C93.3852 73.6231 93.3573 73.6452 93.2864 73.6452C93.214 73.6452 93.1876 73.6672 93.1876 73.7275C93.1876 73.7823 93.1613 73.8098 93.1086 73.8098C93.0569 73.8098 93.0296 73.8372 93.0296 73.8892C93.0296 73.9402 92.9978 73.9733 92.9407 73.9817C92.8836 73.9902 92.8473 74.0279 92.8392 74.0874C92.8286 74.1654 92.8022 74.1799 92.6713 74.1799C92.532 74.1799 92.516 74.1905 92.516 74.2828C92.516 74.3582 92.495 74.3856 92.437 74.3856C92.3844 74.3856 92.358 74.413 92.358 74.4679C92.358 74.527 92.3317 74.5501 92.2643 74.5501C92.186 74.5501 92.1666 74.5764 92.1461 74.7098C92.1287 74.8223 92.0981 74.8758 92.0422 74.891C91.9947 74.904 91.9629 74.9471 91.9629 74.9987C91.9629 75.0574 91.9378 75.0848 91.8839 75.0848C91.826 75.0848 91.8049 75.1123 91.8049 75.1877C91.8049 75.2631 91.7839 75.2905 91.7259 75.2905C91.6732 75.2905 91.6469 75.3179 91.6469 75.3728C91.6469 75.4267 91.6205 75.455 91.5703 75.455C91.5098 75.455 91.4881 75.4939 91.4671 75.6401C91.4468 75.7806 91.4232 75.8252 91.3693 75.8252C91.3175 75.8252 91.2912 75.8687 91.2723 75.9857C91.2544 76.0956 91.2222 76.1527 91.17 76.1669C91.1194 76.1807 91.0938 76.2236 91.0938 76.2943C91.0938 76.3736 91.0735 76.401 91.0148 76.401C90.9446 76.401 90.9358 76.4285 90.9358 76.6478C90.9358 76.8646 90.9265 76.8946 90.8592 76.8946C90.7989 76.8946 90.777 76.9333 90.7565 77.076C90.7378 77.2056 90.7089 77.2632 90.6553 77.2778C90.5911 77.2953 90.5802 77.3375 90.5802 77.5694C90.5802 77.8132 90.5722 77.8406 90.5012 77.8406C90.432 77.8406 90.4222 77.8681 90.4222 78.0617C90.4222 78.3548 90.3841 78.5398 90.3237 78.5398C90.2426 78.5398 90.2255 78.793 90.2255 80C90.2255 81.207 90.2426 81.4602 90.3237 81.4602C90.3854 81.4602 90.4222 81.6465 90.4222 81.9589C90.4222 82.1731 90.4312 82.2005 90.5012 82.2005C90.5721 82.2005 90.5802 82.2279 90.5802 82.4679C90.5802 82.7078 90.5883 82.7352 90.6592 82.7352C90.719 82.7352 90.7384 82.7628 90.7387 82.8483C90.7397 83.1096 90.7866 83.2699 90.8619 83.2699C90.9231 83.2699 90.9358 83.3017 90.9358 83.455C90.9358 83.6098 90.9481 83.6401 91.0113 83.6401C91.0684 83.6401 91.0933 83.6794 91.1129 83.8006C91.1307 83.9105 91.1629 83.9676 91.2151 83.9818C91.2598 83.994 91.2913 84.0383 91.2913 84.0887C91.2913 84.1474 91.3165 84.1748 91.3703 84.1748C91.4377 84.1748 91.4494 84.2022 91.4494 84.3599C91.4494 84.5299 91.4574 84.545 91.5481 84.545C91.6271 84.545 91.6469 84.5656 91.6469 84.6478C91.6469 84.7232 91.6679 84.7506 91.7259 84.7506C91.7918 84.7506 91.8049 84.7781 91.8049 84.9152C91.8049 85.0632 91.8148 85.0797 91.9037 85.0797C91.9761 85.0797 92.0024 85.1016 92.0024 85.162C92.0024 85.2168 92.0288 85.2442 92.0815 85.2442C92.1394 85.2442 92.1605 85.2717 92.1605 85.347C92.1605 85.4224 92.1815 85.4499 92.2395 85.4499C92.2912 85.4499 92.3185 85.4773 92.3185 85.5293C92.3185 85.5803 92.3503 85.6134 92.4074 85.6218C92.4645 85.6303 92.5008 85.668 92.5089 85.7275C92.517 85.787 92.5488 85.8201 92.5978 85.8201C92.6477 85.8201 92.6741 85.8485 92.6741 85.9023C92.6741 85.9627 92.7004 85.9846 92.7728 85.9846C92.8437 85.9846 92.8716 86.0067 92.8716 86.0632C92.8716 86.1229 92.9097 86.1486 93.0296 86.1697C93.1495 86.1908 93.1876 86.2164 93.1876 86.2761C93.1876 86.3326 93.2155 86.3548 93.2864 86.3548C93.3654 86.3548 93.3852 86.3753 93.3852 86.4576C93.3852 86.5398 93.4049 86.5604 93.4839 86.5604C93.5563 86.5604 93.5827 86.5823 93.5827 86.6427C93.5827 86.7112 93.609 86.7249 93.7407 86.7249C93.8707 86.7249 93.8987 86.7391 93.8987 86.8047C93.8987 86.8677 93.9361 86.8902 94.0765 86.9122C94.215 86.9338 94.2543 86.9571 94.2543 87.0175C94.2543 87.0806 94.2838 87.0951 94.4123 87.0951C94.5404 87.0951 94.5703 87.1097 94.5703 87.1721C94.5703 87.2334 94.6106 87.2546 94.7679 87.2763C94.929 87.2986 94.9654 87.3185 94.9654 87.3844C94.9654 87.4565 94.9933 87.4653 95.2222 87.4653C95.4526 87.4653 95.479 87.4737 95.479 87.5476C95.479 87.6214 95.5053 87.6298 95.7358 87.6298C95.9595 87.6298 95.9926 87.6396 95.9926 87.7061C95.9926 87.7703 96.0349 87.7866 96.2592 87.8087C96.4059 87.8231 96.637 87.835 96.7728 87.8352C96.9933 87.8354 97.0197 87.8443 97.0197 87.9177C97.0197 87.9973 97.0461 88 97.8296 88C98.6131 88 98.6395 87.9973 98.6395 87.9177C98.6395 87.8443 98.6659 87.8354 98.8864 87.8352C99.0222 87.835 99.2533 87.8231 99.4 87.8087C99.6243 87.7866 99.6666 87.7703 99.6666 87.7061C99.6666 87.6378 99.7017 87.6298 100.002 87.6298C100.312 87.6298 100.338 87.6234 100.338 87.5476C100.338 87.4772 100.365 87.4653 100.52 87.4653C100.667 87.4653 100.705 87.45 100.721 87.3849C100.736 87.3266 100.789 87.2971 100.915 87.2774C101.05 87.2564 101.089 87.2329 101.089 87.1727C101.089 87.1093 101.118 87.0951 101.251 87.0951C101.377 87.0951 101.417 87.0778 101.432 87.0158C101.446 86.9614 101.501 86.9279 101.606 86.9093C101.723 86.8889 101.76 86.863 101.76 86.8036C101.76 86.7378 101.79 86.7249 101.938 86.7249C102.09 86.7249 102.116 86.7128 102.116 86.6427C102.116 86.5888 102.142 86.5604 102.192 86.5604C102.241 86.5604 102.273 86.5273 102.281 86.4679C102.292 86.391 102.322 86.3732 102.462 86.3627C102.597 86.3525 102.63 86.3347 102.63 86.2701C102.63 86.2186 102.657 86.1902 102.706 86.1902C102.755 86.1902 102.787 86.1572 102.795 86.0977C102.803 86.0382 102.839 86.0005 102.896 85.992C102.953 85.9836 102.985 85.9505 102.985 85.8994C102.985 85.8484 103.012 85.8201 103.061 85.8201C103.11 85.8201 103.142 85.787 103.15 85.7275C103.158 85.668 103.195 85.6303 103.252 85.6218C103.309 85.6134 103.341 85.5803 103.341 85.5293C103.341 85.4773 103.368 85.4499 103.42 85.4499C103.472 85.4499 103.499 85.4224 103.499 85.3676C103.499 85.3138 103.525 85.2853 103.575 85.2853C103.624 85.2853 103.656 85.2523 103.664 85.1928C103.672 85.1333 103.708 85.0956 103.765 85.0871C103.84 85.0761 103.854 85.0486 103.854 84.9152C103.854 84.7818 103.869 84.7543 103.943 84.7432C104 84.7348 104.037 84.697 104.045 84.6375C104.053 84.5781 104.085 84.545 104.134 84.545C104.189 84.545 104.21 84.5163 104.21 84.4422C104.21 84.3668 104.231 84.3393 104.289 84.3393C104.354 84.3393 104.368 84.3119 104.368 84.1777C104.368 84.0413 104.382 84.0139 104.457 84.0029C104.531 83.9919 104.548 83.9602 104.558 83.8149C104.568 83.6736 104.585 83.6401 104.647 83.6401C104.711 83.6401 104.723 83.6109 104.723 83.455C104.723 83.2993 104.736 83.2699 104.8 83.2699C104.861 83.2699 104.882 83.231 104.903 83.0848C104.924 82.9407 104.946 82.8997 105.004 82.8997C105.07 82.8997 105.079 82.867 105.079 82.6324C105.079 82.3925 105.087 82.365 105.158 82.365C105.227 82.365 105.237 82.3375 105.237 82.1491C105.238 81.8416 105.279 81.6247 105.336 81.6247C105.421 81.6247 105.435 81.4054 105.435 80.0823C105.435 78.7557 105.421 78.5398 105.335 78.5398C105.3 78.5398 105.276 78.4259 105.257 78.1697C105.232 77.8442 105.22 77.7995 105.154 77.7995C105.088 77.7995 105.079 77.7671 105.079 77.5321C105.079 77.2922 105.071 77.2648 105 77.2648C104.94 77.2648 104.921 77.2372 104.921 77.1517C104.92 76.8904 104.873 76.7301 104.797 76.7301C104.736 76.7301 104.723 76.6983 104.723 76.545C104.723 76.3915 104.711 76.3599 104.649 76.3599C104.594 76.3599 104.569 76.3198 104.551 76.2002C104.534 76.0877 104.503 76.0342 104.447 76.019C104.4 76.006 104.368 75.9629 104.368 75.9113C104.368 75.8526 104.343 75.8252 104.289 75.8252C104.222 75.8252 104.21 75.7978 104.21 75.6401C104.21 75.4701 104.202 75.455 104.111 75.455C104.032 75.455 104.012 75.4344 104.012 75.3522C104.012 75.2768 103.991 75.2494 103.933 75.2494C103.881 75.2494 103.854 75.2219 103.854 75.1671C103.854 75.1135 103.828 75.0848 103.779 75.0848C103.721 75.0848 103.697 75.0452 103.677 74.9203C103.656 74.7954 103.632 74.7558 103.574 74.7558C103.52 74.7558 103.499 74.7268 103.499 74.653C103.499 74.5776 103.478 74.5501 103.42 74.5501C103.368 74.5501 103.341 74.5227 103.341 74.4707C103.341 74.4197 103.309 74.3866 103.252 74.3782C103.195 74.3697 103.158 74.332 103.15 74.2725C103.142 74.213 103.11 74.1799 103.061 74.1799C103.013 74.1799 102.985 74.1516 102.985 74.103C102.985 74.0453 102.947 74.0195 102.832 74.0004C102.724 73.9824 102.672 73.9505 102.658 73.8923C102.645 73.8428 102.604 73.8098 102.554 73.8098C102.498 73.8098 102.472 73.7836 102.472 73.7275C102.472 73.6672 102.445 73.6452 102.373 73.6452C102.302 73.6452 102.274 73.6231 102.274 73.5666C102.274 73.5069 102.236 73.4813 102.116 73.4602C101.996 73.4391 101.958 73.4134 101.958 73.3537C101.958 73.2972 101.93 73.2751 101.859 73.2751C101.789 73.2751 101.76 73.2528 101.76 73.1975C101.76 73.137 101.721 73.1137 101.583 73.0921C101.442 73.0702 101.405 73.0476 101.405 72.9846C101.405 72.9176 101.377 72.9049 101.227 72.9049C101.076 72.9049 101.049 72.8927 101.049 72.8226C101.049 72.7538 101.023 72.7404 100.888 72.7404C100.762 72.7404 100.722 72.7229 100.706 72.6625C100.686 72.5804 100.545 72.5347 100.314 72.5347C100.207 72.5347 100.18 72.5185 100.18 72.4524C100.18 72.3766 100.154 72.3702 99.8407 72.3702C99.5426 72.3702 99.4989 72.3608 99.4819 72.2934C99.4577 72.1969 99.1996 72.1645 98.4559 72.1645C97.9547 72.1645 97.9284 72.1604 97.9284 72.0823C97.9284 72.0219 97.902 72 97.8296 72C97.7572 72 97.7308 72.0219 97.7308 72.0823ZM113.099 72.0823C113.099 72.1586 113.072 72.1646 112.733 72.165C112.231 72.1656 112.072 72.1966 112.072 72.2933C112.072 72.361 112.039 72.3702 111.795 72.3702C111.545 72.3702 111.518 72.378 111.518 72.4524C111.518 72.5156 111.492 72.5347 111.405 72.5347C111.192 72.5347 111.052 72.5828 111.032 72.6625C111.019 72.7137 110.977 72.7404 110.91 72.7404C110.834 72.7404 110.807 72.7615 110.807 72.8226C110.807 72.8912 110.781 72.9049 110.649 72.9049C110.52 72.9049 110.491 72.9192 110.491 72.9835C110.491 73.0432 110.453 73.0689 110.333 73.09C110.213 73.1111 110.175 73.1367 110.175 73.1964C110.175 73.2529 110.147 73.2751 110.077 73.2751C110.005 73.2751 109.978 73.2972 109.978 73.3544C109.978 73.4055 109.946 73.4386 109.889 73.447C109.832 73.4555 109.795 73.4932 109.787 73.5527C109.779 73.6122 109.747 73.6452 109.698 73.6452C109.649 73.6452 109.622 73.6737 109.622 73.7275C109.622 73.7813 109.596 73.8098 109.546 73.8098C109.497 73.8098 109.465 73.8428 109.457 73.9023C109.449 73.9618 109.413 73.9995 109.356 74.008C109.281 74.0191 109.267 74.0465 109.267 74.1828C109.267 74.317 109.253 74.3445 109.188 74.3445C109.13 74.3445 109.109 74.3719 109.109 74.4473C109.109 74.5216 109.087 74.5501 109.032 74.5501C108.972 74.5501 108.95 74.589 108.929 74.7352C108.908 74.8794 108.886 74.9203 108.828 74.9203C108.769 74.9203 108.753 74.9505 108.753 75.0591C108.753 75.2758 108.708 75.455 108.655 75.455C108.577 75.455 108.556 75.7013 108.556 76.6478C108.556 77.5943 108.577 77.8406 108.655 77.8406C108.706 77.8406 108.753 78.0181 108.753 78.2159C108.753 78.3044 108.772 78.3342 108.828 78.3342C108.885 78.3342 108.908 78.3748 108.928 78.515C108.947 78.6462 108.975 78.7015 109.031 78.7168C109.077 78.7292 109.109 78.7731 109.109 78.8239C109.109 78.8826 109.134 78.91 109.188 78.91C109.246 78.91 109.267 78.9375 109.267 79.0129C109.267 79.0882 109.288 79.1157 109.346 79.1157C109.398 79.1157 109.425 79.1431 109.425 79.1979C109.425 79.2518 109.451 79.2802 109.501 79.2802C109.55 79.2802 109.582 79.3133 109.59 79.3728C109.598 79.4322 109.634 79.47 109.691 79.4785C109.748 79.4869 109.78 79.52 109.78 79.571C109.78 79.6229 109.808 79.6504 109.859 79.6504C109.912 79.6504 109.938 79.6778 109.938 79.7326C109.938 79.793 109.965 79.8149 110.037 79.8149C110.108 79.8149 110.136 79.837 110.136 79.8943C110.136 79.9453 110.168 79.9784 110.225 79.9868C110.282 79.9953 110.318 80.0331 110.326 80.0925C110.337 80.1706 110.363 80.1851 110.494 80.1851C110.62 80.1851 110.649 80.1998 110.649 80.2627C110.649 80.3231 110.689 80.3464 110.827 80.368C110.968 80.39 111.005 80.4125 111.005 80.4755C111.005 80.5426 111.033 80.5553 111.183 80.5553C111.334 80.5553 111.36 80.5674 111.36 80.6375C111.36 80.7064 111.387 80.7198 111.522 80.7198C111.649 80.7198 111.688 80.7369 111.704 80.8002C111.719 80.8585 111.772 80.888 111.898 80.9077C112.033 80.9287 112.072 80.9522 112.072 81.0124C112.072 81.0805 112.103 81.09 112.328 81.09C112.559 81.09 112.585 81.0984 112.585 81.1722C112.585 81.2383 112.612 81.2545 112.718 81.2545C112.964 81.2545 113.099 81.3001 113.099 81.383C113.099 81.4505 113.131 81.4602 113.356 81.4602C113.586 81.4602 113.612 81.4686 113.612 81.5424C113.612 81.6117 113.639 81.6248 113.78 81.6253C114.016 81.626 114.116 81.6611 114.138 81.7519C114.154 81.8147 114.194 81.8303 114.339 81.8303C114.495 81.8303 114.521 81.8423 114.521 81.9126C114.521 81.9815 114.547 81.9949 114.683 81.9949C114.809 81.9949 114.849 82.0121 114.864 82.0742C114.878 82.1285 114.933 82.1621 115.038 82.1806C115.155 82.2011 115.193 82.227 115.193 82.2864C115.193 82.3429 115.22 82.365 115.291 82.365C115.362 82.365 115.39 82.3872 115.39 82.4437C115.39 82.5031 115.428 82.529 115.545 82.5496C115.688 82.5748 115.702 82.5891 115.726 82.7383C115.746 82.8603 115.771 82.8997 115.828 82.8997C115.899 82.8997 115.904 82.9357 115.904 83.455C115.904 83.9828 115.9 84.0103 115.825 84.0103C115.773 84.0103 115.746 84.0377 115.746 84.0897C115.746 84.1407 115.714 84.1738 115.657 84.1822C115.6 84.1907 115.563 84.2284 115.555 84.2879C115.547 84.3474 115.515 84.3805 115.466 84.3805C115.416 84.3805 115.39 84.4089 115.39 84.4627C115.39 84.5231 115.364 84.545 115.291 84.545C115.221 84.545 115.193 84.5672 115.193 84.6226C115.193 84.683 115.153 84.7063 115.015 84.7279C114.874 84.7499 114.837 84.7724 114.837 84.8354C114.837 84.9081 114.807 84.9152 114.501 84.9152C114.192 84.9152 114.165 84.9216 114.165 84.9974C114.165 85.0756 114.139 85.0797 113.632 85.0797C113.125 85.0797 113.099 85.0756 113.099 84.9974C113.099 84.9216 113.072 84.9152 112.763 84.9152C112.461 84.9152 112.427 84.9074 112.427 84.8383C112.427 84.7598 112.273 84.711 112.022 84.71C111.94 84.7096 111.914 84.6894 111.914 84.6272C111.914 84.5572 111.887 84.545 111.736 84.545C111.584 84.545 111.558 84.5328 111.558 84.4627C111.558 84.4024 111.532 84.3805 111.459 84.3805C111.38 84.3805 111.36 84.3599 111.36 84.2776C111.36 84.1832 111.346 84.1748 111.183 84.1748C111.031 84.1748 111.005 84.1626 111.005 84.0925C111.005 84.024 110.979 84.0103 110.847 84.0103C110.715 84.0103 110.689 84.024 110.689 84.0925C110.689 84.1529 110.663 84.1748 110.59 84.1748C110.519 84.1748 110.491 84.1969 110.491 84.2546C110.491 84.3175 110.454 84.3401 110.314 84.362C110.175 84.3837 110.136 84.407 110.136 84.4674C110.136 84.5176 110.108 84.545 110.057 84.545C110.006 84.545 109.978 84.5724 109.978 84.6226C109.978 84.683 109.938 84.7063 109.8 84.7279C109.66 84.7499 109.622 84.7724 109.622 84.8354C109.622 84.8931 109.595 84.9152 109.523 84.9152C109.453 84.9152 109.425 84.9373 109.425 84.9938C109.425 85.0532 109.387 85.0791 109.271 85.0996C109.165 85.1182 109.11 85.1517 109.096 85.206C109.085 85.2525 109.042 85.2853 108.994 85.2853C108.937 85.2853 108.911 85.3115 108.911 85.3676C108.911 85.4224 108.885 85.4499 108.832 85.4499C108.774 85.4499 108.753 85.4773 108.753 85.5527C108.753 85.6281 108.774 85.6555 108.832 85.6555C108.885 85.6555 108.911 85.683 108.911 85.7378C108.911 85.7914 108.937 85.8201 108.987 85.8201C109.044 85.8201 109.069 85.8595 109.088 85.9815C109.113 86.1307 109.126 86.145 109.27 86.1702C109.384 86.1904 109.425 86.2171 109.425 86.2732C109.425 86.3205 109.458 86.354 109.514 86.3622C109.571 86.3706 109.607 86.4084 109.615 86.4679C109.623 86.5273 109.655 86.5604 109.704 86.5604C109.754 86.5604 109.78 86.5888 109.78 86.6427C109.78 86.703 109.807 86.7249 109.879 86.7249C109.95 86.7249 109.978 86.747 109.978 86.8047C109.978 86.8677 110.015 86.8902 110.156 86.9122C110.294 86.9338 110.333 86.9571 110.333 87.0175C110.333 87.0806 110.363 87.0951 110.491 87.0951C110.62 87.0951 110.649 87.1096 110.649 87.1727C110.649 87.2329 110.688 87.2564 110.823 87.2774C110.949 87.2971 111.002 87.3266 111.017 87.3849C111.033 87.4481 111.072 87.4653 111.199 87.4653C111.334 87.4653 111.36 87.4787 111.36 87.5476C111.36 87.622 111.387 87.6298 111.637 87.6298C111.883 87.6298 111.914 87.6385 111.914 87.7083C111.914 87.7801 111.958 87.7894 112.427 87.8165C112.893 87.8432 112.941 87.8532 112.941 87.923C112.941 87.9954 112.983 88 113.652 88C114.321 88 114.363 87.9955 114.363 87.9227C114.363 87.8528 114.41 87.8426 114.853 87.8159C115.289 87.7898 115.346 87.7778 115.363 87.7082C115.38 87.6411 115.42 87.6298 115.643 87.6298C115.872 87.6298 115.904 87.6204 115.904 87.5522C115.904 87.4918 115.943 87.4685 116.081 87.4469C116.222 87.4249 116.259 87.4024 116.259 87.3394C116.259 87.2738 116.287 87.2596 116.417 87.2596C116.549 87.2596 116.575 87.2459 116.575 87.1774C116.575 87.1163 116.602 87.0951 116.678 87.0951C116.746 87.0951 116.787 87.0684 116.8 87.0158C116.814 86.9614 116.869 86.9279 116.974 86.9093C117.091 86.8889 117.128 86.863 117.128 86.8036C117.128 86.7524 117.156 86.7249 117.207 86.7249C117.26 86.7249 117.286 86.6975 117.286 86.6427C117.286 86.5823 117.313 86.5604 117.385 86.5604C117.464 86.5604 117.484 86.5398 117.484 86.4576C117.484 86.3822 117.505 86.3548 117.563 86.3548C117.615 86.3548 117.642 86.3273 117.642 86.2754C117.642 86.2243 117.674 86.1913 117.731 86.1828C117.788 86.1744 117.824 86.1366 117.832 86.0771C117.84 86.0176 117.872 85.9846 117.921 85.9846C117.984 85.9846 117.997 85.9552 117.997 85.8229C117.997 85.6866 118.011 85.6592 118.086 85.6481C118.144 85.6396 118.18 85.6019 118.188 85.5424C118.196 85.4829 118.228 85.4499 118.277 85.4499C118.341 85.4499 118.353 85.4202 118.353 85.2648C118.353 85.1071 118.365 85.0797 118.432 85.0797C118.495 85.0797 118.511 85.0523 118.511 84.9409C118.511 84.6855 118.555 84.545 118.635 84.545C118.702 84.545 118.709 84.5075 118.709 84.0925C118.709 83.6675 118.713 83.6401 118.788 83.6401C118.859 83.6401 118.867 83.6127 118.867 83.3728C118.867 83.1328 118.859 83.1054 118.788 83.1054C118.713 83.1054 118.709 83.078 118.709 82.6491C118.709 82.236 118.702 82.1909 118.634 82.1725C118.557 82.1516 118.511 82.0054 118.511 81.7841C118.511 81.6932 118.493 81.6658 118.432 81.6658C118.377 81.6658 118.353 81.6382 118.353 81.5733C118.352 81.4081 118.308 81.3037 118.231 81.2827C118.187 81.2708 118.156 81.2262 118.156 81.1761C118.156 81.1174 118.13 81.09 118.077 81.09C118.019 81.09 117.997 81.0625 117.997 80.9871C117.997 80.9118 117.976 80.8843 117.918 80.8843C117.866 80.8843 117.839 80.8569 117.839 80.8021C117.839 80.7482 117.813 80.7198 117.763 80.7198C117.714 80.7198 117.682 80.6867 117.674 80.6272C117.666 80.5678 117.63 80.53 117.573 80.5215C117.516 80.5131 117.484 80.48 117.484 80.429C117.484 80.3771 117.457 80.3496 117.405 80.3496C117.352 80.3496 117.326 80.3222 117.326 80.2674C117.326 80.207 117.3 80.1851 117.227 80.1851C117.155 80.1851 117.128 80.1632 117.128 80.1028C117.128 80.0468 117.102 80.0206 117.046 80.0206C116.996 80.0206 116.955 79.9875 116.942 79.938C116.928 79.8798 116.876 79.8479 116.768 79.8299C116.657 79.8115 116.615 79.7843 116.615 79.7321C116.615 79.6779 116.57 79.6528 116.437 79.632C116.297 79.61 116.259 79.5875 116.259 79.5245C116.259 79.4574 116.231 79.4447 116.081 79.4447C115.93 79.4447 115.904 79.4326 115.904 79.3625C115.904 79.2936 115.877 79.2802 115.742 79.2802C115.615 79.2802 115.576 79.2631 115.56 79.1998C115.545 79.1415 115.492 79.112 115.366 79.0923C115.232 79.0713 115.193 79.0478 115.193 78.9876C115.193 78.9195 115.161 78.91 114.936 78.91C114.705 78.91 114.679 78.9016 114.679 78.8278C114.679 78.7656 114.653 78.7454 114.57 78.745C114.333 78.7441 114.172 78.695 114.153 78.6173C114.136 78.5513 114.095 78.5398 113.873 78.5398C113.639 78.5398 113.612 78.5315 113.612 78.4576C113.612 78.3916 113.586 78.3753 113.479 78.3753C113.234 78.3753 113.099 78.3297 113.099 78.2468C113.099 78.1828 113.068 78.1697 112.921 78.1697C112.77 78.1697 112.743 78.1575 112.743 78.0874C112.743 78.0173 112.717 78.0051 112.565 78.0051C112.417 78.0051 112.388 77.9923 112.388 77.9265C112.388 77.8668 112.35 77.8412 112.23 77.8201C112.11 77.799 112.072 77.7733 112.072 77.7136C112.072 77.6478 112.042 77.635 111.894 77.635C111.731 77.635 111.716 77.6266 111.716 77.5321C111.716 77.4583 111.695 77.4293 111.64 77.4293C111.583 77.4293 111.559 77.3897 111.538 77.2648C111.518 77.1399 111.493 77.1003 111.436 77.1003C111.366 77.1003 111.36 77.0662 111.361 76.6581C111.362 76.143 111.38 76.0459 111.483 76.0179C111.527 76.006 111.558 75.9614 111.558 75.9113C111.558 75.8526 111.583 75.8252 111.637 75.8252C111.695 75.8252 111.716 75.7978 111.716 75.7224C111.716 75.647 111.737 75.6195 111.795 75.6195C111.848 75.6195 111.874 75.5921 111.874 75.5373C111.874 75.4769 111.9 75.455 111.973 75.455C112.045 75.455 112.072 75.4331 112.072 75.3728C112.072 75.3106 112.098 75.2904 112.18 75.29C112.431 75.289 112.585 75.2402 112.585 75.1617C112.585 75.0913 112.622 75.0848 113.02 75.0848C113.428 75.0848 113.454 75.0799 113.454 75.0026C113.454 74.9287 113.481 74.9203 113.711 74.9203C113.942 74.9203 113.968 74.9287 113.968 75.0026C113.968 75.0785 113.994 75.0849 114.314 75.0854C114.705 75.086 114.837 75.112 114.837 75.1886C114.837 75.2211 114.914 75.2526 115.035 75.2699C115.193 75.2926 115.232 75.3137 115.232 75.3766C115.232 75.4421 115.261 75.455 115.41 75.455C115.561 75.455 115.588 75.4672 115.588 75.5373C115.588 75.6058 115.614 75.6195 115.746 75.6195C115.888 75.6195 115.904 75.6298 115.904 75.7224C115.904 75.8168 115.918 75.8252 116.081 75.8252C116.233 75.8252 116.259 75.8374 116.259 75.9075C116.259 75.9775 116.286 75.9897 116.437 75.9897C116.588 75.9897 116.615 75.9775 116.615 75.9075C116.615 75.8514 116.641 75.8252 116.698 75.8252C116.747 75.8252 116.788 75.7921 116.801 75.7426C116.816 75.6844 116.867 75.6526 116.975 75.6345C117.09 75.6154 117.128 75.5897 117.128 75.532C117.128 75.4773 117.157 75.455 117.227 75.455C117.298 75.455 117.326 75.4328 117.326 75.3764C117.326 75.3166 117.364 75.291 117.484 75.2699C117.604 75.2488 117.642 75.2232 117.642 75.1635C117.642 75.107 117.67 75.0848 117.741 75.0848C117.813 75.0848 117.839 75.0629 117.839 75.0026C117.839 74.9343 117.866 74.9203 117.995 74.9203C118.126 74.9203 118.152 74.9058 118.163 74.8278C118.171 74.7683 118.207 74.7305 118.264 74.7221C118.321 74.7136 118.353 74.6806 118.353 74.6295C118.353 74.5776 118.38 74.5501 118.432 74.5501C118.49 74.5501 118.511 74.5227 118.511 74.4473C118.511 74.3719 118.49 74.3445 118.432 74.3445C118.379 74.3445 118.353 74.317 118.353 74.2622C118.353 74.2084 118.327 74.1799 118.277 74.1799C118.228 74.1799 118.196 74.1469 118.188 74.0874C118.18 74.0279 118.144 73.9902 118.086 73.9817C118.029 73.9733 117.997 73.9402 117.997 73.8892C117.997 73.8372 117.97 73.8098 117.918 73.8098C117.867 73.8098 117.839 73.7823 117.839 73.7304C117.839 73.6793 117.808 73.6463 117.751 73.6378C117.693 73.6294 117.657 73.5916 117.649 73.5321C117.641 73.4727 117.609 73.4396 117.56 73.4396C117.51 73.4396 117.484 73.4112 117.484 73.3573C117.484 73.2872 117.458 73.2751 117.306 73.2751C117.143 73.2751 117.128 73.2667 117.128 73.1722C117.128 73.09 117.109 73.0694 117.03 73.0694C116.957 73.0694 116.931 73.0475 116.931 72.9871C116.931 72.9186 116.904 72.9049 116.773 72.9049C116.641 72.9049 116.615 72.8912 116.615 72.8226C116.615 72.7525 116.588 72.7404 116.437 72.7404C116.29 72.7404 116.259 72.7272 116.259 72.6632C116.259 72.5803 116.124 72.5347 115.879 72.5347C115.772 72.5347 115.746 72.5185 115.746 72.4524C115.746 72.3785 115.719 72.3702 115.485 72.3702C115.263 72.3702 115.222 72.3588 115.205 72.2923C115.18 72.1917 115.042 72.1645 114.556 72.1645C114.192 72.1645 114.165 72.159 114.165 72.0823C114.165 72.0041 114.139 72 113.632 72C113.125 72 113.099 72.0041 113.099 72.0823ZM73.9876 79.8149V87.2596H75.3111H76.6346V83.1648V79.0698L76.8025 79.0825C76.942 79.093 76.9725 79.1107 76.983 79.1877C76.9911 79.2471 77.0229 79.2802 77.0719 79.2802C77.1218 79.2802 77.1481 79.3086 77.1481 79.3625C77.1481 79.4185 77.1745 79.4447 77.2309 79.4447C77.279 79.4447 77.3218 79.4775 77.3333 79.5232C77.3441 79.5664 77.3869 79.6109 77.4283 79.6222C77.4709 79.6338 77.5037 79.6786 77.5037 79.7252C77.5037 79.789 77.5385 79.8138 77.6578 79.8348C77.7634 79.8534 77.8183 79.8869 77.8319 79.9412C77.8436 79.9877 77.8861 80.0206 77.9345 80.0206C77.9909 80.0206 78.0173 80.0468 78.0173 80.1028C78.0173 80.1567 78.0436 80.1851 78.0935 80.1851C78.1425 80.1851 78.1743 80.2182 78.1824 80.2776C78.1905 80.3371 78.2268 80.3749 78.2839 80.3833C78.3411 80.3918 78.3728 80.4248 78.3728 80.4759C78.3728 80.5278 78.4001 80.5553 78.4518 80.5553C78.5045 80.5553 78.5308 80.5827 78.5308 80.6375C78.5308 80.6914 78.5572 80.7198 78.6071 80.7198C78.6561 80.7198 78.6879 80.7529 78.696 80.8123C78.7041 80.8718 78.7404 80.9096 78.7975 80.918C78.8546 80.9265 78.8864 80.9595 78.8864 81.0106C78.8864 81.0625 78.9137 81.09 78.9654 81.09C79.0181 81.09 79.0444 81.1174 79.0444 81.1722C79.0444 81.2326 79.0708 81.2545 79.1432 81.2545C79.2222 81.2545 79.242 81.2751 79.242 81.3573C79.242 81.4327 79.263 81.4602 79.321 81.4602C79.3736 81.4602 79.4 81.4876 79.4 81.5424C79.4 81.6028 79.4263 81.6247 79.4987 81.6247C79.57 81.6247 79.5975 81.6468 79.5975 81.7041C79.5975 81.7551 79.6293 81.7882 79.6864 81.7966C79.7421 81.8049 79.7798 81.8428 79.7874 81.8982C79.7961 81.9618 79.8364 81.9938 79.9312 82.0123C80.0163 82.0289 80.0701 82.0667 80.0833 82.1193C80.0954 82.1675 80.1372 82.2005 80.1864 82.2005C80.2428 82.2005 80.2691 82.2267 80.2691 82.2828C80.2691 82.3366 80.2955 82.365 80.3454 82.365C80.3944 82.365 80.4262 82.3981 80.4343 82.4576C80.4424 82.5171 80.4787 82.5548 80.5358 82.5633C80.5929 82.5717 80.6247 82.6048 80.6247 82.6558C80.6247 82.7078 80.652 82.7352 80.7037 82.7352C80.7563 82.7352 80.7827 82.7627 80.7827 82.8175C80.7827 82.8778 80.8091 82.8997 80.8815 82.8997C80.9605 82.8997 80.9802 82.9203 80.9802 83.0026C80.9802 83.078 81.0013 83.1054 81.0592 83.1054C81.1119 83.1054 81.1383 83.1328 81.1383 83.1877C81.1383 83.248 81.1646 83.2699 81.237 83.2699C81.3094 83.2699 81.3358 83.2918 81.3358 83.3522C81.3358 83.407 81.3621 83.4344 81.4148 83.4344C81.4728 83.4344 81.4938 83.4619 81.4938 83.5373C81.4938 83.6195 81.5136 83.6401 81.5926 83.6401C81.665 83.6401 81.6913 83.662 81.6913 83.7224C81.6913 83.7762 81.7177 83.8046 81.7676 83.8046C81.8166 83.8046 81.8484 83.8377 81.8565 83.8972C81.8646 83.9566 81.9009 83.9944 81.958 84.0029C82.0151 84.0113 82.0469 84.0444 82.0469 84.0954C82.0469 84.1474 82.0742 84.1748 82.1259 84.1748C82.1776 84.1748 82.2049 84.2022 82.2049 84.2542C82.2049 84.3052 82.2367 84.3383 82.2938 84.3467C82.3509 84.3552 82.3872 84.393 82.3953 84.4524C82.406 84.5305 82.4323 84.545 82.5632 84.545C82.6945 84.545 82.7185 84.5583 82.7185 84.6311C82.7185 84.6826 82.7502 84.7258 82.7975 84.7387C82.8412 84.7506 82.8765 84.7948 82.8765 84.8377C82.8765 84.8929 82.9049 84.9152 82.9753 84.9152C83.0477 84.9152 83.0741 84.9371 83.0741 84.9974C83.0741 85.0513 83.1004 85.0797 83.1503 85.0797C83.1993 85.0797 83.2311 85.1128 83.2392 85.1722C83.2473 85.2317 83.2836 85.2695 83.3407 85.2779C83.3979 85.2864 83.4296 85.3194 83.4296 85.3705C83.4296 85.4224 83.4569 85.4499 83.5086 85.4499C83.5603 85.4499 83.5876 85.4773 83.5876 85.5293C83.5876 85.5803 83.6194 85.6134 83.6765 85.6218C83.7337 85.6303 83.7699 85.668 83.7781 85.7275C83.7862 85.787 83.8179 85.8201 83.8669 85.8201C83.9159 85.8201 83.9432 85.8484 83.9432 85.8994C83.9432 85.9505 83.975 85.9836 84.0321 85.992C84.0892 86.0005 84.1255 86.0382 84.1336 86.0977C84.1417 86.1572 84.1735 86.1902 84.2225 86.1902C84.2724 86.1902 84.2987 86.2187 84.2987 86.2725C84.2987 86.3286 84.3251 86.3548 84.3815 86.3548C84.4309 86.3548 84.4725 86.3878 84.4848 86.437C84.4963 86.4825 84.5387 86.5193 84.5799 86.5193C84.6329 86.5193 84.6543 86.5488 84.6543 86.6221C84.6543 86.7144 84.6703 86.7249 84.8096 86.7249C84.9405 86.7249 84.9668 86.7395 84.9775 86.8175C84.9856 86.877 85.0219 86.9147 85.079 86.9232C85.1361 86.9316 85.1679 86.9647 85.1679 87.0157C85.1679 87.0677 85.1952 87.0951 85.2469 87.0951C85.2986 87.0951 85.3259 87.1226 85.3259 87.1745C85.3259 87.2255 85.3577 87.2586 85.4148 87.267C85.4719 87.2755 85.5082 87.3133 85.5163 87.3728C85.5244 87.4322 85.5562 87.4653 85.6052 87.4653C85.6551 87.4653 85.6815 87.4937 85.6815 87.5476C85.6815 87.6079 85.7078 87.6298 85.7802 87.6298H85.879L85.8784 80.1954C85.8782 76.1064 85.8672 72.7193 85.8541 72.6684L85.8303 72.5758H84.5312C83.2584 72.5758 83.2321 72.5775 83.2321 72.6581C83.2321 72.7129 83.2057 72.7404 83.1531 72.7404C83.0746 72.7404 83.0741 72.7678 83.0741 76.8329C83.0741 80.8489 83.0726 80.9254 82.9978 80.9254C82.9488 80.9254 82.917 80.8924 82.9089 80.8329C82.9008 80.7734 82.8645 80.7357 82.8074 80.7272C82.7503 80.7188 82.7185 80.6857 82.7185 80.6347C82.7185 80.5827 82.6912 80.5553 82.6395 80.5553C82.5878 80.5553 82.5605 80.5278 82.5605 80.4759C82.5605 80.4248 82.5287 80.3918 82.4716 80.3833C82.4145 80.3749 82.3782 80.3371 82.3701 80.2776C82.362 80.2182 82.3302 80.1851 82.2812 80.1851C82.2313 80.1851 82.2049 80.1567 82.2049 80.1028C82.2049 80.0468 82.1786 80.0206 82.1222 80.0206C82.0726 80.0206 82.0312 79.9875 82.0188 79.938C82.0042 79.8798 81.9528 79.8479 81.8447 79.8299C81.7165 79.8086 81.6913 79.7883 81.6913 79.7068C81.6913 79.6387 81.6689 79.6093 81.6169 79.6093C81.5757 79.6093 81.5333 79.5725 81.5219 79.527C81.5095 79.4778 81.468 79.4447 81.4185 79.4447C81.3621 79.4447 81.3358 79.4185 81.3358 79.3625C81.3358 79.3086 81.3094 79.2802 81.2595 79.2802C81.2105 79.2802 81.1787 79.2471 81.1706 79.1877C81.1625 79.1282 81.1262 79.0904 81.0691 79.082C81.012 79.0735 80.9802 79.0405 80.9802 78.9894C80.9802 78.9384 80.953 78.91 80.904 78.91C80.855 78.91 80.8232 78.877 80.8151 78.8175C80.807 78.758 80.7707 78.7202 80.7136 78.7118C80.6564 78.7033 80.6247 78.6703 80.6247 78.6192C80.6247 78.5673 80.5974 78.5398 80.5457 78.5398C80.493 78.5398 80.4666 78.5124 80.4666 78.4576C80.4666 78.3972 80.4403 78.3753 80.3679 78.3753C80.2889 78.3753 80.2691 78.3548 80.2691 78.2725C80.2691 78.1971 80.2481 78.1697 80.1901 78.1697C80.1374 78.1697 80.1111 78.1422 80.1111 78.0874C80.1111 78.0271 80.0847 78.0051 80.0123 78.0051C79.9399 78.0051 79.9136 77.9832 79.9136 77.9229C79.9136 77.8681 79.8872 77.8406 79.8346 77.8406C79.7766 77.8406 79.7555 77.8132 79.7555 77.7378C79.7555 77.6555 79.7358 77.635 79.6568 77.635C79.5859 77.635 79.558 77.6128 79.558 77.5563C79.558 77.4966 79.5199 77.471 79.4 77.4499C79.28 77.4288 79.242 77.4031 79.242 77.3434C79.242 77.2932 79.2145 77.2648 79.1657 77.2648C79.1167 77.2648 79.0849 77.2317 79.0768 77.1722C79.0687 77.1128 79.0324 77.075 78.9753 77.0665C78.9182 77.0581 78.8864 77.025 78.8864 76.974C78.8864 76.922 78.8591 76.8946 78.8074 76.8946C78.7547 76.8946 78.7284 76.8672 78.7284 76.8123C78.7284 76.752 78.702 76.7301 78.6296 76.7301C78.5506 76.7301 78.5308 76.7095 78.5308 76.6272C78.5308 76.5519 78.5098 76.5244 78.4518 76.5244C78.3992 76.5244 78.3728 76.497 78.3728 76.4422C78.3728 76.3818 78.3465 76.3599 78.2741 76.3599C78.2016 76.3599 78.1753 76.338 78.1753 76.2776C78.1753 76.2228 78.1489 76.1954 78.0963 76.1954C78.0383 76.1954 78.0173 76.1679 78.0173 76.0925C78.0173 76.0103 77.9975 75.9897 77.9185 75.9897C77.8461 75.9897 77.8197 75.9678 77.8197 75.9075C77.8197 75.8526 77.7934 75.8252 77.7407 75.8252C77.689 75.8252 77.6617 75.7978 77.6617 75.7458C77.6617 75.6948 77.63 75.6617 77.5728 75.6533C77.5157 75.6448 77.4794 75.607 77.4713 75.5476C77.4632 75.4881 77.4314 75.455 77.3824 75.455C77.3325 75.455 77.3062 75.4266 77.3062 75.3728C77.3062 75.3167 77.2798 75.2905 77.2234 75.2905C77.1753 75.2905 77.1325 75.2577 77.121 75.212C77.1102 75.1689 77.0674 75.1243 77.026 75.1131C76.9834 75.1015 76.9506 75.0566 76.9506 75.0101C76.9506 74.9459 76.9156 74.9214 76.7926 74.8997C76.6726 74.8786 76.6346 74.853 76.6346 74.7933C76.6346 74.7368 76.6067 74.7147 76.5358 74.7147C76.4634 74.7147 76.437 74.6927 76.437 74.6324C76.437 74.5786 76.4107 74.5501 76.3608 74.5501C76.3117 74.5501 76.28 74.5171 76.2719 74.4576C76.2637 74.3981 76.2275 74.3604 76.1704 74.3519C76.1132 74.3434 76.0815 74.3104 76.0815 74.2593C76.0815 74.2074 76.0542 74.1799 76.0025 74.1799C75.9507 74.1799 75.9234 74.1525 75.9234 74.1006C75.9234 74.0495 75.8917 74.0165 75.8346 74.008C75.7774 73.9995 75.7412 73.9618 75.733 73.9023C75.7249 73.8428 75.6932 73.8098 75.6441 73.8098C75.5942 73.8098 75.5679 73.7813 75.5679 73.7275C75.5679 73.6737 75.5415 73.6452 75.4916 73.6452C75.4426 73.6452 75.4108 73.6122 75.4027 73.5527C75.3946 73.4932 75.3583 73.4555 75.3012 73.447C75.2441 73.4386 75.2123 73.4055 75.2123 73.3544C75.2123 73.3025 75.185 73.2751 75.1333 73.2751C75.0807 73.2751 75.0543 73.2476 75.0543 73.1928C75.0543 73.1325 75.028 73.1105 74.9555 73.1105C74.8765 73.1105 74.8568 73.09 74.8568 73.0077C74.8568 72.9323 74.8357 72.9049 74.7778 72.9049C74.7251 72.9049 74.6987 72.8774 74.6987 72.8226C74.6987 72.7623 74.6724 72.7404 74.6 72.7404C74.5291 72.7404 74.5012 72.7182 74.5012 72.6617C74.5012 72.602 74.4631 72.5764 74.3432 72.5553C74.2233 72.5342 74.1852 72.5085 74.1852 72.4488C74.1852 72.3923 74.1573 72.3702 74.0864 72.3702H73.9876V79.8149ZM63.0049 75.0026C63.0049 75.0764 63.0313 75.0848 63.2617 75.0848C63.4862 75.0848 63.5185 75.0945 63.5185 75.1617C63.5185 75.2402 63.6725 75.289 63.9234 75.29C64.0056 75.2904 64.0321 75.3106 64.0321 75.3728C64.0321 75.4428 64.0584 75.455 64.2099 75.455C64.3613 75.455 64.3876 75.4672 64.3876 75.5373C64.3876 75.5933 64.414 75.6195 64.4704 75.6195C64.5188 75.6195 64.5613 75.6524 64.573 75.6989C64.5866 75.7532 64.6415 75.7867 64.7471 75.8053C64.8635 75.8258 64.9012 75.8517 64.9012 75.9111C64.9012 75.9675 64.9291 75.9897 65 75.9897C65.079 75.9897 65.0988 76.0103 65.0988 76.0925C65.0988 76.1679 65.1198 76.1954 65.1778 76.1954C65.2304 76.1954 65.2568 76.2228 65.2568 76.2776C65.2568 76.338 65.2831 76.3599 65.3555 76.3599C65.428 76.3599 65.4543 76.3818 65.4543 76.4422C65.4543 76.497 65.4807 76.5244 65.5333 76.5244C65.5913 76.5244 65.6123 76.5519 65.6123 76.6272C65.6123 76.7014 65.6336 76.7301 65.6886 76.7301C65.7376 76.7301 65.7694 76.7631 65.7775 76.8226C65.7856 76.8821 65.8219 76.9199 65.879 76.9283C65.9539 76.9394 65.9679 76.9668 65.9679 77.1031C65.9679 77.2373 65.9813 77.2648 66.0469 77.2648C66.1007 77.2648 66.1259 77.2922 66.1259 77.3509C66.1259 77.4017 66.1575 77.4456 66.2031 77.458C66.2592 77.4733 66.2875 77.5286 66.3064 77.6598C66.3266 77.8 66.3492 77.8406 66.407 77.8406C66.4718 77.8406 66.4815 77.8731 66.4815 78.0913C66.4815 78.3026 66.4932 78.3451 66.5563 78.3622C66.6426 78.3858 66.679 78.5315 66.679 78.8535C66.679 79.0471 66.6888 79.0746 66.758 79.0746C66.8347 79.0746 66.837 79.102 66.837 80C66.837 80.898 66.8347 80.9254 66.758 80.9254C66.6888 80.9254 66.679 80.9529 66.679 81.1465C66.679 81.4823 66.6423 81.6247 66.5555 81.6247C66.4941 81.6247 66.4815 81.6562 66.4815 81.8098C66.4815 81.9674 66.4698 81.9949 66.4025 81.9949C66.3351 81.9949 66.3234 82.0223 66.3234 82.1799C66.3234 82.3357 66.3113 82.365 66.2468 82.365C66.1864 82.365 66.1647 82.4039 66.1436 82.5501C66.1228 82.6943 66.1005 82.7352 66.0424 82.7352C65.9893 82.7352 65.9679 82.7647 65.9679 82.838C65.9679 82.9119 65.9466 82.9409 65.8924 82.9409C65.835 82.9409 65.8104 82.9805 65.7901 83.1054C65.7698 83.2303 65.7452 83.2699 65.6879 83.2699C65.6387 83.2699 65.6123 83.2986 65.6123 83.3522C65.6123 83.406 65.586 83.4344 65.5361 83.4344C65.4871 83.4344 65.4553 83.4675 65.4472 83.527C65.4391 83.5865 65.4028 83.6242 65.3457 83.6327C65.2885 83.6411 65.2568 83.6742 65.2568 83.7252C65.2568 83.7784 65.2294 83.8046 65.1741 83.8046C65.1245 83.8046 65.0831 83.8377 65.0706 83.8872C65.056 83.9454 65.0047 83.9773 64.8966 83.9953C64.7818 84.0144 64.7432 84.0401 64.7432 84.0978C64.7432 84.1485 64.715 84.1748 64.6605 84.1748C64.612 84.1748 64.5695 84.2077 64.5578 84.2541C64.5442 84.3085 64.4894 84.342 64.3838 84.3606C64.2674 84.381 64.2296 84.407 64.2296 84.4663C64.2296 84.5321 64.2005 84.545 64.0518 84.545C63.9004 84.545 63.8741 84.5572 63.8741 84.6272C63.8741 84.6933 63.8477 84.7095 63.7407 84.7095C63.4954 84.7095 63.3605 84.7551 63.3605 84.838C63.3605 84.9088 63.3245 84.9152 62.9259 84.9152C62.5177 84.9152 62.4913 84.9201 62.4913 84.9974C62.4913 85.0756 62.465 85.0797 61.958 85.0797C61.451 85.0797 61.4247 85.0756 61.4247 84.9974C61.4247 84.9221 61.3983 84.9152 61.1136 84.9152C60.7344 84.9152 60.5555 84.8814 60.5555 84.8097C60.5555 84.7772 60.4847 84.7446 60.3778 84.7279C60.2393 84.7063 60.2 84.683 60.2 84.6226C60.2 84.5545 60.1685 84.545 59.9432 84.545C59.7158 84.545 59.6864 84.5359 59.6864 84.4656C59.6864 84.4146 59.6546 84.3815 59.5975 84.3731C59.5404 84.3646 59.5041 84.3268 59.496 84.2674C59.4854 84.1893 59.4591 84.1748 59.3281 84.1748C59.1992 84.1748 59.1728 84.1609 59.1728 84.0925C59.1728 84.0322 59.1465 84.0103 59.0741 84.0103C58.9951 84.0103 58.9753 83.9897 58.9753 83.9075C58.9753 83.8252 58.9555 83.8046 58.8765 83.8046C58.8041 83.8046 58.7778 83.7827 58.7778 83.7224C58.7778 83.6675 58.7514 83.6401 58.6988 83.6401C58.6461 83.6401 58.6197 83.6127 58.6197 83.5578C58.6197 83.503 58.5934 83.4756 58.5407 83.4756C58.4828 83.4756 58.4617 83.4481 58.4617 83.3728C58.4617 83.2905 58.442 83.2699 58.363 83.2699C58.2905 83.2699 58.2642 83.248 58.2642 83.1877C58.2642 83.1328 58.2378 83.1054 58.1852 83.1054C58.1272 83.1054 58.1062 83.078 58.1062 83.0026C58.1062 82.9292 58.0848 82.8997 58.0317 82.8997C57.9736 82.8997 57.9512 82.8588 57.9304 82.7147C57.9094 82.5685 57.8877 82.5296 57.8272 82.5296C57.7642 82.5296 57.7506 82.5004 57.7506 82.365C57.7506 82.2279 57.7375 82.2005 57.6716 82.2005C57.6043 82.2005 57.5926 82.1731 57.5926 82.0154C57.5926 81.8621 57.5799 81.8303 57.5187 81.8303C57.4414 81.8303 57.3964 81.669 57.3955 81.3882C57.3951 81.2821 57.3787 81.2545 57.316 81.2545C57.2387 81.2545 57.237 81.2271 57.237 79.9794C57.237 78.7318 57.2387 78.7044 57.316 78.7044C57.3794 78.7044 57.3951 78.6769 57.3951 78.5656C57.3951 78.3485 57.4397 78.1697 57.4938 78.1697C57.5479 78.1697 57.5926 77.9908 57.5926 77.7738C57.5926 77.6624 57.6082 77.635 57.6716 77.635C57.7296 77.635 57.7506 77.6075 57.7506 77.5321C57.7506 77.4583 57.7719 77.4293 57.8261 77.4293C57.8835 77.4293 57.9081 77.3897 57.9284 77.2648C57.9487 77.1399 57.9733 77.1003 58.0306 77.1003C58.0849 77.1003 58.1062 77.0713 58.1062 76.9974C58.1062 76.9236 58.1275 76.8946 58.1817 76.8946C58.2391 76.8946 58.2637 76.855 58.2839 76.7301C58.3042 76.6052 58.3288 76.5656 58.3862 76.5656C58.4404 76.5656 58.4617 76.5366 58.4617 76.4627C58.4617 76.3805 58.4815 76.3599 58.5605 76.3599C58.6314 76.3599 58.6593 76.3377 58.6593 76.2813C58.6593 76.2215 58.6973 76.1959 58.8173 76.1748C58.9372 76.1537 58.9753 76.1281 58.9753 76.0684C58.9753 76.0172 59.0028 75.9897 59.0543 75.9897C59.107 75.9897 59.1333 75.9623 59.1333 75.9075C59.1333 75.8471 59.1597 75.8252 59.2321 75.8252C59.3035 75.8252 59.3309 75.8031 59.3309 75.7454C59.3309 75.6825 59.3682 75.6599 59.5086 75.638C59.6471 75.6163 59.6864 75.593 59.6864 75.5326C59.6864 75.4695 59.7159 75.455 59.8444 75.455C59.9735 75.455 60.0025 75.4407 60.0025 75.3766C60.0025 75.3137 60.0415 75.2926 60.2 75.2699C60.3585 75.2472 60.3975 75.2261 60.3975 75.1632C60.3975 75.0923 60.4294 75.0848 60.7333 75.0848C61.0428 75.0848 61.0691 75.0784 61.0691 75.0026C61.0691 74.9225 61.0955 74.9203 62.037 74.9203C62.9786 74.9203 63.0049 74.9225 63.0049 75.0026ZM98.442 75.0026C98.442 75.0779 98.4683 75.0848 98.7531 75.0848C99.1322 75.0848 99.3111 75.1186 99.3111 75.1903C99.3111 75.2228 99.3819 75.2554 99.4889 75.2721C99.6273 75.2937 99.6666 75.317 99.6666 75.3774C99.6666 75.442 99.6965 75.455 99.8444 75.455C99.9941 75.455 100.022 75.4676 100.022 75.5349C100.022 75.5995 100.054 75.6172 100.19 75.6275C100.33 75.638 100.36 75.6557 100.371 75.7326C100.381 75.8107 100.408 75.8252 100.539 75.8252C100.667 75.8252 100.694 75.8391 100.694 75.9075C100.694 75.9678 100.72 75.9897 100.793 75.9897C100.872 75.9897 100.891 76.0103 100.891 76.0925C100.891 76.1679 100.912 76.1954 100.97 76.1954C101.023 76.1954 101.049 76.2228 101.049 76.2776C101.049 76.338 101.076 76.3599 101.148 76.3599C101.221 76.3599 101.247 76.3818 101.247 76.4422C101.247 76.497 101.273 76.5244 101.326 76.5244C101.384 76.5244 101.405 76.5519 101.405 76.6272C101.405 76.7095 101.425 76.7301 101.504 76.7301C101.583 76.7301 101.602 76.7506 101.602 76.8329C101.602 76.9083 101.624 76.9357 101.681 76.9357C101.747 76.9357 101.76 76.9632 101.76 77.1003C101.76 77.2354 101.774 77.2648 101.837 77.2648C101.886 77.2648 101.918 77.2979 101.926 77.3573C101.934 77.4168 101.97 77.4546 102.027 77.463C102.104 77.4744 102.116 77.5007 102.116 77.6584C102.116 77.8132 102.128 77.8406 102.195 77.8406C102.261 77.8406 102.274 77.8681 102.274 78.009C102.274 78.1396 102.291 78.1819 102.349 78.1977C102.435 78.2212 102.472 78.367 102.472 78.6889C102.472 78.8826 102.481 78.91 102.551 78.91C102.628 78.91 102.63 78.9375 102.63 80.0823C102.63 81.2271 102.628 81.2545 102.551 81.2545C102.488 81.2545 102.472 81.2821 102.471 81.3882C102.47 81.669 102.425 81.8303 102.348 81.8303C102.287 81.8303 102.274 81.8621 102.274 82.0154C102.274 82.1731 102.262 82.2005 102.195 82.2005C102.129 82.2005 102.116 82.2279 102.116 82.365C102.116 82.5004 102.102 82.5296 102.039 82.5296C101.979 82.5296 101.957 82.5685 101.936 82.7147C101.915 82.8588 101.893 82.8997 101.835 82.8997C101.782 82.8997 101.76 82.9292 101.76 83.0026C101.76 83.078 101.739 83.1054 101.681 83.1054C101.629 83.1054 101.602 83.1328 101.602 83.1877C101.602 83.248 101.576 83.2699 101.504 83.2699C101.425 83.2699 101.405 83.2905 101.405 83.3728C101.405 83.4481 101.384 83.4756 101.326 83.4756C101.273 83.4756 101.247 83.503 101.247 83.5578C101.247 83.6117 101.221 83.6401 101.171 83.6401C101.122 83.6401 101.09 83.6732 101.082 83.7326C101.074 83.7921 101.037 83.8299 100.98 83.8384C100.923 83.8468 100.891 83.8799 100.891 83.9309C100.891 83.9828 100.864 84.0103 100.812 84.0103C100.76 84.0103 100.733 84.0377 100.733 84.0925C100.733 84.1529 100.707 84.1748 100.635 84.1748C100.563 84.1748 100.536 84.1969 100.536 84.2546C100.536 84.3175 100.498 84.3401 100.358 84.362C100.22 84.3837 100.18 84.407 100.18 84.4674C100.18 84.5319 100.15 84.545 100.002 84.545C99.851 84.545 99.8247 84.5572 99.8247 84.6272C99.8247 84.6904 99.7983 84.7095 99.7111 84.7095C99.4985 84.7095 99.3581 84.7576 99.338 84.8373C99.3214 84.9038 99.2803 84.9152 99.058 84.9152C98.8239 84.9152 98.7975 84.9235 98.7975 84.9974C98.7975 85.0774 98.7712 85.0797 97.8494 85.0797C96.9276 85.0797 96.9012 85.0774 96.9012 84.9974C96.9012 84.923 96.8749 84.9152 96.6247 84.9152C96.3809 84.9152 96.3481 84.906 96.3481 84.8383C96.3481 84.7598 96.1941 84.711 95.9432 84.71C95.861 84.7096 95.8345 84.6894 95.8345 84.6272C95.8345 84.5572 95.8082 84.545 95.6568 84.545C95.5053 84.545 95.479 84.5328 95.479 84.4627C95.479 84.4067 95.4526 84.3805 95.3963 84.3805C95.3478 84.3805 95.3053 84.3476 95.2936 84.3011C95.28 84.2468 95.2252 84.2133 95.1196 84.1947C95.0032 84.1742 94.9654 84.1483 94.9654 84.0889C94.9654 84.0325 94.9376 84.0103 94.8666 84.0103C94.7876 84.0103 94.7679 83.9897 94.7679 83.9075C94.7679 83.8252 94.7481 83.8046 94.6691 83.8046C94.5967 83.8046 94.5703 83.7827 94.5703 83.7224C94.5703 83.6675 94.544 83.6401 94.4913 83.6401C94.4387 83.6401 94.4123 83.6127 94.4123 83.5578C94.4123 83.503 94.386 83.4756 94.3333 83.4756C94.2754 83.4756 94.2543 83.4481 94.2543 83.3728C94.2543 83.2905 94.2345 83.2699 94.1555 83.2699C94.0851 83.2699 94.0568 83.2477 94.0568 83.1925C94.0568 83.1496 94.0215 83.1054 93.9778 83.0935C93.9305 83.0806 93.8987 83.0374 93.8987 82.9859C93.8987 82.928 93.8735 82.8997 93.822 82.8997C93.76 82.8997 93.7429 82.8663 93.7331 82.7249C93.723 82.5796 93.706 82.5479 93.6321 82.537C93.5552 82.5256 93.5432 82.4993 93.5432 82.3416C93.5432 82.1868 93.5313 82.1594 93.4642 82.1594C93.3993 82.1594 93.3851 82.1318 93.3846 82.0051C93.3839 81.7957 93.3465 81.6658 93.287 81.6658C93.2357 81.6658 93.1888 81.4562 93.1881 81.2236C93.1877 81.1175 93.1713 81.09 93.1086 81.09C93.0316 81.09 93.0296 81.0625 93.0296 80C93.0296 78.9375 93.0316 78.91 93.1086 78.91C93.172 78.91 93.1876 78.8826 93.1876 78.7712C93.1876 78.5299 93.2315 78.3837 93.3104 78.3622C93.3734 78.3451 93.3852 78.3026 93.3852 78.0913C93.3852 77.8731 93.3948 77.8406 93.4597 77.8406C93.5175 77.8406 93.5401 77.8 93.5603 77.6598C93.5791 77.5286 93.6075 77.4733 93.6635 77.458C93.7091 77.4456 93.7407 77.4017 93.7407 77.3509C93.7407 77.2922 93.7659 77.2648 93.8197 77.2648C93.8853 77.2648 93.8987 77.2373 93.8987 77.1031C93.8987 76.9668 93.9127 76.9394 93.9876 76.9283C94.0448 76.9199 94.081 76.8821 94.0892 76.8226C94.0973 76.7631 94.129 76.7301 94.1781 76.7301C94.233 76.7301 94.2543 76.7014 94.2543 76.6272C94.2543 76.5519 94.2754 76.5244 94.3333 76.5244C94.386 76.5244 94.4123 76.497 94.4123 76.4422C94.4123 76.3818 94.4387 76.3599 94.5111 76.3599C94.5835 76.3599 94.6099 76.338 94.6099 76.2776C94.6099 76.2238 94.6362 76.1954 94.6861 76.1954C94.7351 76.1954 94.7669 76.1623 94.775 76.1028C94.7831 76.0434 94.8194 76.0056 94.8765 75.9971C94.9336 75.9887 94.9654 75.9556 94.9654 75.9046C94.9654 75.8396 94.9936 75.8252 95.1207 75.8252C95.2516 75.8252 95.2779 75.8107 95.2886 75.7326C95.2991 75.6557 95.3295 75.638 95.4691 75.6275C95.6049 75.6172 95.637 75.5995 95.637 75.5349C95.637 75.4676 95.6651 75.455 95.8148 75.455C95.9627 75.455 95.9926 75.442 95.9926 75.3774C95.9926 75.317 96.0319 75.2937 96.1703 75.2721C96.2773 75.2554 96.3481 75.2228 96.3481 75.1903C96.3481 75.1186 96.527 75.0848 96.9062 75.0848C97.1909 75.0848 97.2173 75.0779 97.2173 75.0026C97.2173 74.9238 97.2436 74.9203 97.8296 74.9203C98.4156 74.9203 98.442 74.9238 98.442 75.0026Z" clip-rule="evenodd" fill-rule="evenodd"></path>
</svg>
