<svg xmlns="http://www.w3.org/2000/svg" fill="none" viewBox="0 0 160 160" height="160" width="160">
<path fill="#262523" d="M39.7603 68.1078C37.1205 68.8535 35.468 72.1481 35.0613 77.4761C34.9787 78.5572 34.9798 81.7231 35.0631 82.7763C35.2587 85.2505 35.7569 87.3792 36.4901 88.8735C37.2345 90.3906 38.1766 91.3446 39.3782 91.7981C39.7744 91.9476 39.9434 91.9714 40.7596 91.9923C41.5631 92.013 41.756 91.9974 42.1768 91.8786C42.7421 91.719 43.3108 91.4097 43.9567 90.9102L44.4147 90.556L44.415 88.4469C44.4151 87.2869 44.3937 86.3378 44.3674 86.3378C44.3411 86.3378 44.1264 86.5429 43.8904 86.7936C43.2706 87.4519 42.5972 88.0039 42.1378 88.2304C41.7971 88.3984 41.6647 88.4279 41.2453 88.4293C40.8283 88.4305 40.6989 88.4031 40.4006 88.2498C39.4568 87.7649 38.9298 86.4387 38.6556 83.8584C38.5234 82.615 38.4707 78.9737 38.5624 77.4185C38.7905 73.5509 39.4472 71.8639 40.8299 71.5936C41.2523 71.5111 41.7281 71.6148 42.313 71.9169C42.7279 72.1312 42.9558 72.3128 43.4979 72.8607L44.169 73.5391V71.4431V69.3471L43.9382 69.1586C43.5382 68.832 42.8576 68.4422 42.319 68.2313C41.8524 68.0486 41.7176 68.0256 40.9991 68.0058C40.3541 67.9881 40.1139 68.0078 39.7603 68.1078ZM112.983 80.252V91.7474H114.645H116.307L116.312 87.0301L116.316 82.3128L117.826 87.0301L119.337 91.7474H121.081H122.824L122.681 91.3127C122.526 90.8408 119.526 82.0299 119.033 80.5974L118.731 79.7193L120.339 74.3829C121.224 71.4479 121.969 68.9808 121.994 68.9006L122.04 68.7547L120.3 68.7718L118.56 68.7889L117.449 73.0813L116.338 77.3736L116.322 73.0652L116.306 68.7567H114.645H112.983V80.252ZM48.3314 77.6278C47.3912 82.4006 46.6073 86.3708 46.5892 86.4505L46.5562 86.5954H48.0021H49.448L49.7683 84.8727C49.9445 83.9252 50.1031 83.0849 50.1207 83.0051L50.1529 82.8602H51.5196H52.8864L53.179 84.6151C53.3399 85.5803 53.4854 86.4208 53.5024 86.4827C53.5306 86.5859 53.6548 86.5954 54.9796 86.5954C56.3286 86.5954 56.4238 86.5878 56.3934 86.4827C56.3577 86.3597 52.9709 69.0458 52.9709 68.9864C52.9709 68.9663 52.3116 68.9499 51.5058 68.9499H50.0407L48.3314 77.6278ZM104.398 69.0304C104.383 69.0747 103.607 72.9942 102.673 77.7405C101.739 82.4867 100.961 86.4208 100.943 86.4827C100.913 86.5878 101.009 86.5954 102.361 86.5954H103.81L103.841 86.4505C103.857 86.3708 104.013 85.5304 104.187 84.5829L104.503 82.8602H105.877H107.25L107.316 83.1983C107.396 83.6155 107.874 86.4805 107.875 86.5471C107.875 86.5737 108.526 86.5954 109.321 86.5954C110.117 86.5954 110.768 86.5881 110.768 86.5793C110.768 86.5543 107.388 69.2583 107.351 69.0948L107.318 68.9499H105.871C104.768 68.9499 104.418 68.9691 104.398 69.0304ZM58.572 77.7714V86.531H60.025H61.4779L61.4412 85.0659C61.3868 82.8954 61.3244 75.6746 61.3604 75.7119C61.3774 75.7296 61.8485 76.8836 62.407 78.2762C62.9656 79.6689 63.4392 80.8257 63.4594 80.8468C63.4796 80.868 63.5058 80.8732 63.5175 80.8585C63.5293 80.8438 64.0049 79.6654 64.5745 78.24C65.1442 76.8146 65.6163 75.6554 65.6237 75.664C65.6311 75.6727 65.6138 77.5344 65.5854 79.8012C65.5571 82.0681 65.5324 84.5097 65.5306 85.2269L65.5273 86.531H66.9738H68.4203V77.7727V69.0143L67.1738 69.0155L65.9274 69.0167L65.6122 69.7722C64.3917 72.6969 63.5289 74.63 63.481 74.547C63.4521 74.497 62.9058 73.2389 62.2668 71.7513L61.1051 69.0465L59.8386 69.0291L58.572 69.0117V77.7714ZM82.1462 77.7727V86.531H85.6239H89.1015V85.1786V83.8262H87.1011H85.1007V76.4203V69.0143H83.6234H82.1462V77.7727ZM91.0096 77.7674V86.531L92.7177 86.5305C93.6571 86.5302 94.6057 86.501 94.8258 86.4656C96.3585 86.2185 97.2673 85.7788 98.1508 84.8566C99.0565 83.9112 99.451 82.8602 99.4561 81.379C99.4595 80.4016 99.3541 79.8859 98.9955 79.1251C98.7034 78.5052 98.0732 77.7837 97.4564 77.3628L97.1017 77.1207L97.3952 76.878C97.894 76.4655 98.4494 75.779 98.6741 75.2975C98.9603 74.6839 99.0728 74.1829 99.0728 73.5223C99.0728 72.8377 98.9604 72.3602 98.6329 71.6547C98.4238 71.2043 98.2794 71.0043 97.8179 70.5258C97.3544 70.0452 97.1556 69.8914 96.6723 69.6391C95.6351 69.0977 95.4102 69.0598 93.0562 69.0298L91.0096 69.0037V77.7674ZM71.8056 77.8371V86.5954H75.4063H79.0071V85.2533V83.9112L77.4837 83.8689C76.6459 83.8455 75.6902 83.8264 75.3602 83.8264L74.76 83.8262V81.3146V78.8031H76.6066H78.4531V77.4507V76.0983H76.6066H74.76V73.9087V71.7191H76.7912H78.8224V70.3989V69.0787H75.314H71.8056V77.8371ZM94.8063 71.8862C95.6816 72.1375 96.1639 72.9457 96.1056 74.0638C96.0478 75.1748 95.4527 75.8942 94.4273 76.0925C94.2278 76.1311 94.0419 76.1627 94.0143 76.1627C93.9867 76.1627 93.9641 75.1656 93.9641 73.947V71.7313L94.2257 71.7629C94.3695 71.7803 94.6309 71.8358 94.8063 71.8862ZM51.9824 77.9039C52.1875 79.0918 52.3554 80.0843 52.3554 80.1096C52.3554 80.1348 51.9654 80.1554 51.4888 80.1554H50.6221L50.6564 79.9783C50.6753 79.881 50.8589 78.8304 51.0644 77.6439C51.2699 76.4573 51.4557 75.4285 51.4771 75.3577C51.5228 75.2072 51.4753 74.9677 51.9824 77.9039ZM106.683 79.8817L106.722 80.1554H105.852C105.373 80.1554 104.982 80.1325 104.982 80.1044C104.982 80.0324 105.772 75.5858 105.819 75.3899C105.845 75.2852 105.996 75.9956 106.252 77.4185C106.468 78.6227 106.662 79.7312 106.683 79.8817ZM122.344 77.2926C121.734 77.4693 121.34 77.8298 121.061 78.4682C120.927 78.7734 120.912 78.8831 120.935 79.3728C120.956 79.8359 120.991 79.9883 121.14 80.2749C121.604 81.166 122.555 81.5496 123.492 81.224C123.902 81.0814 124.374 80.6399 124.581 80.2057C124.717 79.921 124.74 79.7879 124.739 79.2895C124.739 78.8117 124.712 78.6483 124.593 78.3845C124.198 77.508 123.228 77.0368 122.344 77.2926ZM123.447 77.8423C124.362 78.2756 124.645 79.4067 124.044 80.2305C123.201 81.3877 121.498 80.8458 121.371 79.3799C121.344 79.0777 121.366 78.9487 121.492 78.6605C121.844 77.8557 122.71 77.4933 123.447 77.8423ZM121.949 78.5938C121.927 78.8329 121.909 79.34 121.909 79.7207L121.908 80.413H122.155H122.401V79.9622C122.401 79.5544 122.412 79.5114 122.524 79.5114C122.689 79.5114 122.856 79.6967 123.046 80.0889C123.199 80.4055 123.209 80.413 123.479 80.413C123.634 80.413 123.755 80.3828 123.755 80.344C123.755 80.2624 123.465 79.7203 123.337 79.5621C123.257 79.4633 123.268 79.4343 123.44 79.2827C123.6 79.1416 123.632 79.0677 123.632 78.8367C123.632 78.3226 123.355 78.1636 122.456 78.1606L121.988 78.1591L121.949 78.5938ZM123.102 78.7083C123.288 78.9033 123.044 79.1251 122.643 79.1251C122.473 79.1251 122.462 79.1095 122.462 78.8675V78.6099H122.735C122.897 78.6099 123.045 78.6496 123.102 78.7083ZM94.7251 78.9633C95.9252 79.2294 96.5452 80.1913 96.4771 81.6814C96.456 82.1443 96.4171 82.3308 96.2811 82.6216C95.9548 83.3196 95.2823 83.747 94.4103 83.8106L93.9641 83.8432V81.3553V78.8675L94.1333 78.8685C94.2265 78.8692 94.4927 78.9118 94.7251 78.9633ZM46.6311 89.912V91.8118H78.6993H110.768V89.912V88.0122H78.6993H46.6311V89.912Z" clip-rule="evenodd" fill-rule="evenodd"></path>
</svg>
