<svg xmlns="http://www.w3.org/2000/svg" fill="none" viewBox="0 0 160 160" height="160" width="160">
<path fill="#262523" d="M56.9986 77.9116C56.2755 77.228 53.9931 77.4936 49.5922 77.7421C50.4622 74.1152 51.078 70.9459 52.705 68.4827C60.2357 68.9008 69.4951 69.9459 80.0935 69.9177C100.968 69.8612 101.155 62.1723 101.155 62.1723C92.2736 64.7032 80.0765 63.9519 70.851 63.1158C59.264 62.0593 47.6827 59.4267 38.1125 61.9576C26.808 64.9462 25.7234 73.2395 26.1245 76.8043C30.661 70.9176 36.7962 68.8273 44.6489 68.3867C45.3947 68.3471 46.1799 68.3302 46.9765 68.3245C45.5528 69.8047 44.4399 72.1322 43.2987 75.7648C43.0501 76.5614 42.8072 77.3241 42.5643 78.0698C32.8981 78.9003 31.0225 83.2673 31.5762 84.4085C32.1637 85.6287 35.5986 84.0299 39.8752 83.561C40.1463 83.5328 40.4119 83.5045 40.6717 83.4819C38.9995 87.7529 37.1521 90.8036 34.1805 92.5888C29.6497 95.3062 24.9042 94.0464 23.9551 93.295C24.3223 98.2834 31.9095 101.001 38.3555 97.5151C43.4965 94.7356 46.4681 88.1032 48.0951 83.1317C49.4961 83.1147 50.8464 83.0978 52.3435 82.9961C56.2359 82.7249 57.9477 78.8042 56.9986 77.9116Z"></path>
<path fill="#262523" d="M134.996 72.3301C134.188 72.0703 133.33 72.5166 133.07 73.3188C132.951 73.6973 132.985 74.0927 133.138 74.4261C131.674 75.748 130.324 76.731 129.612 76.4994C128.691 76.2056 129.386 73.7312 130.285 71.4771C131.081 71.6013 131.872 71.1324 132.126 70.3359C132.409 69.4602 131.923 68.5224 131.047 68.2399C130.172 67.9575 129.228 68.4433 128.946 69.319C128.748 69.9404 128.934 70.5957 129.369 71.0195C128.172 73.1888 126.923 75.0644 125.833 74.7481C125.822 74.7481 125.805 74.7424 125.793 74.7368C124.692 74.3865 124.765 72.1211 125.053 69.6466C125.669 69.5619 126.211 69.1325 126.409 68.5055C126.692 67.6298 126.206 66.6863 125.33 66.4095C124.454 66.127 123.511 66.6129 123.228 67.4886C122.974 68.2738 123.336 69.1043 124.042 69.4772C123.46 71.833 122.59 74.2509 121.669 73.9572C120.963 73.7312 120.432 72.1606 120.014 70.2398C120.342 70.059 120.607 69.754 120.731 69.3698C120.991 68.562 120.545 67.7032 119.743 67.4434C118.935 67.1835 118.076 67.6298 117.816 68.432C117.556 69.2399 118.003 70.0986 118.805 70.3585C118.861 70.3754 118.924 70.3924 118.98 70.4037L119.251 76.8327L129.889 80.2506L133.855 75.1718C133.917 75.2 133.979 75.2283 134.047 75.2509C134.855 75.5108 135.714 75.0644 135.974 74.2622C136.233 73.46 135.798 72.5843 134.996 72.3301Z"></path>
<path fill="#262523" d="M120.087 78.3298C120.087 78.3298 117.556 79.2732 115.799 80.9172C115.2 81.4765 114.624 82.0584 114.098 82.7024C114.093 82.7081 114.093 82.7137 114.087 82.7194C113.601 83.3182 113.223 83.9623 112.81 84.6515C112.245 85.6063 111.748 86.6062 111.358 87.6626V87.657C111.358 87.657 110.341 89.7812 109.596 90.8433C108.872 91.8771 107.494 92.8601 106.946 93.233C106.342 93.5098 105.675 93.7697 104.957 93.9731C100.444 95.2781 99.613 92.0635 100.624 90.5438C100.986 90.0015 103.489 88.0976 105.2 86.6966C108.505 83.9792 110.771 82.2561 112.33 80.6969C113.974 79.0473 112.912 78.132 111.635 77.9117C108.443 77.3694 106.98 78.2111 106.053 78.9964C104.935 79.9455 98.2515 87.9112 98.2515 87.9112C98.2515 87.9112 109.127 67.11 110.912 63.5339C112.381 60.5849 105.319 60.1782 103.364 64.4152C102.229 66.884 94.4325 84.7362 93.4834 86.9395C91.7434 90.9789 91.636 91.6116 90.766 92.3178C90.7547 92.3291 90.7491 92.3404 90.7378 92.3517C90.7152 92.3686 90.6926 92.3799 90.67 92.3969L90.6643 92.4025C89.8282 93.0861 88.6532 93.7075 87.8735 93.6962C87.4046 93.6906 87.1222 93.4138 87.0431 92.8375C86.964 92.2669 87.0318 91.5381 87.2521 90.6512C87.382 90.1258 87.5572 89.5439 87.7775 88.9168C87.9978 88.2897 88.2351 87.657 88.495 87.013C88.7548 86.3689 89.0204 85.7418 89.2915 85.1317C89.5627 84.5159 89.8169 83.9566 90.0429 83.4369C90.2689 82.9228 90.461 82.4821 90.6192 82.1093C90.7717 81.7364 90.8734 81.4765 90.9129 81.3183C91.1728 80.2619 91.122 79.3128 90.8508 78.7139C90.5796 78.1151 90.0825 77.8157 89.365 77.8157C88.6475 77.8157 87.9752 78.0134 87.3481 78.3693C86.6646 78.7535 86.0375 79.1828 85.3934 79.9512C85.2465 80.1207 85.0319 80.3862 84.7437 80.7421C84.4556 81.098 84.1336 81.5104 83.7777 81.9737C83.4161 82.4369 83.0376 82.9228 82.6365 83.4312C82.2297 83.9397 81.8512 84.4199 81.4953 84.8775C81.1394 85.3351 80.823 85.7362 80.5519 86.0864C80.2807 86.4367 80.083 86.6909 79.953 86.8491H79.5237C79.5463 86.7474 79.6197 86.5553 79.7327 86.2616C79.8513 85.9678 79.9869 85.6288 80.1508 85.2334C80.3146 84.8436 80.4841 84.4086 80.6705 83.951C80.8569 83.4877 81.0377 83.0358 81.2072 82.6008C81.3767 82.1657 81.5292 81.7646 81.6648 81.4031C81.8004 81.0415 81.8908 80.7477 81.9416 80.5387C82.1337 79.7534 82.1394 79.1264 81.9529 78.6575C81.7721 78.1885 81.2919 77.9513 80.518 77.9513C79.744 77.9513 79.0774 78.1716 78.5181 78.6179C77.9588 79.0586 77.5181 79.6122 77.1961 80.2675C76.7894 81.1093 76.3317 82.1206 75.8233 83.3069C75.3148 84.4933 74.8177 85.7249 74.3318 87.0017C73.846 88.2784 73.3884 89.5383 72.9703 90.7698C72.7783 91.3404 72.6088 91.8715 72.4562 92.3799C71.4393 92.8884 70.3829 93.3234 69.2926 93.651C68.8745 93.7753 68.3547 93.8657 68.0553 93.5437C67.835 93.3121 67.8294 92.9505 67.8633 92.6341C68.0214 90.945 68.7502 89.3688 69.4451 87.8208C70.6145 85.2108 71.7049 82.5725 72.7161 79.9003C72.8404 79.567 72.9703 79.1998 72.863 78.8608C72.6935 78.3298 72.0495 78.1321 71.4958 78.0643C70.2982 77.9061 68.9197 78.0247 68.1457 78.9569C67.8915 79.2619 67.7277 79.6292 67.5638 79.9964C66.2419 82.9793 64.9143 85.9678 63.5923 88.9507C62.7618 90.832 61.728 92.8997 59.7789 93.5663C59.4456 93.6793 59.0614 93.7471 58.7394 93.6058C58.3214 93.4251 58.1067 92.9336 58.1067 92.476C58.1067 92.0183 58.2875 91.5833 58.457 91.1596C60.0953 87.1768 61.3043 84.4086 62.9369 80.4257C63.0104 80.2449 63.4171 79.3128 63.4284 78.8721C63.4397 78.5671 63.2025 78.3015 63.0047 78.2111C61.9596 77.7366 60.6941 78.0247 59.7507 78.68C58.2649 79.7139 57.457 81.3805 56.7226 82.968C55.9091 84.7306 55.0842 86.4876 54.3442 88.2841C53.4968 90.3405 52.5928 92.3291 52.1296 94.5041C51.8923 95.617 51.9601 97.052 52.768 97.8486C53.299 98.3683 54.0843 98.5208 54.8244 98.5434C57.8186 98.6395 60.6546 97.0689 62.8409 95.0238C62.9144 96.1085 63.0782 97.3514 63.9877 97.9502C64.5696 98.3344 65.3097 98.3457 66.0046 98.2723C67.3944 98.1254 68.7389 97.696 70.0383 97.1763C70.5806 96.9616 71.1117 96.73 71.6427 96.4814C71.6484 96.713 71.671 96.9334 71.7162 97.1367C71.8065 97.5604 71.9986 97.8938 72.2924 98.1423C72.5862 98.3909 73.0325 98.5152 73.6144 98.5152C74.0889 98.5152 74.5296 98.4079 74.9363 98.1932C75.3487 97.9785 75.7668 97.5774 76.1962 96.9955L84.5686 85.8605H84.9132C84.4613 87.0017 84.0545 88.0694 83.693 89.0637C83.3314 90.058 83.0489 90.9789 82.8342 91.8376C82.2919 94.0239 82.1563 95.6792 82.4105 96.8147C82.6704 97.9503 83.1902 98.5152 83.9754 98.5152C84.7607 98.5152 85.5403 98.4022 86.3086 98.1819C87.077 97.9615 87.834 97.6734 88.5797 97.3232C89.0938 97.0802 89.6023 96.8091 90.105 96.5209C90.105 96.7074 90.0486 97.0689 90.0429 97.2384C90.0147 97.8542 90.1051 97.9785 90.3932 98.244C90.6756 98.5095 90.9751 98.5321 91.5909 98.5321C92.0485 98.5321 92.2123 98.4926 92.619 98.1988C92.9976 97.9277 94.376 95.8882 95.4381 94.4363C95.6132 94.199 95.8053 93.9505 96.0144 93.6962C95.6245 95.4927 96.4663 98.1197 98.9747 98.5321C101.41 98.9276 105.381 98.374 110.499 94.4307C110.59 94.9787 110.725 95.4984 110.923 95.9843C111.296 96.9108 111.878 97.6678 112.675 98.244C113.471 98.8203 114.533 99.1084 115.855 99.1084C116.77 99.1084 117.674 98.9502 118.567 98.6395C119.454 98.3231 120.307 97.8994 121.126 97.3571C121.94 96.8204 122.708 96.182 123.425 95.4476C124.143 94.7131 124.787 93.9279 125.363 93.0861C125.911 92.2895 126.38 91.4647 126.781 90.6173C127.516 88.962 127.866 87.7191 128.239 85.8153C128.408 84.7984 128.499 83.9001 128.487 83.081C128.487 83.081 128.397 81.0528 128.114 80.8664C127.849 80.663 120.087 78.3298 120.087 78.3298ZM122.764 90.2444C120.787 93.7132 117.968 95.4758 116.465 94.1877C114.963 92.8997 115.347 89.0468 117.318 85.5837C119.29 82.1149 122.115 80.3523 123.617 81.6347C125.12 82.9228 124.736 86.7757 122.764 90.2444Z"></path>
</svg>
