<svg xmlns="http://www.w3.org/2000/svg" fill="none" viewBox="0 0 160 160" height="160" width="160">
<path fill="#262523" d="M126.696 75.2188C124.806 75.9009 124.111 77.6746 125.226 78.9677C125.768 79.5956 126.375 79.8606 128.522 80.4062C130.837 80.9942 131.823 82.0179 131.25 83.2399C130.854 84.086 129.864 84.5615 128.497 84.5615C127.304 84.5615 126.039 84.068 125.731 83.4822C125.519 83.0802 124.696 83.0188 124.696 83.405C124.696 83.5477 124.965 83.9379 125.293 84.2717C127.456 86.4742 132.351 85.3368 132.348 82.6323C132.346 81.1574 131.203 80.2488 128.435 79.5234C126.316 78.9677 125.846 78.6562 125.772 77.7557C125.677 76.6125 126.647 75.8876 128.27 75.8876C129.387 75.8876 130.333 76.2726 130.729 76.8876C130.887 77.1318 131.169 77.3037 131.412 77.3037C131.917 77.3037 131.924 77.2027 131.475 76.4532C130.768 75.2724 128.308 74.6369 126.696 75.2188ZM28 80.2245V85.2696H28.4348H28.8696V82.9683V80.6671H32.087H35.3044V82.9683V85.2696H35.7392H36.174V80.2245V75.1795H35.7392H35.3044V77.4808V79.782H32.087H28.8696V77.4808V75.1795H28.4348H28V80.2245ZM51.4556 75.9318C51.2478 76.3455 50.1939 78.5802 49.1134 80.8976C47.5944 84.1554 47.206 85.1331 47.4007 85.2092C47.8991 85.4039 48.2087 85.0708 48.8245 83.6773L49.4504 82.2603H52.292H55.1336L55.8165 83.7649C56.4139 85.0812 56.5553 85.2696 56.9454 85.2696C57.1908 85.2696 57.3924 85.2097 57.3936 85.1368C57.3948 85.0639 56.3645 82.7936 55.1044 80.0918C52.9042 75.3751 52.7934 75.1795 52.3231 75.1795C51.9221 75.1795 51.7649 75.3158 51.4556 75.9318ZM69.4749 75.391C69.4258 75.521 69.4065 77.7769 69.4321 80.4042L69.4785 85.1811H72.7829C76.0772 85.1811 76.0875 85.1798 76.1429 84.7828L76.1984 84.3845H73.3196H70.441L70.3945 79.8262L70.3481 75.268L69.9561 75.2114C69.7405 75.1802 69.5239 75.2609 69.4749 75.391ZM87.5573 75.4034C87.5108 75.5266 87.4936 77.7769 87.5192 80.4042L87.5656 85.1811L91.0874 85.229L94.6091 85.2768V84.8307V84.3845H91.5656H88.5221V82.5258V80.6671H91.3917H94.2613V80.2245V79.782H91.3917H88.5221V77.9233V76.0646H91.5656H94.6091V75.6221V75.1795H91.1255C88.4769 75.1795 87.6214 75.2331 87.5573 75.4034ZM107.131 75.265C107.131 75.3121 108.031 76.6176 109.131 78.1662L111.131 80.9818V83.1257V85.2696H111.566H112.001V83.116V80.9622L113.884 78.2922C116.261 74.9219 116.127 75.1795 115.505 75.1795C115.04 75.1795 114.816 75.4226 113.302 77.5693C112.374 78.8836 111.592 79.959 111.563 79.959C111.533 79.959 110.751 78.8836 109.824 77.5693C108.326 75.4472 108.081 75.1795 107.634 75.1795C107.357 75.1795 107.131 75.2181 107.131 75.265ZM53.5468 78.8679C54.1464 80.1663 54.6023 81.264 54.5597 81.3072C54.5172 81.3504 53.4607 81.3635 52.2118 81.3362L49.9412 81.2867L51.101 78.7818C51.7391 77.4041 52.305 76.3287 52.3588 76.3921C52.4125 76.4553 52.9471 77.5694 53.5468 78.8679Z" clip-rule="evenodd" fill-rule="evenodd"></path>
</svg>
