<svg xmlns="http://www.w3.org/2000/svg" fill="none" viewBox="0 0 160 160" height="160" width="160">
<path fill="#262523" d="M37.9735 72.0564C34.4429 72.5396 31.8777 74.862 31.149 78.2349C30.9522 79.1459 30.95 80.7398 31.1445 81.5685C31.7743 84.2531 33.714 86.3709 36.343 87.2443C37.9439 87.776 39.8862 87.7881 41.5306 87.2763C43.5322 86.6534 45.2011 85.2582 46.153 83.4118C46.5037 82.7315 46.8026 81.8605 46.9303 81.146C47.0377 80.5452 47.0377 79.1306 46.9303 78.5298C46.3554 75.3142 43.9146 72.8278 40.6888 72.1719C39.9479 72.0213 38.6376 71.9656 37.9735 72.0564ZM107.562 72.0595C106.896 72.142 105.976 72.3927 105.338 72.6653C102.591 73.8401 100.892 76.22 100.625 79.2681C100.391 81.9399 101.571 84.5027 103.789 86.1435C104.349 86.5576 105.317 87.0457 106.023 87.2704C107.69 87.8009 109.682 87.7773 111.361 87.2072C113.613 86.4431 115.469 84.6001 116.213 82.3918C116.549 81.3958 116.606 81.008 116.601 79.7756C116.597 78.6912 116.585 78.5797 116.4 77.8857C115.854 75.8364 114.548 74.1289 112.712 73.0612C111.275 72.2259 109.307 71.8431 107.562 72.0595ZM46.2324 73.9825V75.6644H47.7083H49.1843V81.5197V87.3751H51.1626H53.141V81.5197V75.6644H54.6169H56.0928V73.9825V72.3007H51.1626H46.2324V73.9825ZM56.6581 73.9825V75.6644H58.134H59.6099V81.5197V87.3751H61.5883H63.5667V81.5197V75.6644H65.0426H66.5185V73.9825V72.3007H61.5883H56.6581V73.9825ZM67.1466 79.8379V87.3751H71.4487H75.7509V85.6621V83.9491H73.3957H71.0405V82.6721V81.3951H73.3329H75.6253V79.7133V78.0314H73.3329H71.0405V76.8479V75.6644H73.3957H75.7509V73.9825V72.3007H71.4487H67.1466V79.8379ZM76.7558 79.8379V87.3751H78.7341H80.7125V81.5109V75.6467L81.7017 75.6808C83.2065 75.7327 83.8286 75.9828 84.2708 76.7133C84.8526 77.6747 84.5519 79.1878 83.678 79.6957C83.2658 79.9353 82.7987 80.0245 81.731 80.0674C81.2031 80.0886 80.7795 80.1307 80.7897 80.1609C80.7998 80.1911 81.6839 81.8259 82.7543 83.7939L84.7006 87.372L86.7222 87.3735L88.7438 87.3751L88.1699 86.3628C87.8541 85.8061 87.15 84.5658 86.605 83.6065C85.7909 82.1735 85.6304 81.8512 85.7053 81.8C85.7555 81.7658 85.9739 81.6396 86.1907 81.5197C87.0708 81.0328 87.8094 80.0501 88.1361 78.9311C88.2621 78.4992 88.2799 78.3056 88.2754 77.4085C88.2708 76.4763 88.2544 76.3289 88.0993 75.8232C87.8268 74.9345 87.48 74.3395 86.8995 73.7645C86.322 73.1926 85.7929 72.8965 84.8975 72.6443C83.8379 72.3458 83.1723 72.3007 79.83 72.3007H76.7558V79.8379ZM89.1284 79.8394V87.3849L92.724 87.3564C95.1262 87.3375 96.4342 87.3039 96.665 87.2552C97.3521 87.1101 97.9928 86.8605 98.4704 86.5519C99.8472 85.6619 100.508 84.4345 100.508 82.7655C100.508 82.1674 100.482 81.967 100.348 81.5509C100.051 80.6338 99.477 79.9661 98.6233 79.5459C98.358 79.4153 98.1268 79.2983 98.1095 79.286C98.0923 79.2737 98.1488 79.2179 98.2351 79.162C98.5332 78.969 99.0487 78.4518 99.2442 78.1495C99.3521 77.9827 99.5139 77.6427 99.6035 77.3938C99.7454 77.0003 99.7664 76.844 99.7647 76.1939C99.763 75.5462 99.7398 75.3798 99.5913 74.948C99.37 74.3046 99.1321 73.9422 98.6341 73.4896C98.1459 73.0459 97.5179 72.7277 96.6883 72.5037L96.0684 72.3363L92.5984 72.3151L89.1284 72.2939V79.8394ZM114.565 72.3273C114.565 72.3419 115.601 73.9046 116.869 75.8C118.136 77.6953 119.173 79.2882 119.174 79.3395C119.174 79.3909 117.994 81.2129 116.551 83.3885L113.927 87.3439L116.083 87.3604C118.081 87.3757 118.245 87.3688 118.32 87.2671C118.364 87.2067 119.054 86.036 119.853 84.6655C120.651 83.2951 121.325 82.151 121.349 82.1232C121.373 82.0954 122.125 83.2646 123.019 84.7216L124.645 87.3706L126.866 87.3728L129.087 87.3751L128.994 87.2349C126.804 83.9491 123.898 79.5339 123.88 79.4641C123.866 79.4127 124.886 77.7869 126.146 75.8513L128.437 72.3318L126.258 72.3153C124.432 72.3015 124.069 72.3132 124.014 72.3875C123.978 72.4363 123.413 73.3886 122.758 74.5037C121.867 76.0206 121.55 76.5122 121.498 76.4559C121.461 76.4146 120.872 75.4627 120.19 74.3407L118.951 72.3007H116.758C115.552 72.3007 114.565 72.3126 114.565 72.3273ZM40.0454 75.5396C41.2143 75.8361 42.1093 76.623 42.6783 77.8545C42.9798 78.5072 43.1082 79.1238 43.104 79.9002C43.0996 80.7269 42.9472 81.3269 42.5461 82.0974C42.0439 83.0621 41.273 83.7322 40.2659 84.0794C39.7193 84.2679 38.4849 84.2857 37.9107 84.1133C36.9722 83.8316 36.0407 83.1157 35.5604 82.3071C34.7066 80.87 34.6634 79.0752 35.4462 77.5659C35.7711 76.9397 36.5284 76.1629 37.1069 75.8625C37.9594 75.4199 39.0856 75.2962 40.0454 75.5396ZM109.932 75.6181C110.941 75.9877 111.711 76.6848 112.2 77.6733C112.607 78.4944 112.704 78.9075 112.707 79.8379C112.71 80.4699 112.683 80.7096 112.567 81.1113C112.106 82.6978 110.932 83.8704 109.509 84.1668C108.619 84.3521 107.664 84.2349 106.839 83.8394C106.212 83.5386 105.396 82.742 105.068 82.1115C104.641 81.2902 104.547 80.8662 104.549 79.7756C104.551 78.8842 104.565 78.7718 104.725 78.3117C105.244 76.8297 106.308 75.8209 107.687 75.5037C108.282 75.3669 109.402 75.424 109.932 75.6181ZM95.4481 75.858C95.8748 76.0701 95.9975 76.2656 96.0218 76.772C96.0481 77.3201 95.8868 77.6237 95.4565 77.8354C95.1915 77.9657 95.0438 77.9857 94.1218 78.0159L93.0851 78.0499V76.8484V75.6469L94.1168 75.678C95.0434 75.7059 95.1789 75.7242 95.4481 75.858ZM95.8913 81.3639C96.298 81.4837 96.526 81.6643 96.6715 81.982C96.9019 82.4852 96.7875 83.1424 96.4031 83.5237C96.0381 83.8857 95.7243 83.9491 94.2984 83.9491H93.0851V82.6098V81.2706H94.3298C95.2526 81.2706 95.6565 81.2947 95.8913 81.3639Z" clip-rule="evenodd" fill-rule="evenodd"></path>
</svg>
