<svg version="1.1" id="Layer_1" xmlns="http://www.w3.org/2000/svg" xmlns:xlink="http://www.w3.org/1999/xlink" x="0px" y="0px"
	 width="100%" viewBox="0 0 336 336" enable-background="new 0 0 336 336" xml:space="preserve">
<path fill="#000000" opacity="1.000000" stroke="none" 
	d="
M84.001495,155.626694 
	C148.615540,155.629013 212.729752,155.629028 276.843964,155.658371 
	C279.317444,155.659500 282.105621,154.865768 284.192566,156.266815 
	C286.897217,158.082520 283.455475,160.780762 284.155334,162.470734 
	C287.575836,170.730469 285.147308,179.256851 285.865173,187.608795 
	C285.978577,188.928329 285.759186,190.273300 285.811859,191.601807 
	C285.963623,195.428787 284.062866,196.926666 280.354980,196.905518 
	C271.530365,196.855194 262.704926,196.988632 253.879822,196.989838 
	C194.763641,196.997818 135.647476,196.992767 76.531296,196.977310 
	C74.871140,196.976868 73.145348,197.071136 71.564903,196.669617 
	C68.508865,195.893204 66.488541,194.496979 66.615517,190.545181 
	C66.936218,180.564163 66.816154,170.563980 66.652245,160.575073 
	C66.593163,156.974335 67.756844,155.389313 71.514229,155.598755 
	C75.498230,155.820877 79.504898,155.636383 84.001495,155.626694 
M180.793213,181.729767 
	C183.800278,181.892609 182.423111,179.499069 182.767960,178.196274 
	C183.106537,176.917221 183.023880,175.267914 184.704025,175.165009 
	C186.707153,175.042313 186.817184,176.834488 187.139236,178.291229 
	C187.434723,179.627869 186.639404,181.395401 188.868851,182.239655 
	C190.712219,179.511978 190.447495,176.612488 189.043610,173.992355 
	C187.835068,171.736771 185.694504,172.496552 183.782654,173.383392 
	C182.564148,173.948593 181.540497,172.784576 180.492172,172.811615 
	C177.878830,172.879059 174.413559,171.615295 172.946121,174.236938 
	C171.626572,176.594299 171.902206,179.812775 174.407242,182.434631 
	C174.809601,181.615311 175.129974,181.218414 175.197388,180.782379 
	C175.526917,178.651001 174.341782,175.225723 177.566620,175.171677 
	C180.729370,175.118683 179.516068,178.743134 180.238815,180.746231 
	C180.294968,180.901886 180.334015,181.063736 180.793213,181.729767 
M149.604156,176.908173 
	C149.435333,174.940857 148.588257,172.604599 146.662796,172.942749 
	C143.086945,173.570755 142.037766,171.192719 140.114502,167.533173 
	C139.165619,173.421127 138.760071,177.667114 140.204681,182.288589 
	C142.321930,180.995163 141.799637,179.504715 142.008698,178.277817 
	C142.263443,176.782761 142.301331,175.060150 144.287506,174.965210 
	C146.283997,174.869766 146.472748,176.587250 146.841064,178.054367 
	C147.178802,179.399643 146.484116,181.145233 148.302429,182.012726 
	C150.401657,181.049469 149.340317,179.142166 149.604156,176.908173 
M221.086395,175.112228 
	C220.218613,177.386642 215.633087,177.158081 216.948532,180.701859 
	C218.174973,184.005875 221.419296,181.331146 223.545105,182.317825 
	C223.874466,182.470703 224.450806,182.091415 225.348038,181.832809 
	C225.445694,179.041275 226.623810,176.049606 224.171234,173.574280 
	C222.445587,171.832642 220.563934,172.678436 217.970413,173.616867 
	C219.453247,174.244904 220.057632,174.500885 221.086395,175.112228 
M192.871857,179.527603 
	C194.283051,184.665100 198.332718,181.236008 201.143646,182.517990 
	C202.217148,179.204010 202.728668,176.251785 200.731812,173.673691 
	C199.250000,171.760590 197.294693,172.659927 195.504013,173.382584 
	C195.842804,174.945801 197.937988,174.140549 197.891724,175.832031 
	C196.460495,177.111832 194.016129,176.903992 192.871857,179.527603 
M211.350067,180.886459 
	C211.984756,178.136841 214.158142,175.828674 214.112839,172.699432 
	C210.706146,172.689331 211.940033,176.911835 209.427521,177.145828 
	C207.143402,176.455627 207.816086,172.943878 204.974823,172.915527 
	C203.597061,177.183411 211.266739,181.269196 204.567200,185.575211 
	C209.141586,187.287064 210.005585,184.261551 211.350067,180.886459 
M161.476578,181.304916 
	C161.565491,180.484070 161.657684,179.663574 161.742630,178.842316 
	C161.914200,177.183456 161.946808,175.170456 164.129456,175.115784 
	C166.542786,175.055344 166.102814,177.238464 166.358627,178.798645 
	C166.549911,179.965195 165.957855,181.599426 167.954590,181.847702 
	C170.845367,174.251053 168.786682,172.141800 159.507828,173.523209 
	C159.880554,176.310059 157.248123,179.539291 161.476578,181.304916 
M130.109314,169.622467 
	C125.980972,170.787292 123.819366,173.446671 125.042717,177.695694 
	C126.175446,181.629959 129.218613,182.793625 133.406982,181.860886 
	C126.514717,177.900833 126.345512,175.990082 132.128922,170.034409 
	C131.631897,169.895645 131.160721,169.764099 130.109314,169.622467 
M152.992584,174.770721 
	C153.164322,177.217712 152.093506,179.904633 154.517395,182.498291 
	C156.292221,179.315582 155.476913,176.441208 154.851578,173.722198 
	C154.628662,172.752853 153.554932,173.263687 152.992584,174.770721 
z"/>
<path fill="#000000" opacity="1.000000" stroke="none" 
	d="
M112.984970,243.003586 
	C113.437904,240.665527 111.428131,238.606140 112.224281,236.235245 
	C112.267868,236.105453 112.458076,236.024902 112.583328,235.917145 
	C113.862022,235.733704 114.435524,236.598068 114.710930,237.575378 
	C118.166245,249.836533 127.429703,253.391235 138.813370,253.427689 
	C147.186310,253.454498 154.298828,256.390961 160.970428,261.266968 
	C172.904114,269.988831 178.031586,270.174713 190.346878,261.835663 
	C197.690964,256.862732 205.443604,254.630295 214.273880,254.725906 
	C227.852417,254.872971 232.446686,251.854843 237.191757,239.098999 
	C240.515213,230.164719 245.505508,222.969666 253.498184,217.710709 
	C259.463531,213.785675 263.879150,208.531219 265.383911,201.040817 
	C268.563873,207.385559 263.829773,211.387589 261.288116,216.016113 
	C265.278259,213.161118 267.671234,209.401993 268.545715,204.660980 
	C268.857208,202.972183 268.554199,200.551315 271.378387,200.941681 
	C274.115234,201.319946 273.203064,203.708740 273.303589,205.356491 
	C273.722778,212.228958 269.699188,216.917191 265.091888,221.158020 
	C262.651093,223.404663 259.921661,225.366760 257.181610,227.252563 
	C252.914917,230.189026 250.062119,234.095642 248.053314,238.838409 
	C245.928543,243.854980 243.701096,248.863586 241.046280,253.611649 
	C237.237518,260.423492 230.822891,263.386169 223.322845,264.164215 
	C219.189148,264.593048 215.024185,264.927307 210.873077,264.929993 
	C205.475586,264.933472 200.870270,266.797394 196.421844,269.687531 
	C190.852829,273.305695 185.285645,277.125793 178.541763,278.248291 
	C172.844803,279.196564 167.378113,277.795288 162.961578,274.325195 
	C152.756439,266.306885 141.359909,262.850159 128.433792,262.068359 
	C116.477562,261.345184 108.777939,253.447617 105.983345,241.830475 
	C105.630257,240.362671 105.105347,238.731842 107.107658,238.062302 
	C108.606880,237.561005 110.130241,237.693787 111.046257,239.273911 
	C111.629372,240.279816 112.085670,241.359207 112.890274,243.043915 
	C117.392174,254.787155 122.697456,257.583618 137.582672,256.544098 
	C123.331978,255.434570 123.026360,255.266327 112.984970,243.003586 
M239.526505,242.485901 
	C235.697540,252.317520 228.650040,257.689301 217.976074,258.014923 
	C214.488831,258.121338 210.997742,258.129944 207.513016,258.285889 
	C202.113144,258.527527 197.220047,260.685883 193.742004,264.434845 
	C201.404724,259.013123 210.151443,258.740204 219.030411,258.708008 
	C230.601654,258.666046 237.065155,253.379196 240.467728,241.496292 
	C243.628448,234.205200 246.719620,226.868271 253.787430,222.151321 
	C245.523117,226.322495 242.187805,233.776428 239.526505,242.485901 
M177.117691,272.579956 
	C180.856934,271.679810 184.486694,270.542664 187.455048,267.886414 
	C181.817291,270.417999 176.168396,272.576141 169.761200,270.555542 
	C171.793915,272.352295 173.978851,272.846741 177.117691,272.579956 
z"/>
<path fill="#000000" opacity="1.000000" stroke="none" 
	d="
M156.000793,91.001320 
	C159.693222,90.166695 162.529938,87.725998 165.597397,85.767960 
	C174.483139,80.095985 183.281860,79.965065 191.536530,86.632378 
	C200.238190,93.660728 209.970230,96.746254 221.087830,96.772636 
	C229.790314,96.793297 236.432648,100.790352 239.796341,109.235962 
	C240.090424,109.974350 240.159592,110.819557 240.217377,111.623482 
	C240.233109,111.842377 239.826019,112.091675 239.560745,112.384735 
	C237.344604,112.378555 237.179626,110.358147 236.494949,109.009926 
	C233.309143,102.736603 228.054413,99.565727 221.236694,99.429436 
	C209.413635,99.193077 198.660278,96.437920 189.283051,88.728775 
	C182.261703,82.956421 174.446335,82.928375 167.158966,88.285873 
	C157.903259,95.090446 147.870346,98.093803 136.320007,97.563423 
	C128.068680,97.184525 121.485458,100.902702 118.385666,109.236725 
	C117.689896,111.107361 116.740852,112.886703 116.091370,114.771141 
	C113.459549,122.407234 109.002205,128.554993 102.310898,133.252426 
	C96.423798,137.385300 91.036781,141.948608 89.706879,149.865051 
	C89.029640,153.896408 85.008461,151.799667 82.503319,152.195465 
	C79.977203,152.594604 79.748901,150.529312 79.653160,148.552628 
	C79.409767,143.527420 81.901306,139.601196 84.720245,135.842468 
	C86.937523,132.886002 89.779182,130.511459 92.812546,128.453201 
	C100.082077,123.520561 104.980446,117.058777 108.104782,108.708221 
	C111.640167,99.259018 116.529945,90.404419 128.225204,89.012863 
	C132.513397,88.502625 136.841751,88.057625 141.151138,88.063522 
	C147.200470,88.071808 152.551102,86.486778 157.544647,83.023125 
	C162.465530,79.609871 167.565079,76.311951 173.547058,75.036858 
	C180.269943,73.603844 186.758575,74.964401 192.014313,79.141846 
	C201.683136,86.826973 212.530624,89.877563 224.708649,90.760445 
	C238.049423,91.727623 245.687714,99.818825 248.213043,113.503998 
	C245.146729,115.316650 242.792084,114.683586 241.917252,111.140411 
	C238.809052,98.551735 229.628113,95.453003 218.184906,95.266006 
	C209.713821,95.127586 201.661011,93.223030 194.988663,87.512886 
	C183.875748,78.002541 172.693573,77.529335 161.326752,87.077339 
	C159.807663,88.353363 158.052582,89.348427 155.830429,90.787766 
	C148.669357,93.247169 141.876160,93.446716 135.032608,93.385628 
	C125.828079,93.303452 118.773094,97.018463 115.427620,105.885315 
	C111.615913,115.987839 107.008232,125.426826 97.675842,132.105743 
	C91.444656,136.439865 85.963058,140.954269 85.990852,149.189011 
	C87.290596,141.555115 93.267899,137.216782 98.334351,131.908752 
	C106.173164,128.091644 110.069542,121.585060 113.038849,114.062294 
	C119.475655,97.754585 123.885757,94.907394 141.433365,94.705986 
	C143.097580,94.686882 144.768829,94.732239 146.424118,94.594833 
	C149.942322,94.302795 153.334457,93.598106 156.000793,91.001320 
z"/>
<path fill="#000000" opacity="1.000000" stroke="none" 
	d="
M141.044037,110.973755 
	C137.452393,111.910233 134.509796,113.979012 131.261459,116.759415 
	C130.190399,117.808815 129.579666,118.416237 128.968918,119.023651 
	C124.491356,121.206581 123.245827,125.445229 122.129372,129.816086 
	C123.556465,131.503174 124.651482,128.454514 126.026382,129.506805 
	C127.337440,130.689697 125.206253,131.946030 125.971100,133.111969 
	C127.809486,133.759903 128.655670,130.759857 130.532013,132.078949 
	C129.271927,137.871063 127.101067,138.816498 122.848602,135.498978 
	C121.170708,134.189987 119.837570,132.365540 117.620293,131.727554 
	C110.381706,136.761871 110.488365,147.062454 103.498611,152.151199 
	C106.685532,129.347214 133.564056,100.927261 168.669266,97.822876 
	C214.601212,93.761070 244.705582,126.324051 250.626328,151.524948 
	C247.667603,153.212036 246.893036,150.950272 246.094101,148.947449 
	C244.176224,144.139664 241.824417,139.552277 239.114624,135.154419 
	C238.168243,133.618546 236.949524,132.250473 235.638489,130.519745 
	C232.069305,133.485016 228.638184,136.322617 222.589157,134.193222 
	C227.987518,132.552536 224.219940,125.690491 230.518234,125.216934 
	C228.275238,121.591438 225.546814,119.286858 222.294754,117.097267 
	C221.991989,117.004135 222.026337,117.039734 222.026337,117.039734 
	C202.047333,98.914757 163.261780,95.766785 141.204773,110.748291 
	C141.009323,111.000755 141.044037,110.973755 141.044037,110.973755 
z"/>
<path fill="#000000" opacity="1.000000" stroke="none" 
	d="
M243.996094,217.898438 
	C226.689484,246.012589 193.073151,260.620209 161.645126,253.909637 
	C133.572845,247.915588 106.607216,223.700180 103.374321,201.391754 
	C107.038155,199.964310 107.391273,203.070526 108.280899,205.107819 
	C116.670792,224.321411 130.352921,238.196777 149.875168,245.999969 
	C187.209427,260.922760 230.393982,242.637177 245.848419,205.542816 
	C246.748520,203.382324 246.945801,200.007217 251.621246,201.271042 
	C250.126617,207.366638 247.016876,212.419327 243.996094,217.898438 
z"/>
<path fill="#000000" opacity="1.000000" stroke="none" 
	d="
M302.480988,162.436569 
	C305.566681,165.102615 304.604492,168.301910 303.769714,170.934280 
	C300.762665,180.416473 300.579071,189.619629 303.807068,199.181015 
	C305.852020,205.238281 304.478607,206.367813 297.968994,206.379837 
	C291.652924,206.391510 285.336761,206.365372 279.020660,206.360977 
	C276.701813,206.359360 274.646240,206.175430 274.767975,202.970840 
	C274.892883,199.682785 276.937592,199.229736 279.527710,199.439194 
	C287.300415,200.067810 288.016388,199.428558 288.036469,191.579788 
	C288.056396,183.785797 288.233551,175.985321 287.971741,168.200119 
	C287.817535,163.614349 289.677460,161.803314 294.087219,162.071564 
	C296.736786,162.232727 299.396301,162.229904 302.480988,162.436569 
z"/>
<path fill="#000000" opacity="1.000000" stroke="none" 
	d="
M64.062370,170.135468 
	C64.077156,178.277969 64.241608,185.940521 64.057854,193.594727 
	C63.954830,197.886108 65.479721,199.822952 69.899239,199.281281 
	C71.355309,199.102829 72.904358,199.251144 74.352768,199.540726 
	C76.662094,200.002472 76.820763,201.993469 76.896378,203.840118 
	C76.963417,205.477219 75.937103,206.278564 74.383476,206.282745 
	C65.436859,206.306885 56.490150,206.294510 46.170780,206.294510 
	C51.811497,191.649902 52.798244,177.655579 46.110828,163.416687 
	C51.824158,161.706161 56.796932,161.573471 61.613018,162.507492 
	C65.688766,163.297928 63.513458,167.144958 64.062370,170.135468 
z"/>
<path fill="#000000" opacity="1.000000" stroke="none" 
	d="
M189.155426,225.282104 
	C202.190720,221.840454 211.951248,214.510071 219.305832,203.813721 
	C220.378448,202.253708 221.133499,200.021851 223.831055,201.209229 
	C220.872421,213.022812 201.776688,230.370270 177.545090,230.664764 
	C155.337128,230.934692 134.950150,215.487671 130.361694,201.312256 
	C133.572327,199.963318 134.303879,202.676483 135.535278,204.446487 
	C146.044846,219.552765 160.609680,226.855011 178.892487,226.751343 
	C182.184174,226.732697 185.471085,225.871811 189.155426,225.282104 
z"/>
<path fill="#000000" opacity="1.000000" stroke="none" 
	d="
M148.400543,134.383682 
	C140.584579,138.773331 137.098694,147.335999 130.119049,152.105728 
	C133.373856,138.973007 152.840225,121.942833 177.150848,122.231415 
	C199.968506,122.502274 219.440140,137.936813 223.582031,151.826431 
	C220.362762,152.780151 219.683411,150.039612 218.489563,148.324142 
	C208.033585,133.299622 193.700775,125.394821 175.382111,125.469986 
	C165.692368,125.509735 156.772552,128.764969 148.400543,134.383682 
z"/>
<path fill="#000000" opacity="1.000000" stroke="none" 
	d="
M101.011223,221.009308 
	C102.914581,223.569412 104.060165,226.475922 106.673241,228.783813 
	C110.185173,231.885590 109.325310,234.331604 104.604355,237.049774 
	C101.926468,227.948532 93.914146,223.545853 87.618141,217.563141 
	C84.198318,214.313492 81.439812,210.554321 80.037270,206.033737 
	C79.501587,204.307129 78.722847,201.823853 81.403061,200.955109 
	C83.877464,200.153076 84.882721,201.772842 85.475037,204.030334 
	C86.152557,206.612595 87.371262,208.993652 90.002930,211.195908 
	C93.994942,214.763031 97.503082,217.886169 101.011223,221.009308 
z"/>
<path fill="#000000" opacity="1.000000" stroke="none" 
	d="
M252.163986,131.128296 
	C250.939438,129.597610 251.157318,127.750389 251.160019,125.642654 
	C247.336578,126.175072 246.370346,123.436638 245.406082,120.719101 
	C244.443176,118.005409 246.474136,116.923294 248.156250,115.359810 
	C251.573624,117.854248 251.497360,122.348991 254.489532,124.865807 
	C258.809967,128.499878 263.032379,132.267853 267.087372,136.194794 
	C270.458496,139.459427 273.461578,143.090973 273.280701,148.228165 
	C273.226929,149.754898 273.856049,151.837662 271.332642,152.087234 
	C269.291870,152.289078 269.092926,150.654999 268.635254,149.185120 
	C267.047363,144.085312 263.990662,140.051407 259.011230,136.727081 
	C256.388306,134.609863 254.276154,132.869080 252.163986,131.128296 
z"/>
<path fill="#000000" opacity="1.000000" stroke="none" 
	d="
M101.332375,221.110199 
	C97.503082,217.886169 93.994942,214.763031 90.293266,211.393707 
	C89.409256,207.876602 86.238762,205.294327 87.141068,201.664993 
	C88.367722,200.966690 89.137238,201.431152 89.418884,202.222534 
	C91.710213,208.660934 96.949776,212.538910 101.846214,216.726746 
	C105.245544,219.634094 108.739464,222.490784 110.656418,226.677628 
	C111.357918,228.209778 112.797874,229.766785 111.028694,232.222610 
	C107.177597,229.058090 106.369522,223.317596 101.332375,221.110199 
z"/>
<path fill="#000000" opacity="1.000000" stroke="none" 
	d="
M251.831543,131.001190 
	C254.276154,132.869080 256.388306,134.609863 258.688477,136.593781 
	C261.219055,140.034027 264.405090,142.619766 265.912811,146.417725 
	C266.603851,148.158401 268.055084,149.917267 266.114441,151.926743 
	C265.656311,151.768555 264.908386,151.711472 264.832031,151.454697 
	C262.554840,143.796555 256.351196,139.452881 250.774170,134.537598 
	C246.751999,130.992676 242.551315,127.460587 241.875183,120.115669 
	C246.616608,123.428894 247.299545,128.838470 251.831543,131.001190 
z"/>
<path fill="#000000" opacity="1.000000" stroke="none" 
	d="
M221.972900,116.988403 
	C224.462906,121.518303 220.825958,124.332260 218.771347,127.430260 
	C217.903717,128.738495 216.024460,128.183746 214.639587,127.401863 
	C213.077850,126.520142 212.087982,125.227654 212.245636,123.373085 
	C212.536423,119.952263 217.858673,116.144485 221.679688,116.920380 
	C222.026337,117.039734 221.991989,117.004135 221.972900,116.988403 
z"/>
<path fill="#000000" opacity="1.000000" stroke="none" 
	d="
M196.893997,241.687653 
	C194.783432,241.222366 193.068344,242.894211 190.926758,241.657425 
	C190.926758,239.477539 190.926758,237.088913 190.926758,234.682602 
	C200.170151,231.483185 201.713455,232.249344 202.262543,240.501205 
	C200.604538,240.888824 198.914917,241.283844 196.893997,241.687653 
z"/>
<path fill="#000000" opacity="1.000000" stroke="none" 
	d="
M160.244232,104.677643 
	C164.360641,104.649620 166.529388,106.666000 167.114304,110.209000 
	C167.658295,113.504036 165.746582,115.446259 162.904755,116.746170 
	C159.682724,118.219971 157.807159,117.666023 156.673813,113.925354 
	C154.403458,106.431786 154.225937,106.485573 160.244232,104.677643 
M163.744354,110.613258 
	C163.134186,108.129196 161.801971,106.994286 158.834549,108.029930 
	C159.244492,110.418983 158.925949,112.773987 161.276093,114.110001 
	C162.957916,113.773705 163.598785,112.731537 163.744354,110.613258 
z"/>
<path fill="#000000" opacity="1.000000" stroke="none" 
	d="
M179.009247,211.396149 
	C179.536407,212.736435 181.028549,213.134048 180.842560,214.875534 
	C178.519119,215.205353 176.301224,216.043793 175.250473,219.281937 
	C173.680283,216.609924 172.121872,214.979919 169.494339,214.829849 
	C170.236038,212.376129 172.833694,210.864929 171.466934,207.793045 
	C173.379852,210.930893 178.729568,204.609375 179.009247,211.396149 
z"/>
<path fill="#000000" opacity="1.000000" stroke="none" 
	d="
M203.045914,116.073288 
	C201.456924,113.198853 201.691483,110.984596 204.487854,109.552979 
	C206.321411,108.614273 208.180344,109.053513 209.394547,110.625931 
	C211.265488,113.048805 210.300415,115.396515 208.372375,117.226936 
	C206.656387,118.856056 204.866989,120.769440 202.094147,120.092445 
	C201.358337,118.346008 203.555054,117.787354 203.045914,116.073288 
z"/>
<path fill="#000000" opacity="1.000000" stroke="none" 
	d="
M155.452942,239.617615 
	C154.401184,239.157120 153.147141,238.899734 153.548767,237.964737 
	C154.817169,235.011932 155.083557,231.594742 157.595078,228.666138 
	C159.470901,231.873962 163.786713,233.536621 161.657639,238.117905 
	C160.374832,240.878235 158.170593,240.765518 155.452942,239.617615 
z"/>
<path fill="#000000" opacity="1.000000" stroke="none" 
	d="
M150.813309,146.472961 
	C147.527191,141.278229 154.515182,142.351044 154.161743,138.636719 
	C156.485962,140.629379 157.413269,143.079010 160.339142,142.956680 
	C159.397842,145.326630 157.886429,147.043213 158.153275,149.656891 
	C156.448563,146.357788 151.559402,152.750137 150.813309,146.472961 
z"/>
<path fill="#000000" opacity="1.000000" stroke="none" 
	d="
M193.303177,202.442902 
	C195.377243,203.730774 197.083694,202.158508 199.028641,202.317230 
	C199.378433,204.412689 199.398407,206.581818 200.927414,208.465851 
	C198.861832,209.527786 196.978897,210.484543 196.184586,213.077805 
	C194.044357,211.119110 192.851028,209.017471 190.172577,208.774658 
	C191.215897,206.405991 192.098785,204.401550 193.303177,202.442902 
z"/>
<path fill="#000000" opacity="1.000000" stroke="none" 
	d="
M191.243225,145.152496 
	C190.474014,141.459030 194.955246,142.056107 194.949799,139.117844 
	C197.608887,140.066635 197.448364,143.855621 201.312714,142.517609 
	C199.611725,145.313812 199.125214,147.341721 199.191574,149.799225 
	C196.910339,149.116608 194.870102,148.475113 192.964554,149.599503 
	C191.360245,148.446426 192.295197,146.628616 191.243225,145.152496 
z"/>
<path fill="#000000" opacity="1.000000" stroke="none" 
	d="
M154.848480,203.004517 
	C155.896133,202.692825 156.656265,202.417709 157.736313,202.026810 
	C158.614578,204.171509 158.149384,206.738342 160.576233,208.338745 
	C158.285217,209.652359 155.868393,210.148041 155.565536,213.173141 
	C153.003159,211.624344 152.314209,208.833176 149.040909,209.051147 
	C150.733154,206.724228 151.717484,204.762299 151.269440,202.206039 
	C152.679871,202.563858 153.620407,202.802475 154.848480,203.004517 
z"/>
<path fill="#000000" opacity="1.000000" stroke="none" 
	d="
M171.419296,140.410736 
	C170.762604,139.332703 170.217087,138.538712 169.506241,137.504059 
	C171.531708,136.454727 173.731995,136.048248 175.015656,133.634323 
	C176.558411,135.546555 178.224045,136.774078 180.577881,137.085281 
	C179.900391,139.490356 177.589355,141.041656 179.208633,143.909027 
	C176.218567,143.441818 174.103516,142.774994 172.261002,144.078644 
	C170.913254,143.011581 171.937820,141.728317 171.419296,140.410736 
z"/>
<path fill="#000000" opacity="1.000000" stroke="none" 
	d="
M134.275940,224.110992 
	C135.418167,222.551849 135.558624,220.609756 137.466507,220.131699 
	C141.854752,225.714890 141.727982,227.991928 136.828979,232.210602 
	C134.816299,231.283752 136.965240,229.502625 136.050339,228.294815 
	C134.794388,228.815140 134.045547,231.437912 132.487396,229.866409 
	C130.160599,227.519653 133.755753,226.324814 134.275940,224.110992 
z"/>
<path fill="#000000" opacity="1.000000" stroke="none" 
	d="
M217.424713,223.944427 
	C219.916077,222.021179 224.237198,222.665192 225.037598,225.044357 
	C225.597504,226.708725 226.887924,227.723663 227.968246,229.411926 
	C225.981842,230.394058 224.786255,232.236465 222.183014,232.733841 
	C220.636002,229.948242 219.060333,227.111008 217.424713,223.944427 
z"/>
<path fill="#000000" opacity="1.000000" stroke="none" 
	d="
M129.012665,119.407661 
	C129.579666,118.416237 130.190399,117.808815 131.040070,116.974670 
	C132.380371,116.910858 133.625427,116.413300 134.484772,117.389801 
	C135.407639,119.052315 132.687729,119.306152 133.342194,121.002853 
	C136.263519,120.694656 139.897705,120.083954 140.068008,124.386696 
	C140.197403,127.656197 137.811295,129.062469 134.574127,128.648438 
	C133.882858,126.479378 136.794312,126.476837 136.280518,124.305328 
	C133.172485,124.230553 129.100357,125.002350 129.012665,119.407661 
z"/>
<path fill="#000000" opacity="1.000000" stroke="none" 
	d="
M140.993774,111.016251 
	C143.562469,110.948723 145.455307,108.066956 148.848160,109.257339 
	C145.143112,113.507156 150.712753,116.579208 150.179626,120.376610 
	C148.509903,121.516129 147.808945,120.448257 147.164429,119.503799 
	C145.491959,117.053024 144.892456,113.535095 140.701233,113.715141 
	C139.995926,113.745445 140.466492,112.311600 140.913116,111.270538 
	C141.044037,110.973755 141.009323,111.000755 140.993774,111.016251 
z"/>
<path fill="#000000" opacity="1.000000" stroke="none" 
	d="
M133.950073,221.095840 
	C130.994919,220.166168 129.738953,221.941605 128.618500,223.834396 
	C127.389580,225.910446 126.118065,226.343750 124.493675,224.109161 
	C124.768379,222.174942 126.459435,221.163345 127.607208,219.915482 
	C129.059433,218.336609 127.194214,216.733322 128.428696,214.654617 
	C131.319107,215.930298 134.684418,216.404556 133.950073,221.095840 
z"/>
<path fill="#000000" opacity="1.000000" stroke="none" 
	d="
M190.309692,109.305420 
	C188.526382,104.658630 192.421753,106.424332 194.027649,104.326141 
	C195.244232,109.259338 193.349442,112.979149 194.717773,116.572243 
	C192.481644,117.606453 190.689056,117.695892 188.815125,116.002853 
	C190.025177,114.003067 192.026520,112.139565 190.309692,109.305420 
z"/>
<path fill="#000000" opacity="1.000000" stroke="none" 
	d="
M168.855743,239.403717 
	C168.661209,240.294128 168.967926,241.540283 168.634262,241.745544 
	C167.072128,242.706665 165.384979,242.453903 164.249268,241.003815 
	C162.538513,238.819519 163.084885,236.620712 164.973862,234.871628 
	C166.489639,233.468094 168.396820,233.429398 169.802444,234.995483 
	C171.165909,236.514603 171.547134,238.242004 168.855743,239.403717 
z"/>
<path fill="#000000" opacity="1.000000" stroke="none" 
	d="
M210.390213,232.643799 
	C211.216110,234.950668 212.676651,237.011078 209.437668,238.255737 
	C207.693985,238.925797 205.926849,239.216064 205.220413,237.248154 
	C204.523209,235.305893 203.721252,232.800919 205.396408,231.141098 
	C207.127548,229.425797 209.060165,230.138702 210.390213,232.643799 
z"/>
<path fill="#000000" opacity="1.000000" stroke="none" 
	d="
M146.166565,234.300049 
	C144.406555,237.759338 142.811996,235.382980 142.086578,233.896927 
	C140.972351,231.614349 141.706619,229.190460 143.981216,227.848236 
	C145.831512,226.756378 147.649948,227.384964 148.420212,229.486816 
	C149.216568,231.659836 148.487518,233.072235 145.904312,232.989868 
	C145.745499,232.984802 145.584869,233.036041 145.425095,233.061096 
	C145.627853,233.400543 145.830612,233.739990 146.166565,234.300049 
z"/>
<path fill="#000000" opacity="1.000000" stroke="none" 
	d="
M172.407166,240.229431 
	C172.331406,236.793732 172.347748,233.856812 177.507874,235.160645 
	C175.827438,237.588013 180.389328,240.790329 176.075836,242.670395 
	C174.313660,243.438461 172.436783,243.159561 172.407166,240.229431 
z"/>
<path fill="#000000" opacity="1.000000" stroke="none" 
	d="
M179.532257,236.110809 
	C179.917877,234.634201 180.385025,233.425369 181.900925,233.881607 
	C183.149719,234.257446 183.569611,235.332428 183.461975,236.662399 
	C183.304688,238.605560 183.259705,240.557816 183.166565,242.512405 
	C179.677887,242.063324 179.677887,242.063324 179.532257,236.110809 
z"/>
<path fill="#000000" opacity="1.000000" stroke="none" 
	d="
M212.652969,229.782440 
	C213.327988,227.044189 215.069550,226.767838 217.358994,227.142487 
	C217.957748,229.274155 215.510635,231.242783 217.295288,233.307968 
	C218.002991,234.126892 217.588623,235.256180 216.424271,235.682083 
	C215.201157,236.129456 214.576416,235.352341 214.202133,234.339966 
	C213.686539,232.945404 213.225586,231.530655 212.652969,229.782440 
z"/>
</svg>